<svg id="Layer_1" data-name="Layer 1" xmlns="http://www.w3.org/2000/svg" viewBox="0 0 614.75 94.51"><title>csc_logo</title><path d="M153.59,44h-6.17l-.73,1.7a3.78,3.78,0,0,0-.36,1.4,1.17,1.17,0,0,0,.59,1.08,5,5,0,0,0,1.71.31V49h-5.81V48.5a2.61,2.61,0,0,0,1.55-.77,10.53,10.53,0,0,0,1.5-2.64l6.25-13.95h.24l6.3,14.33A8.72,8.72,0,0,0,160.14,48a2,2,0,0,0,1.24.46V49h-8.46V48.5h.35a2.65,2.65,0,0,0,1.43-.28.69.69,0,0,0,.28-.59,1.58,1.58,0,0,0-.08-.48q0-.12-.39-1Zm-.44-1-2.6-6-2.68,6Z" transform="translate(-2 -2)" style="fill:#231f20;fill-rule:evenodd"/><path d="M172.09,36.92v9.44a3.51,3.51,0,0,0,.26,1.73,1.5,1.5,0,0,0,1,.43V49h-4.91V47.36a6.31,6.31,0,0,1-1.73,1.51,4,4,0,0,1-1.93.46,2.89,2.89,0,0,1-1.82-.62,3.1,3.1,0,0,1-1.06-1.47,10.79,10.79,0,0,1-.27-2.93V39.54a3.39,3.39,0,0,0-.26-1.7,1.5,1.5,0,0,0-1-.44v-.48h4.91v8.24a7.19,7.19,0,0,0,.12,1.66,1.15,1.15,0,0,0,.39.57,1,1,0,0,0,.62.19,1.49,1.49,0,0,0,.84-.25A5.31,5.31,0,0,0,168.48,46V39.54a3.39,3.39,0,0,0-.26-1.7,1.5,1.5,0,0,0-1-.44v-.48Z" transform="translate(-2 -2)" style="fill:#231f20"/><path d="M181.83,36.59,182,40.7h-.44a6.42,6.42,0,0,0-1.64-2.5,2.69,2.69,0,0,0-1.68-.67,1.25,1.25,0,0,0-.9.36,1.08,1.08,0,0,0-.37.81,1.06,1.06,0,0,0,.26.67,12.44,12.44,0,0,0,2.31,1.82A9.25,9.25,0,0,1,182,43.37a3.47,3.47,0,0,1,.61,2,4.23,4.23,0,0,1-.5,2,3.53,3.53,0,0,1-1.42,1.48,4.06,4.06,0,0,1-2,.52,7,7,0,0,1-2.31-.54,1.94,1.94,0,0,0-.53-.14q-.43,0-.71.64h-.43L174.53,45H175a5.64,5.64,0,0,0,1.59,2.55,3.08,3.08,0,0,0,1.92.85,1.39,1.39,0,0,0,1-.37,1.25,1.25,0,0,0,.4-.93,1.59,1.59,0,0,0-.39-1.07,10.12,10.12,0,0,0-1.73-1.37,13.53,13.53,0,0,1-2.55-2.09,3.63,3.63,0,0,1-.85-2.33,3.78,3.78,0,0,1,1-2.51,3.46,3.46,0,0,1,2.78-1.13A4.05,4.05,0,0,1,180,37a1.26,1.26,0,0,0,.57.19.69.69,0,0,0,.37-.09,2.67,2.67,0,0,0,.45-.55Z" transform="translate(-2 -2)" style="fill:#231f20"/><path d="M188.21,32.51v4.41h2.86V38.2h-2.86v7.44A6.15,6.15,0,0,0,188.3,47a1,1,0,0,0,.35.49.78.78,0,0,0,.45.18q.84,0,1.59-1.28l.39.28a3.52,3.52,0,0,1-3.39,2.47,3,3,0,0,1-1.95-.63,2.86,2.86,0,0,1-1-1.43,12.12,12.12,0,0,1-.13-2.37V38.2H183v-.45a16.41,16.41,0,0,0,2.76-2.41,14.54,14.54,0,0,0,2-2.82Z" transform="translate(-2 -2)" style="fill:#231f20"/><path d="M197,36.92v2.73a8.71,8.71,0,0,1,2.1-2.48,3.09,3.09,0,0,1,1.74-.62,1.5,1.5,0,0,1,1.15.45,1.69,1.69,0,0,1,.44,1.25A2,2,0,0,1,202,39.6a1.28,1.28,0,0,1-1,.48,1.75,1.75,0,0,1-1.19-.44,7.35,7.35,0,0,0-.59-.49.57.57,0,0,0-.3-.08,1.08,1.08,0,0,0-.71.28,2.68,2.68,0,0,0-.8,1.25,8.76,8.76,0,0,0-.41,2.76v3.49a3,3,0,0,0,.09.94,1.07,1.07,0,0,0,.45.52,2.83,2.83,0,0,0,1,.19V49H192v-.46a1.41,1.41,0,0,0,1.06-.43,4,4,0,0,0,.28-1.95V39.47a5,5,0,0,0-.1-1.31,1,1,0,0,0-.37-.53,2,2,0,0,0-.86-.23v-.48Z" transform="translate(-2 -2)" style="fill:#231f20"/><path d="M209,47.19a6.36,6.36,0,0,1-4,1.95,2.35,2.35,0,0,1-1.71-.67,2.31,2.31,0,0,1-.68-1.7,3.3,3.3,0,0,1,1.19-2.48A22.24,22.24,0,0,1,209,41.36V40.14a5.56,5.56,0,0,0-.15-1.71,1.31,1.31,0,0,0-.55-.62,1.65,1.65,0,0,0-.93-.27,2.38,2.38,0,0,0-1.38.37.66.66,0,0,0-.34.54,1.12,1.12,0,0,0,.36.67,1.65,1.65,0,0,1,.49,1.07,1.44,1.44,0,0,1-.48,1.08,1.71,1.71,0,0,1-1.22.44,2,2,0,0,1-1.37-.49,1.5,1.5,0,0,1-.54-1.15,2.65,2.65,0,0,1,.73-1.77,4.62,4.62,0,0,1,2-1.3,8.38,8.38,0,0,1,2.73-.45,4.46,4.46,0,0,1,2.71.73,3.37,3.37,0,0,1,1.3,1.57,10.28,10.28,0,0,1,.18,2.49V46a4.94,4.94,0,0,0,.06,1,.61.61,0,0,0,.19.31.46.46,0,0,0,.3.1q.33,0,.68-.48l.39.31a4.74,4.74,0,0,1-1.34,1.39,2.89,2.89,0,0,1-1.56.43,2.47,2.47,0,0,1-1.61-.48A2.21,2.21,0,0,1,209,47.19Zm0-.94v-4a7.52,7.52,0,0,0-2.32,2,2.39,2.39,0,0,0-.5,1.41,1.48,1.48,0,0,0,.43,1,1.17,1.17,0,0,0,.9.35A2.48,2.48,0,0,0,209,46.25Z" transform="translate(-2 -2)" style="fill:#231f20;fill-rule:evenodd"/><path d="M219.48,31.49v15a2.91,2.91,0,0,0,.3,1.64,1.63,1.63,0,0,0,1.16.4V49h-6.51v-.46a1.57,1.57,0,0,0,1.19-.46,2.88,2.88,0,0,0,.26-1.57V34a2.81,2.81,0,0,0-.3-1.61,1.57,1.57,0,0,0-1.15-.41v-.48Z" transform="translate(-2 -2)" style="fill:#231f20"/><path d="M225,31.08a2,2,0,1,1-1.41.59A1.91,1.91,0,0,1,225,31.08Zm1.8,5.84v9.55a2.91,2.91,0,0,0,.3,1.64,1.63,1.63,0,0,0,1.16.4V49h-6.51v-.46a1.57,1.57,0,0,0,1.19-.46,2.88,2.88,0,0,0,.26-1.57v-7a2.84,2.84,0,0,0-.3-1.62,1.57,1.57,0,0,0-1.15-.41v-.48Z" transform="translate(-2 -2)" style="fill:#231f20;fill-rule:evenodd"/><path d="M235.29,47.19a6.36,6.36,0,0,1-4,1.95,2.35,2.35,0,0,1-1.71-.67,2.31,2.31,0,0,1-.68-1.7,3.3,3.3,0,0,1,1.19-2.48,22.24,22.24,0,0,1,5.17-2.94V40.14a5.55,5.55,0,0,0-.15-1.71,1.31,1.31,0,0,0-.55-.62,1.65,1.65,0,0,0-.93-.27,2.38,2.38,0,0,0-1.38.37.66.66,0,0,0-.34.54,1.12,1.12,0,0,0,.36.67,1.66,1.66,0,0,1,.49,1.07,1.44,1.44,0,0,1-.48,1.08,1.71,1.71,0,0,1-1.22.44,2,2,0,0,1-1.37-.49,1.5,1.5,0,0,1-.54-1.15,2.65,2.65,0,0,1,.73-1.77,4.62,4.62,0,0,1,2-1.3,8.37,8.37,0,0,1,2.73-.45,4.46,4.46,0,0,1,2.71.73,3.37,3.37,0,0,1,1.3,1.57,10.27,10.27,0,0,1,.18,2.49V46a5,5,0,0,0,.06,1,.62.62,0,0,0,.19.31.46.46,0,0,0,.3.1q.33,0,.68-.48l.39.31a4.74,4.74,0,0,1-1.34,1.39,2.89,2.89,0,0,1-1.56.43,2.47,2.47,0,0,1-1.61-.48A2.21,2.21,0,0,1,235.29,47.19Zm0-.94v-4a7.52,7.52,0,0,0-2.32,2,2.38,2.38,0,0,0-.5,1.41,1.47,1.47,0,0,0,.43,1,1.17,1.17,0,0,0,.9.35A2.48,2.48,0,0,0,235.29,46.25Z" transform="translate(-2 -2)" style="fill:#231f20;fill-rule:evenodd"/><path d="M245.71,36.92v1.56A7,7,0,0,1,247.49,37a3.76,3.76,0,0,1,1.83-.46,2.9,2.9,0,0,1,1.95.66,3.09,3.09,0,0,1,1,1.61,12.52,12.52,0,0,1,.21,2.82v4.69a3.71,3.71,0,0,0,.24,1.74,1.52,1.52,0,0,0,1.06.43V49h-6.1v-.46a1.27,1.27,0,0,0,1-.57,3.71,3.71,0,0,0,.21-1.6V41a8.79,8.79,0,0,0-.12-1.87,1.1,1.1,0,0,0-.4-.59.94.94,0,0,0-.61-.22q-1.11,0-2.06,1.59v6.46a3.68,3.68,0,0,0,.24,1.71,1.31,1.31,0,0,0,.94.45V49h-6.1v-.46a1.5,1.5,0,0,0,1.08-.49,3.62,3.62,0,0,0,.22-1.68V39.54a3.38,3.38,0,0,0-.26-1.7,1.5,1.5,0,0,0-1-.44v-.48Z" transform="translate(-2 -2)" style="fill:#231f20"/><path d="M277.54,31.09v6.16h-.48a7.86,7.86,0,0,0-2.59-3.84,6.1,6.1,0,0,0-3.78-1.31,4.86,4.86,0,0,0-3.26,1.11,5.93,5.93,0,0,0-1.84,3.07,15.23,15.23,0,0,0-.54,4,14.79,14.79,0,0,0,.59,4.41,5,5,0,0,0,1.91,2.78,5.52,5.52,0,0,0,3.15.89,6.66,6.66,0,0,0,1.29-.13,9.74,9.74,0,0,0,1.37-.4V44.24a3.81,3.81,0,0,0-.14-1.33,1.29,1.29,0,0,0-.59-.55,2.17,2.17,0,0,0-1.07-.25h-.45v-.48h8.49v.48a3.66,3.66,0,0,0-1.35.27,1.29,1.29,0,0,0-.58.66,3.65,3.65,0,0,0-.12,1.2v3.64A16.88,16.88,0,0,1,274,49a17.86,17.86,0,0,1-3.75.39,11.06,11.06,0,0,1-4.14-.67,10.63,10.63,0,0,1-2.9-1.78,8.52,8.52,0,0,1-2-2.49,8.67,8.67,0,0,1-.9-4,9,9,0,0,1,2.77-6.66,9.55,9.55,0,0,1,7-2.72,12.19,12.19,0,0,1,2.35.21,11.68,11.68,0,0,1,1.83.59,7.79,7.79,0,0,0,1.51.48,1,1,0,0,0,.67-.26,2.41,2.41,0,0,0,.57-1Z" transform="translate(-2 -2)" style="fill:#231f20"/><path d="M285.91,36.56a5.59,5.59,0,0,1,2.93.81,5.16,5.16,0,0,1,2,2.31,7.56,7.56,0,0,1,.71,3.27,6.93,6.93,0,0,1-1.3,4.29,5.14,5.14,0,0,1-4.34,2.09,5,5,0,0,1-4.19-1.91A7,7,0,0,1,280.29,43a7.13,7.13,0,0,1,1.5-4.51A5,5,0,0,1,285.91,36.56Zm.05.92a1.51,1.51,0,0,0-1.13.5,3.51,3.51,0,0,0-.62,2q-.14,1.46-.14,4.06a17.29,17.29,0,0,0,.18,2.58,2.48,2.48,0,0,0,.61,1.39,1.44,1.44,0,0,0,1.06.48,1.46,1.46,0,0,0,1-.32,2.16,2.16,0,0,0,.67-1.22,29.82,29.82,0,0,0,.26-5,12.15,12.15,0,0,0-.24-3,2.31,2.31,0,0,0-.72-1.2A1.35,1.35,0,0,0,286,37.47Z" transform="translate(-2 -2)" style="fill:#231f20;fill-rule:evenodd"/><path d="M297.28,49.33,293.22,40a9.22,9.22,0,0,0-1.15-2.14,1.53,1.53,0,0,0-.88-.45v-.48h6.41v.48a1.17,1.17,0,0,0-.82.22.88.88,0,0,0-.31.67,5.76,5.76,0,0,0,.57,1.79l2,4.52,1.59-3.91a7.56,7.56,0,0,0,.68-2.37.8.8,0,0,0-.3-.64,1.62,1.62,0,0,0-1-.28v-.48h3.94v.48a1.61,1.61,0,0,0-.93.43,7.86,7.86,0,0,0-1.08,2l-4,9.46Z" transform="translate(-2 -2)" style="fill:#231f20"/><path d="M313.4,42.52h-6.61a6.23,6.23,0,0,0,1.28,3.79,2.69,2.69,0,0,0,2.14,1.07,2.46,2.46,0,0,0,1.41-.43A5.55,5.55,0,0,0,313,45.39l.44.28a7.36,7.36,0,0,1-2.17,2.84,4.69,4.69,0,0,1-2.75.82,4.57,4.57,0,0,1-4.06-2.06,7.27,7.27,0,0,1-1.11-4.12,6.84,6.84,0,0,1,1.62-4.8,5,5,0,0,1,3.83-1.79,4.12,4.12,0,0,1,3.17,1.51A6.81,6.81,0,0,1,313.4,42.52Zm-3.17-.86A11.58,11.58,0,0,0,310,38.8a2.3,2.3,0,0,0-.7-1.17,1.07,1.07,0,0,0-.72-.23,1.27,1.27,0,0,0-1.1.66,5.64,5.64,0,0,0-.76,3.15v.45Z" transform="translate(-2 -2)" style="fill:#231f20;fill-rule:evenodd"/><path d="M319.12,36.92v2.73a8.71,8.71,0,0,1,2.1-2.48,3.09,3.09,0,0,1,1.74-.62,1.5,1.5,0,0,1,1.15.45,1.69,1.69,0,0,1,.44,1.25,1.94,1.94,0,0,1-.43,1.34,1.28,1.28,0,0,1-1,.48,1.75,1.75,0,0,1-1.19-.44,7.47,7.47,0,0,0-.59-.49.57.57,0,0,0-.3-.08,1.08,1.08,0,0,0-.71.28,2.68,2.68,0,0,0-.8,1.25,8.76,8.76,0,0,0-.41,2.76v3.49a3,3,0,0,0,.09.94,1.07,1.07,0,0,0,.45.52,2.83,2.83,0,0,0,1,.19V49H314.2v-.46a1.41,1.41,0,0,0,1.06-.43,4,4,0,0,0,.28-1.95V39.47a5,5,0,0,0-.1-1.31,1,1,0,0,0-.37-.53,2,2,0,0,0-.86-.23v-.48Z" transform="translate(-2 -2)" style="fill:#231f20"/><path d="M330.23,36.92v1.56A7,7,0,0,1,332,37a3.76,3.76,0,0,1,1.83-.46,2.9,2.9,0,0,1,1.95.66,3.09,3.09,0,0,1,1,1.61,12.49,12.49,0,0,1,.21,2.82v4.69a3.71,3.71,0,0,0,.25,1.74,1.52,1.52,0,0,0,1.06.43V49h-6.1v-.46a1.27,1.27,0,0,0,1-.57,3.7,3.7,0,0,0,.21-1.6V41a8.78,8.78,0,0,0-.12-1.87,1.1,1.1,0,0,0-.4-.59.94.94,0,0,0-.61-.22q-1.11,0-2.06,1.59v6.46a3.68,3.68,0,0,0,.24,1.71,1.3,1.3,0,0,0,.94.45V49h-6.1v-.46A1.5,1.5,0,0,0,326.4,48a3.62,3.62,0,0,0,.22-1.68V39.54a3.39,3.39,0,0,0-.26-1.7,1.5,1.5,0,0,0-1-.44v-.48Z" transform="translate(-2 -2)" style="fill:#231f20"/><path d="M344.2,36.92v1.59A6.84,6.84,0,0,1,346,37a4,4,0,0,1,1.86-.44,3.35,3.35,0,0,1,1.95.54A3.41,3.41,0,0,1,351,38.75a7.71,7.71,0,0,1,2-1.68,4.12,4.12,0,0,1,2-.52,3.12,3.12,0,0,1,2,.58,2.89,2.89,0,0,1,1,1.46,9.59,9.59,0,0,1,.3,2.81v4.94a3.62,3.62,0,0,0,.24,1.73,1.56,1.56,0,0,0,1.06.44V49h-6.23v-.46a1.38,1.38,0,0,0,1.08-.57,3.42,3.42,0,0,0,.23-1.6V41.16a9.64,9.64,0,0,0-.13-2,1.18,1.18,0,0,0-.41-.64,1,1,0,0,0-.64-.22,1.91,1.91,0,0,0-1.12.41,5.07,5.07,0,0,0-1.15,1.21v6.47a3.68,3.68,0,0,0,.22,1.64,1.33,1.33,0,0,0,1.13.53V49h-6.24v-.46a1.38,1.38,0,0,0,.79-.24,1.07,1.07,0,0,0,.39-.54,5.72,5.72,0,0,0,.1-1.38V41.16a9.39,9.39,0,0,0-.13-2,1.24,1.24,0,0,0-.44-.64,1,1,0,0,0-.64-.23,1.72,1.72,0,0,0-.94.27,5.26,5.26,0,0,0-1.29,1.37v6.47a3.79,3.79,0,0,0,.24,1.69,1.34,1.34,0,0,0,1.06.48V49h-6.21v-.46a1.5,1.5,0,0,0,1.08-.49,3.63,3.63,0,0,0,.22-1.68V39.54a3.39,3.39,0,0,0-.26-1.7,1.5,1.5,0,0,0-1-.44v-.48Z" transform="translate(-2 -2)" style="fill:#231f20"/><path d="M370.34,42.52h-6.61A6.23,6.23,0,0,0,365,46.31a2.69,2.69,0,0,0,2.14,1.07,2.46,2.46,0,0,0,1.41-.43,5.55,5.55,0,0,0,1.35-1.56l.44.28a7.36,7.36,0,0,1-2.17,2.84,4.69,4.69,0,0,1-2.75.82,4.57,4.57,0,0,1-4.06-2.06,7.27,7.27,0,0,1-1.11-4.12,6.84,6.84,0,0,1,1.62-4.8,5,5,0,0,1,3.83-1.79,4.11,4.11,0,0,1,3.17,1.51A6.81,6.81,0,0,1,370.34,42.52Zm-3.17-.86a11.58,11.58,0,0,0-.23-2.85,2.3,2.3,0,0,0-.7-1.17,1.07,1.07,0,0,0-.72-.23,1.27,1.27,0,0,0-1.1.66,5.64,5.64,0,0,0-.76,3.15v.45Z" transform="translate(-2 -2)" style="fill:#231f20;fill-rule:evenodd"/><path d="M375.72,36.92v1.56A7,7,0,0,1,377.5,37a3.76,3.76,0,0,1,1.83-.46,2.9,2.9,0,0,1,1.95.66,3.09,3.09,0,0,1,1,1.61,12.52,12.52,0,0,1,.21,2.82v4.69a3.71,3.71,0,0,0,.24,1.74,1.52,1.52,0,0,0,1.06.43V49h-6.1v-.46a1.27,1.27,0,0,0,1-.57,3.71,3.71,0,0,0,.21-1.6V41a8.79,8.79,0,0,0-.12-1.87,1.1,1.1,0,0,0-.4-.59.94.94,0,0,0-.61-.22q-1.11,0-2.06,1.59v6.46a3.67,3.67,0,0,0,.25,1.71,1.3,1.3,0,0,0,.94.45V49h-6.1v-.46a1.5,1.5,0,0,0,1.08-.49,3.62,3.62,0,0,0,.22-1.68V39.54a3.38,3.38,0,0,0-.26-1.7,1.5,1.5,0,0,0-1-.44v-.48Z" transform="translate(-2 -2)" style="fill:#231f20"/><path d="M388.94,32.51v4.41h2.86V38.2h-2.86v7.44A6.17,6.17,0,0,0,389,47a1.05,1.05,0,0,0,.35.49.78.78,0,0,0,.45.18q.84,0,1.59-1.28l.39.28a3.52,3.52,0,0,1-3.39,2.47,3,3,0,0,1-1.95-.63,2.86,2.86,0,0,1-1-1.43,12.13,12.13,0,0,1-.13-2.37V38.2h-1.57v-.45a16.4,16.4,0,0,0,2.76-2.41,14.53,14.53,0,0,0,2-2.82Z" transform="translate(-2 -2)" style="fill:#231f20"/><path d="M45.46,77.74a.8.8,0,0,1-.33.33" transform="translate(-2 -2)" style="fill:#231f20"/><ellipse cx="46.48" cy="51.5" rx="0.63" ry="0.64" style="fill:#231f20"/><path d="M77.72,27.48H55l0,18.37c0,1.77.75,3.32,1.79,3.8l8.75,5.22a1.06,1.06,0,0,0,1.51.08l8.88-5.31c1-.48,1.79-2,1.79-3.8l0-18.37ZM62.54,32.79h-2v-4.7h2Zm-1.43,1.64.28-.29-.18-.32.37,0,.22-.39.22.38.37,0-.17.32.28.29-.36.07v.4l-.34-.25-.34.25v-.4Zm-5.49,5.85V35.82H58v4.46ZM56,33.82l.37,0,.22-.39.22.38.37,0-.17.32.28.29-.36.07v.4l-.34-.25-.34.25v-.4l-.36-.07.28-.29Zm2.7,4.54.37,0L59.3,38l.22.38.37,0-.17.32L60,39l-.36.07v.4l-.34-.25-.34.25V39L58.6,39l.28-.29Zm1.59-3.59c0-.12-.17-.15-.24-.15s-.3.35-.48.36-.23,0-.23-.14.27-.21.38-.31c-1.47,0-1.5.67-1.73.67-.39,0,.32-.71.53-.92-.3,0-.47-.42-.8-.6.15-.22.24-.13.43,0,0-.15.12-.34.46-.34.66,0,.47.64.58.64s0-.64.43-.64c.65,0,1.47,1.68.73,1.68C60,35.05,60.3,34.81,60.3,34.77ZM58.6,29.85l.28-.29-.17-.32.37,0,.22-.39.22.38.37,0-.17.32.28.29-.36.07v.4l-.34-.25-.34.25v-.4ZM58,28.09v4.7H55.62v-4.7Zm4.53,24.27L57.1,49.1a3.9,3.9,0,0,1-1.48-3V40.91h6.92Zm-2-12.07V35.82h2v4.46Zm9,12.44L67,54.23h0a1.07,1.07,0,0,1-.66.23,1.05,1.05,0,0,1-.67-.24l-2.5-1.49V40.91h6.39Zm0-12.44H63.16V28.09h6.39Zm7.54,5.79a3.9,3.9,0,0,1-1.48,3l-5.44,3.25V40.91h6.92Zm0-5.79H70.16V28.09h6.92Z" transform="translate(-2 -2)" style="fill:#231f20"/><path d="M62.17,45.11c0-.07-.87.28-.63.25a2.48,2.48,0,0,1,.69-.93c0-.29-.41,0-.8.18,1.29-1.86.46-1.09-.26-1,1.16-1.25.85-1.22,0-.84.67-.53.81-1.16.71-1.35-.63.84-1.21.71-1.21,1.48a3.1,3.1,0,0,1-.45,1.63c-.34.37-.08-1.37-1-1.37-.28,0-1,0-1.16.32.18,0,.45.46.45.64s.17.69-.14.69-.66-.64-.66-.94,0-.23,0-.67a2.46,2.46,0,0,0-1.68-1.77c0,.51.67.63.67,1.29-.28,0-.69-.53-.69-.2s.43.39.43.67-.49-.1-.49.2.27.22.33.49c-.2-.06-.37,0-.41.07s.06.2.21.29c-.07.06-.13.22-.13.65,0,1.45.91,2.12,1.58,2.12.47,0,.4-.33.46-.49,0,.25.25-.12.25.31s-.46.25-.46.64.73,0,.73.56a6.83,6.83,0,0,1-.09.95c0,.18.76-.25.72-.33.18.07.18.61.51.59s.27-.55.44-.6c-.1,0,.69.52.69.27,0-.68-.28-.39-.28-.85s.94-.35.79-.56-.21-.07-.31-.39c0,.06-.74-1.07.16-.49S62.22,45.22,62.17,45.11Z" transform="translate(-2 -2)" style="fill:#231f20"/><ellipse cx="84.43" cy="47.26" rx="0.75" ry="0.66" style="fill:#231f20"/><ellipse cx="81.41" cy="49.06" rx="0.75" ry="0.66" style="fill:#231f20"/><ellipse cx="45.46" cy="53.2" rx="0.75" ry="0.66" style="fill:#231f20"/><ellipse cx="47.79" cy="53.4" rx="0.75" ry="0.66" style="fill:#231f20"/><path d="M114.51,24.69a4.68,4.68,0,0,1,.56,5c-.44,0-.36-.6-.44-.92-.79-1.48-1.43-3.36-.71-5C114.43,23.78,114.23,24.41,114.51,24.69Z" transform="translate(-2 -2)" style="fill:#231f20"/><path d="M19.55,26.49a7.06,7.06,0,0,0,0,3.16c-.2.2-.16-.2-.36-.16-1.55-1.12-.83-3.32-1.23-4.87a.31.31,0,0,1,.4-.08A2.85,2.85,0,0,1,19.55,26.49Z" transform="translate(-2 -2)" style="fill:#231f20"/><path d="M117.92,26.61c.24.44-.2.88-.52,1.08a1,1,0,0,1-1-.44.92.92,0,0,1,.48-1A1,1,0,0,1,117.92,26.61Z" transform="translate(-2 -2)" style="fill:#231f20"/><path d="M17.13,28.37a1.18,1.18,0,0,1-.51.88c-.24,0-.6,0-.75-.2a.74.74,0,0,1-.16-.84.92.92,0,0,1,.75-.36C16.73,28,17,28.05,17.13,28.37Z" transform="translate(-2 -2)" style="fill:#231f20"/><path d="M119.46,29a.77.77,0,0,1-1.07,1,1.07,1.07,0,0,1-.44-.68,1.21,1.21,0,0,1,.67-.72A1.27,1.27,0,0,1,119.46,29Z" transform="translate(-2 -2)" style="fill:#231f20"/><path d="M117.2,29.09c.32.16.08.56,0,.8-.2.2-.48.52-.83.4-.2-.2-.43-.2-.51-.48a.88.88,0,0,1,.55-.92A1,1,0,0,1,117.2,29.09Z" transform="translate(-2 -2)" style="fill:#231f20"/><path d="M114.31,29.69c0,.44,0,1-.48,1.08a.75.75,0,0,1-.91-.56.94.94,0,0,1,.59-1A1.08,1.08,0,0,1,114.31,29.69Z" transform="translate(-2 -2)" style="fill:#231f20"/><path d="M21.45,29.89c.12.4-.28.64-.51.84a.81.81,0,0,1-.79-.44c-.28-.28.08-.52.16-.76A.74.74,0,0,1,21.45,29.89Z" transform="translate(-2 -2)" style="fill:#231f20"/><path d="M19.07,30a.82.82,0,0,1-.43.76.72.72,0,0,1-.79-.36.68.68,0,0,1,.36-.92C18.63,29.33,18.91,29.73,19.07,30Z" transform="translate(-2 -2)" style="fill:#231f20"/><path d="M104.71,30.17A8.38,8.38,0,0,1,105.5,33c-.16.76.12,1.76-.44,2.28-.56-.2-.59-.88-1-1.24-.71-1.4-.08-3,.16-4.4C104.59,29.57,104.59,30,104.71,30.17Z" transform="translate(-2 -2)" style="fill:#231f20"/><path d="M17.21,30.65c.12.48-.24.72-.52,1a.93.93,0,0,1-1-.56,1,1,0,0,1,.52-1A1,1,0,0,1,17.21,30.65Z" transform="translate(-2 -2)" style="fill:#231f20"/><path d="M111,31.8a5.77,5.77,0,0,1,.2,3.84l-.24.2a15.51,15.51,0,0,1-1.63-3.24,5.32,5.32,0,0,1,.48-2.28c.28-.2.44,0,.55.28A1.57,1.57,0,0,0,111,31.8Z" transform="translate(-2 -2)" style="fill:#231f20"/><path d="M116,31.09a1,1,0,0,1-.6,1,.71.71,0,0,1-.91-.48.86.86,0,0,1,.44-1C115.34,30.37,115.77,30.77,116,31.09Z" transform="translate(-2 -2)" style="fill:#231f20"/><path d="M19.11,32.32a.85.85,0,0,1-.6.76c-.32.24-.55-.16-.83-.28a1,1,0,0,1,0-.92c.12-.24.4-.24.64-.32C18.67,31.77,19,31.93,19.11,32.32Z" transform="translate(-2 -2)" style="fill:#231f20"/><path d="M20.85,32.13c.16.4-.28.6-.44.8-.48.16-.71-.2-.91-.48s.16-.64.44-.88C20.42,31.45,20.66,31.77,20.85,32.13Z" transform="translate(-2 -2)" style="fill:#231f20"/><path d="M117.08,32c0,.52-.83,1-.91,1.56a4,4,0,0,1-2.46,2.24,1.9,1.9,0,0,1-.91.52c-.08-.8.64-1.52,1.07-2.24A5.88,5.88,0,0,1,117.08,32Z" transform="translate(-2 -2)" style="fill:#231f20"/><path d="M18.32,33.68a14.47,14.47,0,0,0,1.63,1.88.33.33,0,0,1-.28.4c-1.94-.12-3.25-2.12-4.2-3.52.12-.44.63-.08.91-.12C17,32.84,17.8,33,18.32,33.68Z" transform="translate(-2 -2)" style="fill:#231f20"/><path d="M117.64,34.24a5.13,5.13,0,0,1-2.46,4.32c-.44.16-.91.6-1.35.32a20,20,0,0,1,3.49-4.63Z" transform="translate(-2 -2)" style="fill:#231f20"/><path d="M110,35.4a1,1,0,0,1-.67,1.16c-.44,0-.71-.32-.91-.64A.83.83,0,0,1,109,35a.66.66,0,0,1,.48-.12C109.71,35,109.82,35.2,110,35.4Z" transform="translate(-2 -2)" style="fill:#231f20"/><path d="M16.13,35.76a23.24,23.24,0,0,1,2.14,1.88c-.51.36-1.15,0-1.75,0-1.35-.48-2.26-1.64-3.65-2,0-.44.56-.28.83-.4A7.27,7.27,0,0,1,16.13,35.76Z" transform="translate(-2 -2)" style="fill:#231f20"/><path d="M58.62,23.94c-2.22-.88-3.69,1.44-6,1.16-.28.16-.2.44-.36.64s-.32,0-.44,0c-.12-1-.44-1.84-.56-2.76-.24-.4-.12-1-.32-1.36-1.27-3.48,3.09-.84,4-2.88.76-1.76-1.47-2-2.14-3.2V15c-.63-.64-1.31-.84-1.71-1.68a5.78,5.78,0,0,0,.12-3.08c0-.24-.2-.56-.55-.44-.75,1-1.31,1.88-2,2.88a21.34,21.34,0,0,0-2.34-1.76c-.6-.08-1.15-.68-1.82-.44a.55.55,0,0,0,.12.6A5.73,5.73,0,0,0,46.56,15l.12.6c-.71,1.64-.52,3.51-.71,5.27A29.26,29.26,0,0,1,37.36,33c-2.26,2.56-5,5-5.32,8.55-.12.56.08,1.24-.36,1.64a13.63,13.63,0,0,1-3.69-2c-1.82-1.28-4.44-1.12-5.63-3.44-.48-.92.12-1.84.55-2.52,1.35-1.28,1.15-3.56.44-5.11-.16,0-.2.16-.32.2-.12,2.36-2,4-1.27,6.59.16.76.56,1.24.75,2a6.17,6.17,0,0,1-.91-.2A9.93,9.93,0,0,0,19,38.32c-1.82.84-4.32-.2-5.79,1.48-.24,0-.56.08-.48.44.87,0,1.7.24,2.58.2,1.39.24,2.3-.92,3.25-1.44h.24c.4-.4,1.07-.16,1.59-.24,2.5.28,4.44,1.48,6.5,2.72v.16c-.79.36-1.71.6-2.5,1a5.39,5.39,0,0,0-2.22,2.68c-.63,1,.2,1.88.6,2.72,0,.4.08.88.44,1,1.27-1.36.08-3,.28-4.59A3.25,3.25,0,0,1,26,42.43c2.26-1,3.89.88,5.71,1.92a27.08,27.08,0,0,1-.2,5.39,4.94,4.94,0,0,1-1.87.28c-3.13.24-5.59,2-8.41,2.92-1.27.44-2.78.4-4,.88a9.86,9.86,0,0,0,3.05-.12c3.89-.56,6.86-3.56,11.07-3l.08.12a9.38,9.38,0,0,1-1.86,2.6c-.12-.44-.16-.8-.56-1a.74.74,0,0,0-.91.32.55.55,0,0,0,0,.6,1.3,1.3,0,0,0,.87.56c-.08.36-.52.52-.75.84-1.11,1.88-3.37,1.12-4.68,2.44-.2.28-.91.44-.6.88a6,6,0,0,0,4.09-1c1.47-1.64,3-3.2,4.48-4.75a4.76,4.76,0,0,1-.87,3.64,4.67,4.67,0,0,0-1.07-.6,1,1,0,0,0-.71.8,2.35,2.35,0,0,0,.59.8c-1.35,1-3.05,1-4.6,1.48a78.06,78.06,0,0,1-8.65.64c-1.39-.08-3,.4-4.28,0-1.51.28-3.13-.2-4.36.64-.16.2,0,.4,0,.6,1.83,1.2,4.33.24,6.39.6H29.58a7,7,0,0,0,3.21-.6c2-1.16,3.13-3.24,4.17-5.27a8.19,8.19,0,0,0,.83-2.4,3.45,3.45,0,0,1,3-2.44,18.18,18.18,0,0,1-.67,6.07c-.24,1.28-1.07,2.52-.56,3.88.12.64.79.64,1.31.72,4.8-.08,9.6-.28,14.68.08a11.93,11.93,0,0,0,2.7.4c.08-.12.36-.16.24-.4a1.51,1.51,0,0,0-1-1.12c-.08-.24-.43-.16-.55-.32-2.54-1.44-5.59-.68-8.57-.64-1.55.16-3.09.44-4.4-.44-.59-.72-.16-3-.16-3a57.37,57.37,0,0,1,2.46-7.71,6.9,6.9,0,0,0,.24-1.84A7.74,7.74,0,0,0,46.76,43,18.52,18.52,0,0,1,48,39.32c.24-.6.44-1.24.67-1.84a6,6,0,0,1,.79-2.08c1.29.82,2.56.8,3.18,2.26L53.18,41c0,.2.16.6.44.36,1-.68.71-2.2.71-3.24.24-1.24-.63-1.84-1-2.92A4.78,4.78,0,0,1,52.61,34c-.16-.88-2.08-1.48-1.65-2.56a3.25,3.25,0,0,1,1.35-2.28.41.41,0,0,1,.2.28l.48-.33,0-3.34c1.28,0,3.2.16,4.51.16.36.12.64.4,1,.44l.32-.44,3.21-.63C60.74,25.5,59.91,23.94,58.62,23.94Z" transform="translate(-2 -2)" style="fill:#231f20"/><path d="M62.11,25.35l.3-.06Z" transform="translate(-2 -2)" style="fill:#fff"/><path d="M27.56,36.48a.88.88,0,0,1-.6.92c-.32-.12-.55-.16-.75-.48s.24-.76.55-.92C27.08,36.08,27.48,36.12,27.56,36.48Z" transform="translate(-2 -2)" style="fill:#231f20"/><path d="M25,36.48a.87.87,0,0,1,.16.92c-.28.24-.71.44-1,.12s-.48-.52-.28-.84S24.66,36.16,25,36.48Z" transform="translate(-2 -2)" style="fill:#231f20"/><line x1="78.19" y1="34.92" x2="78.23" y2="34.98" style="fill:#fff"/><path d="M110.42,37.6c.16.44-.2.76-.51.92-.4-.12-.91-.2-.91-.72a.76.76,0,0,1,1.43-.2Z" transform="translate(-2 -2)" style="fill:#231f20"/><path d="M112.52,37.52c.12.2.4.52.08.72a1.53,1.53,0,0,0-.4.32.77.77,0,0,1-1-.48c-.08-.44.28-.64.6-.84S112.32,37.36,112.52,37.52Z" transform="translate(-2 -2)" style="fill:#231f20"/><path d="M15,38a.78.78,0,0,1-1.07.52,1.66,1.66,0,0,1-.32-.52.74.74,0,0,1,.44-.68A1,1,0,0,1,15,38Z" transform="translate(-2 -2)" style="fill:#231f20"/><path d="M28.39,38.68c0,.32-.4.6-.67.76a1,1,0,0,1-.87-.56.8.8,0,0,1,.48-.8A.89.89,0,0,1,28.39,38.68Z" transform="translate(-2 -2)" style="fill:#231f20"/><path d="M26.05,38.4a.62.62,0,0,1,.12.64c-.24.2-.6.56-1,.32-.24-.2-.52-.36-.44-.76a1.76,1.76,0,0,1,.6-.48C25.65,38,25.81,38.24,26.05,38.4Z" transform="translate(-2 -2)" style="fill:#231f20"/><path d="M118.59,38.88a1.06,1.06,0,0,1-.52.76.78.78,0,0,1-.87-.2c-.24-.08-.16-.4-.16-.6a1.37,1.37,0,0,1,.75-.52A1.46,1.46,0,0,1,118.59,38.88Z" transform="translate(-2 -2)" style="fill:#231f20"/><path d="M121.13,39.24a1,1,0,0,1-.75.72c-.24,0-.67-.12-.59-.48a.71.71,0,0,1,.36-.64A.7.7,0,0,1,121.13,39.24Z" transform="translate(-2 -2)" style="fill:#231f20"/><path d="M19.55,39.8a.78.78,0,0,1-.48,1c-.28.16-.55,0-.75-.2a.69.69,0,0,1-.2-.8c.08-.36.44-.28.67-.44A1,1,0,0,1,19.55,39.8Z" transform="translate(-2 -2)" style="fill:#231f20"/><path d="M21.49,40.15c.12.32-.24.44-.32.68a.66.66,0,0,1-.71.08c-.28-.24-.6-.6-.32-1C20.46,39.36,21.29,39.68,21.49,40.15Z" transform="translate(-2 -2)" style="fill:#231f20"/><path d="M116.25,40c0,.4-.32.68-.55.92a.68.68,0,0,1-.79-.48.83.83,0,0,1,.44-.76A.86.86,0,0,1,116.25,40Z" transform="translate(-2 -2)" style="fill:#231f20"/><path d="M119.5,40.59c-.08.36,0,.76-.44,1a1.13,1.13,0,0,1-1-.16.73.73,0,0,1-.16-.84.93.93,0,0,1,1-.48C119.19,40.27,119.26,40.47,119.5,40.59Z" transform="translate(-2 -2)" style="fill:#231f20"/><path d="M18,41.43c.16.32-.2.4-.32.56a.8.8,0,0,1-.79-.08c-.28-.16-.16-.56-.12-.76C17.17,40.47,17.88,41,18,41.43Z" transform="translate(-2 -2)" style="fill:#231f20"/><path d="M117,42.19c.16,0,.08.28,0,.36a3,3,0,0,1-3.21-.16,12.4,12.4,0,0,0-1.59-.88c.2-.52.91-.48,1.43-.6C114.82,41.07,115.73,42.15,117,42.19Z" transform="translate(-2 -2)" style="fill:#231f20"/><path d="M19.94,41.83c.08.32-.16.44-.24.68s-.48.16-.67.08a.67.67,0,1,1,.91-.76Z" transform="translate(-2 -2)" style="fill:#231f20"/><path d="M23.43,42.07c.16.36-.08.68-.4.88s-.52-.08-.75-.12c-.2-.28-.55-.6-.2-.92C22.44,41.31,23.16,41.63,23.43,42.07Z" transform="translate(-2 -2)" style="fill:#231f20"/><path d="M69.29,43.76c-.07.8-1.39-.11-1.21.95a6.08,6.08,0,0,0,.79,2.24c.38.53.19,1.37.15,2a3.59,3.59,0,0,1-1.51,1.29c-1.13-.11-2.79.57-3.32-.84a5.65,5.65,0,0,1-.64-1.9c.11-.08.27-.08.38-.19,0-.27-.3-.42-.26-.68,1.28-.23-.53-1.37.57-1.44.9.95,2.37.65,3.17,1.67a3.48,3.48,0,0,0,.57.49c-.15-.95-.6-1.9-.75-2.92a1.32,1.32,0,0,1,.45-1.33C68.35,42.59,68.92,43.34,69.29,43.76Z" transform="translate(-2 -2)" style="fill:#231f20"/><path d="M26.92,43.51c.12.4-.2.64-.44.84s-.55-.24-.71-.44c-.12-.4.16-.6.4-.8A.86.86,0,0,1,26.92,43.51Z" transform="translate(-2 -2)" style="fill:#231f20"/><path d="M51.4,43.91a5.48,5.48,0,0,1-.48,4.47c0,.32.08.84-.36.8-1.07-1.48-.28-3.56.16-5.11C50.8,43.67,51.28,43.51,51.4,43.91Z" transform="translate(-2 -2)" style="fill:#231f20"/><path d="M85.35,44.67a4.51,4.51,0,0,1,.08,3.72l-.32.32a9.13,9.13,0,0,1-.91-2.84,9.64,9.64,0,0,0,.48-2.12C85.23,43.63,85.19,44.35,85.35,44.67Z" transform="translate(-2 -2)" style="fill:#231f20"/><path d="M30,45.11c-.24.48-.91.6-1.35.92a4.73,4.73,0,0,1-3.53.68,4.31,4.31,0,0,1,4.52-1.88C29.74,45,29.94,44.91,30,45.11Z" transform="translate(-2 -2)" style="fill:#231f20"/><path d="M13.72,46.55c1.47,1,1.86,2.48,2.74,3.91.12.16.52.2.36.52-.32.24-.63-.24-1.07-.16a4.39,4.39,0,0,1-2.42-4.11C13.32,46.55,13.56,46.55,13.72,46.55Z" transform="translate(-2 -2)" style="fill:#231f20"/><path d="M83.8,47.79c0,.4,0,.8-.36.92a.72.72,0,0,1-.91-.48c-.12-.28.12-.44.2-.64A.7.7,0,0,1,83.8,47.79Z" transform="translate(-2 -2)" style="fill:#231f20"/><path d="M100.54,49.9a19.89,19.89,0,0,1,.28-2.2,1.45,1.45,0,0,0,.16-.84c1-1.28,2.9-.88,4.4-.76a8.42,8.42,0,0,0,2,.44,1.45,1.45,0,0,1,1-.2c1.27-.68.44-2.16.52-3.32l-.48-1.2a4.64,4.64,0,0,1-.32-.8c-.24-.28-.4-.8-.63-1.08-.67-1.76-2-2.76-3.09-4.16-2-2.64-5.2-4.12-8.37-5.15S89.67,31,86.86,32a2.27,2.27,0,0,1-1.55-1.68,7.93,7.93,0,0,1,.75-4.23,15.64,15.64,0,0,1,1.07-2.68,28.51,28.51,0,0,0,1.63-6.87,3.6,3.6,0,0,0-2.14-3.16,2.16,2.16,0,0,0-2.18.44,5.79,5.79,0,0,1-2.58,2.32c-.08.68.75.24,1,.48.87.16,1.87-.12,2.58.44a6.78,6.78,0,0,1-1.67,4.11,31.74,31.74,0,0,0-3.61,6.23L80,27.21,80.23,37c1.26,2.1,2.84,4.5,5.2,5.3,1.27,1,2.86,2.28,4.56,1.36.91-.28,1,1,1.43,1.52.48,1.48-.59,2.52-.67,3.87l-1,2.2C88.52,53.54,87.45,56,85.63,58c-.6,0-1,.64-1.55.68-.32.44-1,.12-1.35.28-1.23.52-3,.2-3.81,1.36a.54.54,0,0,0,.32.2c2.42,0,5.12.2,7.7.08a1,1,0,0,0,.63-.76c-.36-.68.12-1.28.44-1.8.2-1,.83-1.56,1.11-2.48.83-1.64,1.78-3.24,2.7-4.87l1.23-2a14.07,14.07,0,0,1,1.23-2.24A5.13,5.13,0,0,0,95,45.35c0-.4-.16-.56-.4-.84.28-.28.71-.2,1.07-.28a4.49,4.49,0,0,1,2.22,2.64l.36,1,.16.48-.08,1.32.16,1.24a28.52,28.52,0,0,1-.36,5.79c-.68,2.32-3.33,2.08-5.24,2.6-.48.32-1.39.16-1.39,1,2.3.48,5,.2,7.46.16.4-.16.48-.52.67-.88.08-.52.6-1,.44-1.52-.44-.56,0-1.44-.16-2.2a1.23,1.23,0,0,0,0-.76c.32-1.16.24-2.56.48-3.68Z" transform="translate(-2 -2)" style="fill:#231f20"/><path d="M120.06,48.34c-1.27,1.8-2.62,3.83-4.84,4.47-.16,0-.32.08-.4-.12,1.35-1.44,2.06-3.68,4.17-4.2A1.29,1.29,0,0,1,120.06,48.34Z" transform="translate(-2 -2)" style="fill:#231f20"/><path d="M11.77,50.3c-.2.16,0,.52-.4.56a.64.64,0,0,1-.83-.36.71.71,0,0,1,.51-.88C11.37,49.78,11.69,49.9,11.77,50.3Z" transform="translate(-2 -2)" style="fill:#231f20"/><path d="M23.2,50.86c.12.36-.28.36-.48.44a4.32,4.32,0,0,1-4.56-1.16c0-.16,0-.32.16-.36C19.94,50.18,21.85,49.86,23.2,50.86Z" transform="translate(-2 -2)" style="fill:#231f20"/><path d="M14,50.34a1.05,1.05,0,0,1,.08.6.88.88,0,0,1-1,.36,1.29,1.29,0,0,1-.52-.52A1,1,0,0,1,13.2,50,1.19,1.19,0,0,1,14,50.34Z" transform="translate(-2 -2)" style="fill:#231f20"/><path d="M51.12,50.54c.08.36-.24.6-.48.76a.78.78,0,0,1-.83-.32.58.58,0,0,1,.28-.76C50.45,50.14,51,50.18,51.12,50.54Z" transform="translate(-2 -2)" style="fill:#231f20"/><path d="M121.56,50.7c.12.4-.24.6-.51.84a.87.87,0,0,1-.75-.12c0-.2-.28-.36-.2-.64a.85.85,0,0,1,.91-.48A4.62,4.62,0,0,1,121.56,50.7Z" transform="translate(-2 -2)" style="fill:#231f20"/><path d="M124.18,50.54c.24.36,0,.64-.16.92a.54.54,0,0,1-.71.24c-.24-.24-.56-.36-.59-.72s.36-.56.59-.68C123.71,50.14,123.87,50.54,124.18,50.54Z" transform="translate(-2 -2)" style="fill:#231f20"/><path d="M10.11,51.7c0,.28-.2.44-.28.68-.2.08-.4.24-.64.16a1.17,1.17,0,0,1-.59-.64,1,1,0,0,1,.71-.8A1,1,0,0,1,10.11,51.7Z" transform="translate(-2 -2)" style="fill:#231f20"/><path d="M93.64,51.7a1.15,1.15,0,0,1,0,.52c-.24.32-.55.6-1,.4-.24-.24-.52-.48-.4-.84A.78.78,0,0,1,93.64,51.7Z" transform="translate(-2 -2)" style="fill:#231f20"/><path d="M16.49,52.3c-.08.28-.2.56-.55.6s-.48-.28-.67-.44c0-.36,0-.72.32-.92A.72.72,0,0,1,16.49,52.3Z" transform="translate(-2 -2)" style="fill:#231f20"/><path d="M12.68,52.38a.84.84,0,0,1-.4.88.93.93,0,0,1-1.07-.56,1.13,1.13,0,0,1,.71-.92C12.29,51.78,12.49,52.18,12.68,52.38Z" transform="translate(-2 -2)" style="fill:#231f20"/><path d="M96.26,52.3a.79.79,0,0,1-.44,1c-.48.16-.87-.24-1.07-.56.2-.32.24-.76.71-.84A.91.91,0,0,1,96.26,52.3Z" transform="translate(-2 -2)" style="fill:#231f20"/><path d="M14.55,52.46c.12.28-.12.4-.2.6-.2,0-.32.24-.55.16s-.48-.28-.52-.56.24-.6.52-.76A.73.73,0,0,1,14.55,52.46Z" transform="translate(-2 -2)" style="fill:#231f20"/><path d="M119.38,52.78a1.19,1.19,0,0,1-.67.64c-.32.08-.52-.2-.75-.32s-.12-.52,0-.72A.8.8,0,0,1,119.38,52.78Z" transform="translate(-2 -2)" style="fill:#231f20"/><path d="M122.4,52.94a1,1,0,0,1-1,.68c-.36-.16-.75-.44-.48-.92.16-.16.24-.32.48-.36A.76.76,0,0,1,122.4,52.94Z" transform="translate(-2 -2)" style="fill:#231f20"/><path d="M103.56,53.22c.2.52-.28.68-.59.92a1.81,1.81,0,0,1-.75-.32.92.92,0,0,1,.56-1A1,1,0,0,1,103.56,53.22Z" transform="translate(-2 -2)" style="fill:#231f20"/><path d="M92.65,53.7c.2.08.12.36.08.48-.24.16-.55.56-.91.32a.67.67,0,0,1-.4-.76A.74.74,0,0,1,92.65,53.7Z" transform="translate(-2 -2)" style="fill:#231f20"/><path d="M94.87,54a.54.54,0,0,1-.32.64c-.28.28-.6,0-.87-.12a.64.64,0,0,1,0-.6.88.88,0,0,1,.52-.32C94.43,53.66,94.75,53.66,94.87,54Z" transform="translate(-2 -2)" style="fill:#231f20"/><path d="M27.56,54c.24.24,0,.52-.08.76a.77.77,0,0,1-1,.2c-.4-.16-.36-.68-.28-1,.24-.08.24-.36.55-.36A1.38,1.38,0,0,1,27.56,54Z" transform="translate(-2 -2)" style="fill:#231f20"/><path d="M107.8,54.18c.08.4-.32.56-.59.64-.48.16-.71-.2-.91-.52,0-.24.24-.4.32-.6C107.17,53.46,107.52,53.86,107.8,54.18Z" transform="translate(-2 -2)" style="fill:#231f20"/><path d="M105.66,54.18c.16.4-.28.6-.44.8a.79.79,0,0,1-.87-.16c-.2-.12-.2-.36-.2-.6.24-.2.36-.44.64-.52A1,1,0,0,1,105.66,54.18Z" transform="translate(-2 -2)" style="fill:#231f20"/><path d="M123.55,54.66c.08.56-.63.28-.91.44-1.67,1-3.81.24-5.4-.36.12-.52.71-.32,1-.52,1.71-1.08,3.45.24,5.15.32Z" transform="translate(-2 -2)" style="fill:#231f20"/><path d="M15,54.18l-.16.28a6.43,6.43,0,0,1-5.12.92l-.16-.24a7.18,7.18,0,0,1,5.32-1.08Z" transform="translate(-2 -2)" style="fill:#231f20"/><path d="M111.85,54.46a.91.91,0,0,1-.4.76.79.79,0,0,1-1-.44c-.12-.32.2-.64.52-.76S111.69,54.06,111.85,54.46Z" transform="translate(-2 -2)" style="fill:#231f20"/><path d="M22.08,54.62c-.16.32-.08.64-.48.8a.86.86,0,0,1-1-.52c-.12-.44.2-.56.4-.76C21.49,53.9,21.85,54.26,22.08,54.62Z" transform="translate(-2 -2)" style="fill:#231f20"/><path d="M19.27,54.82c.12.28-.12.44-.2.64a.73.73,0,0,1-.79.12c-.28-.24-.55-.52-.44-1a2.25,2.25,0,0,1,.64-.44A.9.9,0,0,1,19.27,54.82Z" transform="translate(-2 -2)" style="fill:#231f20"/><path d="M114.62,55.73a.85.85,0,0,1-.63.72.9.9,0,0,1-.75-.4.63.63,0,0,1,.16-.76c.08-.12.36-.12.52-.2A.85.85,0,0,1,114.62,55.73Z" transform="translate(-2 -2)" style="fill:#231f20"/><path d="M16.33,55.3c.12.32-.16.44-.2.68a5.85,5.85,0,0,1-.87,1.72c-.75.92-1.83.92-2.9,1.2l-.16-.32a10.43,10.43,0,0,1,4-3.36Z" transform="translate(-2 -2)" style="fill:#231f20"/><path d="M112.64,56.17c.08.48-.32.56-.59.76a.9.9,0,0,1-.79-.48c-.12-.44.28-.6.52-.8A.8.8,0,0,1,112.64,56.17Z" transform="translate(-2 -2)" style="fill:#231f20"/><path d="M20.89,56.17l.12.2c0,.44-.36.56-.6.76a1.07,1.07,0,0,1-.87-.4.67.67,0,0,1,.4-.92C20.3,55.78,20.78,55.82,20.89,56.17Z" transform="translate(-2 -2)" style="fill:#231f20"/><path d="M119.94,57.37c.4,0,.47-.52.91-.6a1,1,0,0,1,1,.44c.16.48-.2.72-.52.92s-.87-.24-.83.28a1.24,1.24,0,0,1,.56.8c-.08.16-.36.12-.48,0a5,5,0,0,1-2.86-2.48c-.16-.36-.91-.64-.48-1A3.66,3.66,0,0,1,119.94,57.37Z" transform="translate(-2 -2)" style="fill:#231f20"/><path d="M123.75,56.13a.61.61,0,0,1,0,.76c-.2.4-.79.24-1.15.2-.2-.2-.4-.4-.32-.72a1.27,1.27,0,0,1,.6-.52A1.1,1.1,0,0,1,123.75,56.13Z" transform="translate(-2 -2)" style="fill:#231f20"/><path d="M109.35,58.29a5.73,5.73,0,0,1,.87,1.6c-.08.12-.28.08-.36.08-1.35-.76-3.09-1.6-3.61-3.2-.12-.16-.44-.36-.4-.64,1-.2,2,.56,2.74,1.12C108.87,57.65,109.19,57.85,109.35,58.29Z" transform="translate(-2 -2)" style="fill:#231f20"/><path d="M18.67,56.77c.16.36-.16.64-.36.8a.91.91,0,0,1-.91-.32c-.28-.44.24-.8.56-1S18.48,56.57,18.67,56.77Z" transform="translate(-2 -2)" style="fill:#231f20"/><path d="M114.31,57.69c0,.24-.28.4-.4.56-.32,0-.63.16-.91-.12-.08-.2-.28-.52,0-.72C113.39,56.85,114,57.29,114.31,57.69Z" transform="translate(-2 -2)" style="fill:#231f20"/><path d="M124.18,58.25a.94.94,0,0,1-.56,1,1,1,0,0,1-1-.36c-.2-.24,0-.48,0-.76a1,1,0,0,1,1-.28A2.13,2.13,0,0,1,124.18,58.25Z" transform="translate(-2 -2)" style="fill:#231f20"/><path d="M96.73,63.77c0,.48-.87.36-1.23.72a8.49,8.49,0,0,1-4.16.6v-.24A5.89,5.89,0,0,1,96.73,63.77Z" transform="translate(-2 -2)" style="fill:#231f20"/><path d="M38.86,65.48a.66.66,0,0,1-1.27.28c-.16-.48.24-.68.52-.88A.93.93,0,0,1,38.86,65.48Z" transform="translate(-2 -2)" style="fill:#231f20"/><path d="M96.06,65.92a1.14,1.14,0,0,1-.6.92c-.36.08-.6-.12-.87-.28s-.08-.44-.12-.64A.85.85,0,0,1,96.06,65.92Z" transform="translate(-2 -2)" style="fill:#231f20"/><path d="M104,66.08a6.5,6.5,0,0,1-3.41,1.4l-2.14,0-.2-.16c1.31-1.6,3.69-1.6,5.75-1.44Z" transform="translate(-2 -2)" style="fill:#231f20"/><path d="M28,67a.73.73,0,0,1-.52.76A.69.69,0,0,1,27,66.52C27.4,66.24,27.84,66.72,28,67Z" transform="translate(-2 -2)" style="fill:#231f20"/><path d="M30,67.44c.12.2-.08.32-.16.52a.65.65,0,0,1-.75,0,.5.5,0,0,1-.24-.68c.12-.24.36-.2.48-.36A1.12,1.12,0,0,1,30,67.44Z" transform="translate(-2 -2)" style="fill:#231f20"/><path d="M14.79,71.48c-.4.48-1-.12-1.47-.36-1.39-.8-1.35-2.36-2.74-3.28.16-.48.51,0,.79,0a5.26,5.26,0,0,0,.83.44C13.56,69,13.87,70.28,14.79,71.48Z" transform="translate(-2 -2)" style="fill:#231f20"/><path d="M130.41,56a3.16,3.16,0,0,0-3-1.64A2.74,2.74,0,0,0,125.21,56a2,2,0,0,0,.75,2.2.61.61,0,0,0,.79-.2c.2-.52-.36-.52-.44-.92a1.32,1.32,0,0,1,.44-1.4c.4-.4,1.07-.2,1.55-.2a2.78,2.78,0,0,1,1.19,1.16,3.21,3.21,0,0,1,0,2.12,3.55,3.55,0,0,1-2.46,2c-3.29.48-39.43.32-39.43.32-4.24.4-9.08-.8-12.73,1.44-1.67.8-2.5,2.64-2.94,4.27a29,29,0,0,0-3.09,3.16l-.12-.12c.2-1,.63-1.8.83-2.76.59-.8.59-1.88,1-2.76,1.51-2.44,2.93-4.91,5.28-6.63,1-1.32,2.74-1.08,4.24-1.08a10.53,10.53,0,0,0,5.51.8.37.37,0,0,0,.12-.28c-.55-.52-1.47-.72-2.1-1.24-1.59-.76-3.09.24-4.76.12-.08-.08-.16-.12-.12-.24a23.45,23.45,0,0,1,4.92-2.64A33.71,33.71,0,0,1,88,51.38c.6,0,1.15-.52,1.71-.16l2.1-.56c.08,0,.16.16.32.12,1.78-.6,4,0,6.07-.08l.28.24,1.9.48c.71.08,1,.92,1.79,1,.4-.56-.44-.8-.63-1.16a4.36,4.36,0,0,1,2.66.4l-.39.44c-.24.44.12.76.48.92s.48-.12.67-.2c.52-.36,0-.72.12-1a37.86,37.86,0,0,1,8.45,2.4,6.77,6.77,0,0,0,2.3.76,10.43,10.43,0,0,0-3-1.6c-.67-.4-1.63-.44-2.14-1,.12-.2.4-.12.51-.28a5.89,5.89,0,0,0,3.45-2.24c.08-.24.51-.16.48-.48-.36-.4-1,.12-1.43.08-1.67.32-2.38,2.28-4,2.64-2-.48-4.09-1-6.11-1.48a12.34,12.34,0,0,1-3-.64l-2.22-.2h-4c0-.08-.16-.12-.12-.24,1.43-.36,2.66-1.2,4.09-1.56L108.87,43a26.13,26.13,0,0,0,3-3.28.75.75,0,0,0-.44-.76.66.66,0,0,0-.79.16c-.48.36,0,.8,0,1.24A6.71,6.71,0,0,1,108.83,42c-.16,0-10.95,4.91-10.95,4.91A27.27,27.27,0,0,1,93,48.66l-2.3.36a1.51,1.51,0,0,1-1,.92,9.46,9.46,0,0,1-1.82.52c-5.16,2-10.51,4.12-14.6,8.19a4.52,4.52,0,0,0,.4-1.68,3.31,3.31,0,0,0-.44-1.76c-.09-.22-.38-.86-.29-1.09l-.58.38a5.56,5.56,0,0,0-.32,3.4c.12.72.71,1.56.16,2.2-1.9,2.32-3,5.11-4.24,7.75-.48-.08-.71-.52-.91-1A13.32,13.32,0,0,0,69.92,61c.28-.2.08-.72.36-1-.08-.64.36-1.28,0-1.8.25-.87-1.16-1.68-.26-2.24l-.75.36c-1.71,2.24.89,5.59-1.06,7.75v.16a6.8,6.8,0,0,1-1.59,1.92c-1-.4-1.31-1.48-1.86-2.28a3.55,3.55,0,0,1-.36-3.72c.36-1.16-.24-2.16-.36-3.2l-.4-.24a4.61,4.61,0,0,0-.56,4.67c.4.72.44,1.72,1,2.32a12.9,12.9,0,0,0,1.71,3c.16.4-.24.48-.44.68-.44-.28-.36-.92-.75-1.2a29.07,29.07,0,0,0-5.08-7.31c-.08-.36-.44-.68-.24-1.08a2.92,2.92,0,0,0,.52-3c-.08-.2-.32-.44-.28-.64L59,53.7c.08,1.4-.83,2.64-.44,4.11v.08a75.49,75.49,0,0,0-13.2-8l-.37,1a27.42,27.42,0,0,1,4.25,2.17,27.31,27.31,0,0,1,4,2.12c5.39,3,9,8,11.38,13.46,0,.44.44.92.16,1.36a21.77,21.77,0,0,0-3-3,5.82,5.82,0,0,0-3-4.43c-.6-.88-1.86-1-2.86-1.24l-14.44-.08c-11.74-.16-22.45.36-34.11.16C5.7,61.25,3.72,60.69,3.24,59a2.66,2.66,0,0,1,0-2.2,2.42,2.42,0,0,1,2-1.08,2.12,2.12,0,0,1,1.35,1.12c0,.52-.44,1-.64,1.44,0,.16.2.48.48.36a1.86,1.86,0,0,0,1-1.28c0-.28.16-.68-.12-.88A2.66,2.66,0,0,0,5.5,54.82a3.31,3.31,0,0,0-2.7.92c-1,.8-.91,2.24-.63,3.36a5.36,5.36,0,0,0,4.28,3.2l38.59.16c3.77.2,8-.44,11.82.32a4.56,4.56,0,0,1,3.21,3c0,.08-.16,0-.28,0a17.19,17.19,0,0,0-11.27-2.32,13.78,13.78,0,0,0-4.44.92,2.25,2.25,0,0,1-1.94-.64c-1.43-1.28-3.93-1.2-5.75-.72,0,.12,0,.24,0,.28,1.94-.16,3.09,1.52,4.84,1.72.4.08.71-.36,1.07,0a35.85,35.85,0,0,1-5.51,2.48c-.6-.12-.91-.68-1.39-1-.75-.84-2.14-.48-3.17-.56-.36.08-.67-.16-.91,0a3.37,3.37,0,0,0,1.71,1.32c1,.44,2.14,0,3.05.56a3.81,3.81,0,0,1-.83.56c-1.86.72-3.41,2.4-5.47,2.28a7.07,7.07,0,0,1-5.87-1.92,4,4,0,0,0-4-2.32c-.12.08-.28.08-.24.28.87.52,1.55,1.56,2.42,2.16.56.68,1.63,0,2.14.76a7.07,7.07,0,0,0,2.58,1.12,11.23,11.23,0,0,0,2.06.56l-.28.16c-3.61,1.2-7.77,1.32-11.82,1.16-1.19,0-2.34-.4-3.53-.36a2.24,2.24,0,0,0,1,.56,2.41,2.41,0,0,1-1.07.32,7.07,7.07,0,0,0-1.51.4,4,4,0,0,0-1.7.4,8.07,8.07,0,0,1-2.26,1.84c0,.16,0,.4.16.4.75-.32,1.71-.08,2.46-.4,1.31-.12,2.06-1.56,3.09-2.16,1.11-.88,2.7-.68,4-.48.79.2-.08.52.16,1,.32.28.59.6,1,.48a.69.69,0,0,1,.28-.2.91.91,0,0,0,0-1c.56-.36,1.31,0,1.9-.2,1.51,0,3-.36,4.48-.4.24,0,.52-.28.75,0-.12.32-.52.36-.36.8s.48.52.79.6c.4-.16.75-.44.6-1-.08-.28-.4-.32-.6-.44.83-.4,1.79-.52,2.62-.92a7.43,7.43,0,0,0,1.67-.56c.52,0,1-.52,1.43-.32A8.24,8.24,0,0,1,31.41,73c-.63,2.12-1.11,4.91,0,7,.12,0,.16,0,.24-.08-.83-2.12-.36-4.55.36-6.55.56-3.4,4-4.39,6.55-5.67l.12.16C38,69.52,37,71.2,37.16,73.31c.08.36-.16.72,0,1a4.2,4.2,0,0,0,1.47-1.84c.28-1.8-.75-4,1.07-5.35,3.25-1.28,6.31-3,10.07-3,.12.12.4-.08.44.16-.79.88-1.94,1.72-2.3,2.8-1.27,1.76-1.23,4.75-.67,6.91.36,1.24-.71,1.92-1.23,2.88-.25.34-.32.92-.54,1.31l.78.09a4.25,4.25,0,0,0,1.35-2.64,1.09,1.09,0,0,0,.75.8c.28-.44-.24-.76-.28-1.2.64-.36.91.44,1.43.6a10.11,10.11,0,0,0,2.42.56l.28-.28c-.87-1.36-2.62-1.6-4.13-1.68a8,8,0,0,1-.71-4.55,7,7,0,0,1,.79-2.48,6,6,0,0,1,1.11-1.52,5.51,5.51,0,0,1,2.5-1.36h.12l0,.12c-1.07.84-1.19,2-1.82,3a3.34,3.34,0,0,0-.36,3.48c.24.52.12,1.32.67,1.68a8.85,8.85,0,0,0,.83-2.44c-.12-1.32-.91-2.56-.16-3.83a3.27,3.27,0,0,1,2.14-1.76c2.18-.2,4.09.92,6,1.76.4.28,1.07.52,1.15,1.08a3.24,3.24,0,0,1-5.08,2.64,2.74,2.74,0,0,1-.63-2.44,1.64,1.64,0,0,1,1.75-.64c.4.2.75.6,1.27.36a.5.5,0,0,0,.16-.64c-.44-.24-.59-.84-1.19-.92a2.57,2.57,0,0,0-2.18.44,2.81,2.81,0,0,0-.91,2.8A3.42,3.42,0,0,0,56,71.76a4.6,4.6,0,0,0,4.88-1.68,5.42,5.42,0,0,0,.87-1.72,10.36,10.36,0,0,1,4.09,5.27,8.45,8.45,0,0,1,0,2l1.39.12a1.33,1.33,0,0,1,.12-1,12,12,0,0,1,4.08-6.55c.68-.4.52.52.68.8a5.34,5.34,0,0,0,3.45,3,4.35,4.35,0,0,0,4.28-1.4c.52-1,1.15-2.36.28-3.36a2.74,2.74,0,0,0-2.18-1,2.69,2.69,0,0,0-2.18,1.48c0,.32,0,.68.24.84.16,0,.48,0,.6-.2.08-.6.59-.88,1.07-1.2a1.24,1.24,0,0,1,1.27.24A2.09,2.09,0,0,1,79.52,69a2.41,2.41,0,0,1-1.31,1.88,4,4,0,0,1-3.81-.36,8.78,8.78,0,0,1-1.11-1.76,2.91,2.91,0,0,1,0-1.84,13.41,13.41,0,0,1,5.67-2,4,4,0,0,1,2.1,1.32c1.82,1.88-.4,4.56.87,6.63.48-.08.48-.72.67-1.12.6-1.44-.16-3-.51-4.39A8.22,8.22,0,0,0,80.59,65a1,1,0,0,1,.48-.08A9.85,9.85,0,0,1,83.49,67,10.74,10.74,0,0,1,85,73.55c-.32,1.2-1.59,1.76-2.58,2.2A3.71,3.71,0,0,0,81.38,77c.48.28,1.15,0,1.63-.2.75-.28,1.19-1.24,1.71-1.68l.08.24c0,.44-.2,1,.2,1.16a14.23,14.23,0,0,0,.36-2,4,4,0,0,1,.75,2c.36.72,1,1.68,1.9,1.8.24-.36,0-.72-.12-1-.12-1-1-1.52-1.51-2.24C85,73.11,85.63,70.12,84.56,68a8.4,8.4,0,0,0-2.14-3l.16-.16a23.48,23.48,0,0,1,5.35,1c2.18,1.08,5.35.84,6.39,3.68a10.49,10.49,0,0,0,2.26,4.31l.12-.08a1.62,1.62,0,0,0,0-1.48c-.24-2-2-2.48-2.9-4.15l.12-.16a26.85,26.85,0,0,1,2.9.92,8.54,8.54,0,0,1,5.79,7.23,15.63,15.63,0,0,1-1.47,6.83c-.12.32-.67.68-.32,1,.44-.32.52-.84.75-1.2a11.13,11.13,0,0,0,1.31-8c0-.52-.63-.92-.36-1.44a1.26,1.26,0,0,0,.68.36c.24-.16.6-.16.75-.44s.2-.52,0-.72a1.09,1.09,0,0,0-1.15-.28,1.91,1.91,0,0,0-.48.88,8.24,8.24,0,0,0-1.43-2.12l.08-.12c1.79.6,3.41,1.48,5.24,2a2.6,2.6,0,0,0,1.39.44,39.78,39.78,0,0,0,4.88,1.24c1.19-.12,2.18.44,3.37.16v-.08l0,0c-.44-.56-1.39,0-1.9-.44a29.92,29.92,0,0,1-7.81-2c0-.12.2-.08.32-.08a1,1,0,0,0,.63-1,1.07,1.07,0,0,0-.91-.44,1.12,1.12,0,0,0-.6.68,1,1,0,0,0,.6.76c-.08.08-.24,0-.36,0-1.23-.56-2.42-1.08-3.61-1.64-.44-.08-.79-.44-1.23-.52-.91-.44-1.82-.88-2.74-1.24a62.64,62.64,0,0,0-8.05-3l-1.71-.48c-1-.28-2-.52-3-.8-3.37-.84-7.89-.92-10.83.92-.48-.16-.75.6-1,.12.83-2.2,3.25-2.92,5.43-3,15.91-.16,30.82-.28,46.49-.52a5,5,0,0,0,4.56-2.28A4,4,0,0,0,130.41,56ZM67.34,70.72a3.6,3.6,0,0,0-.44,1.4l-.16.08c.12-.6-.48-1-.32-1.6-.32-.48-.32-1.08-.59-1.6s.32-.92.59-1.36c.56.24.75.76,1.15,1.24C67.82,69.56,67.3,70.08,67.34,70.72Z" transform="translate(-2 -2)" style="fill:#231f20"/><path d="M110.38,68.2c0,.12.24.16.16.36a8.29,8.29,0,0,1-5.31,1.68c-.16,0-.32.16-.51.12s-.16-.2-.08-.28A6.05,6.05,0,0,1,110.38,68.2Z" transform="translate(-2 -2)" style="fill:#231f20"/><path d="M104,68.84c.16.56-.2.88-.64,1.08a1.13,1.13,0,0,1-.87-.64c-.12-.32.16-.48.28-.68A.75.75,0,0,1,104,68.84Z" transform="translate(-2 -2)" style="fill:#231f20"/><path d="M28.59,68.92a.82.82,0,0,1-.2.84.81.81,0,0,1-.72.2c-.28,0-.44-.36-.51-.6a.86.86,0,0,1,.51-.76C28,68.6,28.35,68.56,28.59,68.92Z" transform="translate(-2 -2)" style="fill:#231f20"/><path d="M21.49,71.52v.28a3.09,3.09,0,0,1-2.58-.6,5.33,5.33,0,0,0-2.1-2c0-.12-.24-.28,0-.36C18.79,68.84,20,70.44,21.49,71.52Z" transform="translate(-2 -2)" style="fill:#231f20"/><path d="M116.41,68.88c-.91,1.36-1.71,3-3.33,3.64-.28,0-.52.4-.75.12a7.31,7.31,0,0,1,3.53-3.8A1.3,1.3,0,0,1,116.41,68.88Z" transform="translate(-2 -2)" style="fill:#231f20"/><path d="M30.89,69.36c0,.44-.28.52-.56.76-.32,0-.48-.2-.67-.44-.16-.4.2-.56.4-.76A.83.83,0,0,1,30.89,69.36Z" transform="translate(-2 -2)" style="fill:#231f20"/><path d="M121.41,69.6c-.36.52-.2,1.28-.55,1.84-.79.92-1.47,2-2.74,2.16-.2-.4.28-.8.48-1.16a5.72,5.72,0,0,1,2.62-3.08Z" transform="translate(-2 -2)" style="fill:#231f20"/><path d="M9.19,70a.79.79,0,0,1,0,.88.93.93,0,0,1-.91.16A.74.74,0,0,1,8,70C8.2,69.68,8.91,69.48,9.19,70Z" transform="translate(-2 -2)" style="fill:#231f20"/><path d="M6.93,70.44c0,.2.16.36.12.56a.93.93,0,0,1-.55.48A.83.83,0,0,1,5.58,71,.78.78,0,0,1,6,70.12.81.81,0,0,1,6.93,70.44Z" transform="translate(-2 -2)" style="fill:#231f20"/><path d="M11.61,70.68c.08.32.16.88-.32,1-.56.24-.87-.16-1.19-.48a.91.91,0,0,1,.48-.8A1.09,1.09,0,0,1,11.61,70.68Z" transform="translate(-2 -2)" style="fill:#231f20"/><path d="M18.12,71.2c0,.28,0,.68-.28.76s-.55.12-.75.08c-.08-.24-.52-.44-.28-.72a1.49,1.49,0,0,1,.55-.44C17.6,71,18,70.88,18.12,71.2Z" transform="translate(-2 -2)" style="fill:#231f20"/><path d="M125.21,71.48c-.12.28-.28.64-.6.64s-.71-.08-.91-.44.2-.68.52-.8S125.14,71,125.21,71.48Z" transform="translate(-2 -2)" style="fill:#231f20"/><path d="M118,71.67c0,.32-.32.56-.48.68a1,1,0,0,1-1.23-.6,1,1,0,0,1,.68-.72A1,1,0,0,1,118,71.67Z" transform="translate(-2 -2)" style="fill:#231f20"/><path d="M122.87,71.6a.83.83,0,0,1-.36.68.92.92,0,0,1-1-.16c-.36-.32-.08-.6.16-.84S122.75,71.12,122.87,71.6Z" transform="translate(-2 -2)" style="fill:#231f20"/><path d="M8.16,72.27a.84.84,0,0,1-.48,1,.91.91,0,0,1-.87-.56.75.75,0,0,1,.4-.84A.91.91,0,0,1,8.16,72.27Z" transform="translate(-2 -2)" style="fill:#231f20"/><path d="M116,72.71a.88.88,0,0,1-.56,1c-.32.08-.52-.08-.75-.28s-.36-.64,0-.84A.78.78,0,0,1,116,72.71Z" transform="translate(-2 -2)" style="fill:#231f20"/><path d="M29.5,73.15c.16.44-.32.52-.43.76-.16.08-.48.12-.6,0s-.44-.48-.32-.84c.2-.16.28-.32.52-.4C29.11,72.51,29.26,72.91,29.5,73.15Z" transform="translate(-2 -2)" style="fill:#231f20"/><path d="M124.5,73.43c.08.28-.16.4-.2.6a1.06,1.06,0,0,1-.91.16c-.36-.2-.36-.52-.36-.88.24-.16.28-.36.56-.44A.91.91,0,0,1,124.5,73.43Z" transform="translate(-2 -2)" style="fill:#231f20"/><path d="M122,73.55c.16.48-.28.72-.6.84-.16,0-.4-.08-.44.16a10.48,10.48,0,0,1,2.46,2.12V77a5.36,5.36,0,0,1-3.93-1.52c-.28-.2-.75-.2-1.07-.48.52-.52,1.47-.32,2.18-.36.52-.56-.6-1,.08-1.44.24,0,.4-.28.71-.2A1.35,1.35,0,0,1,122,73.55Z" transform="translate(-2 -2)" style="fill:#231f20"/><path d="M105.82,73.59c.08.2-.16.44-.2.64a.8.8,0,0,1-.87.16c-.2-.28-.52-.52-.4-.92A.82.82,0,0,1,105.82,73.59Z" transform="translate(-2 -2)" style="fill:#231f20"/><path d="M17.13,75c-.12.36-.28.6-.67.64a.78.78,0,0,1-.71-.48c0-.28.16-.44.2-.64C16.37,74.15,17.17,74.39,17.13,75Z" transform="translate(-2 -2)" style="fill:#231f20"/><path d="M20.34,74.47c0,.56-.6.88-.79,1.44a4.05,4.05,0,0,1-3.17,2.64c-.16-.36.52-.8.67-1.16.63-1.36,1.9-2.08,3.05-2.92Z" transform="translate(-2 -2)" style="fill:#231f20"/><path d="M104.87,75c0,.44-.36.76-.68.92s-.63-.16-.83-.32c-.32-.32-.12-.64,0-1C103.87,74.19,104.55,74.59,104.87,75Z" transform="translate(-2 -2)" style="fill:#231f20"/><path d="M107.33,75.31a1,1,0,0,1-.71.88c-.08-.12-.28,0-.4-.08a.88.88,0,0,1-.52-.72c.2-.2.28-.52.56-.56S107.21,74.83,107.33,75.31Z" transform="translate(-2 -2)" style="fill:#231f20"/><path d="M26.49,75.27a.86.86,0,0,1-.59.84.78.78,0,0,1-.75-.48c-.08-.36.28-.6.48-.8C26.09,74.67,26.21,75,26.49,75.27Z" transform="translate(-2 -2)" style="fill:#231f20"/><path d="M29.23,75.43a1,1,0,0,1-.75.68c-.28-.08-.59-.16-.71-.48s.28-.6.55-.8A.84.84,0,0,1,29.23,75.43Z" transform="translate(-2 -2)" style="fill:#231f20"/><path d="M115.85,78.23c.2.16.55.36.47.64-.63.28-1.15-.44-1.74-.56a8.19,8.19,0,0,1-2.06-3.2c.36-.36.75.08,1.07.2A7.83,7.83,0,0,1,115.85,78.23Z" transform="translate(-2 -2)" style="fill:#231f20"/><path d="M117.32,75.43a1,1,0,0,1-.08.88c-.24.4-.75.32-1.11.24-.2-.24-.56-.56-.32-.92s.48-.4.75-.52S117,75.31,117.32,75.43Z" transform="translate(-2 -2)" style="fill:#231f20"/><path d="M32.87,76.47c0,.32.12.8-.28,1a.77.77,0,0,1-1-.48c-.2-.48.24-.56.48-.8C32.44,76.11,32.64,76.27,32.87,76.47Z" transform="translate(-2 -2)" style="fill:#231f20"/><path d="M107.21,79.07a5.84,5.84,0,0,1,1,2.84c-.12.28.2.56,0,.76H108c-1.79-1.28-2.18-3.08-2.86-4.87a.33.33,0,0,1-.16-.4c.4-.36.67.36,1.07.48Z" transform="translate(-2 -2)" style="fill:#231f20"/><path d="M38,77.71l0,.08c-1.59,1.12-3.81,1.8-5.63.72a.3.3,0,0,1,.2-.36,8.2,8.2,0,0,1,3.49-.76Z" transform="translate(-2 -2)" style="fill:#231f20"/><path d="M29,77.91c-1.35.84-2.58,2.48-4.24,2.88-.32.12-.51.56-.91.32.71-2.16,3.05-3.32,5.16-3.52Z" transform="translate(-2 -2)" style="fill:#231f20"/><path d="M104.87,79.7c.12.32,0,.76-.32.84a.55.55,0,0,1-.75,0c-.36-.16-.36-.52-.36-.8s.4-.32.59-.44C104.39,79.39,104.67,79.39,104.87,79.7Z" transform="translate(-2 -2)" style="fill:#231f20"/><path d="M101.57,79.91a2.23,2.23,0,0,1-1.43,1c-1.35.48-2.58-.16-3.77-.48,0-.32.44-.2.63-.4a8.63,8.63,0,0,1,4-.2A.42.42,0,0,1,101.57,79.91Z" transform="translate(-2 -2)" style="fill:#231f20"/><path d="M29,81.06c-.12.16-.16.52-.48.64a.82.82,0,0,1-.79-.16c-.08-.24-.36-.44-.16-.72s.4-.36.63-.44A.85.85,0,0,1,29,81.06Z" transform="translate(-2 -2)" style="fill:#231f20"/><path d="M31.33,81.42a1.46,1.46,0,0,1-.55.76A.87.87,0,0,1,30,81.9a1,1,0,0,1-.12-.8c.08-.2.36-.24.55-.36C30.81,80.7,31.17,81.1,31.33,81.42Z" transform="translate(-2 -2)" style="fill:#231f20"/><path d="M104.11,81.82a1.06,1.06,0,0,1-.28.76.67.67,0,0,1-.87.16c-.28,0-.36-.36-.48-.56s.16-.52.28-.8A.86.86,0,0,1,104.11,81.82Z" transform="translate(-2 -2)" style="fill:#231f20"/><path d="M105.86,81.74c0,.2.16.4.08.56-.24.2-.4.72-.87.52-.24.08-.36-.24-.47-.32a.76.76,0,0,1,.47-1.08C105.42,81.3,105.66,81.62,105.86,81.74Z" transform="translate(-2 -2)" style="fill:#231f20"/><path d="M29.9,82.9A1.08,1.08,0,0,1,29.5,84c-.43.08-1,.08-1.15-.44a1.07,1.07,0,0,1,.48-1.16A1,1,0,0,1,29.9,82.9Z" transform="translate(-2 -2)" style="fill:#231f20"/><path d="M32.16,82.74c-.08,1.12-.32,2.48-1.43,3.12-.64.12-1.27.72-1.9.32V86C29.66,84.78,31.17,83.86,32.16,82.74Z" transform="translate(-2 -2)" style="fill:#231f20"/><path d="M97.89,83.66c.16.24-.12.44-.24.64s-.68.16-1,0-.32-.52-.2-.8A.81.81,0,0,1,97,83.1C97.37,83.06,97.69,83.38,97.89,83.66Z" transform="translate(-2 -2)" style="fill:#231f20"/><path d="M36.13,85.5c.55.92.24,2.16.55,3.16-.67.08-1-.68-1.39-1.08-.87-1.2-.75-2.8-1.15-4.19a.21.21,0,0,1,.28-.08A10.11,10.11,0,0,1,35.93,85C35.85,85.26,36.17,85.26,36.13,85.5Z" transform="translate(-2 -2)" style="fill:#231f20"/><path d="M99.87,84c0,.32-.36.4-.55.6a1.45,1.45,0,0,1-.75-.36c-.12-.4.2-.52.4-.72A.66.66,0,0,1,99.87,84Z" transform="translate(-2 -2)" style="fill:#231f20"/><path d="M104.59,87.54c0,.12,0,.36-.24.28h-.16c-1.15-1-2.3-2.2-2.14-3.8l.24,0C103.36,84.9,104.55,85.9,104.59,87.54Z" transform="translate(-2 -2)" style="fill:#231f20"/><path d="M101.61,86.26a.93.93,0,0,1-.36.76c-.44.12-1.11.08-1.19-.52,0-.4.4-.6.6-.8A.81.81,0,0,1,101.61,86.26Z" transform="translate(-2 -2)" style="fill:#231f20"/><path d="M99,87.1c-.56,1.48-2.06,2.24-3.09,3.36-.2-.12-.12-.44-.08-.6a5.53,5.53,0,0,1,3.05-3.6C99.51,86.34,98.88,86.78,99,87.1Z" transform="translate(-2 -2)" style="fill:#231f20"/><path d="M102,88.29c0,.36-.36.52-.55.72a1.16,1.16,0,0,1-.87-.44c0-.4.28-.52.51-.72A.83.83,0,0,1,102,88.29Z" transform="translate(-2 -2)" style="fill:#231f20"/><path d="M72.46,15.77a1,1,0,0,1,0,2H60.69a1,1,0,0,1,0-2Zm-8.32,1.71c1.15,0,.06-1.39-.56-1.39H62.43c-1.15,0-.06,1.39.55,1.39Zm4.82,0c1.15,0,.06-1.39-.56-1.39H67.25c-1.15,0-.06,1.39.56,1.39Zm3.55-1.39h-.44c-1.15,0-.17,1.39.44,1.39S73.33,16.08,72.51,16.08Z" transform="translate(-2 -2)" style="fill:#231f20"/><path d="M71.42,29.26l2.25.86,2.21-.86L75,32.57l1.75-.36-.6,2,.6,1.92-1.55-.42.68,3.57-2.21-.86-2.25.86.91-3.57-1.79.5.48-2-.48-1.92,1.71.28Zm3.32,6c.5,0,.55-.7.55-1.3,0-1.36-1.08,0-1.63-1.28-.4,1.08-1.51.08-1.51,1.24,0,.8,0,1.34.79,1.34ZM72.54,34c0,.52.7.17,1.21.17S75,34.52,75,34c0-.74-.7-.48-1.21-.48S72.54,33.26,72.54,34Z" transform="translate(-2 -2)" style="fill:#231f20"/><polygon points="64.16 32.13 64.16 31.71 63.79 31.64 64.08 31.33 63.9 30.99 64.28 31.03 64.52 30.62 64.75 31.03 65.14 30.99 64.95 31.33 65.25 31.64 64.88 31.71 64.88 32.13 64.52 31.86 64.16 32.13" style="fill:#231f20"/><polygon points="62.42 34.37 62.42 33.95 62.04 33.88 62.34 33.58 62.16 33.24 62.54 33.28 62.78 32.87 63 33.27 63.39 33.24 63.21 33.58 63.51 33.88 63.13 33.95 63.13 34.37 62.78 34.11 62.42 34.37" style="fill:#231f20"/><polygon points="65.38 34.09 65.38 33.67 65 33.6 65.3 33.29 65.12 32.95 65.5 32.99 65.73 32.58 65.96 32.99 66.36 32.95 66.17 33.29 66.47 33.6 66.09 33.67 66.09 34.09 65.73 33.82 65.38 34.09" style="fill:#231f20"/><polygon points="65.73 35.77 65.73 35.53 65.52 35.49 65.68 35.31 65.58 35.12 65.8 35.15 65.93 34.91 66.06 35.14 66.28 35.12 66.18 35.31 66.34 35.49 66.13 35.53 66.13 35.77 65.93 35.62 65.73 35.77" style="fill:#231f20"/><polygon points="62.98 37.68 62.98 36.97 62.34 36.84 62.84 36.32 62.53 35.74 63.19 35.81 63.59 35.11 63.98 35.8 64.65 35.74 64.34 36.32 64.84 36.84 64.2 36.97 64.2 37.68 63.59 37.23 62.98 37.68" style="fill:#231f20"/><polygon points="64.38 0 65.78 3.44 69.31 2.39 67.52 5.63 70.53 7.77 66.9 8.38 67.12 12.09 64.38 9.6 61.64 12.09 61.86 8.38 58.23 7.77 61.24 5.63 59.45 2.39 62.98 3.44 64.38 0" style="fill:#231f20"/><path d="M53.58,79c-.42.16-.58.27-.48.71l.5,2.1a1.89,1.89,0,0,1-.14,1.38,2.56,2.56,0,0,1-1.44.85,2.91,2.91,0,0,1-1.69,0A1.25,1.25,0,0,1,49.5,83L49,80.79c-.13-.55-.34-.52-.79-.45l0-.17,2.66-.64,0,.16c-.52.14-.76.21-.62.79l.52,2.21c.09.38.31,1.29,1.44,1a1.28,1.28,0,0,0,1.06-1.77l-.48-2c-.09-.4-.24-.61-.93-.47l0-.17,1.73-.42Z" transform="translate(-2 -2)" style="fill:#231f20"/><path d="M57.52,79.48a1.69,1.69,0,0,0-1.82-.88c-.41.09-.8.39-.71.82s.26.47,1,.6l1.27.23a1.41,1.41,0,0,1,1.14,1c.13.58-.2,1.5-1.65,1.82a7,7,0,0,1-1.4.08c-.17,0-.18.17-.19.28l-.23.05-.36-1.64.23-.05a1.69,1.69,0,0,0,1.93,1.06c.95-.21.84-.88.82-1-.1-.44-.5-.52-1.06-.61l-.58-.09c-1.47-.24-1.6-.81-1.66-1.12s0-1.36,1.46-1.69A7.1,7.1,0,0,1,57,78.33c.18,0,.2-.15.21-.28l.24-.05.32,1.44Z" transform="translate(-2 -2)" style="fill:#231f20"/><path d="M62.76,82.1l-2.88.28,0-.17c.58-.1.78-.13.72-.7l-.34-3.56c-.56.08-1.39.19-1.45,1.29l-.23,0-.1-1.36,4.83-.46.14,1.36-.23,0c-.26-1.07-1.1-1-1.66-1l.34,3.56c.06.57.25.57.85.55Z" transform="translate(-2 -2)" style="fill:#231f20"/><path d="M69.48,82.1l-1.66,0-1.63-2.16H66l0,1.33c0,.54.17.57.7.64V82L63.91,82v-.17c.55,0,.71-.06.72-.61l.06-3c0-.58-.24-.6-.7-.64V77.4l2.6.05c.57,0,2.28.1,2.26,1.24,0,.84-.85,1-1.29,1.14l1.59,2a.4.4,0,0,0,.33.14ZM66,79.69c1.06,0,1.48-.13,1.5-1a.85.85,0,0,0-1-1c-.44,0-.46.07-.51.28Z" transform="translate(-2 -2)" style="fill:#231f20"/><path d="M74.79,82.78l-2.6-.33,0-.17c.5,0,.65,0,.67-.18a3.44,3.44,0,0,0-.26-.94l-1.81-.23a4,4,0,0,0-.46.82c0,.26.35.32.62.37l0,.17-1.63-.2,0-.17c.44,0,.58-.21.88-.69l2.24-3.47.23,0,1.35,3.77c.27.77.37,1,.76,1Zm-2.25-1.9-.61-1.74-1,1.54Z" transform="translate(-2 -2)" style="fill:#231f20"/><path d="M79.5,83.74l-4.6-.84,0-.17c.45,0,.7.06.77-.35l.59-3.23c.08-.44-.24-.51-.6-.6l0-.17,2.78.51,0,.17c-.56-.08-.81-.12-.92.47L77,82.68c-.06.32.11.41.64.5a2,2,0,0,0,2.25-.94l.23,0Z" transform="translate(-2 -2)" style="fill:#231f20"/><path d="M82.56,84.43l-2.77-.58,0-.17c.43.06.75.09.83-.32l.66-3.22c.09-.44-.28-.53-.64-.63l0-.17,2.77.58,0,.17c-.37-.06-.76-.14-.85.31l-.67,3.21c-.09.43.22.51.65.63Z" transform="translate(-2 -2)" style="fill:#231f20"/><path d="M88.18,85.15l-2.61-.27,0-.17c.5,0,.65,0,.67-.2a3.53,3.53,0,0,0-.28-.94l-1.81-.19a3.88,3.88,0,0,0-.44.83c0,.26.36.32.63.36l0,.17-1.63-.17,0-.17c.44,0,.58-.23.87-.71l2.16-3.51.23,0,1.43,3.74c.29.76.39,1,.78,1ZM85.89,83.3l-.65-1.73-.92,1.56Z" transform="translate(-2 -2)" style="fill:#231f20"/><path d="M67.5,30.36c0-1.63-.91-.1-1.42-1.49-.37,1.17-1.47.19-1.47,1.45a1,1,0,0,0,.36.91v.48a.22.22,0,0,0,.22.23h1.73a.23.23,0,0,0,.23-.23v-.52A1.06,1.06,0,0,0,67.5,30.36Zm-1.41.31c-.48,0-1.12.33-1.12-.24,0-.8.54-.62,1-.62s1.21-.18,1.21.62C67.2,31,66.56,30.67,66.08,30.67Z" transform="translate(-2 -2)" style="fill:#231f20"/><ellipse cx="79.69" cy="47.72" rx="0.75" ry="0.66" style="fill:#231f20"/><path d="M78.17,26.22a4.11,4.11,0,0,0-.35.7.36.36,0,1,0,.71,0Z" transform="translate(-2 -2)" style="fill:#231f20"/><path d="M54.21,26.22a4.12,4.12,0,0,0-.35.7.36.36,0,1,0,.71,0Z" transform="translate(-2 -2)" style="fill:#231f20"/><path d="M60.2,26.22a4.12,4.12,0,0,0-.35.7.36.36,0,1,0,.71,0Z" transform="translate(-2 -2)" style="fill:#231f20"/><path d="M66.19,26.22a4.12,4.12,0,0,0-.35.7.36.36,0,1,0,.71,0Z" transform="translate(-2 -2)" style="fill:#231f20"/><path d="M72.18,26.22a4.12,4.12,0,0,0-.35.7.36.36,0,1,0,.71,0Z" transform="translate(-2 -2)" style="fill:#231f20"/><path d="M54.23,34.44a4.11,4.11,0,0,1,.35.7.36.36,0,1,1-.71,0Z" transform="translate(-2 -2)" style="fill:#231f20"/><path d="M54.23,42.43a4.14,4.14,0,0,1,.35.7.36.36,0,1,1-.71,0Z" transform="translate(-2 -2)" style="fill:#231f20"/><path d="M55.18,48.75a4.11,4.11,0,0,1,.35.7.36.36,0,1,1-.71,0Z" transform="translate(-2 -2)" style="fill:#231f20"/><path d="M60.21,52.12a4.12,4.12,0,0,1,.35.7.36.36,0,1,1-.71,0Z" transform="translate(-2 -2)" style="fill:#231f20"/><path d="M78.48,34.44a4.12,4.12,0,0,0-.35.7.36.36,0,1,0,.71,0Z" transform="translate(-2 -2)" style="fill:#231f20"/><path d="M78.48,42.43a4.15,4.15,0,0,0-.35.7.36.36,0,1,0,.71,0Z" transform="translate(-2 -2)" style="fill:#231f20"/><path d="M77.52,48.75a4.12,4.12,0,0,0-.35.7.36.36,0,1,0,.71,0Z" transform="translate(-2 -2)" style="fill:#231f20"/><path d="M72.49,52.12a4.13,4.13,0,0,0-.35.7.36.36,0,1,0,.71,0Z" transform="translate(-2 -2)" style="fill:#231f20"/><path d="M66.38,55.68a4.12,4.12,0,0,0-.35.7.36.36,0,1,0,.71,0Z" transform="translate(-2 -2)" style="fill:#231f20"/><path d="M76.12,43.76c.07.11.26.15.5.07l.23-.64s-.26-.3-.43-.26c-.64.15-1.32.23-1.69.84a1.25,1.25,0,0,0,.6,1c.23-.08.26.15.41.27a.27.27,0,0,1-.26.34c-.45-.46-1.24.15-1.58-.42.15-.57.45-1.21,0-1.75,0-.11.23-.23.11-.34-.19-.53-.75-.11-1.09-.11a1.44,1.44,0,0,0-1.36.68,1.05,1.05,0,0,0,.3.57c.15,0,.23,0,.26.15l-.38.23a.81.81,0,0,1,.15.42c-.26.11-.53-.27-.64-.46s0-.84-.38-.91l-.33.11a1.09,1.09,0,0,0-.15.63,2.58,2.58,0,0,0,.15.68,6.53,6.53,0,0,1,1.43,1.39c-.34.68-.34,1.63-1.13,2a.63.63,0,0,0-.23.61l.19.15c.49-.27,1.43-.34,1.36-1.18a3,3,0,0,1,.71-1,.78.78,0,0,1,.87.42,1.49,1.49,0,0,1-1,1.14c-.07.08,0,.19,0,.3.15.27.57.15.79.11.64-.42.91-1.18,1.47-1.4.07.38-.75.49-.23.87.34-.08.79,0,1-.42-.26-.64.9-.95.19-1.52,0-.57.6-.8.56-1.4-.23-.61-.94-.61-1.13-1.18A.83.83,0,0,1,76.12,43.76Z" transform="translate(-2 -2)" style="fill:#231f20"/><ellipse cx="46.6" cy="48.01" rx="0.75" ry="0.66" style="fill:#231f20"/><ellipse cx="7.75" cy="70.65" rx="0.74" ry="0.71" style="fill:#231f20"/><path d="M34.48,78.87h0l0-.06h0v0l0,0h-.08l0,0v-.09l0,0h.08l.07,0,0,0,0,.06h0Zm-.1-.07,0,0,0,0h0Z" transform="translate(-2 -2)" style="fill:#231f20"/><polygon points="32.58 76.78 32.53 76.74 32.51 76.76 32.53 76.78 32.57 76.8 32.59 76.83 32.54 76.88 32.5 76.87 32.49 76.88 32.48 76.88 32.48 76.83 32.49 76.83 32.54 76.87 32.57 76.85 32.54 76.82 32.52 76.82 32.48 76.77 32.54 76.73 32.57 76.74 32.58 76.73 32.59 76.73 32.59 76.78 32.58 76.78" style="fill:#231f20"/><polygon points="32.83 76.74 32.81 76.75 32.77 76.87 32.76 76.87 32.72 76.78 32.72 76.78 32.67 76.87 32.67 76.87 32.62 76.75 32.6 76.74 32.6 76.74 32.67 76.74 32.67 76.74 32.66 76.75 32.66 76.76 32.69 76.83 32.69 76.83 32.72 76.77 32.71 76.75 32.69 76.74 32.69 76.74 32.76 76.74 32.76 76.74 32.75 76.75 32.75 76.76 32.77 76.83 32.78 76.83 32.8 76.76 32.8 76.75 32.79 76.74 32.79 76.74 32.83 76.74 32.83 76.74" style="fill:#231f20"/><path d="M34.84,78.87l.06-.05h0l0,0,.05,0,.05.06-.11.08Zm.06-.06h0v0l0-.05v0Z" transform="translate(-2 -2)" style="fill:#231f20"/><polygon points="32.97 76.78 33.02 76.79 33.05 76.83 32.98 76.87 32.95 76.86 32.96 76.84 33.01 76.86 33.03 76.84 33 76.81 32.95 76.81 32.98 76.74 33.05 76.74 33.04 76.76 32.98 76.76 32.97 76.78" style="fill:#231f20"/><path d="M80.16,25.27v0H52.52v0h0l0,21.12c0,2.15.91,4,2.17,4.62l10.63,6.75a1.29,1.29,0,0,0,1.83.1L78,51c1.26-.58,2.17-2.46,2.17-4.62l0-21.12Zm-.78,21.41a4.74,4.74,0,0,1-1.79,3.68L67.17,57h-.06a1.28,1.28,0,0,1-1.62,0l-10.4-6.61a4.75,4.75,0,0,1-1.79-3.68V26H79.38Z" transform="translate(-2 -2)" style="fill:#231f20"/><path d="M70.06,56.06l.34-.16A1.74,1.74,0,0,0,70.06,56.06Z" transform="translate(-2 -2)" style="fill:#231f20"/><path d="M49.21,84.93l-2.61.3,0-.17c.5-.09.64-.11.61-.34a3.43,3.43,0,0,0-.47-.85l-1.81.21a3.91,3.91,0,0,0-.25.91c0,.26.42.23.69.21l0,.17-1.63.19,0-.17c.43-.1.51-.35.7-.88l1.36-3.9.23,0,2.2,3.34c.45.68.6.89,1,.84Zm-2.63-1.31-1-1.54L45,83.81Z" transform="translate(-2 -2)" style="fill:#231f20"/><path d="M95,75a4.17,4.17,0,0,0-2.7-2.48,3.47,3.47,0,0,0-3.45.88c-1.43,1.16-.44,3.08-.4,4.63,0,.32,0,.56-.28.72-5.75-.52-11.11-2-16.82-2.56-1.31-.23-2.63-.17-3.88-.43l-1.6-.17a67.24,67.24,0,0,0-14.56,1.64c-1,.32-2.1.4-3.09.76-.71-.12-1.31.4-2,.2l-1.31.31a1.09,1.09,0,0,1-.44,0c-.63-1.64,1.27-2.64.67-4.23a2.9,2.9,0,0,0-2.74-1.64,3.32,3.32,0,0,0-3.17,1.64c-.91,2,.24,4.07.6,6-.08.64.64,1.36,0,1.88a5.43,5.43,0,0,0-4.48-.92c-.48.24-1.35-.08-1.59.48,1.71.92,3.89.8,5.79.72.24-.08.4-.12.6,0,.16,1-.2,2.44.44,3.36a4.09,4.09,0,0,0,3.05,1.32c3.65-.12,6.9-1.2,10.23-2,.52,0,.91-.32,1.47-.32A29,29,0,0,1,61,84.06a9.93,9.93,0,0,0-1.67,3.6c-.48,1.08.83,1.24,1.23,1.84-1.23.36-2.1,1.2-3.25,1.68-2.54-.08-4.68.88-7.06,1.16,0,.52.83.36.91.88-.12.36-.48.4-.75.6,0,.24,0,.28.24.32.24-.28.75-.08,1-.36.79,0,1.47-.24,2.22-.28a7.41,7.41,0,0,0,2-.8c.83-.24,1.35-.8,2.18-1,1.19,0,2.26-.4,3.37-.48v.24c-.91,1.48-1.86,3-2.82,4.39a.45.45,0,0,0,.28.64,2.06,2.06,0,0,0,1.55-.24c.83-1.44,1.59-2.8,2.26-4.28.28-1.36,1.27-2.08,2.26-3,.16-.08.4-.32.56-.08a18.21,18.21,0,0,0-1.9,2.8,3.37,3.37,0,0,0,.59,3.48c.48.4,1.19.28,1.83.32,1.55-.8,3.53.48,4.72-1,.71-.12.83.72,1.23,1.12.68.2,1.39.88,2.06.4,0-.44-.52-.84-.75-1.24-.48-.84-1.07-1.52-1.51-2.28a7.94,7.94,0,0,1-.64-1.48,12.54,12.54,0,0,0,2.14.84,13.23,13.23,0,0,1,2.14.64,7.28,7.28,0,0,0,2,1.52c1,.48,2.1.56,3.13,1,.4,0,1,.36,1.27,0a1.67,1.67,0,0,0-.59-.44c-.12-.52.71-.24,1-.64a.56.56,0,0,0-.46-.3c-.57-.3-2-.41-2.36-.62A9.28,9.28,0,0,1,78,92.45c-2.38,0-3.69-2.16-5.59-3,.44-.4,1.11-.72,1.39-1.32a2.22,2.22,0,0,0,.12-2.12C73.57,84.82,72,85,71.07,84.3l.12-.12a16.58,16.58,0,0,1,4.28.56c3.81.52,7.34,2,11.31,2,2.18,0,4.92.12,6-2,.2-1.24.44-2.48.63-3.72C93.88,79.07,95.19,77.23,95,75ZM52.15,93.25l-.55-.52c.28-.36.87-.16,1.31-.4a6.89,6.89,0,0,1,3.37-.48C55.09,92.81,53.54,92.93,52.15,93.25Zm24.76-.64a17.32,17.32,0,0,0,4.23,1c-.12.54-1.09,0-1,.8-1.23-.48-2.66-.72-3.57-1.68C76.68,92.69,76.76,92.57,76.91,92.61Zm-37.22-17a2.89,2.89,0,0,1,1-2,3.35,3.35,0,0,1,3.14.12,1.53,1.53,0,0,1,.64.76,1.78,1.78,0,0,1-.6,1.8h-.4a4.41,4.41,0,0,1,.24-1.8c0-.48-.44-.52-.75-.72a2.31,2.31,0,0,0-1.79.4A1.8,1.8,0,0,0,40.61,76c.28.44,0,1,.2,1.52l-.12.16A2.46,2.46,0,0,1,39.7,75.63Zm1.86,1.14c.59.44,1.43.24,2.14.36a1.51,1.51,0,0,1-.2,1.36c-.67-.16-1.55-.08-1.9-.72C41.68,77.49,41.48,77.09,41.56,76.77Zm-.12-1.34c.12-.32,0-.8.44-.88.28-.08.71-.08.75.24a7.9,7.9,0,0,1-.2,1.4A.92.92,0,0,1,41.44,75.43ZM60,88.25a4.33,4.33,0,0,1,1.27-3.6,2.29,2.29,0,0,1,1.71.08c-1,.28-2.34.52-2.58,1.84,0,.52-.12.8.12,1.24.44.76,1.43.44,2,1a.51.51,0,0,1-.36.48A15.33,15.33,0,0,1,60,88.25ZM58.62,91c1-.4,1.94-1.24,3-.88A5.46,5.46,0,0,1,58.62,91Zm3.77.4a30.63,30.63,0,0,1-1.94,3.75c-.08.2-.4.24-.63.28,0-.56.56-1,.79-1.48.83-1.08,1.07-2.24,2-3.28C62.86,90.93,62.38,91.09,62.38,91.41Zm1-2.32v.16H63.3v-.2h.16l-.16,0ZM63,88a9.46,9.46,0,0,1-1.9-.48c-.4-.4,0-.84,0-1.28.55-.88,2.14-1.32,2.9-.52A4.24,4.24,0,0,1,63,88Zm.87,0a6.69,6.69,0,0,1,.63-1.68A3.35,3.35,0,0,1,63.89,88Zm.44-3.24c-.52-.12-.79-.72-1.35-.72a3.17,3.17,0,0,1,1.51,0C64.69,84.3,64.37,84.54,64.33,84.78ZM64.8,86h0v-.44h0Zm0,1.84c0-.16.08-.36.12-.56.2-.2.4.16.48.28A.59.59,0,0,1,64.84,87.82Zm.6-2.48a4.44,4.44,0,0,1,.6-1.48A2.32,2.32,0,0,1,67.1,84c.08.8,1.07,1.88,0,2.56-.36.16-.87.52-1.27.16A1.11,1.11,0,0,1,65.44,85.34Zm2.9-1.12c-.08-.36.36-.08.52-.24l1.23.08C69.44,84,68.65,85.46,68.33,84.22Zm2,.52c-.48.16-.83.72-1.31.84A1.61,1.61,0,0,1,70.32,84.74Zm-1.67,2.48v.12h0v-.12Zm.08,2.44c0,.08,0,.2-.08.28l-.91-.72A1,1,0,0,1,68.73,89.65Zm-1.07-1.24h0Zm-.56-.6c.16-.24.36-.6.63-.6l.08.12A2,2,0,0,1,67.1,87.82Zm-.91-.08H66l.24-.24C66.39,87.58,66.23,87.66,66.19,87.74Zm.12,1.52c.52-.56,1,.32,1.19.76.6.88,2.14,1.68,1.55,2.88-.75.68-1.94,0-2.78.56-.44,0-1.19.08-1.43-.36A23.31,23.31,0,0,1,66.31,89.25ZM65.2,90l.2-.32a17,17,0,0,1-1.31,2.88C63.85,91.61,64.84,90.85,65.2,90Zm1.75,4.75c-.75,0-1.9.48-2.62-.16,0-.32-.32-.48-.28-.8.63-.24,1.19.52,1.79,0a16.14,16.14,0,0,1,2.78.08c.44.12,1.11-.72,1.19.12C69.48,95.29,67.9,94.37,66.95,94.77ZM69.25,89v-.12h.08V89Zm.24,2.52c0,.4.44.56.2.92A1.22,1.22,0,0,1,69.48,91.53Zm1.11,2.4-.2.08c-.2-.16-.12-.6-.08-.84C70.56,93.37,70.75,93.65,70.6,93.93Zm2,1c0,.12-.24.12-.32,0a21.23,21.23,0,0,1-2.5-4.79l.16,0C70.87,91.65,71.63,93.37,72.58,94.89ZM74,91.21l-.08.16a4.54,4.54,0,0,1-2.78-1.24l0-.2A7.51,7.51,0,0,1,74,91.21ZM73,85.9c.48.12.52.64.56,1a2.36,2.36,0,0,1-2.9,2.12,2.53,2.53,0,0,0,2.38-1.36Zm-.87-.16a2.68,2.68,0,0,1,.36,1.76c-.4.76-1.19.76-1.9.92a1.24,1.24,0,0,1-.91-.28.41.41,0,0,0-.16-.4c.12-.52-.91-1-.2-1.48C70,85.66,71.47,84.3,72.14,85.74Zm20.15-2.92c-.32.4,0,1-.44,1.4,0,.72-.6,1.08-1.11,1.36-4.72,1-9.36-.56-13.92-1.36a48.52,48.52,0,0,0-20.35-.32c-3.05.56-6,1.28-9,2.12A13,13,0,0,1,42,86c-1.43-.68-.83-2.52-1.27-3.8a20.89,20.89,0,0,0-.32-2.76,2.37,2.37,0,0,1-.16-1c.59.08,1.19.52,1.82.68,3.33.64,6.31-.44,9.4-1a68.51,68.51,0,0,1,9.16-1.4A58.69,58.69,0,0,1,71.23,77c1.11,0,2.06.32,3.13.4,2.22.28,4.29.88,6.55,1a10.84,10.84,0,0,0,1.19.2c3.57.56,7.57,1.56,11,0A29.47,29.47,0,0,1,92.29,82.82Zm-1.11-4.87c0,.64-.56.48-.87.72h-1a2.18,2.18,0,0,1-.12-1.12A8,8,0,0,1,91.18,77.95Zm-.44-1c.44-.44-.12-3,1.11-1.32,0,.32,0,.8-.28,1S91.06,77.15,90.75,76.95Zm3.21-.4a2.28,2.28,0,0,1-1.71,1.36c0-1,.91-1.64.6-2.72a2.39,2.39,0,0,0-2.5-.8c-.36.24-.2.64-.32,1l-.16,1.32c-.79,0-.83-.72-1.07-1.28A2.31,2.31,0,0,1,90,73.35a2.73,2.73,0,0,1,2.3.08,1.78,1.78,0,0,1,1.31.84C94.24,74.83,94.08,75.83,94,76.55Z" transform="translate(-2 -2)" style="fill:#231f20"/><path d="M609.93,88v-.57q-1,0-1-1.09V78.68q.91-1.55,1.84-1.55t1,1.29v7.91q0,1.09-1,1.09V88h5.62v-.57h-.14q-1,0-1-1.09V78.88a4.39,4.39,0,0,0-.4-2,2.55,2.55,0,0,0-1.07-1.14,3.1,3.1,0,0,0-1.46-.35,4.57,4.57,0,0,0-3.36,1.82V75.8h-4.61v.59q.75,0,.95.3a1.39,1.39,0,0,1,.2.77v8.87q0,1.09-1,1.09h-.14V88Zm-14.09-2.16a17.33,17.33,0,0,1-.36-4q0-1.14.06-2a8.32,8.32,0,0,1,.23-1.68,2.86,2.86,0,0,1,.62-1.25,1.38,1.38,0,0,1,1.11-.47,1.63,1.63,0,0,1,1.66,1.46,17.46,17.46,0,0,1,.36,4,17.33,17.33,0,0,1-.36,4,1.67,1.67,0,0,1-3.32,0Zm4.39,1.8a5.57,5.57,0,0,0,2.14-2.19,8,8,0,0,0,0-7.13,5.64,5.64,0,0,0-2.15-2.2,5.51,5.51,0,0,0-2.72-.73,5.3,5.3,0,0,0-2.93.84,5.85,5.85,0,0,0-2,2.34,7.36,7.36,0,0,0-.74,3.32,7.06,7.06,0,0,0,.84,3.57,5.51,5.51,0,0,0,7.59,2.19ZM586.58,73.35a1.77,1.77,0,0,0,1.32.54,1.67,1.67,0,0,0,1.35-.6,1.92,1.92,0,0,0,.5-1.25,1.88,1.88,0,0,0-.52-1.27,1.67,1.67,0,0,0-1.34-.59,1.86,1.86,0,0,0-1.32,3.16ZM590.79,88v-.57a1.15,1.15,0,0,1-.93-.29,1.26,1.26,0,0,1-.23-.8V75.8H585v.59q.75,0,.95.3a1.39,1.39,0,0,1,.2.77v8.87q0,1.07-1,1.09H585V88ZM578,76.89v7.93q0,3.54,2.93,3.54a2.66,2.66,0,0,0,2-.74,7.17,7.17,0,0,0,1.32-2.32l-.66-.21q-.41,1.51-1.31,1.51a.68.68,0,0,1-.7-.47,4.07,4.07,0,0,1-.16-1.31V76.89h2.61V75.8h-2.61V71.24H581a10.68,10.68,0,0,1-1.18,2.06,11.44,11.44,0,0,1-1.59,1.79,6.22,6.22,0,0,1-1.72,1.14v.66Zm-9,9.21q-1,0-1-1.49,0-1.77,2.6-3.09v3.74A2.33,2.33,0,0,1,569.08,86.1Zm5.71.55a.51.51,0,0,1-.54-.35,3.5,3.5,0,0,1-.12-1V78.68q0-3.3-4.21-3.3a7.43,7.43,0,0,0-2.33.39,4.91,4.91,0,0,0-2,1.15,2.53,2.53,0,0,0-.76,1.84,1.56,1.56,0,0,0,.5,1.23,1.9,1.9,0,0,0,1.31.46A1.66,1.66,0,0,0,568,80a1.52,1.52,0,0,0,.44-1.07,1.55,1.55,0,0,0-.41-1,1.18,1.18,0,0,1-.33-.71.68.68,0,0,1,.43-.59,2.09,2.09,0,0,1,1-.24q1,0,1.26.5a2.15,2.15,0,0,1,.29,1v2.54a19.7,19.7,0,0,0-3.91,1.94A5.62,5.62,0,0,0,565,84.18a3.68,3.68,0,0,0-.44,1.76,2.36,2.36,0,0,0,.68,1.76,2.33,2.33,0,0,0,1.7.66,5.94,5.94,0,0,0,3.78-2h.09a2.07,2.07,0,0,0,.75,1.61,2.68,2.68,0,0,0,1.4.36,3.07,3.07,0,0,0,1.69-.45A4.67,4.67,0,0,0,576,86.39l-.46-.29Q575.13,86.65,574.79,86.65ZM560.15,88v-.57a1.15,1.15,0,0,1-.93-.29,1.26,1.26,0,0,1-.23-.8v-6a6.08,6.08,0,0,1,.21-1.76.88.88,0,0,1,.93-.66,1,1,0,0,1,.62.38,5,5,0,0,0,.56.54A1.25,1.25,0,0,0,562,79a1.72,1.72,0,0,0,1.22-.49,1.79,1.79,0,0,0,.52-1.37,1.53,1.53,0,0,0-.59-1.31,2.19,2.19,0,0,0-1.36-.43,3,3,0,0,0-1.61.47A3.63,3.63,0,0,0,559,77.22V75.8h-4.61v.59q.75,0,.95.3a1.39,1.39,0,0,1,.2.77v8.87q0,1.07-1,1.09h-.14V88Zm-14.24-2.16a17.33,17.33,0,0,1-.36-4q0-1.14.06-2a8.32,8.32,0,0,1,.23-1.68,2.86,2.86,0,0,1,.62-1.25,1.38,1.38,0,0,1,1.11-.47,1.63,1.63,0,0,1,1.66,1.46,17.46,17.46,0,0,1,.36,4,17.33,17.33,0,0,1-.36,4,1.67,1.67,0,0,1-3.32,0Zm4.39,1.8a5.57,5.57,0,0,0,2.14-2.19,8,8,0,0,0,0-7.13,5.64,5.64,0,0,0-2.15-2.2,5.51,5.51,0,0,0-2.72-.73,5.3,5.3,0,0,0-2.93.84,5.85,5.85,0,0,0-2,2.34,7.36,7.36,0,0,0-.74,3.32,7.06,7.06,0,0,0,.84,3.57,5.51,5.51,0,0,0,7.59,2.19Zm-16-10.18a1.25,1.25,0,0,1,.89-.4,1.29,1.29,0,0,1,1.34,1.06,11.71,11.71,0,0,1,.29,2.95v.87q0,.22,0,.8c0,.39,0,.69,0,.9a8.53,8.53,0,0,1-.29,2.48,1.16,1.16,0,0,1-1.17.93,1.4,1.4,0,0,1-.82-.32,2.66,2.66,0,0,1-.71-.8V78.67A1.67,1.67,0,0,1,534.29,77.45Zm-5.06-1.16v.58h.14c.44,0,.71.11.83.32a1.6,1.6,0,0,1,.18.79V91.15q0,1.08-1,1.08h-.14v.57h5.93v-.57h-.32q-1,0-1-1.08V87.23a3,3,0,0,0,2.38,1.14,3.48,3.48,0,0,0,2.24-.79A5.06,5.06,0,0,0,540,85.36a9.18,9.18,0,0,0,.54-3.26,9.37,9.37,0,0,0-1.1-5,3.37,3.37,0,0,0-3-1.74,2.9,2.9,0,0,0-2.6,1.51V75.38h-.67ZM525.17,88v-.57a1.15,1.15,0,0,1-.93-.29,1.26,1.26,0,0,1-.23-.8v-6a6.08,6.08,0,0,1,.21-1.76.88.88,0,0,1,.93-.66,1,1,0,0,1,.62.38,5,5,0,0,0,.56.54,1.25,1.25,0,0,0,.73.16,1.72,1.72,0,0,0,1.22-.49,1.79,1.79,0,0,0,.52-1.37,1.53,1.53,0,0,0-.59-1.31,2.19,2.19,0,0,0-1.36-.43,3,3,0,0,0-1.61.47A3.63,3.63,0,0,0,524,77.22V75.8h-4.61v.59q.75,0,.95.3a1.39,1.39,0,0,1,.2.77v8.87q0,1.07-1,1.09h-.14V88Zm-14.24-2.16a17.33,17.33,0,0,1-.36-4q0-1.14.06-2a8.32,8.32,0,0,1,.23-1.68,2.86,2.86,0,0,1,.62-1.25,1.38,1.38,0,0,1,1.11-.47,1.63,1.63,0,0,1,1.66,1.46,17.46,17.46,0,0,1,.36,4,17.33,17.33,0,0,1-.36,4,1.67,1.67,0,0,1-3.32,0Zm4.39,1.8a5.57,5.57,0,0,0,2.14-2.19,8,8,0,0,0,0-7.13,5.64,5.64,0,0,0-2.15-2.2,5.51,5.51,0,0,0-2.72-.73,5.3,5.3,0,0,0-2.93.84,5.85,5.85,0,0,0-2,2.34,7.36,7.36,0,0,0-.74,3.32,7.06,7.06,0,0,0,.84,3.57,5.51,5.51,0,0,0,7.59,2.19Zm-11-17.81q-.21,1.22-1,1.22a1.6,1.6,0,0,1-.49-.08l-.77-.32-.71-.31a8,8,0,0,0-2.88-.51,9.09,9.09,0,0,0-3.62.71,8.25,8.25,0,0,0-2.84,2,9,9,0,0,0-1.82,3,10.39,10.39,0,0,0-.63,3.63,9.73,9.73,0,0,0,1.17,4.75A8.57,8.57,0,0,0,494,87.21a9,9,0,0,0,4.66,1.21,8.48,8.48,0,0,0,2.36-.34,6.81,6.81,0,0,0,2.47-1.43,9.46,9.46,0,0,0,2.26-3.08l-.77-.43A10.13,10.13,0,0,1,502.64,86a4.67,4.67,0,0,1-3.06,1,5,5,0,0,1-3-.92,5.63,5.63,0,0,1-1.92-2.68,14.41,14.41,0,0,1,.09-8.87,5.36,5.36,0,0,1,2-2.57,4.85,4.85,0,0,1,2.68-.79,4.45,4.45,0,0,1,2.26.61,5.24,5.24,0,0,1,1.77,1.7,6.26,6.26,0,0,1,.94,2.46h.73V69.82ZM473.16,88v-.57q-1,0-1-1.09V78.68q.91-1.55,1.84-1.55t1,1.29v7.91q0,1.09-1,1.09V88h5.62v-.57h-.14q-1,0-1-1.09V78.88a4.39,4.39,0,0,0-.4-2A2.55,2.55,0,0,0,477,75.73a3.1,3.1,0,0,0-1.46-.35,4.57,4.57,0,0,0-3.36,1.82V75.8h-4.61v.59q.75,0,.95.3a1.39,1.39,0,0,1,.2.77v8.87q0,1.09-1,1.09h-.14V88Zm-14.09-2.16a17.33,17.33,0,0,1-.36-4q0-1.14.06-2a8.32,8.32,0,0,1,.23-1.68,2.86,2.86,0,0,1,.62-1.25,1.38,1.38,0,0,1,1.11-.47,1.63,1.63,0,0,1,1.66,1.46,17.46,17.46,0,0,1,.36,4,17.33,17.33,0,0,1-.36,4,1.67,1.67,0,0,1-3.32,0Zm4.39,1.8a5.57,5.57,0,0,0,2.14-2.19,8,8,0,0,0,0-7.13,5.64,5.64,0,0,0-2.15-2.2,5.51,5.51,0,0,0-2.72-.73,5.3,5.3,0,0,0-2.93.84,5.85,5.85,0,0,0-2,2.34,7.36,7.36,0,0,0-.74,3.32,7.06,7.06,0,0,0,.84,3.57,5.51,5.51,0,0,0,7.59,2.19ZM449.81,73.35a1.77,1.77,0,0,0,1.32.54,1.67,1.67,0,0,0,1.35-.6A1.92,1.92,0,0,0,453,72a1.88,1.88,0,0,0-.52-1.27,1.67,1.67,0,0,0-1.34-.59,1.86,1.86,0,0,0-1.32,3.16ZM454,88v-.57a1.15,1.15,0,0,1-.93-.29,1.26,1.26,0,0,1-.23-.8V75.8h-4.61v.59q.75,0,.95.3a1.39,1.39,0,0,1,.2.77v8.87q0,1.07-1,1.09h-.14V88ZM441.27,76.89v7.93q0,3.54,2.93,3.54a2.66,2.66,0,0,0,2-.74,7.17,7.17,0,0,0,1.32-2.32l-.66-.21q-.41,1.51-1.31,1.51a.68.68,0,0,1-.7-.47,4.07,4.07,0,0,1-.16-1.31V76.89h2.61V75.8h-2.61V71.24h-.5A10.68,10.68,0,0,1,443,73.3a11.44,11.44,0,0,1-1.59,1.79,6.22,6.22,0,0,1-1.72,1.14v.66Zm-9,9.21q-1,0-1-1.49,0-1.77,2.6-3.09v3.74A2.33,2.33,0,0,1,432.31,86.1Zm5.71.55a.51.51,0,0,1-.54-.35,3.5,3.5,0,0,1-.12-1V78.68q0-3.3-4.21-3.3a7.43,7.43,0,0,0-2.33.39,4.91,4.91,0,0,0-2,1.15,2.53,2.53,0,0,0-.76,1.84,1.56,1.56,0,0,0,.5,1.23,1.9,1.9,0,0,0,1.31.46A1.66,1.66,0,0,0,431.2,80a1.52,1.52,0,0,0,.44-1.07,1.55,1.55,0,0,0-.41-1,1.18,1.18,0,0,1-.33-.71.68.68,0,0,1,.43-.59,2.09,2.09,0,0,1,1-.24q1,0,1.26.5a2.15,2.15,0,0,1,.29,1v2.54A19.7,19.7,0,0,0,430,82.42a5.62,5.62,0,0,0-1.78,1.76,3.68,3.68,0,0,0-.44,1.76,2.36,2.36,0,0,0,.68,1.76,2.33,2.33,0,0,0,1.7.66,5.94,5.94,0,0,0,3.78-2H434a2.07,2.07,0,0,0,.75,1.61,2.68,2.68,0,0,0,1.4.36,3.07,3.07,0,0,0,1.69-.45,4.67,4.67,0,0,0,1.36-1.52l-.46-.29Q438.36,86.65,438,86.65ZM426.66,88v-.57a1.13,1.13,0,0,1-.93-.29,1.31,1.31,0,0,1-.22-.8V75.8H420.9v.59q1.16,0,1.16,1.08v7.24a4.74,4.74,0,0,1-.83,1.24,1.35,1.35,0,0,1-.95.54q-1,0-1-1.58V75.8h-4.61v.59h.14q.66,0,.83.31a1.5,1.5,0,0,1,.18.77v7.42a3.49,3.49,0,0,0,.9,2.58,2.93,2.93,0,0,0,2.14.9,3.7,3.7,0,0,0,1.77-.48,3.46,3.46,0,0,0,1.43-1.39V88Zm-19.14,0v-.57q-1,0-1-1.09V78.68q.91-1.55,1.84-1.55t1,1.29v7.91q0,1.09-1,1.09V88H414v-.57h-.14q-1,0-1-1.09V78.88a4.39,4.39,0,0,0-.4-2,2.55,2.55,0,0,0-1.07-1.14,3.1,3.1,0,0,0-1.46-.35,4.57,4.57,0,0,0-3.36,1.82V75.8h-4.61v.59q.75,0,.95.3a1.39,1.39,0,0,1,.2.77v8.87q0,1.09-1,1.09h-.14V88Zm-12.84,0v-.57q-1,0-1-1.09V78.68q.91-1.55,1.84-1.55t1,1.29v7.91q0,1.09-1,1.09V88h5.62v-.57H401q-1,0-1-1.09V78.88a4.39,4.39,0,0,0-.4-2,2.55,2.55,0,0,0-1.07-1.14,3.1,3.1,0,0,0-1.46-.35,4.57,4.57,0,0,0-3.36,1.82V75.8h-4.61v.59q.75,0,.95.3a1.39,1.39,0,0,1,.2.77v8.87q0,1.09-1,1.09h-.14V88Zm-13.13-1.9q-1,0-1-1.49,0-1.77,2.6-3.09v3.74A2.33,2.33,0,0,1,381.55,86.1Zm5.71.55a.51.51,0,0,1-.54-.35,3.5,3.5,0,0,1-.12-1V78.68q0-3.3-4.21-3.3a7.43,7.43,0,0,0-2.33.39,4.91,4.91,0,0,0-2,1.15,2.53,2.53,0,0,0-.76,1.84,1.56,1.56,0,0,0,.5,1.23,1.9,1.9,0,0,0,1.31.46,1.66,1.66,0,0,0,1.27-.47,1.52,1.52,0,0,0,.44-1.07,1.55,1.55,0,0,0-.41-1,1.18,1.18,0,0,1-.33-.71.68.68,0,0,1,.43-.59,2.09,2.09,0,0,1,1-.24q1,0,1.26.5a2.15,2.15,0,0,1,.29,1v2.54a19.7,19.7,0,0,0-3.91,1.94,5.62,5.62,0,0,0-1.78,1.76,3.68,3.68,0,0,0-.44,1.76,2.36,2.36,0,0,0,.68,1.76,2.33,2.33,0,0,0,1.7.66,5.94,5.94,0,0,0,3.78-2h.09A2.07,2.07,0,0,0,384,88a2.68,2.68,0,0,0,1.4.36,3.07,3.07,0,0,0,1.69-.45,4.67,4.67,0,0,0,1.36-1.52L388,86.1Q387.61,86.65,387.27,86.65ZM372.63,88v-.57a1.15,1.15,0,0,1-.93-.29,1.26,1.26,0,0,1-.23-.8v-6a6.08,6.08,0,0,1,.21-1.76.88.88,0,0,1,.93-.66,1,1,0,0,1,.62.38,5,5,0,0,0,.56.54,1.25,1.25,0,0,0,.73.16,1.72,1.72,0,0,0,1.22-.49,1.79,1.79,0,0,0,.52-1.37,1.53,1.53,0,0,0-.59-1.31,2.19,2.19,0,0,0-1.36-.43,3,3,0,0,0-1.61.47,3.63,3.63,0,0,0-1.23,1.37V75.8h-4.61v.59q.75,0,.95.3a1.39,1.39,0,0,1,.2.77v8.87q0,1.07-1,1.09h-.14V88ZM359.35,78a2.63,2.63,0,0,1,.69-1.25,1.27,1.27,0,0,1,.81-.33,1.18,1.18,0,0,1,.74.29,2.28,2.28,0,0,1,.63,1.07,7.07,7.07,0,0,1,.26,2.17q0,.09,0,.29t0,.31h-3.39A8.91,8.91,0,0,1,359.35,78Zm3.12,8.28a2.83,2.83,0,0,1-1.87-.64,3.86,3.86,0,0,1-1.15-1.71,6.82,6.82,0,0,1-.38-2.31h6.7a8.87,8.87,0,0,0-.35-2.58,6.12,6.12,0,0,0-1-2,4.5,4.5,0,0,0-3.59-1.7,4.35,4.35,0,0,0-2.71.92,6.1,6.1,0,0,0-1.89,2.54,9.1,9.1,0,0,0-.69,3.59,7.28,7.28,0,0,0,.6,2.94,5.12,5.12,0,0,0,1.79,2.2,4.9,4.9,0,0,0,2.87.83,4.46,4.46,0,0,0,3.13-1.1,7.35,7.35,0,0,0,1.84-2.6l-.62-.36Q364.05,86.29,362.47,86.29ZM348,77.45a1.25,1.25,0,0,1,.89-.4,1.29,1.29,0,0,1,1.34,1.06,11.71,11.71,0,0,1,.29,2.95v.87q0,.22,0,.8c0,.39,0,.69,0,.9a8.53,8.53,0,0,1-.29,2.48,1.16,1.16,0,0,1-1.17.93,1.4,1.4,0,0,1-.82-.32,2.66,2.66,0,0,1-.71-.8V78.67A1.67,1.67,0,0,1,348,77.45Zm-5.06-1.16v.58h.14c.44,0,.71.11.83.32a1.6,1.6,0,0,1,.18.79V91.15q0,1.08-1,1.08h-.14v.57h5.93v-.57h-.32q-1,0-1-1.08V87.23a3,3,0,0,0,2.38,1.14,3.48,3.48,0,0,0,2.24-.79,5.06,5.06,0,0,0,1.52-2.21,9.18,9.18,0,0,0,.54-3.26,9.37,9.37,0,0,0-1.1-5,3.37,3.37,0,0,0-3-1.74,2.9,2.9,0,0,0-2.6,1.51V75.38h-.67ZM342.14,88v-.57a1.13,1.13,0,0,1-.93-.29,1.31,1.31,0,0,1-.22-.8V75.8h-4.62v.59q1.16,0,1.16,1.08v7.24a4.74,4.74,0,0,1-.83,1.24,1.35,1.35,0,0,1-.95.54q-1,0-1-1.58V75.8h-4.61v.59h.14q.66,0,.83.31a1.5,1.5,0,0,1,.18.77v7.42a3.49,3.49,0,0,0,.9,2.58,2.93,2.93,0,0,0,2.14.9,3.7,3.7,0,0,0,1.77-.48,3.46,3.46,0,0,0,1.43-1.39V88ZM326.95,69.82V70a1.6,1.6,0,0,1-.16.8.63.63,0,0,1-.59.27,1.12,1.12,0,0,1-.33-.05l-.43-.17-.57-.26a8.69,8.69,0,0,0-3.54-.73,6.43,6.43,0,0,0-3.05.7,5.05,5.05,0,0,0-2,1.86,4.78,4.78,0,0,0-.7,2.51,4.25,4.25,0,0,0,1.35,3.3A14.66,14.66,0,0,0,321,80.6a39.69,39.69,0,0,1,3.77,1.76,1.92,1.92,0,0,1,1,1.77,2.83,2.83,0,0,1-.95,2.17,4.14,4.14,0,0,1-2.88.87,6.16,6.16,0,0,1-2.26-.45,5.3,5.3,0,0,1-2.13-1.67,8,8,0,0,1-1.46-3.36h-.69v6.66h.69a2,2,0,0,1,.46-.89,1,1,0,0,1,.73-.36,6.08,6.08,0,0,1,1.44.5,8.6,8.6,0,0,0,3.46.77,7.24,7.24,0,0,0,3.3-.74,5.68,5.68,0,0,0,2.3-2.05,5.36,5.36,0,0,0,.83-2.92,5,5,0,0,0-.53-2.36,5,5,0,0,0-1.45-1.69,10.34,10.34,0,0,0-2.19-1.22q-.6-.26-2-.71a21.24,21.24,0,0,1-2.23-.82,3.9,3.9,0,0,1-1.35-1,2.25,2.25,0,0,1-.53-1.54,2.33,2.33,0,0,1,.73-1.63,3,3,0,0,1,2.27-.76,6.55,6.55,0,0,1,2.43.49A5.54,5.54,0,0,1,325.88,73a4.91,4.91,0,0,1,1.16,2.5h.67l-.09-5.62ZM298.47,88v-.58q-1,0-1-1.09V78.67q1-1.57,1.88-1.57t1,1.31v7.92q0,1.09-1,1.09V88H305v-.57h-.14q-1,0-1-1.09V78.88a3.8,3.8,0,0,0-.8-2.61,2.67,2.67,0,0,0-2.09-.89,4.58,4.58,0,0,0-3.46,1.8v-7H292.7v.57h.3q1,0,1,1.08v14.5q0,1.09-1,1.09h-.14V88ZM286,76.89v7.93q0,3.54,2.93,3.54a2.66,2.66,0,0,0,2-.74,7.17,7.17,0,0,0,1.32-2.32l-.66-.21q-.41,1.51-1.31,1.51a.68.68,0,0,1-.7-.47,4.07,4.07,0,0,1-.16-1.31V76.89H292V75.8h-2.61V71.24h-.5a10.68,10.68,0,0,1-1.18,2.06,11.44,11.44,0,0,1-1.59,1.79,6.22,6.22,0,0,1-1.72,1.14v.66ZM283.75,88v-.57a1.1,1.1,0,0,1-.93-.3,1.24,1.24,0,0,1-.22-.79V70.19h-4.77v.57h.3q1,0,1,1.08v14.5a1.05,1.05,0,0,1-.27.86,1.3,1.3,0,0,1-.74.23H278V88Zm-13.18-1.9q-1,0-1-1.49,0-1.77,2.6-3.09v3.74A2.33,2.33,0,0,1,270.58,86.1Zm5.71.55a.51.51,0,0,1-.54-.35,3.5,3.5,0,0,1-.12-1V78.68q0-3.3-4.21-3.3a7.43,7.43,0,0,0-2.33.39,4.91,4.91,0,0,0-2,1.15,2.53,2.53,0,0,0-.76,1.84,1.56,1.56,0,0,0,.5,1.23,1.9,1.9,0,0,0,1.31.46,1.66,1.66,0,0,0,1.27-.47,1.51,1.51,0,0,0,.45-1.07,1.55,1.55,0,0,0-.41-1,1.18,1.18,0,0,1-.33-.71.68.68,0,0,1,.43-.59,2.09,2.09,0,0,1,1-.24q1,0,1.26.5a2.15,2.15,0,0,1,.29,1v2.54a19.72,19.72,0,0,0-3.91,1.94,5.63,5.63,0,0,0-1.78,1.76,3.68,3.68,0,0,0-.44,1.76,2.35,2.35,0,0,0,.68,1.76,2.33,2.33,0,0,0,1.7.66,5.94,5.94,0,0,0,3.78-2h.09A2.07,2.07,0,0,0,273,88a2.68,2.68,0,0,0,1.4.36,3.07,3.07,0,0,0,1.69-.45,4.67,4.67,0,0,0,1.36-1.52L277,86.1Q276.63,86.65,276.29,86.65ZM258.19,78a2.63,2.63,0,0,1,.69-1.25,1.27,1.27,0,0,1,.81-.33,1.18,1.18,0,0,1,.74.29,2.28,2.28,0,0,1,.63,1.07,7.07,7.07,0,0,1,.26,2.17q0,.09,0,.29t0,.31H257.9A8.91,8.91,0,0,1,258.19,78Zm3.12,8.28a2.83,2.83,0,0,1-1.87-.64,3.86,3.86,0,0,1-1.15-1.71,6.82,6.82,0,0,1-.38-2.31h6.7a8.87,8.87,0,0,0-.35-2.58,6.12,6.12,0,0,0-1-2,4.5,4.5,0,0,0-3.59-1.7,4.35,4.35,0,0,0-2.71.92,6.1,6.1,0,0,0-1.89,2.54,9.1,9.1,0,0,0-.69,3.59,7.28,7.28,0,0,0,.6,2.94,5.12,5.12,0,0,0,1.79,2.2,4.9,4.9,0,0,0,2.87.83,4.46,4.46,0,0,0,3.13-1.1,7.35,7.35,0,0,0,1.84-2.6L264,84.3Q262.89,86.29,261.31,86.29Zm-24-9.9a.77.77,0,0,1,.61.24,2.18,2.18,0,0,1,.38.69l4,11.05H243l2.77-7.64,2.47,7.64H249l3.59-10.52a5.1,5.1,0,0,1,.52-1.09.87.87,0,0,1,.77-.36V75.8h-3.34v.59h.09a1,1,0,0,1,.71.23.73.73,0,0,1,.23.53,4,4,0,0,1-.18.8l-1.61,5-1.65-5.31A3.65,3.65,0,0,1,248,77q0-.64.69-.66h.57V75.8h-5.54v.59q.67,0,1,.93l.55,1.73-1.37,3.87-1.82-5.31A1.48,1.48,0,0,1,242,77q0-.64.69-.66h.25V75.8h-5.55ZM230.72,88v-.57q-1,0-1-1.09V78.68q.91-1.55,1.84-1.55t1,1.29v7.91q0,1.09-1,1.09V88h5.62v-.57H237q-1,0-1-1.09V78.88a4.39,4.39,0,0,0-.4-2,2.55,2.55,0,0,0-1.07-1.14,3.1,3.1,0,0,0-1.46-.35,4.57,4.57,0,0,0-3.36,1.82V75.8h-4.61v.59q.75,0,.95.3a1.39,1.39,0,0,1,.2.77v8.87q0,1.09-1,1.09h-.14V88Zm-14.09-2.16a17.33,17.33,0,0,1-.36-4q0-1.14.06-2a8.32,8.32,0,0,1,.23-1.68,2.86,2.86,0,0,1,.62-1.25,1.38,1.38,0,0,1,1.11-.47A1.63,1.63,0,0,1,220,77.9a17.46,17.46,0,0,1,.36,4,17.33,17.33,0,0,1-.36,4,1.67,1.67,0,0,1-3.32,0Zm4.39,1.8a5.57,5.57,0,0,0,2.14-2.19,8,8,0,0,0,0-7.13,5.64,5.64,0,0,0-2.15-2.2,5.51,5.51,0,0,0-2.72-.73,5.3,5.3,0,0,0-2.93.84,5.85,5.85,0,0,0-2,2.34,7.36,7.36,0,0,0-.74,3.32,7.06,7.06,0,0,0,.84,3.57A5.51,5.51,0,0,0,221,87.64Zm-22.23-.21q-1,0-1-1.09V78.68q.91-1.55,1.87-1.55t1,1.29v7.91q0,1.09-1,1.09V88h5.48v-.57q-1,0-1-1.09V78.68q.83-1.55,1.89-1.55t1,1.29v7.91q0,1.09-1,1.09V88h5.61v-.57h-.14q-1,0-1-1.09V78.88a4.42,4.42,0,0,0-.4-2A2.53,2.53,0,0,0,209,75.73a2.89,2.89,0,0,0-1.41-.35,4.55,4.55,0,0,0-3.65,2.06,3.26,3.26,0,0,0-1.08-1.51,2.64,2.64,0,0,0-1.63-.56,3.79,3.79,0,0,0-1.85.52,5.25,5.25,0,0,0-1.56,1.3V75.8h-4.61v.59q.75,0,.95.3a1.39,1.39,0,0,1,.2.77v8.87q0,1.09-1,1.09h-.14V88h5.61Zm-19.16,0q-1,0-1-1.09V78.68q.91-1.55,1.87-1.55t1,1.29v7.91q0,1.09-1,1.09V88h5.48v-.57q-1,0-1-1.09V78.68q.83-1.55,1.89-1.55t1,1.29v7.91q0,1.09-1,1.09V88h5.61v-.57h-.14q-1,0-1-1.09V78.88a4.42,4.42,0,0,0-.4-2,2.53,2.53,0,0,0-1.05-1.15,2.89,2.89,0,0,0-1.41-.35,4.55,4.55,0,0,0-3.65,2.06,3.26,3.26,0,0,0-1.08-1.51,2.64,2.64,0,0,0-1.63-.56,3.79,3.79,0,0,0-1.85.52,5.25,5.25,0,0,0-1.56,1.3V75.8H174v.59q.75,0,.95.3a1.39,1.39,0,0,1,.2.77v8.87q0,1.09-1,1.09H174V88h5.61Zm-14.09-1.59a17.33,17.33,0,0,1-.36-4q0-1.14.06-2a8.32,8.32,0,0,1,.23-1.68,2.86,2.86,0,0,1,.62-1.25,1.38,1.38,0,0,1,1.11-.47,1.63,1.63,0,0,1,1.66,1.46,17.46,17.46,0,0,1,.36,4,17.33,17.33,0,0,1-.36,4,1.67,1.67,0,0,1-3.32,0Zm4.39,1.8a5.57,5.57,0,0,0,2.14-2.19,8,8,0,0,0,0-7.13,5.64,5.64,0,0,0-2.15-2.2,5.51,5.51,0,0,0-2.72-.73,5.3,5.3,0,0,0-2.93.84,5.85,5.85,0,0,0-2,2.34,7.36,7.36,0,0,0-.74,3.32,7.06,7.06,0,0,0,.84,3.57,5.51,5.51,0,0,0,7.59,2.19Zm-11-17.81q-.21,1.22-1,1.22a1.6,1.6,0,0,1-.49-.08l-.77-.32-.71-.31a8,8,0,0,0-2.88-.51,9.09,9.09,0,0,0-3.62.71,8.25,8.25,0,0,0-2.84,2,9,9,0,0,0-1.82,3,10.39,10.39,0,0,0-.63,3.63,9.73,9.73,0,0,0,1.17,4.75,8.57,8.57,0,0,0,3.23,3.35,9,9,0,0,0,4.66,1.21,8.48,8.48,0,0,0,2.36-.34,6.81,6.81,0,0,0,2.47-1.43,9.46,9.46,0,0,0,2.26-3.08l-.77-.43A10.13,10.13,0,0,1,157.26,86a4.67,4.67,0,0,1-3.06,1,5,5,0,0,1-3-.92,5.63,5.63,0,0,1-1.92-2.68,14.41,14.41,0,0,1,.09-8.87,5.36,5.36,0,0,1,2-2.57,4.85,4.85,0,0,1,2.68-.79,4.45,4.45,0,0,1,2.26.61,5.24,5.24,0,0,1,1.77,1.7,6.26,6.26,0,0,1,.94,2.46h.73V69.82Z" transform="translate(-2 -2)" style="fill:#231f20"/><polyline points="140.81 60.3 614.75 60.3 614.75 59.02 140.81 59.02" style="fill:#231f20"/></svg>