<?xml version="1.0" encoding="utf-8"?>
<!-- Generator: Adobe Illustrator 16.0.0, SVG Export Plug-In . SVG Version: 6.00 Build 0)  -->
<!DOCTYPE svg PUBLIC "-//W3C//DTD SVG 1.1//EN" "http://www.w3.org/Graphics/SVG/1.1/DTD/svg11.dtd">
<svg version="1.1" id="new_logo" xmlns="http://www.w3.org/2000/svg" xmlns:xlink="http://www.w3.org/1999/xlink" x="0px" y="0px"
	 width="346px" height="79px" viewBox="-22.02 -4.504 346 79" enable-background="new -22.02 -4.504 346 79" xml:space="preserve">
<rect x="-22.02" y="-4.504" fill="#F58026" width="170.574" height="78.943"/>
<rect x="154.264" y="-4.504" fill="#939598" width="169.717" height="78.943"/>
<rect x="38.374" y="22.565" fill="none" width="59.778" height="34.965"/>
<g enable-background="new    ">
	<path fill="#FFFFFF" d="M52.049,36.596c-1.178,0.229-2.39,0.229-3.599,0.229v-0.82c1.308-0.13,2.291-0.26,3.271-1.177
		c1.309-1.211,1.734-2.88,1.734-4.613c0-3.042-1.341-5.234-4.613-5.234h-1.767v17.797c0,2.683,0.065,2.683,2.846,2.814v1.047H39.616
		v-1.047c2.781-0.132,2.847-0.165,2.847-2.814V27.598c0-2.781-0.066-2.553-2.847-2.846v-1.014H50.61c3.992,0,7.787,1.439,7.787,6.02
		C58.396,33.651,55.647,35.875,52.049,36.596z"/>
	<path fill="#FFFFFF" d="M67.518,47.031c-2.225,0-5.104-0.556-6.152-1.079c-0.261-0.131-0.327-0.23-0.327-0.588v-4.908h0.917
		c0.262,1.308,0.556,2.191,1.014,2.978c0.85,1.375,2.256,2.323,4.057,2.323c2.453,0,4.253-1.767,4.253-4.091
		c0-1.929-1.08-3.401-5.529-6.542c-3.174-2.225-4.482-3.762-4.482-6.15c0-4.219,4.384-5.627,7.885-5.627
		c1.93,0,4.222,0.198,4.94,0.524c0.393,0.165,0.458,0.295,0.458,0.785v4.253h-0.916c-0.917-3.042-2.128-4.287-4.253-4.287
		c-1.898,0-3.207,1.309-3.207,3.239c0,0.654,0.164,1.244,0.458,1.702c0.589,0.981,0.916,1.308,3.925,3.534
		c4.286,3.173,5.726,4.907,5.726,7.526C76.286,44.513,72.884,47.031,67.518,47.031z"/>
	<path fill="#FFFFFF" d="M85.018,47.031c-2.226,0-5.104-0.556-6.152-1.079c-0.262-0.131-0.327-0.23-0.327-0.588v-4.908h0.917
		c0.262,1.308,0.556,2.191,1.014,2.978c0.851,1.375,2.257,2.323,4.057,2.323c2.454,0,4.253-1.767,4.253-4.091
		c0-1.929-1.08-3.401-5.529-6.542c-3.173-2.225-4.482-3.762-4.482-6.15c0-4.219,4.384-5.627,7.885-5.627
		c1.93,0,4.22,0.198,4.94,0.524c0.393,0.165,0.458,0.295,0.458,0.785v4.253h-0.916c-0.917-3.042-2.127-4.287-4.253-4.287
		c-1.898,0-3.207,1.309-3.207,3.239c0,0.654,0.164,1.244,0.458,1.702c0.588,0.981,0.916,1.308,3.924,3.534
		c4.287,3.173,5.727,4.907,5.727,7.526C93.785,44.513,90.383,47.031,85.018,47.031z"/>
</g>
<rect x="170.055" y="10.901" fill="none" width="121.058" height="62.41"/>
<g enable-background="new    ">
	<path fill="#FFFFFF" d="M176.067,17.015c-0.557,0.191-1.026,0.251-2.096,0.264v-0.293c0.806-0.044,1.143-0.132,1.524-0.339
		c0.762-0.396,1.173-1.245,1.173-2.404c0-1.598-0.776-2.346-2.449-2.346h-0.879v7.963c0,1.348,0,1.348,1.231,1.451v0.381h-3.914
		v-0.381c1.244-0.103,1.244-0.103,1.244-1.451v-6.599c0-1.364,0-1.348-1.244-1.452v-0.381h3.826c2.405,0,3.637,0.91,3.637,2.683
		C178.119,15.461,177.357,16.561,176.067,17.015z"/>
	<path fill="#FFFFFF" d="M185.099,21.868c-0.164-0.176-0.266-0.455-0.309-0.777c-0.016-0.132-0.028-0.22-0.028-0.352l-1.291,0.763
		c-0.47,0.279-0.732,0.366-1.231,0.366c-1.628,0-2.273-0.806-2.273-2.859V15.9c0-0.588-0.177-0.719-0.836-0.719h-0.337v-0.367
		c0.968-0.044,1.877-0.277,2.492-0.63v4.692c0,1.217,0.176,2.112,1.57,2.112c0.836,0,1.509-0.44,1.729-1.159
		c0.133-0.409,0.189-1.041,0.189-1.729V15.9c0-0.588-0.161-0.719-0.819-0.719h-0.354v-0.367c0.983-0.044,1.878-0.277,2.493-0.63
		c0,2.346,0,5.367,0,5.367c0,1.261,0.073,1.349,0.514,1.349c0.131,0,0.263-0.029,0.498-0.103l0.088,0.41L185.099,21.868z"/>
	<path fill="#FFFFFF" d="M191.756,21.868c-0.308,0-0.704-0.043-1.113-0.103c-0.867-0.117-1.043-0.147-1.263-0.147
		c-0.132,0-0.308,0.016-0.601,0.073v-9.119c0-0.66-0.072-0.835-0.747-0.835h-0.411v-0.397c0.748,0,1.76-0.174,2.478-0.425v4.473
		c0.776-0.851,1.54-1.203,2.565-1.203c1.85,0,2.978,1.261,2.978,3.359C195.642,19.992,193.954,21.868,191.756,21.868z
		 M192.033,14.889c-0.967,0-1.597,0.542-1.804,1.526c-0.089,0.41-0.133,1.011-0.133,1.716v1.481c0,0.748,0.074,1.114,0.295,1.364
		c0.219,0.249,0.688,0.396,1.261,0.396c1.583,0,2.537-1.363,2.537-3.563C194.189,15.987,193.381,14.889,192.033,14.889z"/>
	<path fill="#FFFFFF" d="M196.624,21.692v-0.381c1.144-0.117,1.172-0.132,1.172-1.451v-7.288c0-0.381-0.028-0.601-0.177-0.72
		c-0.102-0.088-0.277-0.117-0.57-0.117h-0.412v-0.397c0.823-0.015,1.776-0.174,2.479-0.425v8.946c0,1.319,0,1.334,1.174,1.451v0.381
		L196.624,21.692L196.624,21.692z"/>
	<path fill="#FFFFFF" d="M201.169,21.692v-0.381c1.143-0.117,1.171-0.132,1.171-1.451V15.9c0-0.588-0.16-0.719-0.835-0.719h-0.336
		v-0.367c0.981-0.044,1.876-0.277,2.49-0.63v5.675c0,1.231-0.028,1.334,1.175,1.451v0.381L201.169,21.692L201.169,21.692z
		 M202.824,13.216c-0.469,0-0.85-0.381-0.85-0.865c0-0.439,0.396-0.835,0.865-0.835c0.454,0,0.851,0.381,0.851,0.85
		C203.69,12.851,203.31,13.216,202.824,13.216z"/>
	<path fill="#FFFFFF" d="M212.02,15.753l-0.47,0.278c-0.027,0.016-0.089,0.03-0.133,0.03s-0.088-0.03-0.131-0.088l-0.646-0.763
		c-0.307-0.353-0.688-0.527-1.158-0.527c-1.334,0-2.199,1.188-2.199,2.888c0,1.951,1.043,3.447,2.758,3.447
		c0.543,0,0.953-0.132,1.671-0.514l0.248,0.44l-1.949,0.924h-0.351c-1.158,0-2.084-0.381-2.729-1.026
		c-0.718-0.718-1.099-1.745-1.099-2.889c0-2.156,1.643-3.769,3.929-3.769c0.704,0,1.275,0.132,1.789,0.381l0.528,0.982
		c0.015,0.03,0.015,0.059,0.015,0.088C212.093,15.681,212.077,15.709,212.02,15.753z"/>
	<path fill="#FFFFFF" d="M218.763,21.868c-0.822,0-2.024-0.234-2.405-0.425c-0.147-0.074-0.16-0.118-0.16-0.308v-2.067h0.365
		c0.117,0.689,0.221,1.026,0.425,1.334c0.41,0.601,1.144,0.967,1.876,0.967c1.131,0,1.966-0.806,1.966-1.906
		c0-1.025-0.498-1.626-2.684-3.152c-1.362-0.953-1.817-1.525-1.817-2.508c0-1.761,1.671-2.551,3.21-2.551
		c0.689,0,1.512,0.086,1.877,0.233c0.177,0.073,0.22,0.117,0.22,0.278v1.877h-0.381c-0.205-1.291-0.764-1.877-1.861-1.877
		c-0.967,0-1.583,0.601-1.583,1.57c0,0.352,0.104,0.675,0.278,0.895c0.322,0.396,0.294,0.425,2.2,1.848
		c1.567,1.173,2.065,1.817,2.065,2.917C222.354,20.71,220.903,21.868,218.763,21.868z"/>
	<path fill="#FFFFFF" d="M227.735,21.868h-0.382c-1.407,0-2.213-0.337-2.859-1.114c-0.645-0.792-0.996-1.848-0.996-2.859
		c0-0.997,0.367-1.994,0.983-2.683c0.586-0.66,1.449-1.027,2.419-1.027c1.304,0,2.215,0.674,2.58,1.877
		c0.132,0.44,0.176,0.792,0.162,1.569h-4.723c0.017,1.07,0.28,1.921,0.778,2.508c0.484,0.572,1.143,0.88,2.022,0.88
		c0.544,0,0.968-0.131,1.701-0.499l0.22,0.44L227.735,21.868z M226.797,14.669c-0.835,0-1.452,0.513-1.715,1.424
		c-0.088,0.278-0.118,0.512-0.162,1.01h2.522c0.659,0,0.938-0.25,0.938-0.851C228.381,15.358,227.721,14.669,226.797,14.669z"/>
	<path fill="#FFFFFF" d="M236.943,15.753l-0.47,0.278c-0.026,0.016-0.088,0.03-0.131,0.03c-0.045,0-0.089-0.03-0.133-0.088
		l-0.644-0.763c-0.307-0.353-0.689-0.527-1.159-0.527c-1.333,0-2.198,1.188-2.198,2.888c0,1.951,1.043,3.447,2.756,3.447
		c0.544,0,0.954-0.132,1.672-0.514l0.249,0.44l-1.949,0.924h-0.353c-1.156,0-2.083-0.381-2.727-1.026
		c-0.72-0.718-1.102-1.745-1.102-2.889c0-2.156,1.643-3.769,3.93-3.769c0.704,0,1.275,0.132,1.788,0.381l0.529,0.982
		c0.016,0.03,0.016,0.059,0.016,0.088C237.019,15.681,237.003,15.709,236.943,15.753z"/>
	<path fill="#FFFFFF" d="M240.741,21.868c-0.777-0.029-1.102-0.163-1.424-0.557c-0.292-0.367-0.424-0.866-0.424-1.76v-4.192h-1.173
		v-0.66h1.173v-1.539l0.922-0.807h0.397v2.346h2.242v0.396l-0.599,0.264h-1.644c0,3.886,0,0,0,3.886
		c0,0.879,0.104,1.759,1.174,1.759c0.321,0,0.614-0.071,0.952-0.19l0.116,0.382L240.741,21.868z"/>
	<path fill="#FFFFFF" d="M246.781,21.868c-2.126,0-3.604-1.671-3.604-3.753c0-2.244,1.642-3.93,3.899-3.93
		c2.169,0,3.666,1.54,3.666,3.769C250.742,20.197,249.07,21.868,246.781,21.868z M246.886,14.669c-1.731,0-2.257,1.921-2.257,3.329
		c0,1.979,0.951,3.372,2.346,3.372c1.406,0,2.315-1.275,2.315-3.254C249.289,16.003,248.35,14.669,246.886,14.669z"/>
	<path fill="#FFFFFF" d="M256.635,15.549l-0.337,0.264c-0.044,0.028-0.088,0.072-0.146,0.072c-0.045,0-0.103-0.028-0.133-0.044
		l-0.483-0.249c-0.161-0.088-0.278-0.103-0.47-0.103c-0.336,0-0.527,0.19-0.674,0.557c-0.133,0.337-0.133,1.129-0.133,1.524v2.288
		c0,1.422,0.117,1.378,1.481,1.451v0.381h-4.003V21.31c1.217-0.059,1.202-0.176,1.202-1.451v-3.959c0-0.588-0.176-0.719-0.837-0.719
		h-0.336v-0.367c0.981-0.044,1.86-0.277,2.492-0.631v1.35l0.675-0.792c0.426-0.499,0.542-0.558,0.865-0.558
		c0.234,0,0.382,0.117,0.558,0.44l0.365,0.66c0.029,0.06,0.045,0.088,0.045,0.117C256.768,15.461,256.723,15.49,256.635,15.549z"/>
</g>
<g enable-background="new    ">
	<path fill="#FFFFFF" d="M173.207,39.464c-0.822,0-2.024-0.235-2.406-0.425c-0.145-0.073-0.16-0.118-0.16-0.309v-2.067h0.365
		c0.118,0.688,0.219,1.026,0.425,1.334c0.411,0.601,1.146,0.969,1.878,0.969c1.13,0,1.964-0.808,1.964-1.907
		c0-1.024-0.497-1.626-2.684-3.152c-1.364-0.953-1.816-1.525-1.816-2.508c0-1.761,1.671-2.551,3.212-2.551
		c0.688,0,1.51,0.087,1.877,0.233c0.174,0.073,0.218,0.117,0.218,0.279v1.876h-0.381c-0.208-1.29-0.764-1.876-1.861-1.876
		c-0.968,0-1.584,0.601-1.584,1.57c0,0.352,0.104,0.675,0.28,0.895c0.32,0.396,0.293,0.425,2.198,1.848
		c1.568,1.173,2.068,1.818,2.068,2.917C176.8,38.306,175.348,39.464,173.207,39.464z"/>
	<path fill="#FFFFFF" d="M183.868,39.464c-0.163-0.177-0.265-0.455-0.308-0.778c-0.017-0.131-0.029-0.22-0.029-0.352l-1.29,0.762
		c-0.47,0.28-0.733,0.368-1.232,0.368c-1.627,0-2.274-0.806-2.274-2.859v-3.109c0-0.588-0.176-0.719-0.835-0.719h-0.336V32.41
		c0.966-0.044,1.875-0.277,2.491-0.631v4.693c0,1.217,0.175,2.111,1.569,2.111c0.837,0,1.511-0.441,1.73-1.159
		c0.133-0.409,0.189-1.041,0.189-1.729v-2.199c0-0.588-0.161-0.719-0.82-0.719h-0.354V32.41c0.983-0.044,1.878-0.277,2.493-0.631
		c0,2.347,0,5.368,0,5.368c0,1.26,0.073,1.348,0.514,1.348c0.131,0,0.263-0.028,0.498-0.104l0.089,0.412L183.868,39.464z"/>
	<path fill="#FFFFFF" d="M190.818,39.464c-0.587,0-1.027-0.088-1.658-0.337v1.979c0,1.291,0.015,1.335,1.509,1.467v0.382h-4.003
		v-0.382c1.145-0.161,1.175-0.205,1.175-1.467V33.48c0-0.586-0.176-0.719-0.837-0.719h-0.338v-0.367
		c0.983-0.043,1.877-0.262,2.494-0.616v1.203c0.659-0.822,1.525-1.203,2.52-1.203c1.805,0,3.008,1.349,3.008,3.46
		C194.688,37.703,193.045,39.464,190.818,39.464z M191.021,32.483c-0.909,0-1.526,0.528-1.744,1.51
		c-0.072,0.338-0.117,1.129-0.117,1.701v2.58c0.558,0.499,1.071,0.688,1.658,0.688c1.525,0,2.419-1.23,2.419-3.43
		C193.235,33.626,192.386,32.483,191.021,32.483z"/>
	<path fill="#FFFFFF" d="M200.039,39.464h-0.382c-1.408,0-2.214-0.337-2.859-1.114c-0.644-0.792-0.996-1.849-0.996-2.86
		c0-0.997,0.365-1.994,0.982-2.683c0.587-0.661,1.452-1.027,2.419-1.027c1.305,0,2.214,0.674,2.581,1.877
		c0.131,0.44,0.175,0.792,0.162,1.569h-4.724c0.016,1.07,0.279,1.92,0.778,2.508c0.484,0.572,1.143,0.879,2.024,0.879
		c0.54,0,0.967-0.132,1.7-0.497l0.221,0.44L200.039,39.464z M199.1,32.263c-0.835,0-1.451,0.513-1.716,1.423
		c-0.087,0.279-0.116,0.513-0.162,1.011h2.522c0.661,0,0.938-0.249,0.938-0.85C200.685,32.952,200.026,32.263,199.1,32.263z"/>
	<path fill="#FFFFFF" d="M207.838,33.143l-0.336,0.264c-0.044,0.028-0.089,0.072-0.147,0.072c-0.044,0-0.102-0.028-0.132-0.044
		l-0.483-0.25c-0.161-0.088-0.279-0.102-0.469-0.102c-0.337,0-0.528,0.19-0.676,0.557c-0.13,0.337-0.13,1.129-0.13,1.525v2.287
		c0,1.422,0.115,1.379,1.479,1.452v0.381h-4.003v-0.381c1.216-0.06,1.202-0.176,1.202-1.452v-3.958c0-0.588-0.176-0.719-0.836-0.719
		h-0.337v-0.367c0.981-0.044,1.861-0.278,2.494-0.631v1.349l0.673-0.792c0.426-0.498,0.543-0.557,0.866-0.557
		c0.233,0,0.381,0.117,0.557,0.44l0.366,0.66c0.028,0.06,0.044,0.088,0.044,0.117C207.972,33.054,207.928,33.085,207.838,33.143z"/>
	<path fill="#FFFFFF" d="M213.119,39.449c-0.221-0.367-0.338-0.765-0.353-1.159l-1.13,0.764c-0.484,0.336-0.719,0.41-1.07,0.41
		c-1.128,0-1.906-0.806-1.906-1.98c0-0.821,0.368-1.393,1.114-1.833c0.354-0.206,0.719-0.366,1.408-0.631l1.599-0.616
		c-0.015-1.554-0.427-2.141-1.262-2.141c-0.689,0-1.07,0.529-1.363,1.07c-0.044,0.088-0.177,0.353-0.307,0.353
		c-0.029,0-0.074,0-0.118-0.016l-0.454-0.117c-0.088-0.03-0.131-0.088-0.118-0.147l0.22-0.822c0.075-0.263,0.118-0.307,0.382-0.425
		c0.543-0.249,1.219-0.381,1.877-0.381c1.729,0,2.464,0.704,2.464,2.346v3.255c0,0.836,0.131,1.101,0.513,1.101
		c0.132,0,0.265-0.029,0.499-0.102l0.087,0.408L213.119,39.449z M212.781,34.962c-0.733,0.263-0.982,0.367-1.306,0.498
		c-1.01,0.426-1.496,1.012-1.496,1.847c0,0.734,0.486,1.246,1.203,1.246c1.043,0,1.599-0.833,1.599-2.448V34.962z"/>
	<path fill="#FFFFFF" d="M221.08,39.287v-0.381c1.261-0.132,1.172-0.293,1.172-1.451v-2.713c0-1.598-0.424-2.17-1.656-2.17
		c-1.216,0-1.805,0.66-2.009,1.569c-0.087,0.396-0.117,0.835-0.117,1.509c0,1.806,0,0,0,1.806c0,1.275,0.016,1.29,1.188,1.45v0.382
		h-3.681v-0.382c1.143-0.16,1.174-0.205,1.174-1.45v-3.974c0-0.586-0.176-0.719-0.838-0.719h-0.336v-0.367
		c0.982-0.043,1.876-0.263,2.493-0.616v1.273c0.821-0.879,1.76-1.275,2.933-1.275c1.1,0,1.762,0.469,2.039,1.247
		c0.117,0.352,0.131,0.675,0.131,1.334v3.093c0,1.246-0.058,1.334,1.175,1.451v0.382L221.08,39.287L221.08,39.287z"/>
	<path fill="#FFFFFF" d="M230.727,39.287v-0.381c1.262-0.132,1.174-0.293,1.174-1.451v-2.713c0-1.598-0.426-2.17-1.657-2.17
		c-1.217,0-1.803,0.66-2.009,1.569c-0.088,0.396-0.118,0.835-0.118,1.509c0,1.806,0,0,0,1.806c0,1.275,0.017,1.29,1.189,1.45v0.382
		h-3.681v-0.382c1.145-0.16,1.172-0.205,1.172-1.45v-3.974c0-0.586-0.176-0.719-0.835-0.719h-0.337v-0.367
		c0.982-0.043,1.877-0.263,2.491-0.616v1.273c0.823-0.879,1.762-1.275,2.935-1.275c1.102,0,1.76,0.469,2.04,1.247
		c0.116,0.352,0.131,0.675,0.131,1.334v3.093c0,1.246-0.06,1.334,1.172,1.451v0.382L230.727,39.287L230.727,39.287z"/>
	<path fill="#FFFFFF" d="M241.314,39.464c-0.162-0.177-0.265-0.455-0.308-0.778c-0.017-0.131-0.029-0.22-0.029-0.352l-1.291,0.762
		c-0.47,0.28-0.733,0.368-1.231,0.368c-1.627,0-2.273-0.806-2.273-2.859v-3.109c0-0.588-0.177-0.719-0.836-0.719h-0.336V32.41
		c0.967-0.044,1.876-0.277,2.491-0.631v4.693c0,1.217,0.177,2.111,1.57,2.111c0.835,0,1.509-0.441,1.729-1.159
		c0.133-0.409,0.189-1.041,0.189-1.729v-2.199c0-0.588-0.16-0.719-0.819-0.719h-0.353V32.41c0.982-0.044,1.877-0.277,2.491-0.631
		c0,2.347,0,5.368,0,5.368c0,1.26,0.073,1.348,0.514,1.348c0.131,0,0.263-0.028,0.498-0.104l0.089,0.412L241.314,39.464z"/>
	<path fill="#FFFFFF" d="M248.834,39.449c-0.217-0.367-0.336-0.765-0.351-1.159l-1.129,0.764c-0.484,0.336-0.718,0.41-1.071,0.41
		c-1.129,0-1.905-0.806-1.905-1.98c0-0.821,0.365-1.393,1.115-1.833c0.351-0.206,0.718-0.366,1.407-0.631l1.598-0.616
		c-0.015-1.554-0.426-2.141-1.261-2.141c-0.688,0-1.069,0.529-1.363,1.07c-0.044,0.088-0.177,0.353-0.308,0.353
		c-0.029,0-0.071,0-0.117-0.016l-0.456-0.117c-0.087-0.03-0.131-0.088-0.117-0.147l0.221-0.822c0.072-0.263,0.117-0.307,0.381-0.425
		c0.542-0.249,1.217-0.381,1.877-0.381c1.729,0,2.463,0.704,2.463,2.346v3.255c0,0.836,0.132,1.101,0.514,1.101
		c0.131,0,0.264-0.029,0.499-0.102l0.087,0.408L248.834,39.449z M248.498,34.962c-0.733,0.263-0.983,0.367-1.304,0.498
		c-1.013,0.426-1.497,1.012-1.497,1.847c0,0.734,0.484,1.246,1.203,1.246c1.04,0,1.598-0.833,1.598-2.448V34.962L248.498,34.962z"/>
	<path fill="#FFFFFF" d="M254.687,39.464c-0.776-0.029-1.1-0.163-1.424-0.558c-0.293-0.366-0.426-0.865-0.426-1.76v-4.195h-1.171
		v-0.66h1.171v-1.54l0.925-0.806h0.395v2.346h2.245v0.396l-0.602,0.263h-1.644c0,3.886,0,0,0,3.886c0,0.879,0.105,1.759,1.175,1.759
		c0.322,0,0.615-0.071,0.953-0.19l0.117,0.381L254.687,39.464z"/>
	<path fill="#FFFFFF" d="M257.119,39.287v-0.381c1.145-0.118,1.173-0.132,1.173-1.451v-3.959c0-0.588-0.161-0.719-0.834-0.719
		h-0.339V32.41c0.983-0.044,1.878-0.277,2.492-0.631v5.674c0,1.231-0.027,1.334,1.175,1.451v0.382L257.119,39.287L257.119,39.287z
		 M258.777,30.811c-0.469,0-0.85-0.38-0.85-0.865c0-0.44,0.396-0.835,0.864-0.835c0.455,0,0.851,0.381,0.851,0.85
		C259.643,30.446,259.26,30.811,258.777,30.811z"/>
	<path fill="#FFFFFF" d="M265.389,39.464c-2.125,0-3.606-1.672-3.606-3.754c0-2.243,1.644-3.93,3.901-3.93
		c2.17,0,3.666,1.54,3.666,3.77C269.35,37.792,267.676,39.464,265.389,39.464z M265.492,32.263c-1.729,0-2.258,1.921-2.258,3.328
		c0,1.98,0.953,3.372,2.345,3.372c1.408,0,2.318-1.274,2.318-3.255C267.897,33.598,266.959,32.263,265.492,32.263z"/>
	<path fill="#FFFFFF" d="M275.448,39.287v-0.381c1.26-0.132,1.172-0.293,1.172-1.451v-2.713c0-1.598-0.425-2.17-1.656-2.17
		c-1.216,0-1.805,0.66-2.01,1.569c-0.088,0.396-0.116,0.835-0.116,1.509c0,1.806,0,0,0,1.806c0,1.275,0.016,1.29,1.188,1.45v0.382
		h-3.682v-0.382c1.144-0.16,1.175-0.205,1.175-1.45v-3.974c0-0.586-0.177-0.719-0.837-0.719h-0.338v-0.367
		c0.982-0.043,1.878-0.263,2.494-0.616v1.273c0.822-0.879,1.76-1.275,2.932-1.275c1.101,0,1.762,0.469,2.039,1.247
		c0.118,0.352,0.131,0.675,0.131,1.334v3.093c0,1.246-0.058,1.334,1.174,1.451v0.382L275.448,39.287L275.448,39.287z"/>
</g>
<g enable-background="new    ">
	<path fill="#FFFFFF" d="M173.207,57.06c-0.822,0-2.024-0.234-2.406-0.425c-0.145-0.073-0.16-0.118-0.16-0.308v-2.068h0.365
		c0.118,0.689,0.219,1.026,0.425,1.335c0.411,0.602,1.146,0.968,1.878,0.968c1.13,0,1.964-0.808,1.964-1.906
		c0-1.025-0.497-1.626-2.684-3.152c-1.364-0.954-1.816-1.524-1.816-2.507c0-1.761,1.671-2.553,3.212-2.553
		c0.688,0,1.51,0.088,1.877,0.234c0.174,0.073,0.218,0.117,0.218,0.278v1.877h-0.381c-0.208-1.291-0.764-1.877-1.861-1.877
		c-0.968,0-1.584,0.602-1.584,1.57c0,0.352,0.104,0.675,0.28,0.895c0.32,0.396,0.293,0.425,2.198,1.846
		c1.568,1.175,2.068,1.82,2.068,2.92C176.8,55.9,175.348,57.06,173.207,57.06z"/>
	<path fill="#FFFFFF" d="M184.131,50.944l-0.469,0.279c-0.03,0.016-0.088,0.027-0.132,0.027c-0.043,0-0.088-0.027-0.132-0.088
		l-0.646-0.762c-0.307-0.353-0.688-0.527-1.157-0.527c-1.336,0-2.198,1.188-2.198,2.89c0,1.949,1.039,3.445,2.756,3.445
		c0.54,0,0.953-0.132,1.67-0.513l0.251,0.439l-1.951,0.924h-0.354c-1.158,0-2.081-0.382-2.728-1.026
		c-0.718-0.718-1.099-1.744-1.099-2.889c0-2.156,1.642-3.77,3.928-3.77c0.704,0,1.277,0.132,1.791,0.381l0.526,0.982
		c0.016,0.029,0.016,0.06,0.016,0.088C184.204,50.87,184.189,50.9,184.131,50.944z"/>
	<path fill="#FFFFFF" d="M190.231,56.882v-0.381c1.143-0.117,1.171-0.132,1.171-1.452v-2.711c0-1.584-0.453-2.17-1.656-2.17
		c-1.849,0-2.127,1.642-2.127,3.077v1.804c0,1.32,0.03,1.335,1.158,1.452v0.381h-3.637v-0.381c1.128-0.132,1.158-0.146,1.158-1.452
		v-7.287c0-0.294-0.03-0.498-0.104-0.631c-0.088-0.146-0.234-0.205-0.44-0.205h-0.615v-0.397c0.791,0,1.745-0.16,2.477-0.425v4.545
		c0.821-0.879,1.804-1.275,2.979-1.275c1.892,0,2.125,1.056,2.125,2.581v3.093c0,1.262-0.044,1.335,1.188,1.452v0.381h-3.676V56.882
		z"/>
	<path fill="#FFFFFF" d="M199.145,57.06h-0.381c-1.407,0-2.214-0.337-2.859-1.113c-0.645-0.794-0.996-1.848-0.996-2.859
		c0-0.998,0.365-1.995,0.981-2.684c0.588-0.661,1.45-1.026,2.421-1.026c1.304,0,2.215,0.674,2.579,1.876
		c0.132,0.44,0.177,0.792,0.162,1.569h-4.722c0.017,1.071,0.278,1.921,0.775,2.509c0.485,0.571,1.145,0.879,2.025,0.879
		c0.541,0,0.967-0.132,1.7-0.497l0.221,0.438L199.145,57.06z M198.206,49.859c-0.835,0-1.452,0.514-1.717,1.423
		c-0.088,0.278-0.117,0.514-0.16,1.011h2.521c0.66,0,0.938-0.248,0.938-0.85C199.789,50.549,199.131,49.859,198.206,49.859z"/>
	<path fill="#FFFFFF" d="M211.372,56.882v-0.381c1.146-0.117,1.174-0.132,1.174-1.452v-2.683c0-1.614-0.381-2.185-1.437-2.185
		c-0.602,0-1.101,0.22-1.407,0.614c-0.396,0.5-0.499,1.07-0.499,2.537v1.715c0,1.321,0.017,1.334,1.188,1.452v0.381h-3.682V56.5
		c1.144-0.118,1.173-0.131,1.173-1.452v-2.683c0-1.613-0.337-2.186-1.423-2.186c-0.588,0-1.085,0.22-1.393,0.587
		c-0.396,0.484-0.527,1.113-0.527,2.564v1.716c0,1.319,0.014,1.335,1.188,1.452v0.381h-3.682v-0.381
		c1.144-0.117,1.172-0.133,1.172-1.452v-3.958c0-0.573-0.175-0.721-0.834-0.721h-0.338v-0.366c0.982-0.043,1.878-0.277,2.493-0.629
		v1.29c0.731-0.895,1.51-1.29,2.669-1.29c1.025,0,1.496,0.336,1.921,1.29c0.806-0.895,1.597-1.29,2.654-1.29
		c0.982,0,1.568,0.336,1.876,1.069c0.162,0.382,0.205,0.807,0.205,1.54v3.063c0,1.32,0,1.334,1.173,1.452v0.381h-3.666V56.882z"/>
	<path fill="#FFFFFF" d="M220.272,57.06h-0.382c-1.407,0-2.214-0.337-2.859-1.113c-0.643-0.794-0.996-1.848-0.996-2.859
		c0-0.998,0.367-1.995,0.983-2.684c0.587-0.661,1.451-1.026,2.42-1.026c1.303,0,2.213,0.674,2.581,1.876
		c0.129,0.44,0.174,0.792,0.161,1.569h-4.725c0.017,1.071,0.28,1.921,0.778,2.509c0.484,0.571,1.143,0.879,2.024,0.879
		c0.542,0,0.967-0.132,1.7-0.497l0.221,0.438L220.272,57.06z M219.334,49.859c-0.834,0-1.452,0.514-1.715,1.423
		c-0.087,0.278-0.118,0.514-0.163,1.011h2.523c0.66,0,0.938-0.248,0.938-0.85C220.917,50.549,220.259,49.859,219.334,49.859z"/>
</g>
</svg>
