<?xml version="1.0" encoding="utf-8"?>
<!-- Generator: Adobe Illustrator 16.0.0, SVG Export Plug-In . SVG Version: 6.00 Build 0)  -->
<!DOCTYPE svg PUBLIC "-//W3C//DTD SVG 1.1//EN" "http://www.w3.org/Graphics/SVG/1.1/DTD/svg11.dtd">
<svg version="1.1" id="new_logo" xmlns="http://www.w3.org/2000/svg" xmlns:xlink="http://www.w3.org/1999/xlink" x="0px" y="0px"
	 width="346px" height="79px" viewBox="-22.02 -4.504 346 79" enable-background="new -22.02 -4.504 346 79" xml:space="preserve">
<rect x="-22.02" y="-4.504" fill="#007DC3" width="172.139" height="79.6"/>
<rect x="155.709" y="-4.504" fill="#939598" width="168.271" height="79.6"/>
<rect x="37.433" y="24.212" fill="none" width="66.53" height="31.275"/>
<rect x="171.063" y="10.28" fill="none" width="120.266" height="59.707"/>
<g enable-background="new    ">
	<path fill="#FFFFFF" d="M181.102,20.364c-0.073,0.295-0.119,0.355-0.546,0.502c-0.886,0.309-2.101,0.473-3.104,0.473
		c-1.391,0-2.707-0.415-3.741-1.199c-1.167-0.886-1.937-2.277-1.937-4.108c0-1.493,0.667-3.15,2.103-4.23
		c0.946-0.71,2.216-1.167,3.86-1.167c1.019,0,2.143,0.221,2.808,0.501c0.429,0.178,0.562,0.311,0.562,0.666v1.819h-0.384
		c-0.045-0.518-0.134-0.901-0.281-1.183c-0.428-0.814-1.64-1.302-2.868-1.302c-2.528,0-4.109,1.759-4.109,4.762
		c0,1.612,0.458,3.015,1.403,3.918c0.681,0.635,1.613,1.018,2.811,1.018c1.168,0,2.217-0.398,2.867-1.211
		c0.237-0.296,0.37-0.546,0.621-1.11h0.386L181.102,20.364z"/>
	<path fill="#FFFFFF" d="M186.217,21.34c-2.145,0-3.637-1.686-3.637-3.785c0-2.262,1.654-3.962,3.932-3.962
		c2.188,0,3.696,1.552,3.696,3.799C190.207,19.654,188.523,21.34,186.217,21.34z M186.32,14.079c-1.745,0-2.276,1.938-2.276,3.356
		c0,1.996,0.96,3.4,2.365,3.4c1.419,0,2.335-1.286,2.335-3.281C188.742,15.425,187.797,14.079,186.32,14.079z"/>
	<path fill="#FFFFFF" d="M200.615,21.162v-0.384c1.155-0.119,1.185-0.134,1.185-1.464v-2.706c0-1.627-0.384-2.204-1.448-2.204
		c-0.606,0-1.11,0.222-1.42,0.621c-0.399,0.502-0.502,1.079-0.502,2.557v1.73c0,1.33,0.018,1.345,1.198,1.463v0.384h-3.71v-0.383
		c1.153-0.119,1.182-0.134,1.182-1.464v-2.706c0-1.627-0.34-2.204-1.436-2.204c-0.593,0-1.094,0.222-1.403,0.593
		c-0.399,0.488-0.533,1.122-0.533,2.585v1.73c0,1.33,0.016,1.345,1.2,1.463v0.384h-3.712v-0.383
		c1.151-0.119,1.181-0.134,1.181-1.464v-3.992c0-0.578-0.177-0.726-0.842-0.726h-0.339v-0.369c0.989-0.045,1.891-0.28,2.512-0.636
		v1.302c0.738-0.903,1.523-1.302,2.69-1.302c1.035,0,1.508,0.34,1.938,1.302c0.813-0.903,1.611-1.302,2.677-1.302
		c0.991,0,1.582,0.34,1.894,1.079c0.162,0.384,0.206,0.813,0.206,1.553v3.09c0,1.33,0,1.345,1.183,1.463v0.384L200.615,21.162
		L200.615,21.162z"/>
	<path fill="#FFFFFF" d="M214.604,21.162v-0.384c1.152-0.119,1.182-0.134,1.182-1.464v-2.706c0-1.627-0.385-2.204-1.448-2.204
		c-0.605,0-1.108,0.222-1.418,0.621c-0.401,0.502-0.501,1.079-0.501,2.557v1.73c0,1.33,0.014,1.345,1.197,1.463v0.384h-3.713v-0.383
		c1.154-0.119,1.184-0.134,1.184-1.464v-2.706c0-1.627-0.342-2.204-1.435-2.204c-0.593,0-1.096,0.222-1.402,0.593
		c-0.401,0.488-0.534,1.122-0.534,2.585v1.73c0,1.33,0.017,1.345,1.198,1.463v0.384H205.2v-0.383
		c1.156-0.119,1.184-0.134,1.184-1.464v-3.992c0-0.578-0.178-0.726-0.844-0.726h-0.34v-0.369c0.99-0.045,1.893-0.28,2.515-0.636
		v1.302c0.738-0.903,1.521-1.302,2.689-1.302c1.034,0,1.508,0.34,1.938,1.302c0.813-0.903,1.611-1.302,2.677-1.302
		c0.99,0,1.583,0.34,1.892,1.079c0.165,0.384,0.207,0.813,0.207,1.553v3.09c0,1.33,0,1.345,1.185,1.463v0.384L214.604,21.162
		L214.604,21.162z"/>
	<path fill="#FFFFFF" d="M222.942,21.34c-2.145,0-3.639-1.686-3.639-3.785c0-2.262,1.657-3.962,3.934-3.962
		c2.188,0,3.696,1.552,3.696,3.799C226.933,19.654,225.246,21.34,222.942,21.34z M223.045,14.079c-1.744,0-2.277,1.938-2.277,3.356
		c0,1.996,0.962,3.4,2.365,3.4c1.42,0,2.337-1.286,2.337-3.281C225.469,15.425,224.522,14.079,223.045,14.079z"/>
	<path fill="#FFFFFF" d="M233.083,21.162v-0.384c1.271-0.134,1.183-0.296,1.183-1.464v-2.735c0-1.612-0.429-2.189-1.671-2.189
		c-1.227,0-1.82,0.666-2.024,1.583c-0.089,0.4-0.119,0.843-0.119,1.523c0,1.819,0,0,0,1.819c0,1.287,0.016,1.301,1.197,1.464v0.384
		h-3.712v-0.385c1.153-0.164,1.185-0.207,1.185-1.464v-4.006c0-0.592-0.178-0.725-0.845-0.725h-0.34v-0.37
		c0.991-0.044,1.893-0.265,2.515-0.621v1.286c0.829-0.887,1.776-1.286,2.956-1.286c1.111,0,1.777,0.473,2.057,1.257
		c0.118,0.355,0.134,0.68,0.134,1.345v3.12c0,1.257-0.06,1.345,1.185,1.464v0.384H233.083z"/>
	<path fill="#FFFFFF" d="M247.308,15.485l-1.924,5.677h-0.591l-2.145-5.574l-2.261,5.574h-0.606l-1.657-5.721
		c-0.266-0.931-0.575-1.271-1.212-1.287V13.77h3.758v0.384c-0.813,0-1.271,0.029-1.271,0.709c0,0.134,0.073,0.415,0.147,0.71
		l0.963,3.682l2.219-5.485h0.637l2.069,5.53l1.137-3.609c0.089-0.295,0.133-0.577,0.133-0.828c0-0.443-0.323-0.694-1.168-0.709
		v-0.385h2.988v0.385C247.719,14.213,247.527,14.833,247.308,15.485z"/>
	<path fill="#FFFFFF" d="M253.057,21.34h-0.385c-1.419,0-2.232-0.341-2.883-1.124c-0.65-0.798-1.006-1.862-1.006-2.883
		c0-1.006,0.37-2.011,0.99-2.706c0.594-0.665,1.464-1.035,2.441-1.035c1.314,0,2.232,0.681,2.602,1.893
		c0.132,0.443,0.176,0.798,0.162,1.582h-4.761c0.016,1.079,0.279,1.937,0.783,2.529c0.486,0.576,1.153,0.887,2.039,0.887
		c0.545,0,0.974-0.133,1.715-0.503l0.222,0.444L253.057,21.34z M252.11,14.079c-0.842,0-1.464,0.518-1.729,1.436
		c-0.089,0.281-0.119,0.518-0.164,1.019h2.542c0.664,0,0.946-0.251,0.946-0.858C253.707,14.775,253.041,14.079,252.11,14.079z"/>
	<path fill="#FFFFFF" d="M260.626,21.324c-0.222-0.369-0.339-0.769-0.354-1.167l-1.14,0.769c-0.489,0.34-0.727,0.415-1.079,0.415
		c-1.139,0-1.922-0.814-1.922-1.996c0-0.83,0.37-1.405,1.124-1.849c0.354-0.207,0.724-0.369,1.419-0.636l1.613-0.622
		c-0.016-1.567-0.429-2.159-1.273-2.159c-0.694,0-1.08,0.534-1.375,1.08c-0.044,0.089-0.178,0.356-0.309,0.356
		c-0.028,0-0.073,0-0.118-0.016l-0.455-0.119c-0.089-0.029-0.134-0.089-0.119-0.147l0.222-0.829c0.073-0.265,0.118-0.31,0.384-0.429
		c0.547-0.252,1.229-0.384,1.893-0.384c1.746,0,2.486,0.709,2.486,2.365v3.282c0,0.843,0.133,1.11,0.518,1.11
		c0.132,0,0.264-0.029,0.501-0.103l0.089,0.413L260.626,21.324z M260.288,16.801c-0.739,0.264-0.991,0.37-1.317,0.501
		c-1.019,0.431-1.507,1.02-1.507,1.864c0,0.738,0.488,1.255,1.211,1.255c1.051,0,1.613-0.841,1.613-2.469V16.801z"/>
	<path fill="#FFFFFF" d="M263.511,21.162v-0.384c1.153-0.119,1.182-0.134,1.182-1.464v-7.348c0-0.385-0.028-0.607-0.177-0.726
		c-0.103-0.088-0.281-0.118-0.576-0.118h-0.416v-0.4c0.83-0.015,1.791-0.176,2.5-0.428v9.02c0,1.33,0,1.345,1.184,1.463v0.384
		L263.511,21.162L263.511,21.162z"/>
	<path fill="#FFFFFF" d="M271.109,21.34c-0.783-0.03-1.11-0.164-1.437-0.562c-0.295-0.37-0.428-0.874-0.428-1.775v-4.228h-1.183
		v-0.666h1.183v-1.553l0.931-0.813h0.4v2.365h2.262v0.399l-0.605,0.267h-1.656c0,3.917,0,0,0,3.917c0,0.888,0.104,1.774,1.183,1.774
		c0.325,0,0.62-0.073,0.96-0.192l0.119,0.384L271.109,21.34z"/>
	<path fill="#FFFFFF" d="M279.004,21.162v-0.384c1.153-0.119,1.185-0.134,1.185-1.464v-2.735c0-1.597-0.461-2.189-1.672-2.189
		c-1.865,0-2.146,1.656-2.146,3.104v1.819c0,1.33,0.029,1.345,1.167,1.464v0.384h-3.666v-0.384c1.14-0.134,1.165-0.147,1.165-1.464
		v-7.348c0-0.297-0.025-0.503-0.102-0.637c-0.089-0.147-0.237-0.207-0.447-0.207h-0.616v-0.4c0.797,0,1.759-0.162,2.496-0.428v4.583
		c0.828-0.887,1.819-1.286,3.003-1.286c1.907,0,2.146,1.064,2.146,2.602v3.12c0,1.271-0.045,1.346,1.196,1.464v0.384h-3.709V21.162z
		"/>
</g>
<g enable-background="new    ">
	<path fill="#FFFFFF" d="M174.24,39.537c-0.828,0-2.041-0.238-2.425-0.43c-0.147-0.076-0.163-0.117-0.163-0.31v-2.085h0.367
		c0.119,0.693,0.222,1.033,0.431,1.346c0.413,0.605,1.155,0.973,1.892,0.973c1.141,0,1.98-0.812,1.98-1.918
		c0-1.033-0.5-1.642-2.706-3.18c-1.375-0.961-1.83-1.538-1.83-2.528c0-1.775,1.684-2.572,3.239-2.572
		c0.691,0,1.521,0.087,1.892,0.235c0.175,0.074,0.219,0.118,0.219,0.281v1.892h-0.384c-0.211-1.301-0.77-1.892-1.876-1.892
		c-0.976,0-1.598,0.605-1.598,1.583c0,0.355,0.104,0.68,0.283,0.902c0.324,0.399,0.295,0.428,2.216,1.862
		c1.582,1.183,2.086,1.833,2.086,2.943C177.863,38.368,176.399,39.537,174.24,39.537z"/>
	<path fill="#FFFFFF" d="M184.99,39.537c-0.164-0.179-0.265-0.461-0.31-0.784c-0.017-0.132-0.028-0.222-0.028-0.355l-1.303,0.768
		c-0.474,0.283-0.739,0.372-1.242,0.372c-1.641,0-2.294-0.814-2.294-2.884V33.52c0-0.592-0.176-0.726-0.841-0.726h-0.339v-0.371
		c0.974-0.044,1.891-0.28,2.512-0.636v4.73c0,1.229,0.176,2.13,1.583,2.13c0.843,0,1.523-0.443,1.744-1.168
		c0.134-0.413,0.191-1.05,0.191-1.744v-2.217c0-0.593-0.163-0.726-0.828-0.726h-0.356v-0.37c0.991-0.044,1.893-0.28,2.514-0.636
		c0,2.366,0,5.411,0,5.411c0,1.272,0.073,1.36,0.518,1.36c0.133,0,0.264-0.03,0.502-0.104l0.089,0.415L184.99,39.537z"/>
	<path fill="#FFFFFF" d="M191.998,39.537c-0.592,0-1.035-0.089-1.672-0.342v1.996c0,1.303,0.015,1.347,1.521,1.479v0.386h-4.036
		V42.67c1.154-0.163,1.185-0.208,1.185-1.479v-7.69c0-0.592-0.178-0.725-0.844-0.725h-0.341v-0.37
		c0.991-0.044,1.894-0.265,2.515-0.621v1.212c0.665-0.829,1.538-1.212,2.54-1.212c1.821,0,3.032,1.36,3.032,3.489
		C195.899,37.762,194.244,39.537,191.998,39.537z M192.204,32.499c-0.918,0-1.539,0.532-1.76,1.522
		c-0.073,0.34-0.118,1.138-0.118,1.715v2.602c0.563,0.503,1.08,0.693,1.672,0.693c1.538,0,2.439-1.24,2.439-3.459
		C194.436,33.65,193.579,32.499,192.204,32.499z"/>
	<path fill="#FFFFFF" d="M201.296,39.537h-0.386c-1.419,0-2.231-0.342-2.883-1.124c-0.648-0.798-1.004-1.864-1.004-2.883
		c0-1.005,0.369-2.011,0.991-2.706c0.591-0.665,1.463-1.035,2.438-1.035c1.315,0,2.232,0.68,2.603,1.893
		c0.132,0.443,0.177,0.797,0.163,1.582h-4.763c0.016,1.079,0.283,1.937,0.785,2.531c0.488,0.575,1.151,0.886,2.041,0.886
		c0.543,0,0.975-0.133,1.714-0.501l0.223,0.443L201.296,39.537z M200.35,32.275c-0.843,0-1.465,0.518-1.73,1.435
		c-0.087,0.281-0.118,0.518-0.164,1.019h2.543c0.667,0,0.945-0.251,0.945-0.857C201.946,32.972,201.283,32.275,200.35,32.275z"/>
	<path fill="#FFFFFF" d="M209.16,33.164l-0.339,0.266c-0.045,0.028-0.09,0.073-0.149,0.073c-0.043,0-0.103-0.028-0.133-0.044
		l-0.487-0.251c-0.163-0.089-0.281-0.104-0.473-0.104c-0.34,0-0.533,0.192-0.683,0.562c-0.13,0.34-0.13,1.139-0.13,1.538v2.305
		c0,1.436,0.116,1.392,1.492,1.465v0.384h-4.036v-0.382c1.226-0.06,1.213-0.178,1.213-1.464v-3.992c0-0.593-0.178-0.726-0.844-0.726
		h-0.34v-0.37c0.99-0.044,1.876-0.28,2.515-0.636v1.36l0.679-0.798c0.43-0.503,0.547-0.562,0.874-0.562
		c0.234,0,0.384,0.118,0.562,0.444l0.368,0.665c0.029,0.06,0.045,0.088,0.045,0.118C209.295,33.074,209.251,33.104,209.16,33.164z"
		/>
	<path fill="#FFFFFF" d="M214.485,39.521c-0.223-0.369-0.342-0.77-0.356-1.168l-1.14,0.769c-0.488,0.342-0.724,0.416-1.078,0.416
		c-1.138,0-1.923-0.814-1.923-1.997c0-0.829,0.372-1.404,1.124-1.848c0.357-0.208,0.725-0.369,1.42-0.636l1.611-0.622
		c-0.015-1.566-0.43-2.158-1.271-2.158c-0.695,0-1.079,0.534-1.374,1.08c-0.045,0.088-0.179,0.355-0.31,0.355
		c-0.029,0-0.073,0-0.118-0.016l-0.457-0.118c-0.088-0.03-0.132-0.089-0.118-0.148l0.221-0.829c0.075-0.265,0.119-0.309,0.385-0.429
		c0.548-0.251,1.229-0.384,1.893-0.384c1.744,0,2.484,0.71,2.484,2.365v3.283c0,0.843,0.132,1.11,0.518,1.11
		c0.132,0,0.266-0.028,0.504-0.103l0.088,0.411L214.485,39.521z M214.144,34.997c-0.738,0.265-0.99,0.37-1.315,0.501
		c-1.019,0.431-1.509,1.02-1.509,1.863c0,0.739,0.491,1.256,1.213,1.256c1.051,0,1.611-0.84,1.611-2.468V34.997z"/>
	<path fill="#FFFFFF" d="M222.513,39.358v-0.384c1.271-0.134,1.181-0.296,1.181-1.464v-2.735c0-1.612-0.428-2.188-1.669-2.188
		c-1.227,0-1.821,0.665-2.026,1.582c-0.088,0.401-0.119,0.843-0.119,1.524c0,1.818,0,0,0,1.818c0,1.287,0.017,1.302,1.199,1.464
		v0.384h-3.713v-0.384c1.154-0.165,1.183-0.209,1.183-1.464v-4.007c0-0.591-0.176-0.724-0.843-0.724h-0.34v-0.37
		c0.99-0.044,1.892-0.265,2.514-0.621v1.286c0.829-0.887,1.775-1.286,2.958-1.286c1.109,0,1.776,0.473,2.056,1.256
		c0.119,0.354,0.134,0.68,0.134,1.346v3.12c0,1.255-0.06,1.345,1.183,1.464v0.384H222.513z"/>
	<path fill="#FFFFFF" d="M232.238,39.358v-0.384c1.272-0.134,1.184-0.296,1.184-1.464v-2.735c0-1.612-0.429-2.188-1.671-2.188
		c-1.227,0-1.817,0.665-2.025,1.582c-0.089,0.401-0.118,0.843-0.118,1.524c0,1.818,0,0,0,1.818c0,1.287,0.018,1.302,1.2,1.464v0.384
		h-3.713v-0.384c1.154-0.165,1.182-0.209,1.182-1.464v-4.007c0-0.591-0.177-0.724-0.842-0.724h-0.34v-0.37
		c0.991-0.044,1.893-0.265,2.513-0.621v1.286c0.829-0.887,1.776-1.286,2.959-1.286c1.112,0,1.775,0.473,2.059,1.256
		c0.118,0.354,0.131,0.68,0.131,1.346v3.12c0,1.255-0.06,1.345,1.182,1.464v0.384H232.238z"/>
	<path fill="#FFFFFF" d="M242.914,39.537c-0.162-0.179-0.266-0.461-0.309-0.784c-0.018-0.132-0.028-0.222-0.028-0.355l-1.304,0.768
		c-0.475,0.283-0.738,0.372-1.242,0.372c-1.64,0-2.293-0.814-2.293-2.884V33.52c0-0.592-0.177-0.726-0.842-0.726h-0.339v-0.371
		c0.975-0.044,1.892-0.28,2.512-0.636v4.73c0,1.229,0.179,2.13,1.584,2.13c0.842,0,1.521-0.443,1.743-1.168
		c0.134-0.413,0.191-1.05,0.191-1.744v-2.217c0-0.593-0.162-0.726-0.826-0.726h-0.355v-0.37c0.99-0.044,1.893-0.28,2.512-0.636
		c0,2.366,0,5.411,0,5.411c0,1.272,0.073,1.36,0.518,1.36c0.132,0,0.264-0.03,0.502-0.104l0.089,0.415L242.914,39.537z"/>
	<path fill="#FFFFFF" d="M250.497,39.521c-0.218-0.369-0.339-0.77-0.354-1.168l-1.139,0.769c-0.488,0.342-0.724,0.416-1.08,0.416
		c-1.138,0-1.921-0.814-1.921-1.997c0-0.829,0.368-1.404,1.124-1.848c0.354-0.208,0.724-0.369,1.419-0.636l1.611-0.622
		c-0.015-1.566-0.429-2.158-1.271-2.158c-0.694,0-1.078,0.534-1.375,1.08c-0.044,0.088-0.178,0.355-0.308,0.355
		c-0.03,0-0.072,0-0.118-0.016l-0.46-0.118c-0.088-0.03-0.132-0.089-0.119-0.148l0.223-0.829c0.071-0.265,0.119-0.309,0.384-0.429
		c0.546-0.251,1.228-0.384,1.893-0.384c1.743,0,2.484,0.71,2.484,2.365v3.283c0,0.843,0.133,1.11,0.517,1.11
		c0.134,0,0.267-0.028,0.503-0.103l0.087,0.411L250.497,39.521z M250.158,34.997c-0.74,0.265-0.991,0.37-1.314,0.501
		c-1.02,0.431-1.51,1.02-1.51,1.863c0,0.739,0.49,1.256,1.213,1.256c1.049,0,1.611-0.84,1.611-2.468V34.997L250.158,34.997z"/>
	<path fill="#FFFFFF" d="M256.398,39.537c-0.783-0.031-1.109-0.165-1.437-0.563c-0.295-0.371-0.429-0.874-0.429-1.776V32.97h-1.181
		v-0.665h1.181v-1.552l0.931-0.813h0.4v2.366h2.263v0.399l-0.606,0.266h-1.656c0,3.918,0,0,0,3.918c0,0.885,0.104,1.773,1.184,1.773
		c0.325,0,0.62-0.072,0.961-0.191l0.118,0.384L256.398,39.537z"/>
	<path fill="#FFFFFF" d="M258.852,39.358v-0.384c1.153-0.119,1.182-0.134,1.182-1.464v-3.992c0-0.593-0.163-0.726-0.841-0.726
		h-0.341v-0.37c0.991-0.044,1.893-0.28,2.513-0.636v5.72c0,1.243-0.028,1.347,1.184,1.465v0.384h-3.696V39.358z M260.522,30.812
		c-0.473,0-0.856-0.385-0.856-0.873c0-0.443,0.398-0.843,0.871-0.843c0.46,0,0.858,0.384,0.858,0.857
		C261.396,30.443,261.009,30.812,260.522,30.812z"/>
	<path fill="#FFFFFF" d="M267.19,39.537c-2.145,0-3.638-1.686-3.638-3.786c0-2.262,1.657-3.962,3.935-3.962
		c2.187,0,3.695,1.552,3.695,3.799C271.183,37.851,269.496,39.537,267.19,39.537z M267.294,32.275c-1.743,0-2.276,1.937-2.276,3.356
		c0,1.995,0.961,3.399,2.364,3.399c1.419,0,2.337-1.285,2.337-3.281C269.719,33.622,268.772,32.275,267.294,32.275z"/>
	<path fill="#FFFFFF" d="M277.332,39.358v-0.384c1.271-0.134,1.183-0.296,1.183-1.464v-2.735c0-1.612-0.429-2.188-1.671-2.188
		c-1.226,0-1.82,0.665-2.025,1.582c-0.09,0.401-0.119,0.843-0.119,1.524c0,1.818,0,0,0,1.818c0,1.287,0.017,1.302,1.198,1.464v0.384
		h-3.713v-0.384c1.154-0.165,1.185-0.209,1.185-1.464v-4.007c0-0.591-0.179-0.724-0.844-0.724h-0.341v-0.37
		c0.99-0.044,1.893-0.265,2.515-0.621v1.286c0.83-0.887,1.776-1.286,2.957-1.286c1.109,0,1.776,0.473,2.056,1.256
		c0.119,0.354,0.133,0.68,0.133,1.346v3.12c0,1.255-0.059,1.345,1.184,1.464v0.384H277.332z"/>
</g>
<g enable-background="new    ">
	<path fill="#FFFFFF" d="M174.24,57.732c-0.828,0-2.041-0.237-2.425-0.429c-0.147-0.075-0.163-0.118-0.163-0.31v-2.085h0.367
		c0.119,0.694,0.222,1.033,0.431,1.345c0.413,0.606,1.155,0.975,1.892,0.975c1.141,0,1.98-0.813,1.98-1.919
		c0-1.033-0.5-1.639-2.706-3.181c-1.375-0.96-1.83-1.538-1.83-2.526c0-1.776,1.684-2.573,3.239-2.573
		c0.691,0,1.521,0.086,1.892,0.234c0.175,0.074,0.219,0.119,0.219,0.28v1.893h-0.384c-0.211-1.301-0.77-1.893-1.876-1.893
		c-0.976,0-1.598,0.606-1.598,1.584c0,0.357,0.104,0.681,0.283,0.903c0.324,0.4,0.295,0.429,2.216,1.862
		c1.582,1.183,2.086,1.833,2.086,2.942C177.863,56.564,176.399,57.732,174.24,57.732z"/>
	<path fill="#FFFFFF" d="M185.255,51.567l-0.473,0.279c-0.03,0.016-0.088,0.03-0.132,0.03s-0.089-0.03-0.133-0.09l-0.651-0.77
		c-0.31-0.356-0.693-0.53-1.167-0.53c-1.348,0-2.216,1.197-2.216,2.912c0,1.966,1.049,3.476,2.778,3.476
		c0.544,0,0.961-0.133,1.684-0.518l0.253,0.442l-1.966,0.933h-0.356c-1.167,0-2.1-0.384-2.75-1.035
		c-0.725-0.724-1.108-1.759-1.108-2.914c0-2.174,1.655-3.799,3.959-3.799c0.711,0,1.288,0.132,1.806,0.384l0.531,0.991
		c0.017,0.029,0.017,0.059,0.017,0.088C185.329,51.493,185.314,51.522,185.255,51.567z"/>
	<path fill="#FFFFFF" d="M191.406,57.556V57.17c1.152-0.117,1.182-0.132,1.182-1.463v-2.735c0-1.596-0.457-2.189-1.671-2.189
		c-1.863,0-2.145,1.657-2.145,3.105v1.819c0,1.331,0.03,1.346,1.168,1.463v0.386h-3.668V57.17c1.138-0.132,1.167-0.147,1.167-1.463
		v-7.348c0-0.298-0.029-0.503-0.104-0.639c-0.089-0.148-0.235-0.208-0.444-0.208h-0.62v-0.399c0.797,0,1.76-0.164,2.497-0.429v4.582
		c0.828-0.886,1.818-1.286,3.003-1.286c1.907,0,2.144,1.063,2.144,2.602v3.12c0,1.271-0.045,1.345,1.197,1.464v0.384h-3.707v0.006
		H191.406z"/>
	<path fill="#FFFFFF" d="M200.394,57.732h-0.384c-1.419,0-2.231-0.341-2.883-1.123c-0.65-0.798-1.005-1.864-1.005-2.883
		c0-1.007,0.368-2.012,0.99-2.706c0.593-0.667,1.462-1.034,2.44-1.034c1.315,0,2.233,0.681,2.601,1.893
		c0.134,0.442,0.179,0.796,0.164,1.582h-4.762c0.017,1.079,0.28,1.937,0.782,2.53c0.49,0.575,1.154,0.886,2.043,0.886
		c0.544,0,0.975-0.133,1.714-0.502l0.223,0.443L200.394,57.732z M199.447,50.472c-0.842,0-1.464,0.518-1.73,1.435
		c-0.089,0.282-0.117,0.518-0.162,1.02h2.543c0.666,0,0.946-0.251,0.946-0.857C201.044,51.168,200.381,50.472,199.447,50.472z"/>
	<path fill="#FFFFFF" d="M212.724,57.556V57.17c1.155-0.117,1.184-0.132,1.184-1.463v-2.705c0-1.63-0.384-2.205-1.448-2.205
		c-0.605,0-1.11,0.221-1.42,0.621c-0.399,0.502-0.502,1.08-0.502,2.558v1.729c0,1.332,0.019,1.349,1.2,1.464v0.386h-3.715V57.17
		c1.153-0.117,1.183-0.132,1.183-1.463v-2.705c0-1.63-0.34-2.205-1.435-2.205c-0.594,0-1.093,0.221-1.404,0.592
		c-0.4,0.49-0.531,1.123-0.531,2.587v1.729c0,1.332,0.014,1.349,1.197,1.464v0.386h-3.711V57.17
		c1.152-0.117,1.182-0.132,1.182-1.463v-3.992c0-0.579-0.177-0.727-0.842-0.727h-0.34V50.62c0.99-0.045,1.893-0.279,2.514-0.637
		v1.303c0.737-0.903,1.522-1.303,2.69-1.303c1.034,0,1.508,0.34,1.938,1.303c0.813-0.903,1.609-1.303,2.676-1.303
		c0.99,0,1.582,0.34,1.894,1.076c0.161,0.386,0.206,0.816,0.206,1.553v3.09c0,1.33,0,1.347,1.182,1.464v0.384h-3.696V57.556
		L212.724,57.556z"/>
	<path fill="#FFFFFF" d="M221.697,57.732h-0.385c-1.419,0-2.232-0.341-2.883-1.123c-0.648-0.798-1.004-1.864-1.004-2.883
		c0-1.007,0.368-2.012,0.991-2.706c0.592-0.667,1.462-1.034,2.439-1.034c1.313,0,2.232,0.681,2.603,1.893
		c0.13,0.442,0.175,0.796,0.163,1.582h-4.764c0.018,1.079,0.282,1.937,0.784,2.53c0.488,0.575,1.153,0.886,2.041,0.886
		c0.547,0,0.975-0.133,1.715-0.502l0.223,0.443L221.697,57.732z M220.751,50.472c-0.841,0-1.464,0.518-1.729,1.435
		c-0.088,0.282-0.118,0.518-0.165,1.02h2.543c0.666,0,0.946-0.251,0.946-0.857C222.348,51.168,221.684,50.472,220.751,50.472z"/>
</g>
<g>
	<path fill="#FFFFFF" d="M58.097,43.938c-0.119,0.533-0.237,0.679-0.947,0.945c-1.892,0.711-4.406,1.152-6.476,1.152
		c-2.779,0-5.529-0.768-7.51-2.334c-2.277-1.804-3.785-4.702-3.785-8.31c0-3.282,1.331-6.387,4.169-8.545
		c1.863-1.42,4.613-2.217,7.806-2.217c2.041,0,4.171,0.443,5.648,1.064c0.769,0.325,1.035,0.591,1.035,1.213v3.696H57.21
		c-0.178-0.917-0.414-1.597-0.739-2.158c-1.005-1.745-3.075-2.691-5.234-2.691c-4.495,0-7.304,3.578-7.304,9.492
		c0,3.016,0.769,5.647,2.277,7.422c1.153,1.358,2.927,2.216,5.027,2.216c2.128,0,4.139-0.828,5.44-2.423
		c0.533-0.65,0.888-1.212,1.449-2.338h0.798L58.097,43.938z"/>
	<path fill="#FFFFFF" d="M67.173,46.035c-2.011,0-4.612-0.502-5.559-0.975c-0.236-0.117-0.296-0.206-0.296-0.531v-4.436h0.828
		c0.236,1.182,0.502,1.981,0.917,2.69c0.769,1.241,2.041,2.099,3.668,2.099c2.217,0,3.843-1.597,3.843-3.696
		c0-1.743-0.976-3.074-4.997-5.914c-2.868-2.011-4.051-3.4-4.051-5.559c0-3.814,3.962-5.085,7.126-5.085
		c1.744,0,3.814,0.177,4.464,0.473c0.355,0.148,0.415,0.266,0.415,0.709v3.844h-0.828c-0.828-2.75-1.921-3.874-3.844-3.874
		c-1.715,0-2.897,1.183-2.897,2.928c0,0.592,0.147,1.124,0.414,1.539c0.532,0.887,0.829,1.183,3.548,3.193
		c3.874,2.871,5.175,4.436,5.175,6.802C75.1,43.759,72.024,46.035,67.173,46.035z"/>
	<path fill="#FFFFFF" d="M82.993,46.035c-2.011,0-4.613-0.502-5.56-0.975c-0.236-0.117-0.295-0.206-0.295-0.531v-4.436h0.828
		c0.236,1.182,0.502,1.981,0.916,2.69c0.769,1.241,2.041,2.099,3.667,2.099c2.218,0,3.843-1.597,3.843-3.696
		c0-1.743-0.976-3.074-4.996-5.914c-2.869-2.011-4.053-3.4-4.053-5.559c0-3.814,3.963-5.085,7.127-5.085
		c1.745,0,3.814,0.177,4.465,0.473c0.355,0.148,0.414,0.266,0.414,0.709v3.844h-0.828c-0.828-2.75-1.921-3.874-3.844-3.874
		c-1.715,0-2.897,1.183-2.897,2.928c0,0.592,0.147,1.124,0.414,1.539c0.533,0.887,0.828,1.183,3.548,3.193
		c3.874,2.871,5.175,4.436,5.175,6.802C90.917,43.759,87.842,46.035,82.993,46.035z"/>
</g>
</svg>
