<?xml version="1.0" encoding="utf-8"?>
<!-- Generator: Adobe Illustrator 16.0.0, SVG Export Plug-In . SVG Version: 6.00 Build 0)  -->
<!DOCTYPE svg PUBLIC "-//W3C//DTD SVG 1.1//EN" "http://www.w3.org/Graphics/SVG/1.1/DTD/svg11.dtd">
<svg version="1.1" id="new_logo" xmlns="http://www.w3.org/2000/svg" xmlns:xlink="http://www.w3.org/1999/xlink" x="0px" y="0px"
	 width="346px" height="79px" viewBox="-8.438 -2.667 346 79" enable-background="new -8.438 -2.667 346 79" xml:space="preserve">
<rect x="-8.438" y="-2.667" fill="#5C8727" width="169" height="79.678"/>
<rect x="168.021" y="-2.667" fill="#939598" width="169.541" height="79.678"/>
<rect x="16.233" y="23.924" fill="none" width="125.845" height="37.896"/>
<g enable-background="new    ">
	<path fill="#FFFFFF" d="M34.619,47.674c-1.956,0.926-4.495,1.51-7.378,1.51h-10.81v-1.065c1.716-0.172,2.265-0.172,2.643-0.648
		c0.274-0.345,0.343-0.653,0.343-2.336V29.209c0-2.71-0.068-2.813-2.986-3.02v-1.03h12.355c2.368,0,4.426,0.344,6.144,1.064
		c4.083,1.681,6.554,5.285,6.554,10.295C41.484,41.7,38.91,45.683,34.619,47.674z M30.64,26.91
		c-1.064-0.344-2.403-0.549-3.878-0.549h-2.506v17.915c0,3.226,0.411,3.671,2.849,3.671c2.025,0,3.741-0.445,5.01-1.306
		c2.78-1.851,4.152-5.559,4.152-9.744C36.267,31.853,34.31,28.111,30.64,26.91z"/>
	<path fill="#FFFFFF" d="M58.987,30.651c-0.789-3.329-1.646-4.187-4.083-4.187h-4.016V36.69h3.192c2.128,0,2.985-0.857,3.158-3.259
		h0.961v7.996h-0.961c-0.206-2.402-1.03-3.398-3.158-3.398h-3.192v7.105c0,2.676,0.068,2.779,2.986,2.984v1.063H43.029v-1.063
		c2.917-0.205,2.985-0.309,2.985-2.984V29.209c0-2.71-0.068-2.813-2.985-3.02v-1.03h16.885v5.492L58.987,30.651L58.987,30.651z"/>
	<path fill="#FFFFFF" d="M79.512,49.184c-0.583,0-1.064-0.239-1.544-0.721c-0.481-0.48-0.721-0.927-1.922-2.985l-4.084-6.898h-2.54
		v6.555c0,2.641,0.138,2.746,2.986,2.984v1.063H61.563v-1.063c2.917-0.205,2.987-0.309,2.987-2.984V29.209
		c0-2.71-0.069-2.813-2.987-3.02v-1.03h12.08c4.633,0,7.344,2.231,7.344,6.075c0,3.122-1.853,5.49-5.114,6.657l4.222,5.938
		c1.509,2.094,2.504,3.396,4.048,4.702v0.65H79.512z M71.79,26.464h-2.369v10.811h2.094c1.235,0,2.059-0.241,2.711-0.756
		c1.167-0.961,1.682-2.78,1.682-4.941C75.908,28.042,74.639,26.464,71.79,26.464z"/>
	<path fill="#FFFFFF" d="M102.369,47.674c-1.957,0.926-4.495,1.51-7.378,1.51h-10.81v-1.065c1.717-0.172,2.266-0.172,2.643-0.648
		c0.274-0.345,0.343-0.653,0.343-2.336V29.209c0-2.71-0.069-2.813-2.986-3.02v-1.03h12.354c2.368,0,4.427,0.344,6.144,1.064
		c4.084,1.681,6.554,5.285,6.554,10.295C109.233,41.7,106.659,45.683,102.369,47.674z M98.389,26.91
		c-1.064-0.344-2.403-0.549-3.879-0.549h-2.504v17.915c0,3.226,0.411,3.671,2.848,3.671c2.025,0,3.741-0.445,5.01-1.306
		c2.78-1.851,4.153-5.559,4.153-9.744C104.016,31.853,102.06,28.111,98.389,26.91z"/>
	<path fill="#FFFFFF" d="M122.276,49.184h-11.497v-1.065c2.918-0.204,2.986-0.307,2.986-2.984V29.209c0-2.71-0.068-2.813-2.986-3.02
		v-1.03h10.981c1.888,0,3.055,0.104,4.291,0.481c2.197,0.687,3.569,2.264,3.569,4.839c0,2.815-1.854,4.77-5.354,5.663
		c1.613,0.24,2.299,0.377,3.363,0.824c2.265,0.996,3.604,2.918,3.604,5.457C131.233,46.678,127.869,49.184,122.276,49.184z
		 M120.491,26.361h-1.887v9.574h2.093c2.746,0,4.119-1.613,4.119-4.906C124.815,27.7,123.579,26.361,120.491,26.361z
		 M120.594,37.137h-1.99v6.966c0,1.752,0.136,2.645,0.755,3.227c0.445,0.445,0.994,0.617,1.955,0.617
		c2.952,0,4.531-1.816,4.531-5.146C125.844,39.161,123.99,37.137,120.594,37.137z"/>
</g>
<rect x="183.907" y="11.768" fill="none" width="148.726" height="64.353"/>
<g enable-background="new    ">
	<path fill="#FFFFFF" d="M191.285,22.474c-0.676,0.225-1.534,0.346-2.437,0.346h-4.341v-0.391c0.858-0.075,1.037-0.12,1.174-0.331
		c0.103-0.165,0.103-0.227,0.103-1.157v-6.761c0-1.382,0-1.398-1.276-1.502v-0.376h4.959c1.064,0,1.953,0.12,2.675,0.407
		c1.833,0.705,2.838,2.297,2.838,4.461C194.979,19.709,193.584,21.723,191.285,22.474z M190.625,12.995
		c-0.483-0.136-1.099-0.225-1.774-0.225h-1.607v7.917c0,1.382,0.268,1.638,1.626,1.638c0.913,0,1.74-0.151,2.341-0.48
		c1.308-0.706,2.059-2.269,2.059-4.372C193.267,15.098,192.276,13.475,190.625,12.995z"/>
	<path fill="#FFFFFF" d="M200.952,23h-0.389c-1.443,0-2.27-0.345-2.93-1.142c-0.66-0.811-1.022-1.893-1.022-2.929
		c0-1.021,0.376-2.043,1.009-2.749c0.601-0.676,1.486-1.051,2.478-1.051c1.336,0,2.268,0.692,2.644,1.924
		c0.138,0.45,0.181,0.812,0.165,1.607h-4.837c0.015,1.097,0.286,1.969,0.795,2.57c0.498,0.586,1.174,0.901,2.075,0.901
		c0.558,0,0.989-0.135,1.743-0.511l0.224,0.451L200.952,23z M199.992,15.624c-0.858,0-1.486,0.525-1.758,1.458
		c-0.089,0.285-0.121,0.525-0.167,1.036h2.583c0.678,0,0.964-0.254,0.964-0.872C201.614,16.33,200.938,15.624,199.992,15.624z"/>
	<path fill="#FFFFFF" d="M209.346,12.693l-0.208,0.316c-0.045,0.06-0.089,0.105-0.166,0.105c-0.044,0-0.105-0.015-0.163-0.045
		l-0.543-0.242c-0.511-0.225-0.705-0.271-0.886-0.271c-0.437,0-0.569,0.256-0.569,1.158v1.952h2.071v0.391l-0.616,0.271h-1.455
		v4.612c0,0.466,0.015,0.871,0.046,0.992c0.089,0.345,0.479,0.451,1.486,0.496v0.391h-4.087v-0.391c0.09,0,0.181-0.015,0.256-0.015
		c0.916-0.061,0.959-0.165,0.959-1.472v-4.612h-1.034v-0.662h1.034v-1.216c0-0.901,0.406-1.489,1.505-2.178
		c0.603-0.377,0.959-0.526,1.352-0.526c0.119,0,0.24,0.045,0.317,0.105l0.658,0.54c0.062,0.045,0.104,0.092,0.104,0.136
		C209.407,12.574,209.405,12.603,209.346,12.693z"/>
	<path fill="#FFFFFF" d="M214.016,23h-0.39c-1.443,0-2.27-0.345-2.93-1.142c-0.66-0.811-1.023-1.893-1.023-2.929
		c0-1.021,0.377-2.043,1.009-2.749c0.601-0.676,1.487-1.051,2.479-1.051c1.338,0,2.27,0.692,2.646,1.924
		c0.135,0.45,0.179,0.812,0.163,1.607h-4.837c0.014,1.097,0.285,1.969,0.795,2.57c0.498,0.586,1.174,0.901,2.075,0.901
		c0.555,0,0.991-0.135,1.74-0.511l0.227,0.451L214.016,23z M213.055,15.624c-0.856,0-1.488,0.525-1.756,1.458
		c-0.094,0.285-0.121,0.525-0.167,1.036h2.585c0.674,0,0.959-0.254,0.959-0.872C214.678,16.33,214.002,15.624,213.055,15.624z"/>
	<path fill="#FFFFFF" d="M222.545,22.821V22.43c1.293-0.135,1.201-0.3,1.201-1.487v-2.78c0-1.637-0.434-2.223-1.696-2.223
		c-1.249,0-1.85,0.676-2.06,1.607c-0.089,0.407-0.121,0.856-0.121,1.547c0,1.848,0,0,0,1.848c0,1.308,0.018,1.322,1.219,1.487v0.391
		h-3.77V22.43c1.171-0.165,1.199-0.21,1.199-1.487v-4.072c0-0.602-0.181-0.737-0.856-0.737h-0.343v-0.375
		c1.005-0.044,1.923-0.27,2.551-0.631v1.308c0.843-0.902,1.806-1.308,3.005-1.308c1.128,0,1.804,0.48,2.089,1.276
		c0.119,0.36,0.135,0.692,0.135,1.367v3.17c0,1.275-0.059,1.366,1.203,1.487v0.391h-3.756V22.821z"/>
	<path fill="#FFFFFF" d="M233.988,16.736l-0.482,0.286c-0.029,0.016-0.091,0.029-0.135,0.029c-0.045,0-0.089-0.029-0.135-0.09
		l-0.661-0.782c-0.315-0.36-0.706-0.541-1.188-0.541c-1.366,0-2.254,1.218-2.254,2.96c0,1.998,1.066,3.531,2.824,3.531
		c0.558,0,0.978-0.136,1.713-0.526l0.256,0.45L231.931,23h-0.36c-1.188,0-2.133-0.391-2.795-1.051
		c-0.737-0.737-1.128-1.788-1.128-2.96c0-2.208,1.685-3.861,4.025-3.861c0.724,0,1.309,0.135,1.833,0.391l0.544,1.006
		c0.016,0.03,0.016,0.06,0.016,0.09C234.063,16.661,234.048,16.691,233.988,16.736z"/>
	<path fill="#FFFFFF" d="M239.602,23h-0.389c-1.443,0-2.27-0.345-2.93-1.142c-0.662-0.811-1.022-1.893-1.022-2.929
		c0-1.021,0.374-2.043,1.007-2.749c0.603-0.676,1.488-1.051,2.478-1.051c1.338,0,2.27,0.692,2.646,1.924
		c0.135,0.45,0.18,0.812,0.164,1.607h-4.838c0.016,1.097,0.287,1.969,0.795,2.57c0.497,0.586,1.175,0.901,2.075,0.901
		c0.557,0,0.99-0.135,1.744-0.511l0.224,0.451L239.602,23z M238.64,15.624c-0.855,0-1.488,0.525-1.756,1.458
		c-0.091,0.285-0.123,0.525-0.166,1.036h2.582c0.679,0,0.964-0.254,0.964-0.872C240.264,16.33,239.588,15.624,238.64,15.624z"/>
	<path fill="#FFFFFF" d="M253.028,14.706c-0.301-1.591-0.616-1.938-1.744-1.938h-1.85v4.643h1.397c0.978,0,1.338-0.331,1.413-1.337
		h0.389v3.215h-0.389c-0.106-1.037-0.424-1.412-1.413-1.412h-1.397v3.064c0,1.366,0,1.382,1.276,1.487v0.391h-4.012v-0.391
		c1.276-0.105,1.276-0.12,1.276-1.487v-6.761c0-1.382,0-1.398-1.276-1.502v-0.376h6.702v2.403L253.028,14.706L253.028,14.706z"/>
	<path fill="#FFFFFF" d="M258.297,23c-2.179,0-3.696-1.712-3.696-3.846c0-2.298,1.683-4.027,3.993-4.027
		c2.227,0,3.757,1.577,3.757,3.861C262.351,21.288,260.638,23,258.297,23z M258.402,15.624c-1.774,0-2.315,1.968-2.315,3.41
		c0,2.03,0.978,3.457,2.404,3.457c1.443,0,2.372-1.307,2.372-3.334C260.863,16.991,259.902,15.624,258.402,15.624z"/>
	<path fill="#FFFFFF" d="M268.717,16.525l-0.345,0.271c-0.048,0.03-0.091,0.075-0.15,0.075c-0.046,0-0.105-0.03-0.135-0.045
		l-0.498-0.255c-0.164-0.09-0.285-0.105-0.478-0.105c-0.347,0-0.543,0.195-0.693,0.571c-0.137,0.346-0.137,1.156-0.137,1.562v2.344
		c0,1.457,0.121,1.412,1.518,1.487v0.391h-4.101V22.43c1.249-0.06,1.23-0.18,1.23-1.487v-4.057c0-0.601-0.178-0.737-0.854-0.737
		h-0.345v-0.375c1.007-0.045,1.906-0.286,2.553-0.647v1.383l0.691-0.812c0.437-0.512,0.555-0.571,0.886-0.571
		c0.242,0,0.391,0.121,0.571,0.45l0.377,0.677c0.029,0.06,0.043,0.09,0.043,0.12C268.852,16.436,268.809,16.465,268.717,16.525z"/>
	<path fill="#FFFFFF" d="M276.195,16.736l-0.481,0.286c-0.027,0.016-0.089,0.029-0.133,0.029c-0.046,0-0.091-0.029-0.137-0.09
		l-0.66-0.782c-0.315-0.36-0.705-0.541-1.188-0.541c-1.365,0-2.255,1.218-2.255,2.96c0,1.998,1.068,3.531,2.826,3.531
		c0.557,0,0.976-0.136,1.713-0.526l0.257,0.45L274.139,23h-0.361c-1.186,0-2.131-0.391-2.793-1.051
		c-0.737-0.737-1.128-1.788-1.128-2.96c0-2.208,1.683-3.861,4.026-3.861c0.721,0,1.308,0.135,1.833,0.391l0.541,1.006
		c0.016,0.03,0.016,0.06,0.016,0.09C276.271,16.661,276.257,16.691,276.195,16.736z"/>
	<path fill="#FFFFFF" d="M281.809,23h-0.388c-1.443,0-2.27-0.345-2.932-1.142c-0.658-0.811-1.02-1.893-1.02-2.929
		c0-1.021,0.375-2.043,1.005-2.749c0.604-0.676,1.487-1.051,2.482-1.051c1.334,0,2.266,0.692,2.642,1.924
		c0.137,0.45,0.183,0.812,0.165,1.607h-4.837c0.017,1.097,0.286,1.969,0.795,2.57c0.498,0.586,1.174,0.901,2.073,0.901
		c0.56,0,0.993-0.135,1.744-0.511l0.225,0.451L281.809,23z M280.85,15.624c-0.856,0-1.486,0.525-1.758,1.458
		c-0.09,0.285-0.119,0.525-0.165,1.036h2.583c0.678,0,0.963-0.254,0.963-0.872C282.473,16.33,281.795,15.624,280.85,15.624z"/>
</g>
<g enable-background="new    ">
	<path fill="#FFFFFF" d="M191.975,42.126c-0.329,0-0.585-0.119-0.841-0.421c-0.193-0.226-0.253-0.36-1.021-1.697l-1.459-2.555
		h-1.397v2.794c0,1.201-0.118,1.366,1.279,1.486v0.393h-4.013v-0.393c1.279-0.104,1.279-0.119,1.279-1.486v-6.761
		c0-1.382,0-1.398-1.279-1.502v-0.376h4.346c1.948,0,3.046,0.946,3.046,2.629c0,1.367-0.765,2.434-2.119,2.96l1.489,2.269
		c0.901,1.365,1.473,2.058,2.103,2.449v0.209h-1.413V42.126z M188.415,32.076h-1.158v4.912h1.037c0.587,0,0.976-0.09,1.278-0.315
		c0.539-0.391,0.839-1.188,0.839-2.254C190.411,32.812,189.78,32.076,188.415,32.076z"/>
	<path fill="#FFFFFF" d="M198.369,42.305h-0.389c-1.445,0-2.27-0.344-2.932-1.142c-0.658-0.81-1.021-1.891-1.021-2.927
		c0-1.021,0.376-2.044,1.007-2.75c0.601-0.676,1.486-1.051,2.478-1.051c1.34,0,2.27,0.691,2.646,1.924
		c0.133,0.45,0.18,0.812,0.162,1.606h-4.834c0.014,1.098,0.283,1.969,0.795,2.57c0.495,0.586,1.171,0.901,2.073,0.901
		c0.555,0,0.991-0.135,1.742-0.512l0.224,0.452L198.369,42.305z M197.41,34.93c-0.858,0-1.489,0.525-1.759,1.458
		c-0.091,0.286-0.121,0.525-0.164,1.036h2.582c0.675,0,0.96-0.253,0.96-0.872C199.031,35.636,198.355,34.93,197.41,34.93z"/>
	<path fill="#FFFFFF" d="M204.617,42.305c-0.797-0.028-1.13-0.164-1.457-0.569c-0.302-0.377-0.437-0.884-0.437-1.803v-4.296h-1.203
		V34.96h1.203v-1.579l0.947-0.827h0.404v2.405h2.3v0.405l-0.616,0.271h-1.684c0,3.98,0,0,0,3.98c0,0.902,0.107,1.806,1.203,1.806
		c0.331,0,0.631-0.076,0.976-0.197l0.121,0.39L204.617,42.305z"/>
	<path fill="#FFFFFF" d="M207.438,42.126v-0.391c1.173-0.12,1.203-0.135,1.203-1.486v-4.058c0-0.602-0.167-0.737-0.858-0.737h-0.345
		V35.08c1.007-0.045,1.925-0.287,2.555-0.647v5.814c0,1.263-0.029,1.366,1.201,1.486v0.393H207.438L207.438,42.126z M209.136,33.442
		c-0.481,0-0.872-0.391-0.872-0.887c0-0.45,0.404-0.856,0.887-0.856c0.463,0,0.869,0.39,0.869,0.872
		C210.02,33.066,209.63,33.442,209.136,33.442z"/>
	<path fill="#FFFFFF" d="M217.441,35.832l-0.345,0.271c-0.048,0.029-0.092,0.075-0.151,0.075c-0.045,0-0.106-0.03-0.137-0.045
		l-0.495-0.255c-0.165-0.091-0.288-0.105-0.479-0.105c-0.348,0-0.543,0.195-0.692,0.57c-0.135,0.345-0.135,1.156-0.135,1.562v2.346
		c0,1.456,0.119,1.411,1.519,1.486v0.391h-4.104v-0.391c1.247-0.06,1.231-0.18,1.231-1.486v-4.058c0-0.602-0.181-0.737-0.856-0.737
		h-0.345V35.08c1.005-0.045,1.909-0.287,2.555-0.647v1.383l0.69-0.812c0.436-0.511,0.557-0.571,0.888-0.571
		c0.239,0,0.391,0.12,0.568,0.45l0.377,0.677c0.03,0.06,0.044,0.091,0.044,0.12C217.574,35.741,217.53,35.771,217.441,35.832z"/>
	<path fill="#FFFFFF" d="M222.922,42.305h-0.391c-1.443,0-2.27-0.344-2.93-1.142c-0.66-0.81-1.021-1.891-1.021-2.927
		c0-1.021,0.374-2.044,1.007-2.75c0.599-0.676,1.486-1.051,2.478-1.051c1.336,0,2.268,0.691,2.645,1.924
		c0.135,0.45,0.178,0.812,0.164,1.606h-4.838c0.016,1.098,0.287,1.969,0.797,2.57c0.495,0.586,1.171,0.901,2.075,0.901
		c0.555,0,0.99-0.135,1.74-0.512l0.226,0.452L222.922,42.305z M221.961,34.93c-0.856,0-1.489,0.525-1.761,1.458
		c-0.089,0.286-0.119,0.525-0.164,1.036h2.584c0.677,0,0.96-0.253,0.96-0.872C223.58,35.636,222.906,34.93,221.961,34.93z"/>
	<path fill="#FFFFFF" d="M235.778,42.126v-0.391c1.169-0.12,1.198-0.135,1.198-1.486v-2.751c0-1.652-0.388-2.237-1.473-2.237
		c-0.614,0-1.123,0.225-1.44,0.63c-0.406,0.513-0.514,1.097-0.514,2.601v1.758c0,1.354,0.018,1.366,1.219,1.486v0.393h-3.771v-0.393
		c1.173-0.119,1.201-0.133,1.201-1.486V37.5c0-1.653-0.343-2.238-1.457-2.238c-0.601,0-1.112,0.225-1.425,0.601
		c-0.406,0.496-0.543,1.142-0.543,2.629v1.759c0,1.352,0.018,1.365,1.217,1.486v0.391h-3.771v-0.391
		c1.174-0.12,1.201-0.135,1.201-1.486v-4.058c0-0.585-0.18-0.737-0.858-0.737h-0.343V35.08c1.005-0.045,1.923-0.287,2.554-0.647
		v1.321c0.751-0.916,1.546-1.321,2.735-1.321c1.05,0,1.534,0.346,1.968,1.321c0.828-0.916,1.64-1.321,2.72-1.321
		c1.007,0,1.607,0.346,1.923,1.097c0.164,0.39,0.21,0.826,0.21,1.578v3.14c0,1.354,0,1.366,1.203,1.486v0.393H235.778
		L235.778,42.126z"/>
	<path fill="#FFFFFF" d="M245.219,42.305h-0.391c-1.442,0-2.268-0.344-2.93-1.142c-0.66-0.81-1.021-1.891-1.021-2.927
		c0-1.021,0.377-2.044,1.005-2.75c0.603-0.676,1.488-1.051,2.481-1.051c1.336,0,2.266,0.691,2.645,1.924
		c0.133,0.45,0.181,0.812,0.164,1.606h-4.84c0.018,1.098,0.287,1.969,0.797,2.57c0.497,0.586,1.171,0.901,2.073,0.901
		c0.557,0,0.993-0.135,1.742-0.512l0.228,0.452L245.219,42.305z M244.256,34.93c-0.854,0-1.487,0.525-1.757,1.458
		c-0.091,0.286-0.12,0.525-0.166,1.036h2.587c0.676,0,0.961-0.253,0.961-0.872C245.881,35.636,245.203,34.93,244.256,34.93z"/>
	<path fill="#FFFFFF" d="M253.75,42.126v-0.391c1.288-0.135,1.199-0.3,1.199-1.486v-2.78c0-1.637-0.437-2.223-1.697-2.223
		c-1.246,0-1.849,0.675-2.059,1.606c-0.09,0.408-0.121,0.857-0.121,1.549c0,1.848,0,0,0,1.848c0,1.307,0.016,1.319,1.219,1.486
		v0.391h-3.77v-0.391c1.169-0.166,1.201-0.21,1.201-1.486v-4.072c0-0.602-0.183-0.737-0.856-0.737h-0.345v-0.376
		c1.003-0.045,1.922-0.271,2.551-0.631v1.308c0.844-0.902,1.804-1.308,3.007-1.308c1.126,0,1.802,0.481,2.087,1.276
		c0.121,0.36,0.135,0.692,0.135,1.367v3.169c0,1.277-0.06,1.367,1.205,1.488v0.391h-3.756V42.126z"/>
	<path fill="#FFFFFF" d="M261.795,42.305c-0.796-0.028-1.127-0.164-1.456-0.569c-0.302-0.377-0.437-0.884-0.437-1.803v-4.296h-1.201
		V34.96h1.201v-1.579l0.945-0.827h0.406v2.405h2.3v0.405l-0.614,0.271h-1.684c0,3.98,0,0,0,3.98c0,0.902,0.105,1.806,1.203,1.806
		c0.329,0,0.629-0.076,0.976-0.197l0.119,0.39L261.795,42.305z"/>
	<path fill="#FFFFFF" d="M278.871,35.681h-1.698c0.016,0.286,0.016,0.496,0.016,0.631c0,1.292-0.212,2.27-0.662,3.216
		c1.231,1.082,2.421,2.073,2.797,2.313v0.286h-1.758c-0.393-0.36-1.548-1.442-1.669-1.563c-0.976,1.187-2.087,1.741-3.592,1.741
		c-1.895,0-3.696-1.049-3.696-3.094c0-1.578,1.354-2.674,2.828-2.764c-1.401-1.337-1.715-1.817-1.715-2.794
		c0-1.547,1.411-2.223,2.764-2.223c0.842,0,1.5,0.21,1.94,0.602v1.382h-0.393c-0.345-1.067-0.795-1.472-1.638-1.472
		c-0.842,0-1.411,0.54-1.411,1.366c0,0.737,0.466,1.458,1.621,2.555l3.561,3.366c0.468-1.172,0.603-2.375,0.018-3.547h-1.773v-0.3
		l0.769-0.406h4.414v0.299L278.871,35.681z M271.69,36.732c-0.991,0.466-1.473,1.187-1.473,2.313c0,1.562,1.05,2.674,2.539,2.674
		c1.066,0,1.923-0.451,2.795-1.458L271.69,36.732z"/>
	<path fill="#FFFFFF" d="M291.379,41.779c-0.678,0.226-1.534,0.347-2.437,0.347h-4.341v-0.393c0.856-0.073,1.035-0.119,1.174-0.329
		c0.103-0.165,0.103-0.227,0.103-1.157v-6.761c0-1.382,0-1.398-1.276-1.502v-0.376h4.958c1.066,0,1.952,0.12,2.676,0.406
		c1.831,0.706,2.836,2.298,2.836,4.462C295.071,39.016,293.676,41.028,291.379,41.779z M290.715,32.301
		c-0.478-0.135-1.094-0.225-1.772-0.225h-1.605v7.918c0,1.381,0.27,1.637,1.62,1.637c0.919,0,1.744-0.151,2.347-0.481
		c1.308-0.706,2.058-2.27,2.058-4.371C293.359,34.404,292.368,32.78,290.715,32.301z"/>
	<path fill="#FFFFFF" d="M301.044,42.305h-0.389c-1.445,0-2.27-0.344-2.93-1.142c-0.66-0.81-1.021-1.891-1.021-2.927
		c0-1.021,0.376-2.044,1.005-2.75c0.603-0.676,1.488-1.051,2.479-1.051c1.338,0,2.27,0.691,2.646,1.924
		c0.133,0.45,0.178,0.812,0.164,1.606h-4.838c0.016,1.098,0.285,1.969,0.794,2.57c0.496,0.586,1.174,0.901,2.076,0.901
		c0.557,0,0.99-0.135,1.742-0.512L303,41.378L301.044,42.305z M300.084,34.93c-0.855,0-1.488,0.525-1.758,1.458
		c-0.091,0.286-0.119,0.525-0.164,1.036h2.584c0.672,0,0.96-0.253,0.96-0.872C301.708,35.636,301.029,34.93,300.084,34.93z"/>
	<path fill="#FFFFFF" d="M309.065,42.291c-0.228-0.376-0.347-0.781-0.36-1.186l-1.158,0.78c-0.497,0.344-0.739,0.421-1.096,0.421
		c-1.158,0-1.953-0.826-1.953-2.026c0-0.844,0.375-1.428,1.143-1.878c0.36-0.21,0.735-0.378,1.44-0.648l1.638-0.63
		c-0.014-1.592-0.437-2.194-1.293-2.194c-0.707,0-1.096,0.542-1.397,1.095c-0.045,0.091-0.18,0.362-0.313,0.362
		c-0.032,0-0.075,0-0.121-0.016l-0.468-0.12c-0.089-0.03-0.135-0.089-0.119-0.15l0.225-0.841c0.077-0.271,0.122-0.316,0.392-0.436
		c0.556-0.255,1.247-0.39,1.923-0.39c1.772,0,2.523,0.721,2.523,2.404v3.333c0,0.857,0.135,1.129,0.527,1.129
		c0.133,0,0.27-0.03,0.512-0.106l0.089,0.421L309.065,42.291z M308.719,37.694c-0.752,0.27-1.007,0.376-1.338,0.511
		c-1.037,0.435-1.532,1.035-1.532,1.894c0,0.753,0.495,1.276,1.23,1.276c1.068,0,1.638-0.855,1.638-2.509v-1.172H308.719z"/>
	<path fill="#FFFFFF" d="M315.383,42.305c-0.795-0.028-1.126-0.164-1.453-0.569c-0.304-0.377-0.438-0.884-0.438-1.803v-4.296h-1.201
		V34.96h1.201v-1.579l0.948-0.827h0.406v2.405h2.297v0.405l-0.614,0.271h-1.683c0,3.98,0,0,0,3.98c0,0.902,0.104,1.806,1.201,1.806
		c0.333,0,0.632-0.076,0.977-0.197l0.119,0.39L315.383,42.305z"/>
	<path fill="#FFFFFF" d="M323.735,42.126v-0.391c1.169-0.12,1.201-0.135,1.201-1.486v-2.78c0-1.624-0.466-2.223-1.701-2.223
		c-1.891,0-2.176,1.682-2.176,3.155v1.848c0,1.352,0.031,1.365,1.187,1.486v0.391h-3.726v-0.391
		c1.155-0.135,1.185-0.148,1.185-1.486V32.78c0-0.3-0.029-0.511-0.104-0.646c-0.092-0.15-0.24-0.209-0.452-0.209h-0.63v-0.406
		c0.813,0,1.789-0.164,2.539-0.436v4.659c0.842-0.902,1.847-1.308,3.05-1.308c1.938,0,2.177,1.083,2.177,2.645v3.171
		c0,1.291-0.044,1.365,1.219,1.486v0.391H323.735z"/>
</g>
<g enable-background="new    ">
	<path fill="#FFFFFF" d="M188.669,61.431h-4.161v-0.389c1.276-0.106,1.276-0.121,1.276-1.488v-6.761c0-1.382,0-1.396-1.276-1.503
		v-0.376h3.727c0.991,0,1.413,0.016,1.954,0.165c1.035,0.287,1.605,1.037,1.605,2.178c0,1.143-0.693,1.939-2.164,2.494
		c0.691,0.121,0.993,0.165,1.445,0.392c0.884,0.436,1.409,1.263,1.409,2.328C192.486,60.35,191.089,61.431,188.669,61.431z
		 M188.129,51.38h-0.886v4.327h0.976c1.367,0,2.075-0.75,2.075-2.209C190.292,51.997,189.661,51.38,188.129,51.38z M188.234,56.174
		h-0.991v3.078c0,0.692,0.073,1.187,0.437,1.442c0.208,0.164,0.509,0.241,0.945,0.241c1.427,0,2.133-0.751,2.133-2.239
		C190.76,57.045,189.888,56.174,188.234,56.174z"/>
	<path fill="#FFFFFF" d="M198.413,61.612h-0.389c-1.443,0-2.27-0.348-2.928-1.142c-0.662-0.812-1.022-1.893-1.022-2.93
		c0-1.021,0.374-2.042,1.007-2.747c0.601-0.679,1.486-1.053,2.479-1.053c1.338,0,2.268,0.691,2.644,1.923
		c0.135,0.45,0.183,0.813,0.167,1.608h-4.839c0.015,1.097,0.288,1.968,0.795,2.569c0.496,0.587,1.172,0.901,2.073,0.901
		c0.56,0,0.991-0.135,1.744-0.512l0.227,0.452L198.413,61.612z M197.453,54.235c-0.854,0-1.488,0.525-1.758,1.458
		c-0.09,0.285-0.119,0.524-0.165,1.034h2.585c0.676,0,0.961-0.252,0.961-0.871C199.076,54.942,198.398,54.235,197.453,54.235z"/>
	<path fill="#FFFFFF" d="M206.943,61.431v-0.389c1.295-0.137,1.203-0.301,1.203-1.488v-2.781c0-1.636-0.436-2.22-1.698-2.22
		c-1.249,0-1.848,0.674-2.058,1.605c-0.091,0.406-0.119,0.857-0.119,1.547c0,1.849,0,0,0,1.849c0,1.307,0.015,1.322,1.216,1.488
		v0.389h-3.772v-0.389c1.174-0.165,1.203-0.21,1.203-1.488v-4.071c0-0.602-0.181-0.736-0.856-0.736h-0.347V54.37
		c1.009-0.048,1.923-0.271,2.557-0.632v1.308c0.839-0.902,1.802-1.308,3.003-1.308c1.128,0,1.804,0.481,2.09,1.276
		c0.118,0.36,0.135,0.691,0.135,1.366v3.17c0,1.278-0.062,1.367,1.201,1.489v0.389h-3.757V61.431z"/>
	<path fill="#FFFFFF" d="M216.389,61.612h-0.391c-1.443,0-2.27-0.348-2.93-1.142c-0.66-0.812-1.021-1.893-1.021-2.93
		c0-1.021,0.374-2.042,1.007-2.747c0.601-0.679,1.486-1.053,2.479-1.053c1.336,0,2.268,0.691,2.645,1.923
		c0.135,0.45,0.178,0.813,0.164,1.608h-4.836c0.014,1.097,0.285,1.968,0.795,2.569c0.493,0.587,1.173,0.901,2.073,0.901
		c0.559,0,0.991-0.135,1.744-0.512l0.224,0.452L216.389,61.612z M215.428,54.235c-0.856,0-1.489,0.525-1.759,1.458
		c-0.091,0.285-0.119,0.524-0.164,1.034h2.582c0.677,0,0.962-0.252,0.962-0.871C217.049,54.942,216.373,54.235,215.428,54.235z"/>
	<path fill="#FFFFFF" d="M224.783,51.305l-0.21,0.316c-0.048,0.061-0.092,0.105-0.167,0.105c-0.046,0-0.104-0.016-0.166-0.045
		l-0.539-0.242c-0.512-0.225-0.706-0.271-0.889-0.271c-0.432,0-0.566,0.256-0.566,1.16v1.95h2.071v0.391l-0.614,0.271h-1.457v4.61
		c0,0.469,0.014,0.873,0.045,0.994c0.09,0.344,0.479,0.45,1.487,0.494v0.391h-4.088V61.04c0.09,0,0.179-0.016,0.256-0.016
		c0.916-0.06,0.962-0.166,0.962-1.473v-4.61h-1.041v-0.662h1.041v-1.216c0-0.902,0.406-1.49,1.5-2.18
		c0.601-0.376,0.962-0.526,1.354-0.526c0.119,0,0.24,0.047,0.313,0.107l0.662,0.54c0.062,0.044,0.105,0.09,0.105,0.136
		S224.843,51.215,224.783,51.305z"/>
	<path fill="#FFFFFF" d="M225.23,61.431v-0.389c1.17-0.121,1.201-0.137,1.201-1.488v-4.057c0-0.603-0.166-0.736-0.855-0.736h-0.346
		v-0.376c1.006-0.044,1.923-0.286,2.554-0.646v5.813c0,1.264-0.032,1.367,1.203,1.488v0.391H225.23L225.23,61.431z M226.926,52.748
		c-0.479,0-0.87-0.392-0.87-0.887c0-0.45,0.404-0.856,0.886-0.856c0.468,0,0.874,0.392,0.874,0.872
		C227.815,52.372,227.423,52.748,226.926,52.748z"/>
	<path fill="#FFFFFF" d="M233.28,61.612c-0.797-0.03-1.128-0.166-1.459-0.57c-0.299-0.377-0.436-0.887-0.436-1.804v-4.296h-1.199
		v-0.677h1.199v-1.578l0.949-0.827h0.404v2.404h2.3v0.405l-0.615,0.271h-1.681c0,3.98,0,0,0,3.98c0,0.901,0.104,1.803,1.199,1.803
		c0.331,0,0.632-0.075,0.978-0.197l0.119,0.392L233.28,61.612z"/>
	<path fill="#FFFFFF" d="M238.4,61.612c-0.751,0-1.32-0.12-1.969-0.404v-1.685h0.391c0.03,0.376,0.092,0.692,0.24,0.915
		c0.271,0.406,0.826,0.66,1.413,0.66c0.811,0,1.382-0.555,1.382-1.32c0-0.704-0.256-1.021-1.684-1.984
		c-1.381-0.929-1.726-1.364-1.726-2.119c0-1.157,1.019-1.938,2.522-1.938c0.585,0,1.068,0.044,1.669,0.24v1.488h-0.39
		c-0.046-0.286-0.078-0.408-0.151-0.556c-0.224-0.406-0.601-0.678-1.203-0.678c-0.674,0-1.173,0.422-1.173,0.992
		c0,0.226,0.093,0.497,0.243,0.662c0.256,0.285,0.256,0.285,1.636,1.261c1.203,0.857,1.594,1.367,1.594,2.165
		C241.193,60.694,240.099,61.612,238.4,61.612z"/>
	<path fill="#FFFFFF" d="M248.955,61.612c-0.841,0-2.073-0.24-2.464-0.437c-0.152-0.075-0.164-0.12-0.164-0.315v-2.118h0.374
		c0.121,0.707,0.227,1.05,0.437,1.367c0.42,0.615,1.173,0.99,1.925,0.99c1.155,0,2.012-0.824,2.012-1.951
		c0-1.052-0.512-1.667-2.749-3.23c-1.397-0.976-1.861-1.563-1.861-2.57c0-1.804,1.71-2.614,3.288-2.614
		c0.706,0,1.548,0.091,1.923,0.239c0.183,0.075,0.226,0.121,0.226,0.286v1.923h-0.389c-0.21-1.32-0.782-1.923-1.908-1.923
		c-0.993,0-1.626,0.616-1.626,1.61c0,0.359,0.107,0.69,0.286,0.913c0.335,0.406,0.303,0.438,2.258,1.895
		c1.605,1.203,2.116,1.862,2.116,2.99C252.636,60.425,251.149,61.612,248.955,61.612z"/>
	<path fill="#FFFFFF" d="M260.474,55.348l-0.482,0.285c-0.025,0.016-0.089,0.029-0.133,0.029c-0.045,0-0.089-0.029-0.137-0.09
		l-0.657-0.781c-0.317-0.36-0.708-0.54-1.188-0.54c-1.368,0-2.256,1.216-2.256,2.959c0,1.997,1.068,3.53,2.826,3.53
		c0.558,0,0.978-0.136,1.713-0.524l0.256,0.449l-2,0.947h-0.359c-1.187,0-2.133-0.391-2.792-1.052
		c-0.737-0.735-1.128-1.788-1.128-2.959c0-2.208,1.681-3.862,4.025-3.862c0.72,0,1.309,0.135,1.834,0.392l0.541,1.006
		c0.016,0.029,0.016,0.06,0.016,0.09C260.551,55.273,260.535,55.302,260.474,55.348z"/>
	<path fill="#FFFFFF" d="M267.05,61.431v-0.389c1.174-0.121,1.203-0.137,1.203-1.488v-2.781c0-1.62-0.468-2.22-1.696-2.22
		c-1.893,0-2.179,1.68-2.179,3.152v1.849c0,1.352,0.028,1.366,1.186,1.488v0.389h-3.725v-0.389c1.155-0.137,1.186-0.151,1.186-1.488
		v-7.467c0-0.301-0.03-0.512-0.107-0.647c-0.089-0.149-0.241-0.208-0.449-0.208h-0.631v-0.406c0.811,0,1.786-0.164,2.539-0.438
		v4.658c0.839-0.9,1.848-1.307,3.047-1.307c1.94,0,2.181,1.084,2.181,2.644v3.171c0,1.292-0.044,1.366,1.215,1.488v0.389H267.05z"/>
	<path fill="#FFFFFF" d="M276.511,61.612h-0.393c-1.44,0-2.268-0.348-2.928-1.142c-0.662-0.812-1.021-1.893-1.021-2.93
		c0-1.021,0.377-2.042,1.005-2.747c0.603-0.679,1.488-1.053,2.479-1.053c1.336,0,2.268,0.691,2.645,1.923
		c0.137,0.45,0.18,0.813,0.166,1.608h-4.84c0.018,1.097,0.287,1.968,0.799,2.569c0.495,0.587,1.169,0.901,2.071,0.901
		c0.557,0,0.993-0.135,1.744-0.512l0.226,0.452L276.511,61.612z M275.55,54.235c-0.858,0-1.487,0.525-1.761,1.458
		c-0.089,0.285-0.119,0.524-0.164,1.034h2.582c0.679,0,0.962-0.252,0.962-0.871C277.171,54.942,276.495,54.235,275.55,54.235z"/>
	<path fill="#FFFFFF" d="M289.365,61.431v-0.389c1.171-0.121,1.201-0.137,1.201-1.488v-2.749c0-1.652-0.391-2.238-1.471-2.238
		c-0.617,0-1.126,0.225-1.443,0.632c-0.404,0.51-0.512,1.096-0.512,2.6v1.756c0,1.354,0.015,1.367,1.218,1.488v0.391h-3.772v-0.391
		c1.174-0.12,1.203-0.134,1.203-1.488v-2.747c0-1.652-0.347-2.24-1.459-2.24c-0.603,0-1.109,0.228-1.425,0.603
		c-0.406,0.495-0.541,1.141-0.541,2.629v1.759c0,1.352,0.016,1.365,1.217,1.487v0.389h-3.771v-0.389
		c1.17-0.121,1.201-0.136,1.201-1.487v-4.058c0-0.585-0.18-0.736-0.857-0.736h-0.344v-0.378c1.006-0.044,1.923-0.286,2.554-0.646
		v1.319c0.749-0.914,1.546-1.319,2.735-1.319c1.051,0,1.53,0.346,1.966,1.319c0.827-0.914,1.638-1.319,2.72-1.319
		c1.005,0,1.607,0.346,1.925,1.097c0.164,0.39,0.21,0.826,0.21,1.577v3.14c0,1.354,0,1.367,1.201,1.488v0.391H289.365
		L289.365,61.431z"/>
	<path fill="#FFFFFF" d="M298.806,61.612h-0.389c-1.44,0-2.27-0.348-2.93-1.142c-0.659-0.812-1.022-1.893-1.022-2.93
		c0-1.021,0.377-2.042,1.009-2.747c0.603-0.679,1.485-1.053,2.479-1.053c1.336,0,2.266,0.691,2.643,1.923
		c0.137,0.45,0.183,0.813,0.164,1.608h-4.836c0.014,1.097,0.285,1.968,0.795,2.569c0.497,0.587,1.174,0.901,2.075,0.901
		c0.555,0,0.989-0.135,1.742-0.512l0.224,0.452L298.806,61.612z M297.847,54.235c-0.856,0-1.489,0.525-1.759,1.458
		c-0.091,0.285-0.12,0.524-0.164,1.034h2.583c0.676,0,0.961-0.252,0.961-0.871C299.47,54.942,298.792,54.235,297.847,54.235z"/>
</g>
</svg>
