<?xml version="1.0" encoding="utf-8"?>
<!-- Generator: Adobe Illustrator 16.0.0, SVG Export Plug-In . SVG Version: 6.00 Build 0)  -->
<!DOCTYPE svg PUBLIC "-//W3C//DTD SVG 1.1//EN" "http://www.w3.org/Graphics/SVG/1.1/DTD/svg11.dtd">
<svg version="1.1" id="new_logo" xmlns="http://www.w3.org/2000/svg" xmlns:xlink="http://www.w3.org/1999/xlink" x="0px" y="0px"
	 width="346px" height="79px" viewBox="0 0 346 79" enable-background="new 0 0 346 79" xml:space="preserve">
<rect x="1" y="1.125" fill="none" stroke="#240743" stroke-width="2" stroke-miterlimit="10" width="167.289" height="76.855"/>
<rect x="174.844" y="0" fill="#939598" width="171.156" height="79"/>
<g>
	<path fill="#2C114A" d="M23.13,49.654v-0.916c1.216-0.06,1.662-0.386,1.662-1.182c0-0.296-0.089-0.592-0.238-1.005l-1.216-3.487
		H16.19l-1.216,3.487c-0.119,0.325-0.148,0.562-0.148,0.827c0,0.828,0.446,1.301,1.513,1.357v0.916h-5.844v-0.916
		c1.602-0.089,2.403-0.975,3.589-4.078l6.141-16.04h1.988l5.607,15.42c1.395,3.869,1.989,4.52,3.59,4.697v0.916h-8.28V49.654z
		 M19.986,32.993l-3.322,8.746h6.2L19.986,32.993z"/>
	<path fill="#2C114A" d="M48.234,48.354c-1.692,0.798-3.887,1.3-6.378,1.3H32.51v-0.916c1.484-0.146,1.958-0.146,2.285-0.561
		c0.237-0.297,0.297-0.563,0.297-2.01V32.459c0-2.333-0.06-2.422-2.582-2.599v-0.887h10.68c2.047,0,3.828,0.295,5.311,0.917
		c3.53,1.448,5.667,4.549,5.667,8.861C54.168,43.215,51.944,46.64,48.234,48.354z M44.792,30.48
		c-0.919-0.295-2.077-0.472-3.352-0.472h-2.165v15.422c0,2.776,0.356,3.159,2.462,3.159c1.75,0,3.233-0.383,4.331-1.121
		c2.404-1.598,3.59-4.787,3.59-8.391C49.659,34.736,47.968,31.517,44.792,30.48z"/>
	<path fill="#2C114A" d="M70.045,33.702c-0.683-2.866-1.423-3.604-3.53-3.604h-3.472v8.804h2.759c1.838,0,2.581-0.739,2.729-2.806
		h0.832v6.883h-0.831c-0.178-2.068-0.891-2.925-2.729-2.925h-2.759v6.114c0,2.305,0.06,2.394,2.581,2.57v0.916H56.25v-0.916
		c2.521-0.178,2.581-0.266,2.581-2.57V32.459c0-2.333-0.059-2.422-2.581-2.599v-0.887h14.596v4.728H70.045z"/>
	<path fill="#2C114A" d="M97.374,47.912c-0.119,0.53-0.238,0.68-0.95,0.944c-1.899,0.708-4.42,1.153-6.497,1.153
		c-2.789,0-5.548-0.77-7.535-2.336c-2.284-1.803-3.797-4.696-3.797-8.301c0-3.278,1.335-6.381,4.183-8.538
		c1.87-1.418,4.628-2.215,7.832-2.215c2.048,0,4.184,0.443,5.667,1.063c0.771,0.325,1.039,0.591,1.039,1.211v3.693h-0.831
		c-0.178-0.917-0.415-1.596-0.742-2.157c-1.009-1.744-3.084-2.689-5.251-2.689c-4.509,0-7.327,3.574-7.327,9.483
		c0,3.015,0.771,5.642,2.284,7.413c1.157,1.359,2.938,2.216,5.043,2.216c2.136,0,4.154-0.825,5.459-2.422
		c0.535-0.649,0.891-1.211,1.455-2.334h0.801L97.374,47.912z"/>
	<path fill="#2C114A" d="M107.437,50.011c-4.391,0-7.743-3.162-7.743-7.593c0-4.669,3.737-7.889,8.306-7.889
		c4.599,0,7.772,3.131,7.772,7.533C115.772,46.582,112.243,50.011,107.437,50.011z M107.674,35.503
		c-3.174,0-3.768,4.401-3.768,6.766c0,4.193,1.483,6.734,3.887,6.734c2.402,0,3.767-2.451,3.767-6.527
		C111.56,38.192,110.227,35.503,107.674,35.503z"/>
	<path fill="#2C114A" d="M130.166,38.31l-5.251,11.345h-1.632l-5.103-11.699c-0.712-1.625-1.187-2.069-2.403-2.157v-0.917h8.248
		v0.917c-1.513,0.03-2.018,0.266-2.018,0.946c0,0.177,0.03,0.295,0.238,0.857l3.144,7.889l3.382-7.651
		c0.178-0.414,0.237-0.68,0.237-0.857c0-1.182-1.692-1.152-2.492-1.182v-0.918h6.229v0.917
		C131.472,35.917,131.085,36.302,130.166,38.31z"/>
	<path fill="#2C114A" d="M136.994,41.473c0.03,2.273,0.445,3.723,1.306,4.786c0.861,1.063,2.136,1.682,3.708,1.682
		c1.158,0,2.136-0.353,3.56-1.209l0.624,1.032l-4.005,2.247h-0.712c-2.699,0-4.658-0.414-6.259-2.011
		c-1.483-1.477-2.313-3.75-2.313-5.996c0-2.214,0.891-4.194,2.254-5.554c1.276-1.271,3.145-1.919,5.222-1.919
		c2.758,0,4.687,1.241,5.428,3.456c0.326,0.975,0.415,1.744,0.415,3.487L136.994,41.473L136.994,41.473z M140.139,35.563
		c-1.336,0-2.375,0.916-2.818,2.51c-0.178,0.65-0.267,1.181-0.327,2.333h4.243c1.039,0,1.455-0.501,1.455-1.711
		C142.691,36.862,141.652,35.563,140.139,35.563z"/>
	<path fill="#2C114A" d="M159.396,37.837l-0.624,0.767c-0.088,0.118-0.237,0.266-0.415,0.266c-0.178,0-0.356-0.089-0.505-0.148
		l-1.365-0.562c-0.386-0.148-0.652-0.296-1.038-0.296c-0.623,0-0.979,0.384-1.247,1.21c-0.207,0.68-0.237,1.979-0.237,2.955v4.135
		c0,2.453,0.356,2.365,2.7,2.572v0.915h-8.959v-0.915c2.196-0.179,2.343-0.267,2.343-2.572v-7.681c0-1.27-0.386-1.714-1.603-1.772
		c0,0-0.594-0.03-0.712-0.03v-0.887c2.521-0.059,4.688-0.532,6.23-1.271v3.102l1.365-1.713c0.86-1.064,1.216-1.389,1.958-1.389
		c0.564,0,0.919,0.384,1.277,0.946l0.949,1.477c0.119,0.177,0.148,0.267,0.148,0.384C159.663,37.482,159.604,37.601,159.396,37.837z
		"/>
</g>
<g>
	<path fill="#FFFFFF" d="M194.775,25.705v-0.399c0.691-0.031,0.924-0.184,0.924-0.598c0-0.168-0.047-0.367-0.125-0.582l-0.66-1.978
		h-3.865l-0.709,2.039c-0.045,0.123-0.063,0.246-0.063,0.353c0,0.459,0.262,0.735,0.816,0.766v0.399h-2.85v-0.399
		c0.631-0.015,1.064-0.444,1.434-1.426l3.402-9.092h0.895l3.107,9.168c0.355,1.026,0.631,1.318,1.264,1.348v0.399L194.775,25.705
		L194.775,25.705z M193.16,16.492l-1.895,5.074h3.463L193.16,16.492z"/>
	<path fill="#FFFFFF" d="M205.023,25.889c-0.17-0.184-0.277-0.475-0.324-0.813c-0.016-0.138-0.029-0.23-0.029-0.368l-1.354,0.798
		c-0.492,0.291-0.77,0.383-1.293,0.383c-1.711,0-2.387-0.844-2.387-2.989v-3.251c0-0.612-0.188-0.751-0.879-0.751h-0.354v-0.382
		c1.016-0.046,1.969-0.292,2.617-0.661v4.905c0,1.273,0.186,2.208,1.646,2.208c0.877,0,1.584-0.459,1.816-1.211
		c0.137-0.429,0.199-1.088,0.199-1.809v-2.301c0-0.613-0.168-0.751-0.861-0.751h-0.371v-0.383c1.033-0.045,1.973-0.292,2.619-0.659
		c0,2.452,0,5.611,0,5.611c0,1.319,0.076,1.411,0.537,1.411c0.139,0,0.279-0.031,0.525-0.107l0.092,0.429L205.023,25.889z"/>
	<path fill="#FFFFFF" d="M210.375,25.889c-0.768,0-1.354-0.123-2.016-0.414v-1.718h0.398c0.031,0.383,0.094,0.705,0.246,0.936
		c0.277,0.413,0.848,0.673,1.447,0.673c0.832,0,1.416-0.567,1.416-1.349c0-0.72-0.262-1.042-1.723-2.023
		c-1.416-0.951-1.771-1.396-1.771-2.162c0-1.182,1.049-1.978,2.588-1.978c0.602,0,1.094,0.046,1.707,0.245v1.518h-0.398
		c-0.045-0.292-0.076-0.414-0.154-0.567c-0.229-0.414-0.615-0.688-1.23-0.688c-0.691,0-1.201,0.429-1.201,1.011
		c0,0.229,0.094,0.505,0.248,0.674c0.262,0.291,0.262,0.291,1.676,1.288c1.232,0.873,1.633,1.395,1.633,2.208
		C213.238,24.954,212.115,25.889,210.375,25.889z"/>
	<path fill="#FFFFFF" d="M217.16,25.889c-0.814-0.031-1.152-0.169-1.492-0.583c-0.307-0.382-0.445-0.903-0.445-1.839v-4.385h-1.229
		v-0.689h1.229v-1.61l0.971-0.843h0.416v2.452h2.355v0.414l-0.633,0.276h-1.723c0,4.063,0,0,0,4.063c0,0.919,0.107,1.839,1.23,1.839
		c0.34,0,0.646-0.077,1-0.199l0.123,0.399L217.16,25.889z"/>
	<path fill="#FFFFFF" d="M224.795,19.281l-0.354,0.276c-0.047,0.031-0.092,0.077-0.154,0.077c-0.047,0-0.107-0.031-0.137-0.046
		l-0.51-0.261c-0.17-0.091-0.295-0.107-0.494-0.107c-0.354,0-0.553,0.199-0.707,0.583c-0.139,0.352-0.139,1.181-0.139,1.595v2.391
		c0,1.487,0.121,1.441,1.555,1.518v0.399h-4.203v-0.399c1.279-0.061,1.262-0.184,1.262-1.518v-4.14c0-0.613-0.184-0.751-0.877-0.751
		h-0.354v-0.383c1.029-0.045,1.955-0.292,2.617-0.659v1.411l0.707-0.828c0.447-0.521,0.57-0.582,0.91-0.582
		c0.246,0,0.398,0.123,0.584,0.459l0.387,0.689c0.029,0.062,0.045,0.092,0.045,0.123C224.934,19.188,224.889,19.22,224.795,19.281z"
		/>
	<path fill="#FFFFFF" d="M230.271,25.873c-0.23-0.384-0.355-0.798-0.371-1.211l-1.184,0.797c-0.51,0.353-0.756,0.429-1.125,0.429
		c-1.184,0-2-0.844-2-2.07c0-0.857,0.385-1.457,1.17-1.916c0.367-0.214,0.754-0.384,1.477-0.66l1.678-0.644
		c-0.016-1.625-0.443-2.238-1.32-2.238c-0.727,0-1.125,0.552-1.434,1.118c-0.047,0.092-0.184,0.368-0.324,0.368
		c-0.029,0-0.076,0-0.123-0.015l-0.477-0.123c-0.094-0.03-0.139-0.092-0.123-0.153l0.23-0.858c0.074-0.276,0.121-0.322,0.4-0.445
		c0.568-0.26,1.277-0.398,1.971-0.398c1.814,0,2.584,0.736,2.584,2.452v3.404c0,0.873,0.141,1.149,0.539,1.149
		c0.141,0,0.279-0.031,0.523-0.108l0.092,0.431L230.271,25.873z M229.916,21.183c-0.77,0.276-1.029,0.383-1.369,0.521
		c-1.063,0.445-1.568,1.058-1.568,1.932c0,0.768,0.508,1.303,1.262,1.303c1.092,0,1.676-0.875,1.676-2.56V21.183L229.916,21.183z"/>
	<path fill="#FFFFFF" d="M233.207,25.705v-0.399c1.201-0.122,1.232-0.138,1.232-1.518v-7.619c0-0.399-0.031-0.629-0.186-0.751
		c-0.107-0.092-0.293-0.123-0.602-0.123h-0.43V14.88c0.859-0.016,1.861-0.184,2.602-0.444v9.351c0,1.379,0,1.396,1.23,1.518v0.399
		H233.207z"/>
	<path fill="#FFFFFF" d="M237.916,25.705v-0.399c1.201-0.122,1.232-0.138,1.232-1.518v-4.14c0-0.613-0.17-0.751-0.879-0.751h-0.354
		v-0.383c1.029-0.045,1.971-0.292,2.617-0.659v5.933c0,1.288-0.031,1.396,1.23,1.518v0.399H237.916z M239.656,16.844
		c-0.494,0-0.895-0.398-0.895-0.904c0-0.46,0.416-0.874,0.908-0.874c0.479,0,0.893,0.399,0.893,0.89
		C240.563,16.458,240.164,16.844,239.656,16.844z"/>
	<path fill="#FFFFFF" d="M247.457,25.873c-0.229-0.384-0.354-0.798-0.369-1.211l-1.184,0.797c-0.51,0.353-0.756,0.429-1.127,0.429
		c-1.182,0-1.998-0.844-1.998-2.07c0-0.857,0.385-1.457,1.17-1.916c0.367-0.214,0.754-0.384,1.479-0.66l1.678-0.644
		c-0.018-1.625-0.447-2.238-1.322-2.238c-0.723,0-1.125,0.552-1.434,1.118c-0.047,0.092-0.186,0.368-0.324,0.368
		c-0.029,0-0.076,0-0.121-0.015l-0.479-0.123c-0.094-0.03-0.141-0.092-0.123-0.153l0.23-0.858c0.074-0.276,0.123-0.322,0.4-0.445
		c0.566-0.26,1.275-0.398,1.971-0.398c1.816,0,2.586,0.736,2.586,2.452v3.404c0,0.873,0.137,1.149,0.539,1.149
		c0.137,0,0.277-0.031,0.523-0.108l0.092,0.431L247.457,25.873z M247.104,21.183c-0.77,0.276-1.031,0.383-1.369,0.521
		c-1.063,0.445-1.57,1.058-1.57,1.932c0,0.768,0.508,1.303,1.262,1.303c1.092,0,1.68-0.875,1.68-2.56v-1.196H247.104z"/>
	<path fill="#FFFFFF" d="M255.752,25.705v-0.399c1.322-0.138,1.23-0.306,1.23-1.518v-2.835c0-1.672-0.445-2.269-1.738-2.269
		c-1.279,0-1.895,0.689-2.109,1.641c-0.094,0.414-0.121,0.873-0.121,1.579c0,1.886,0,0,0,1.886c0,1.334,0.016,1.349,1.246,1.518
		v0.398h-3.865v-0.398c1.203-0.169,1.23-0.215,1.23-1.518v-4.154c0-0.614-0.184-0.752-0.877-0.752h-0.354V18.5
		c1.031-0.046,1.971-0.275,2.619-0.644v1.334c0.859-0.919,1.846-1.334,3.076-1.334c1.154,0,1.85,0.49,2.141,1.302
		c0.123,0.368,0.139,0.707,0.139,1.396v3.235c0,1.302-0.061,1.396,1.232,1.518v0.398L255.752,25.705L255.752,25.705z"/>
	<path fill="#FFFFFF" d="M195.59,43.957c-0.691,0.229-1.57,0.353-2.494,0.353h-4.449V43.91c0.877-0.074,1.063-0.119,1.201-0.336
		c0.107-0.168,0.107-0.229,0.107-1.181v-6.899c0-1.411,0-1.426-1.309-1.533v-0.383h5.08c1.094,0,2,0.122,2.738,0.414
		c1.879,0.721,2.91,2.346,2.91,4.553C199.377,41.137,197.947,43.19,195.59,43.957z M194.914,34.284
		c-0.492-0.138-1.123-0.23-1.816-0.23h-1.646v8.077c0,1.412,0.275,1.673,1.662,1.673c0.938,0,1.785-0.154,2.402-0.49
		c1.34-0.721,2.109-2.313,2.109-4.461C197.623,36.43,196.607,34.773,194.914,34.284z"/>
	<path fill="#FFFFFF" d="M205.1,44.494h-0.4c-1.479,0-2.324-0.354-3.002-1.164c-0.678-0.828-1.047-1.933-1.047-2.99
		c0-1.042,0.387-2.084,1.031-2.804c0.615-0.69,1.523-1.073,2.541-1.073c1.369,0,2.324,0.706,2.709,1.962
		c0.139,0.459,0.186,0.827,0.17,1.641h-4.957c0.016,1.12,0.293,2.009,0.814,2.623c0.508,0.597,1.201,0.919,2.125,0.919
		c0.57,0,1.018-0.14,1.785-0.521l0.23,0.459L205.1,44.494z M204.113,36.968c-0.877,0-1.523,0.536-1.801,1.486
		c-0.092,0.291-0.125,0.536-0.168,1.058h2.646c0.691,0,0.984-0.26,0.984-0.89C205.777,37.687,205.084,36.968,204.113,36.968z"/>
	<path fill="#FFFFFF" d="M213.301,33.978l-0.217,0.321c-0.045,0.063-0.094,0.108-0.17,0.108c-0.047,0-0.107-0.016-0.17-0.046
		l-0.553-0.245c-0.525-0.23-0.723-0.276-0.908-0.276c-0.445,0-0.584,0.26-0.584,1.18v1.994h2.125v0.398l-0.633,0.275h-1.49v4.707
		c0,0.476,0.016,0.89,0.045,1.013c0.092,0.353,0.492,0.459,1.523,0.504v0.4h-4.188v-0.4c0.092,0,0.186-0.014,0.26-0.014
		c0.939-0.063,0.988-0.169,0.988-1.503v-4.707h-1.063v-0.674h1.063V35.77c0-0.919,0.412-1.518,1.537-2.223
		c0.617-0.383,0.986-0.536,1.385-0.536c0.125,0,0.248,0.045,0.326,0.107l0.676,0.552c0.063,0.046,0.107,0.092,0.107,0.138
		C213.363,33.854,213.361,33.886,213.301,33.978z"/>
	<path fill="#FFFFFF" d="M217.684,44.494h-0.4c-1.477,0-2.322-0.354-3.002-1.164c-0.676-0.828-1.045-1.933-1.045-2.99
		c0-1.042,0.387-2.084,1.031-2.804c0.617-0.69,1.523-1.073,2.541-1.073c1.369,0,2.324,0.706,2.709,1.962
		c0.139,0.459,0.186,0.827,0.17,1.641h-4.959c0.018,1.12,0.293,2.009,0.816,2.623c0.508,0.597,1.201,0.919,2.125,0.919
		c0.57,0,1.018-0.14,1.785-0.521l0.23,0.459L217.684,44.494z M216.699,36.968c-0.877,0-1.525,0.536-1.801,1.486
		c-0.094,0.291-0.123,0.536-0.17,1.058h2.648c0.693,0,0.986-0.26,0.986-0.89C218.363,37.687,217.67,36.968,216.699,36.968z"/>
	<path fill="#FFFFFF" d="M226.025,44.311v-0.4c1.322-0.136,1.23-0.305,1.23-1.517v-2.836c0-1.672-0.445-2.269-1.738-2.269
		c-1.279,0-1.896,0.689-2.109,1.64c-0.094,0.414-0.123,0.874-0.123,1.579c0,1.886,0,0,0,1.886c0,1.334,0.014,1.349,1.246,1.517v0.4
		h-3.865v-0.4c1.203-0.166,1.232-0.213,1.232-1.517V38.24c0-0.614-0.184-0.752-0.877-0.752h-0.355v-0.383
		c1.033-0.046,1.973-0.275,2.619-0.643v1.334c0.863-0.92,1.848-1.334,3.08-1.334c1.154,0,1.848,0.49,2.139,1.302
		c0.123,0.368,0.141,0.706,0.141,1.396v3.235c0,1.303-0.064,1.396,1.229,1.518v0.399L226.025,44.311L226.025,44.311z"/>
	<path fill="#FFFFFF" d="M237.35,38.101l-0.492,0.291c-0.031,0.015-0.092,0.031-0.139,0.031s-0.094-0.031-0.139-0.092l-0.678-0.798
		c-0.322-0.368-0.723-0.552-1.215-0.552c-1.402,0-2.311,1.243-2.311,3.021c0,2.037,1.094,3.604,2.896,3.604
		c0.568,0,0.998-0.141,1.752-0.537l0.264,0.461l-2.049,0.965h-0.369c-1.213,0-2.186-0.398-2.863-1.072
		c-0.754-0.752-1.154-1.825-1.154-3.021c0-2.253,1.725-3.939,4.127-3.939c0.74,0,1.34,0.138,1.877,0.398l0.557,1.026
		c0.016,0.031,0.016,0.062,0.016,0.092C237.426,38.023,237.412,38.056,237.35,38.101z"/>
	<path fill="#FFFFFF" d="M242.703,44.494h-0.398c-1.479,0-2.324-0.354-3.002-1.164c-0.678-0.828-1.047-1.933-1.047-2.99
		c0-1.042,0.387-2.084,1.031-2.804c0.615-0.69,1.523-1.073,2.539-1.073c1.371,0,2.326,0.706,2.711,1.962
		c0.139,0.459,0.186,0.827,0.168,1.641h-4.957c0.018,1.12,0.293,2.009,0.816,2.623c0.508,0.597,1.199,0.919,2.125,0.919
		c0.568,0,1.016-0.14,1.785-0.521l0.23,0.459L242.703,44.494z M241.717,36.968c-0.877,0-1.523,0.536-1.801,1.486
		c-0.092,0.291-0.123,0.536-0.17,1.058h2.648c0.691,0,0.984-0.26,0.984-0.89C243.381,37.687,242.688,36.968,241.717,36.968z"/>
	<path fill="#FFFFFF" d="M255.66,36.032c-0.307-1.625-0.631-1.978-1.785-1.978h-1.895v4.738h1.432c1,0,1.371-0.338,1.447-1.365
		h0.398v3.28h-0.398c-0.107-1.058-0.432-1.439-1.447-1.439h-1.432v3.127c0,1.396,0,1.41,1.307,1.518v0.399h-4.109v-0.399
		c1.309-0.106,1.309-0.121,1.309-1.518v-6.899c0-1.411,0-1.426-1.309-1.533V33.58h6.867v2.453L255.66,36.032L255.66,36.032z"/>
	<path fill="#FFFFFF" d="M260.662,44.494c-2.232,0-3.787-1.748-3.787-3.924c0-2.347,1.725-4.109,4.094-4.109
		c2.279,0,3.85,1.609,3.85,3.939C264.816,42.746,263.061,44.494,260.662,44.494z M260.768,36.968c-1.816,0-2.371,2.008-2.371,3.479
		c0,2.07,1.002,3.525,2.465,3.525c1.477,0,2.432-1.334,2.432-3.4C263.291,38.362,262.309,36.968,260.768,36.968z"/>
	<path fill="#FFFFFF" d="M270.939,37.887l-0.354,0.276c-0.045,0.031-0.094,0.077-0.152,0.077c-0.047,0-0.109-0.031-0.141-0.046
		l-0.508-0.261c-0.168-0.092-0.293-0.107-0.494-0.107c-0.354,0-0.553,0.199-0.707,0.582c-0.139,0.353-0.139,1.181-0.139,1.594v2.393
		c0,1.486,0.123,1.439,1.555,1.518v0.399h-4.203v-0.399c1.279-0.062,1.264-0.184,1.264-1.518v-4.14c0-0.613-0.186-0.75-0.877-0.75
		h-0.355v-0.383c1.031-0.046,1.957-0.292,2.619-0.659v1.411l0.709-0.828c0.445-0.521,0.57-0.582,0.908-0.582
		c0.246,0,0.396,0.122,0.584,0.459l0.385,0.689c0.031,0.062,0.045,0.092,0.045,0.123C271.078,37.794,271.031,37.826,270.939,37.887z
		"/>
	<path fill="#FFFFFF" d="M278.201,38.101l-0.492,0.291c-0.029,0.015-0.092,0.031-0.137,0.031c-0.047,0-0.094-0.031-0.139-0.092
		l-0.68-0.798c-0.32-0.368-0.723-0.552-1.215-0.552c-1.398,0-2.311,1.243-2.311,3.021c0,2.037,1.094,3.604,2.895,3.604
		c0.57,0,1.002-0.141,1.756-0.537l0.264,0.461l-2.049,0.965h-0.369c-1.217,0-2.186-0.398-2.861-1.072
		c-0.756-0.752-1.156-1.825-1.156-3.021c0-2.253,1.727-3.939,4.125-3.939c0.742,0,1.34,0.138,1.879,0.398l0.555,1.026
		c0.016,0.031,0.016,0.062,0.016,0.092C278.279,38.023,278.264,38.056,278.201,38.101z"/>
	<path fill="#FFFFFF" d="M283.557,44.494h-0.4c-1.479,0-2.324-0.354-3.002-1.164c-0.678-0.828-1.045-1.933-1.045-2.99
		c0-1.042,0.385-2.084,1.029-2.804c0.615-0.69,1.523-1.073,2.541-1.073c1.369,0,2.324,0.706,2.709,1.962
		c0.139,0.459,0.184,0.827,0.168,1.641h-4.955c0.016,1.12,0.293,2.009,0.816,2.623c0.506,0.597,1.199,0.919,2.123,0.919
		c0.568,0,1.018-0.14,1.785-0.521l0.23,0.459L283.557,44.494z M282.57,36.968c-0.877,0-1.523,0.536-1.801,1.486
		c-0.094,0.291-0.123,0.536-0.17,1.058h2.646c0.693,0,0.986-0.26,0.986-0.89C284.234,37.687,283.541,36.968,282.57,36.968z"/>
	<path fill="#FFFFFF" d="M198.484,62.086c-0.076,0.31-0.123,0.371-0.568,0.521c-0.926,0.323-2.188,0.492-3.234,0.492
		c-1.445,0-2.816-0.43-3.895-1.242c-1.217-0.919-2.018-2.361-2.018-4.264c0-1.547,0.693-3.262,2.188-4.385
		c0.984-0.734,2.311-1.211,4.018-1.211c1.063,0,2.232,0.231,2.926,0.521c0.445,0.186,0.584,0.322,0.584,0.689v1.886h-0.4
		c-0.045-0.534-0.139-0.933-0.291-1.226c-0.445-0.844-1.709-1.35-2.988-1.35c-2.633,0-4.277,1.826-4.277,4.939
		c0,1.668,0.477,3.125,1.461,4.061c0.709,0.661,1.678,1.059,2.924,1.059c1.219,0,2.311-0.414,2.988-1.256
		c0.248-0.309,0.385-0.566,0.646-1.15h0.4L198.484,62.086z"/>
	<path fill="#FFFFFF" d="M203.744,63.101c-2.23,0-3.787-1.749-3.787-3.925c0-2.344,1.725-4.108,4.098-4.108
		c2.275,0,3.848,1.609,3.848,3.94C207.9,61.351,206.146,63.101,203.744,63.101z M203.852,55.572c-1.816,0-2.369,2.01-2.369,3.479
		c0,2.07,1,3.527,2.463,3.527c1.479,0,2.432-1.334,2.432-3.402C206.377,56.968,205.391,55.572,203.852,55.572z"/>
	<path fill="#FFFFFF" d="M215.135,57.029l-2.771,5.887h-0.492l-2.604-6.07c-0.385-0.889-0.631-1.148-1.264-1.196v-0.397h3.988v0.397
		c-1,0.015-1.34,0.168-1.34,0.599c0,0.092,0.016,0.215,0.123,0.475l1.771,4.479l1.971-4.399c0.123-0.261,0.152-0.397,0.152-0.488
		c0-0.614-0.875-0.646-1.309-0.661v-0.4h3.096v0.396C215.793,55.726,215.656,55.924,215.135,57.029z"/>
	<path fill="#FFFFFF" d="M221.07,63.101h-0.398c-1.479,0-2.322-0.353-3.002-1.165c-0.678-0.83-1.047-1.932-1.047-2.988
		c0-1.041,0.385-2.084,1.031-2.807c0.615-0.689,1.525-1.072,2.539-1.072c1.369,0,2.324,0.707,2.711,1.963
		c0.139,0.459,0.184,0.827,0.168,1.641h-4.957c0.018,1.117,0.293,2.009,0.816,2.621c0.508,0.597,1.199,0.918,2.125,0.918
		c0.568,0,1.018-0.137,1.785-0.521l0.229,0.46L221.07,63.101z M220.086,55.572c-0.879,0-1.525,0.535-1.803,1.486
		c-0.092,0.291-0.123,0.535-0.168,1.059h2.646c0.691,0,0.984-0.261,0.984-0.89C221.748,56.295,221.055,55.572,220.086,55.572z"/>
	<path fill="#FFFFFF" d="M229.197,56.492l-0.355,0.275c-0.047,0.029-0.094,0.076-0.154,0.076c-0.047,0-0.107-0.031-0.139-0.047
		l-0.51-0.262c-0.168-0.092-0.291-0.107-0.492-0.107c-0.354,0-0.553,0.199-0.707,0.584c-0.139,0.354-0.139,1.181-0.139,1.593v2.394
		c0,1.486,0.121,1.438,1.555,1.518v0.4h-4.203v-0.4c1.277-0.061,1.264-0.184,1.264-1.518v-4.139c0-0.615-0.186-0.754-0.879-0.754
		h-0.354v-0.383c1.029-0.045,1.955-0.29,2.617-0.658v1.411l0.709-0.829c0.445-0.521,0.57-0.582,0.908-0.582
		c0.248,0,0.398,0.122,0.584,0.46l0.387,0.69c0.029,0.06,0.043,0.091,0.043,0.121C229.334,56.399,229.289,56.431,229.197,56.492z"/>
</g>
</svg>
