<?xml version="1.0" encoding="utf-8"?>
<!-- Generator: Adobe Illustrator 16.0.0, SVG Export Plug-In . SVG Version: 6.00 Build 0)  -->
<!DOCTYPE svg PUBLIC "-//W3C//DTD SVG 1.1//EN" "http://www.w3.org/Graphics/SVG/1.1/DTD/svg11.dtd">
<svg version="1.1" id="new_logo" xmlns="http://www.w3.org/2000/svg" xmlns:xlink="http://www.w3.org/1999/xlink" x="0px" y="0px"
	 width="329.125px" height="73.666px" viewBox="0 0 329.125 73.666" enable-background="new 0 0 329.125 73.666"
	 xml:space="preserve">
<rect fill="#5C8727" width="163.5" height="73.511"/>
<rect x="168.666" fill="#939598" width="160.459" height="73.511"/>
<rect x="27.665" y="24.999" fill="none" width="117.333" height="35.333"/>
<g enable-background="new    ">
	<path fill="#FFFFFF" d="M44.807,47.142c-1.824,0.864-4.191,1.408-6.879,1.408H27.849v-0.992c1.6-0.16,2.112-0.16,2.464-0.607
		c0.256-0.32,0.32-0.608,0.32-2.176V29.927c0-2.527-0.064-2.623-2.784-2.815v-0.96h11.519c2.208,0,4.127,0.32,5.728,0.992
		c3.808,1.567,6.111,4.928,6.111,9.599C51.207,41.574,48.807,45.286,44.807,47.142z M41.096,27.783
		c-0.992-0.32-2.24-0.512-3.616-0.512h-2.336v16.703c0,3.007,0.384,3.423,2.656,3.423c1.888,0,3.488-0.416,4.671-1.216
		c2.592-1.728,3.872-5.184,3.872-9.087C46.343,32.391,44.519,28.903,41.096,27.783z"/>
	<path fill="#FFFFFF" d="M67.527,31.271c-0.736-3.104-1.536-3.904-3.808-3.904h-3.744v9.535h2.976c1.984,0,2.784-0.8,2.944-3.039
		h0.896v7.455h-0.896c-0.192-2.24-0.96-3.168-2.944-3.168h-2.976v6.624c0,2.495,0.064,2.592,2.784,2.783v0.992H52.648v-0.992
		c2.72-0.191,2.784-0.288,2.784-2.783V29.927c0-2.527-0.064-2.623-2.784-2.815v-0.96h15.743v5.12H67.527z"/>
	<path fill="#FFFFFF" d="M86.663,48.55c-0.544,0-0.992-0.224-1.44-0.672c-0.448-0.448-0.672-0.864-1.792-2.784l-3.808-6.432h-2.368
		v6.112c0,2.464,0.128,2.56,2.784,2.783v0.992H69.928v-0.992c2.72-0.191,2.784-0.288,2.784-2.783V29.927
		c0-2.527-0.064-2.623-2.784-2.815v-0.96h11.263c4.319,0,6.847,2.08,6.847,5.664c0,2.911-1.728,5.119-4.768,6.207l3.936,5.536
		c1.408,1.951,2.335,3.167,3.775,4.383v0.608H86.663z M79.463,27.367h-2.208v10.079h1.952c1.152,0,1.92-0.224,2.528-0.704
		c1.088-0.896,1.568-2.592,1.568-4.607C83.303,28.839,82.119,27.367,79.463,27.367z"/>
	<path fill="#FFFFFF" d="M107.974,47.142c-1.824,0.864-4.191,1.408-6.879,1.408H91.016v-0.992c1.6-0.16,2.112-0.16,2.464-0.607
		c0.256-0.32,0.32-0.608,0.32-2.176V29.927c0-2.527-0.064-2.623-2.784-2.815v-0.96h11.519c2.208,0,4.127,0.32,5.728,0.992
		c3.808,1.567,6.111,4.928,6.111,9.599C114.374,41.574,111.974,45.286,107.974,47.142z M104.263,27.783
		c-0.992-0.32-2.24-0.512-3.616-0.512h-2.336v16.703c0,3.007,0.384,3.423,2.656,3.423c1.888,0,3.488-0.416,4.671-1.216
		c2.592-1.728,3.872-5.184,3.872-9.087C109.51,32.391,107.686,28.903,104.263,27.783z"/>
	<path fill="#FFFFFF" d="M126.535,48.55h-10.719v-0.992c2.72-0.191,2.784-0.288,2.784-2.783V29.927c0-2.527-0.064-2.623-2.784-2.815
		v-0.96h10.239c1.76,0,2.848,0.096,4,0.448c2.048,0.64,3.328,2.111,3.328,4.512c0,2.624-1.728,4.447-4.992,5.279
		c1.504,0.224,2.144,0.352,3.136,0.768c2.112,0.929,3.36,2.721,3.36,5.088C134.886,46.214,131.75,48.55,126.535,48.55z
		 M124.871,27.271h-1.76v8.927h1.952c2.56,0,3.84-1.504,3.84-4.575C128.902,28.52,127.75,27.271,124.871,27.271z M124.967,37.318
		h-1.856v6.496c0,1.632,0.128,2.464,0.704,3.008c0.416,0.416,0.928,0.575,1.824,0.575c2.751,0,4.224-1.695,4.224-4.799
		C129.862,39.206,128.134,37.318,124.967,37.318z"/>
</g>
<rect x="183.998" y="13.665" fill="none" width="138.667" height="60.001"/>
<g enable-background="new    ">
	<path fill="#FFFFFF" d="M190.876,23.647c-0.63,0.21-1.429,0.322-2.27,0.322h-4.048v-0.364c0.799-0.07,0.967-0.112,1.092-0.308
		c0.099-0.154,0.099-0.211,0.099-1.079v-6.304c0-1.288,0-1.303-1.19-1.4v-0.351h4.622c0.995,0,1.821,0.112,2.493,0.379
		c1.709,0.658,2.648,2.143,2.648,4.16C194.322,21.07,193.02,22.947,190.876,23.647z M190.26,14.809
		c-0.449-0.126-1.023-0.21-1.653-0.21h-1.499v7.382c0,1.289,0.252,1.527,1.514,1.527c0.854,0,1.625-0.141,2.185-0.448
		c1.219-0.658,1.919-2.115,1.919-4.076C192.725,16.77,191.801,15.257,190.26,14.809z"/>
	<path fill="#FFFFFF" d="M199.891,24.138h-0.364c-1.345,0-2.115-0.322-2.731-1.064c-0.616-0.757-0.953-1.765-0.953-2.731
		c0-0.952,0.351-1.905,0.939-2.563c0.561-0.63,1.387-0.98,2.311-0.98c1.247,0,2.115,0.645,2.466,1.793
		c0.126,0.42,0.168,0.757,0.153,1.499h-4.51c0.014,1.022,0.266,1.835,0.742,2.396c0.463,0.546,1.093,0.84,1.934,0.84
		c0.518,0,0.924-0.126,1.625-0.477l0.209,0.421L199.891,24.138z M198.994,17.26c-0.799,0-1.387,0.49-1.639,1.359
		c-0.084,0.266-0.112,0.49-0.154,0.966h2.409c0.63,0,0.896-0.237,0.896-0.813C200.507,17.919,199.877,17.26,198.994,17.26z"/>
	<path fill="#FFFFFF" d="M207.717,14.528l-0.196,0.295c-0.042,0.056-0.084,0.098-0.154,0.098c-0.042,0-0.098-0.014-0.153-0.042
		l-0.505-0.225c-0.476-0.21-0.658-0.252-0.826-0.252c-0.406,0-0.532,0.238-0.532,1.079v1.82h1.933v0.364l-0.574,0.253h-1.358v4.3
		c0,0.435,0.014,0.813,0.042,0.925c0.084,0.322,0.448,0.42,1.387,0.462v0.364h-3.81v-0.364c0.084,0,0.168-0.014,0.237-0.014
		c0.854-0.057,0.896-0.154,0.896-1.373v-4.3h-0.966v-0.617h0.966v-1.134c0-0.841,0.378-1.388,1.401-2.031
		c0.561-0.351,0.896-0.49,1.26-0.49c0.112,0,0.225,0.042,0.295,0.098l0.616,0.504c0.056,0.042,0.098,0.085,0.098,0.127
		S207.772,14.444,207.717,14.528z"/>
	<path fill="#FFFFFF" d="M212.07,24.138h-0.364c-1.345,0-2.115-0.322-2.731-1.064c-0.616-0.757-0.953-1.765-0.953-2.731
		c0-0.952,0.351-1.905,0.939-2.563c0.561-0.63,1.387-0.98,2.311-0.98c1.247,0,2.115,0.645,2.466,1.793
		c0.126,0.42,0.168,0.757,0.153,1.499h-4.51c0.014,1.022,0.266,1.835,0.742,2.396c0.463,0.546,1.093,0.84,1.934,0.84
		c0.518,0,0.924-0.126,1.625-0.477l0.209,0.421L212.07,24.138z M211.174,17.26c-0.799,0-1.387,0.49-1.639,1.359
		c-0.084,0.266-0.112,0.49-0.154,0.966h2.409c0.63,0,0.896-0.237,0.896-0.813C212.687,17.919,212.057,17.26,211.174,17.26z"/>
	<path fill="#FFFFFF" d="M220.022,23.97v-0.364c1.204-0.126,1.12-0.28,1.12-1.387v-2.592c0-1.526-0.406-2.072-1.582-2.072
		c-1.163,0-1.723,0.63-1.92,1.498c-0.084,0.379-0.111,0.799-0.111,1.443c0,1.723,0,0,0,1.723c0,1.219,0.014,1.232,1.135,1.387v0.364
		h-3.516v-0.364c1.092-0.154,1.12-0.196,1.12-1.387v-3.796c0-0.561-0.169-0.687-0.799-0.687h-0.321v-0.351
		c0.938-0.042,1.793-0.252,2.381-0.588v1.219c0.784-0.841,1.681-1.219,2.801-1.219c1.051,0,1.682,0.448,1.947,1.19
		c0.112,0.336,0.127,0.645,0.127,1.274v2.956c0,1.19-0.057,1.274,1.12,1.387v0.364H220.022z"/>
	<path fill="#FFFFFF" d="M230.691,18.297l-0.449,0.266c-0.027,0.015-0.084,0.028-0.125,0.028c-0.043,0-0.084-0.028-0.127-0.084
		l-0.615-0.729c-0.295-0.336-0.659-0.504-1.107-0.504c-1.274,0-2.102,1.135-2.102,2.759c0,1.863,0.995,3.292,2.634,3.292
		c0.519,0,0.911-0.126,1.597-0.49l0.238,0.42l-1.863,0.883h-0.336c-1.106,0-1.988-0.364-2.605-0.98
		c-0.686-0.687-1.051-1.667-1.051-2.76c0-2.059,1.569-3.6,3.754-3.6c0.673,0,1.219,0.126,1.709,0.364l0.505,0.938
		c0.015,0.028,0.015,0.056,0.015,0.084C230.762,18.227,230.747,18.255,230.691,18.297z"/>
	<path fill="#FFFFFF" d="M235.926,24.138h-0.364c-1.345,0-2.115-0.322-2.731-1.064c-0.616-0.757-0.953-1.765-0.953-2.731
		c0-0.952,0.351-1.905,0.939-2.563c0.561-0.63,1.387-0.98,2.311-0.98c1.247,0,2.115,0.645,2.466,1.793
		c0.126,0.42,0.168,0.757,0.153,1.499h-4.51c0.014,1.022,0.266,1.835,0.742,2.396c0.463,0.546,1.093,0.84,1.934,0.84
		c0.518,0,0.924-0.126,1.625-0.477l0.209,0.421L235.926,24.138z M235.029,17.26c-0.799,0-1.387,0.49-1.639,1.359
		c-0.084,0.266-0.112,0.49-0.154,0.966h2.409c0.63,0,0.896-0.237,0.896-0.813C236.542,17.919,235.912,17.26,235.029,17.26z"/>
	<path fill="#FFFFFF" d="M248.443,16.405c-0.281-1.484-0.575-1.807-1.625-1.807h-1.724v4.328h1.303c0.911,0,1.247-0.308,1.317-1.246
		h0.363v2.997h-0.363c-0.099-0.966-0.393-1.316-1.317-1.316h-1.303v2.857c0,1.274,0,1.289,1.19,1.387v0.364h-3.74v-0.364
		c1.191-0.098,1.191-0.112,1.191-1.387v-6.304c0-1.288,0-1.303-1.191-1.4v-0.351h6.248v2.241H248.443z"/>
	<path fill="#FFFFFF" d="M253.355,24.138c-2.031,0-3.446-1.597-3.446-3.586c0-2.143,1.569-3.754,3.726-3.754
		c2.074,0,3.502,1.471,3.502,3.6C257.137,22.541,255.54,24.138,253.355,24.138z M253.453,17.26c-1.652,0-2.157,1.835-2.157,3.18
		c0,1.892,0.911,3.222,2.241,3.222c1.345,0,2.213-1.218,2.213-3.109C255.75,18.535,254.854,17.26,253.453,17.26z"/>
	<path fill="#FFFFFF" d="M263.072,18.101l-0.322,0.252c-0.043,0.028-0.084,0.07-0.141,0.07c-0.042,0-0.098-0.028-0.126-0.042
		l-0.462-0.238c-0.154-0.084-0.266-0.098-0.448-0.098c-0.322,0-0.505,0.182-0.645,0.532c-0.126,0.322-0.126,1.078-0.126,1.456v2.186
		c0,1.358,0.111,1.316,1.414,1.387v0.364h-3.823v-0.364c1.163-0.056,1.148-0.168,1.148-1.387v-3.782
		c0-0.561-0.168-0.687-0.798-0.687h-0.322V17.4c0.938-0.042,1.778-0.267,2.381-0.603v1.289l0.645-0.757
		c0.406-0.477,0.518-0.532,0.826-0.532c0.225,0,0.364,0.112,0.532,0.42l0.351,0.631c0.027,0.056,0.041,0.084,0.041,0.112
		C263.197,18.017,263.156,18.045,263.072,18.101z"/>
	<path fill="#FFFFFF" d="M270.045,18.297l-0.449,0.266c-0.027,0.015-0.084,0.028-0.125,0.028c-0.043,0-0.084-0.028-0.127-0.084
		l-0.615-0.729c-0.295-0.336-0.659-0.504-1.107-0.504c-1.274,0-2.102,1.135-2.102,2.759c0,1.863,0.995,3.292,2.634,3.292
		c0.519,0,0.911-0.126,1.597-0.49l0.238,0.42l-1.863,0.883h-0.336c-1.106,0-1.988-0.364-2.605-0.98
		c-0.686-0.687-1.051-1.667-1.051-2.76c0-2.059,1.569-3.6,3.754-3.6c0.673,0,1.219,0.126,1.709,0.364l0.505,0.938
		c0.015,0.028,0.015,0.056,0.015,0.084C270.115,18.227,270.101,18.255,270.045,18.297z"/>
	<path fill="#FFFFFF" d="M275.279,24.138h-0.363c-1.346,0-2.115-0.322-2.732-1.064c-0.615-0.757-0.952-1.765-0.952-2.731
		c0-0.952,0.351-1.905,0.938-2.563c0.561-0.63,1.387-0.98,2.312-0.98c1.247,0,2.114,0.645,2.466,1.793
		c0.125,0.42,0.168,0.757,0.153,1.499h-4.511c0.015,1.022,0.267,1.835,0.742,2.396c0.463,0.546,1.094,0.84,1.934,0.84
		c0.519,0,0.925-0.126,1.625-0.477l0.21,0.421L275.279,24.138z M274.383,17.26c-0.798,0-1.387,0.49-1.639,1.359
		c-0.084,0.266-0.111,0.49-0.154,0.966H275c0.63,0,0.896-0.237,0.896-0.813C275.896,17.919,275.266,17.26,274.383,17.26z"/>
</g>
<g enable-background="new    ">
	<path fill="#FFFFFF" d="M191.52,41.97c-0.308,0-0.546-0.112-0.783-0.393c-0.183-0.21-0.238-0.336-0.953-1.582l-1.359-2.382h-1.303
		v2.605c0,1.121-0.111,1.274,1.191,1.387v0.364h-3.74v-0.364c1.191-0.098,1.191-0.112,1.191-1.387v-6.304c0-1.288,0-1.303-1.191-1.4
		v-0.351h4.049c1.82,0,2.843,0.883,2.843,2.452c0,1.274-0.714,2.269-1.975,2.759l1.387,2.115c0.841,1.274,1.372,1.919,1.961,2.283
		v0.196H191.52z M188.2,32.599h-1.079v4.58h0.967c0.547,0,0.91-0.084,1.191-0.294c0.504-0.364,0.784-1.106,0.784-2.101
		C190.063,33.285,189.475,32.599,188.2,32.599z"/>
	<path fill="#FFFFFF" d="M197.482,42.138h-0.364c-1.345,0-2.115-0.322-2.731-1.064c-0.616-0.757-0.953-1.765-0.953-2.731
		c0-0.952,0.351-1.905,0.939-2.563c0.561-0.63,1.387-0.98,2.311-0.98c1.247,0,2.115,0.645,2.466,1.793
		c0.126,0.42,0.168,0.757,0.153,1.499h-4.51c0.014,1.022,0.266,1.835,0.742,2.396c0.463,0.546,1.093,0.84,1.934,0.84
		c0.518,0,0.924-0.126,1.625-0.477l0.209,0.421L197.482,42.138z M196.586,35.26c-0.799,0-1.387,0.49-1.639,1.359
		c-0.084,0.266-0.112,0.49-0.154,0.966h2.409c0.63,0,0.896-0.237,0.896-0.813C198.099,35.919,197.469,35.26,196.586,35.26z"/>
	<path fill="#FFFFFF" d="M203.306,42.138c-0.743-0.028-1.051-0.154-1.358-0.532c-0.281-0.351-0.406-0.826-0.406-1.681v-4.006h-1.121
		v-0.631h1.121v-1.471l0.883-0.771h0.377v2.241h2.144v0.378l-0.574,0.253h-1.569c0,3.712,0,0,0,3.712
		c0,0.84,0.099,1.681,1.121,1.681c0.309,0,0.588-0.07,0.91-0.183l0.112,0.364L203.306,42.138z"/>
	<path fill="#FFFFFF" d="M205.937,41.97v-0.364c1.093-0.112,1.12-0.126,1.12-1.387v-3.782c0-0.561-0.154-0.687-0.799-0.687h-0.321
		V35.4c0.938-0.042,1.793-0.267,2.381-0.603v5.421c0,1.177-0.028,1.274,1.121,1.387v0.364H205.937z M207.52,33.873
		c-0.449,0-0.813-0.364-0.813-0.826c0-0.42,0.378-0.799,0.826-0.799c0.434,0,0.813,0.364,0.813,0.813
		C208.346,33.523,207.981,33.873,207.52,33.873z"/>
	<path fill="#FFFFFF" d="M215.263,36.101l-0.322,0.252c-0.042,0.028-0.084,0.07-0.14,0.07c-0.042,0-0.098-0.028-0.127-0.042
		l-0.461-0.238c-0.154-0.084-0.267-0.098-0.449-0.098c-0.322,0-0.504,0.182-0.645,0.532c-0.125,0.322-0.125,1.078-0.125,1.456v2.186
		c0,1.358,0.111,1.316,1.414,1.387v0.364h-3.824v-0.364c1.163-0.056,1.148-0.168,1.148-1.387v-3.782
		c0-0.561-0.168-0.687-0.798-0.687h-0.322V35.4c0.938-0.042,1.778-0.267,2.382-0.603v1.289l0.644-0.757
		c0.406-0.477,0.519-0.532,0.827-0.532c0.224,0,0.363,0.112,0.531,0.42l0.351,0.631c0.028,0.056,0.042,0.084,0.042,0.112
		C215.389,36.017,215.347,36.045,215.263,36.101z"/>
	<path fill="#FFFFFF" d="M220.373,42.138h-0.365c-1.344,0-2.115-0.322-2.73-1.064c-0.617-0.757-0.953-1.765-0.953-2.731
		c0-0.952,0.35-1.905,0.938-2.563c0.561-0.63,1.387-0.98,2.312-0.98c1.246,0,2.115,0.645,2.465,1.793
		c0.127,0.42,0.168,0.757,0.154,1.499h-4.51c0.014,1.022,0.266,1.835,0.742,2.396c0.462,0.546,1.092,0.84,1.933,0.84
		c0.519,0,0.925-0.126,1.625-0.477l0.21,0.421L220.373,42.138z M219.477,35.26c-0.799,0-1.387,0.49-1.64,1.359
		c-0.084,0.266-0.112,0.49-0.153,0.966h2.408c0.631,0,0.896-0.237,0.896-0.813C220.988,35.919,220.358,35.26,219.477,35.26z"/>
	<path fill="#FFFFFF" d="M232.359,41.97v-0.364c1.092-0.112,1.12-0.126,1.12-1.387v-2.563c0-1.541-0.364-2.087-1.373-2.087
		c-0.574,0-1.05,0.21-1.345,0.588c-0.378,0.477-0.477,1.022-0.477,2.424v1.639c0,1.261,0.015,1.274,1.135,1.387v0.364h-3.516v-0.364
		c1.093-0.112,1.121-0.126,1.121-1.387v-2.563c0-1.541-0.322-2.087-1.359-2.087c-0.561,0-1.036,0.21-1.33,0.561
		c-0.379,0.462-0.505,1.064-0.505,2.451v1.639c0,1.261,0.015,1.274,1.135,1.387v0.364h-3.516v-0.364
		c1.093-0.112,1.12-0.126,1.12-1.387v-3.782c0-0.546-0.168-0.687-0.799-0.687h-0.321V35.4c0.938-0.042,1.793-0.267,2.381-0.603
		v1.232c0.7-0.854,1.442-1.232,2.55-1.232c0.98,0,1.429,0.322,1.835,1.232c0.771-0.854,1.526-1.232,2.535-1.232
		c0.938,0,1.499,0.322,1.793,1.022c0.154,0.364,0.196,0.771,0.196,1.471v2.928c0,1.261,0,1.274,1.121,1.387v0.364H232.359z"/>
	<path fill="#FFFFFF" d="M241.162,42.138h-0.363c-1.346,0-2.115-0.322-2.732-1.064c-0.615-0.757-0.952-1.765-0.952-2.731
		c0-0.952,0.351-1.905,0.938-2.563c0.561-0.63,1.387-0.98,2.312-0.98c1.247,0,2.114,0.645,2.466,1.793
		c0.125,0.42,0.168,0.757,0.153,1.499h-4.511c0.015,1.022,0.267,1.835,0.742,2.396c0.463,0.546,1.094,0.84,1.934,0.84
		c0.519,0,0.925-0.126,1.625-0.477l0.21,0.421L241.162,42.138z M240.266,35.26c-0.798,0-1.387,0.49-1.639,1.359
		c-0.084,0.266-0.111,0.49-0.154,0.966h2.41c0.63,0,0.896-0.237,0.896-0.813C241.779,35.919,241.148,35.26,240.266,35.26z"/>
	<path fill="#FFFFFF" d="M249.115,41.97v-0.364c1.204-0.126,1.12-0.28,1.12-1.387v-2.592c0-1.526-0.406-2.072-1.583-2.072
		c-1.162,0-1.723,0.63-1.919,1.498c-0.084,0.379-0.112,0.799-0.112,1.443c0,1.723,0,0,0,1.723c0,1.219,0.014,1.232,1.135,1.387
		v0.364h-3.516v-0.364c1.092-0.154,1.121-0.196,1.121-1.387v-3.796c0-0.561-0.169-0.687-0.799-0.687h-0.322v-0.351
		c0.938-0.042,1.793-0.252,2.381-0.588v1.219c0.785-0.841,1.682-1.219,2.802-1.219c1.051,0,1.681,0.448,1.947,1.19
		c0.112,0.336,0.126,0.645,0.126,1.274v2.956c0,1.19-0.057,1.274,1.121,1.387v0.364H249.115z"/>
	<path fill="#FFFFFF" d="M256.617,42.138c-0.742-0.028-1.051-0.154-1.358-0.532c-0.28-0.351-0.406-0.826-0.406-1.681v-4.006h-1.12
		v-0.631h1.12v-1.471l0.883-0.771h0.378v2.241h2.143v0.378l-0.574,0.253h-1.568c0,3.712,0,0,0,3.712c0,0.84,0.098,1.681,1.121,1.681
		c0.308,0,0.588-0.07,0.91-0.183l0.111,0.364L256.617,42.138z"/>
	<path fill="#FFFFFF" d="M272.539,35.961h-1.583c0.015,0.266,0.015,0.462,0.015,0.588c0,1.205-0.197,2.115-0.617,2.998
		c1.148,1.008,2.256,1.933,2.605,2.156v0.267h-1.639c-0.364-0.336-1.443-1.345-1.555-1.457c-0.91,1.106-1.947,1.625-3.348,1.625
		c-1.766,0-3.446-0.98-3.446-2.886c0-1.471,1.261-2.493,2.634-2.577c-1.303-1.247-1.598-1.695-1.598-2.605
		c0-1.442,1.317-2.073,2.578-2.073c0.784,0,1.4,0.196,1.807,0.561v1.289h-0.364c-0.322-0.995-0.742-1.373-1.526-1.373
		c-0.785,0-1.316,0.504-1.316,1.274c0,0.687,0.434,1.359,1.512,2.382l3.32,3.138c0.434-1.093,0.561-2.214,0.014-3.306h-1.652v-0.28
		l0.715-0.379h4.117v0.28L272.539,35.961z M265.844,36.941c-0.925,0.434-1.373,1.106-1.373,2.157c0,1.456,0.98,2.493,2.367,2.493
		c0.994,0,1.793-0.421,2.605-1.359L265.844,36.941z"/>
	<path fill="#FFFFFF" d="M284.199,41.647c-0.631,0.21-1.43,0.322-2.27,0.322h-4.048v-0.364c0.798-0.07,0.966-0.112,1.093-0.308
		c0.098-0.154,0.098-0.211,0.098-1.079v-6.304c0-1.288,0-1.303-1.19-1.4v-0.351h4.622c0.994,0,1.821,0.112,2.494,0.379
		c1.709,0.658,2.646,2.143,2.646,4.16C287.645,39.07,286.342,40.947,284.199,41.647z M283.582,32.809
		c-0.447-0.126-1.021-0.21-1.652-0.21h-1.498v7.382c0,1.289,0.252,1.527,1.512,1.527c0.855,0,1.625-0.141,2.186-0.448
		c1.219-0.658,1.919-2.115,1.919-4.076C286.048,34.77,285.123,33.257,283.582,32.809z"/>
	<path fill="#FFFFFF" d="M293.213,42.138h-0.363c-1.346,0-2.115-0.322-2.732-1.064c-0.615-0.757-0.952-1.765-0.952-2.731
		c0-0.952,0.351-1.905,0.938-2.563c0.561-0.63,1.387-0.98,2.312-0.98c1.247,0,2.114,0.645,2.466,1.793
		c0.125,0.42,0.168,0.757,0.153,1.499h-4.511c0.015,1.022,0.267,1.835,0.742,2.396c0.463,0.546,1.094,0.84,1.934,0.84
		c0.519,0,0.925-0.126,1.625-0.477l0.21,0.421L293.213,42.138z M292.316,35.26c-0.798,0-1.387,0.49-1.639,1.359
		c-0.084,0.266-0.111,0.49-0.154,0.966h2.41c0.63,0,0.896-0.237,0.896-0.813C293.83,35.919,293.199,35.26,292.316,35.26z"/>
	<path fill="#FFFFFF" d="M300.689,42.124c-0.21-0.351-0.322-0.729-0.336-1.106l-1.078,0.728c-0.463,0.322-0.688,0.393-1.023,0.393
		c-1.078,0-1.82-0.771-1.82-1.891c0-0.785,0.35-1.331,1.064-1.751c0.336-0.196,0.686-0.351,1.345-0.603l1.526-0.588
		c-0.014-1.485-0.406-2.046-1.204-2.046c-0.659,0-1.022,0.505-1.303,1.022c-0.042,0.084-0.169,0.337-0.294,0.337
		c-0.028,0-0.07,0-0.112-0.015l-0.435-0.111c-0.084-0.028-0.126-0.084-0.111-0.141l0.209-0.784c0.07-0.252,0.113-0.294,0.365-0.406
		c0.518-0.238,1.162-0.364,1.793-0.364c1.652,0,2.354,0.672,2.354,2.241v3.109c0,0.799,0.125,1.051,0.49,1.051
		c0.125,0,0.252-0.028,0.476-0.098l0.084,0.392L300.689,42.124z M300.367,37.838c-0.7,0.252-0.938,0.35-1.246,0.476
		c-0.967,0.406-1.43,0.967-1.43,1.766c0,0.7,0.463,1.19,1.149,1.19c0.995,0,1.526-0.799,1.526-2.34V37.838z"/>
	<path fill="#FFFFFF" d="M306.582,42.138c-0.742-0.028-1.051-0.154-1.358-0.532c-0.28-0.351-0.406-0.826-0.406-1.681v-4.006h-1.12
		v-0.631h1.12v-1.471l0.883-0.771h0.378v2.241h2.143v0.378l-0.574,0.253h-1.568c0,3.712,0,0,0,3.712c0,0.84,0.098,1.681,1.121,1.681
		c0.308,0,0.588-0.07,0.91-0.183l0.111,0.364L306.582,42.138z"/>
	<path fill="#FFFFFF" d="M314.367,41.97v-0.364c1.093-0.112,1.121-0.126,1.121-1.387v-2.592c0-1.513-0.435-2.072-1.583-2.072
		c-1.765,0-2.031,1.568-2.031,2.941v1.723c0,1.261,0.028,1.274,1.106,1.387v0.364h-3.474v-0.364c1.079-0.126,1.106-0.14,1.106-1.387
		v-6.962c0-0.28-0.027-0.477-0.098-0.603c-0.084-0.14-0.225-0.195-0.421-0.195h-0.588V32.08c0.757,0,1.667-0.153,2.367-0.406v4.343
		c0.784-0.841,1.723-1.219,2.843-1.219c1.808,0,2.031,1.009,2.031,2.465v2.956c0,1.205-0.041,1.274,1.135,1.387v0.364H314.367z"/>
</g>
<g enable-background="new    ">
	<path fill="#FFFFFF" d="M188.438,59.97h-3.88v-0.364c1.19-0.098,1.19-0.112,1.19-1.387v-6.304c0-1.288,0-1.303-1.19-1.4v-0.351
		h3.474c0.925,0,1.317,0.015,1.821,0.154c0.967,0.267,1.498,0.967,1.498,2.031s-0.645,1.807-2.017,2.325
		c0.645,0.112,0.925,0.154,1.345,0.364c0.826,0.406,1.316,1.177,1.316,2.171C191.996,58.961,190.693,59.97,188.438,59.97z
		 M187.934,50.599h-0.826v4.034h0.91c1.275,0,1.934-0.7,1.934-2.06C189.951,51.173,189.363,50.599,187.934,50.599z M188.032,55.067
		h-0.925v2.871c0,0.645,0.07,1.106,0.406,1.345c0.196,0.154,0.477,0.225,0.883,0.225c1.33,0,1.989-0.701,1.989-2.088
		C190.386,55.88,189.573,55.067,188.032,55.067z"/>
	<path fill="#FFFFFF" d="M197.524,60.138h-0.364c-1.345,0-2.115-0.322-2.731-1.064c-0.616-0.757-0.952-1.765-0.952-2.731
		c0-0.952,0.35-1.905,0.938-2.563c0.561-0.63,1.387-0.98,2.313-0.98c1.246,0,2.114,0.645,2.465,1.793
		c0.126,0.42,0.168,0.757,0.154,1.499h-4.511c0.014,1.022,0.267,1.835,0.742,2.396c0.462,0.546,1.093,0.84,1.933,0.84
		c0.52,0,0.925-0.126,1.625-0.477l0.211,0.421L197.524,60.138z M196.628,53.26c-0.798,0-1.387,0.49-1.64,1.359
		c-0.084,0.266-0.111,0.49-0.153,0.966h2.409c0.631,0,0.896-0.237,0.896-0.813C198.141,53.919,197.51,53.26,196.628,53.26z"/>
	<path fill="#FFFFFF" d="M205.477,59.97v-0.364c1.205-0.126,1.121-0.28,1.121-1.387v-2.592c0-1.526-0.406-2.072-1.584-2.072
		c-1.162,0-1.723,0.63-1.918,1.498c-0.084,0.379-0.112,0.799-0.112,1.443c0,1.723,0,0,0,1.723c0,1.219,0.014,1.232,1.134,1.387
		v0.364h-3.516v-0.364c1.093-0.154,1.121-0.196,1.121-1.387v-3.796c0-0.561-0.168-0.687-0.799-0.687h-0.322v-0.351
		c0.939-0.042,1.793-0.252,2.382-0.588v1.219c0.784-0.841,1.681-1.219,2.802-1.219c1.051,0,1.681,0.448,1.947,1.19
		c0.111,0.336,0.125,0.645,0.125,1.274v2.956c0,1.19-0.056,1.274,1.121,1.387v0.364H205.477z"/>
	<path fill="#FFFFFF" d="M214.282,60.138h-0.364c-1.345,0-2.115-0.322-2.731-1.064c-0.616-0.757-0.952-1.765-0.952-2.731
		c0-0.952,0.35-1.905,0.938-2.563c0.561-0.63,1.387-0.98,2.313-0.98c1.246,0,2.114,0.645,2.465,1.793
		c0.126,0.42,0.168,0.757,0.154,1.499h-4.511c0.014,1.022,0.267,1.835,0.742,2.396c0.462,0.546,1.093,0.84,1.933,0.84
		c0.52,0,0.925-0.126,1.625-0.477l0.211,0.421L214.282,60.138z M213.386,53.26c-0.798,0-1.387,0.49-1.64,1.359
		c-0.084,0.266-0.111,0.49-0.153,0.966h2.409c0.631,0,0.896-0.237,0.896-0.813C214.898,53.919,214.268,53.26,213.386,53.26z"/>
	<path fill="#FFFFFF" d="M222.108,50.528l-0.196,0.295c-0.042,0.056-0.084,0.098-0.154,0.098c-0.042,0-0.098-0.014-0.154-0.042
		l-0.504-0.225c-0.477-0.21-0.658-0.252-0.826-0.252c-0.406,0-0.532,0.238-0.532,1.079v1.82h1.933v0.364l-0.574,0.253h-1.358v4.3
		c0,0.435,0.014,0.813,0.042,0.925c0.084,0.322,0.448,0.42,1.387,0.462v0.364h-3.811v-0.364c0.084,0,0.168-0.014,0.238-0.014
		c0.854-0.057,0.896-0.154,0.896-1.373v-4.3h-0.967v-0.617h0.967v-1.134c0-0.841,0.379-1.388,1.4-2.031
		c0.561-0.351,0.896-0.49,1.262-0.49c0.111,0,0.224,0.042,0.293,0.098l0.617,0.504c0.056,0.042,0.098,0.085,0.098,0.127
		S222.164,50.444,222.108,50.528z"/>
	<path fill="#FFFFFF" d="M222.525,59.97v-0.364c1.093-0.112,1.121-0.126,1.121-1.387v-3.782c0-0.561-0.154-0.687-0.799-0.687h-0.322
		V53.4c0.939-0.042,1.793-0.267,2.382-0.603v5.421c0,1.177-0.028,1.274,1.12,1.387v0.364H222.525z M224.108,51.873
		c-0.448,0-0.813-0.364-0.813-0.826c0-0.42,0.378-0.799,0.827-0.799c0.434,0,0.813,0.364,0.813,0.813
		C224.936,51.523,224.57,51.873,224.108,51.873z"/>
	<path fill="#FFFFFF" d="M230.031,60.138c-0.742-0.028-1.051-0.154-1.359-0.532c-0.279-0.351-0.406-0.826-0.406-1.681v-4.006h-1.12
		v-0.631h1.12v-1.471l0.883-0.771h0.379v2.241h2.143v0.378l-0.574,0.253h-1.568c0,3.712,0,0,0,3.712c0,0.84,0.098,1.681,1.12,1.681
		c0.308,0,0.589-0.07,0.911-0.183l0.111,0.364L230.031,60.138z"/>
	<path fill="#FFFFFF" d="M234.805,60.138c-0.701,0-1.232-0.112-1.835-0.378V58.19h0.364c0.027,0.351,0.084,0.645,0.225,0.854
		c0.252,0.379,0.77,0.616,1.316,0.616c0.756,0,1.288-0.518,1.288-1.232c0-0.658-0.237-0.952-1.568-1.849
		c-1.289-0.868-1.611-1.274-1.611-1.976c0-1.078,0.952-1.807,2.354-1.807c0.546,0,0.995,0.042,1.555,0.225v1.387h-0.364
		c-0.042-0.267-0.07-0.379-0.14-0.519c-0.21-0.378-0.561-0.631-1.121-0.631c-0.63,0-1.093,0.393-1.093,0.925
		c0,0.21,0.084,0.462,0.225,0.616c0.238,0.267,0.238,0.267,1.527,1.177c1.12,0.799,1.484,1.274,1.484,2.018
		C237.41,59.283,236.388,60.138,234.805,60.138z"/>
	<path fill="#FFFFFF" d="M244.646,60.138c-0.784,0-1.933-0.224-2.297-0.406c-0.141-0.07-0.154-0.112-0.154-0.294v-1.976h0.351
		c0.112,0.659,0.21,0.981,0.406,1.275c0.392,0.574,1.093,0.924,1.793,0.924c1.079,0,1.877-0.77,1.877-1.82
		c0-0.98-0.477-1.555-2.563-3.012c-1.303-0.91-1.736-1.457-1.736-2.396c0-1.681,1.596-2.438,3.066-2.438
		c0.659,0,1.443,0.084,1.793,0.225c0.169,0.069,0.211,0.112,0.211,0.266v1.793h-0.364c-0.196-1.232-0.729-1.793-1.779-1.793
		c-0.925,0-1.513,0.574-1.513,1.499c0,0.336,0.098,0.645,0.266,0.854c0.309,0.378,0.281,0.406,2.102,1.765
		c1.499,1.121,1.975,1.737,1.975,2.788C248.078,59.031,246.691,60.138,244.646,60.138z"/>
	<path fill="#FFFFFF" d="M255.387,54.297l-0.449,0.266c-0.027,0.015-0.084,0.028-0.125,0.028c-0.043,0-0.084-0.028-0.127-0.084
		l-0.615-0.729c-0.295-0.336-0.659-0.504-1.107-0.504c-1.274,0-2.102,1.135-2.102,2.759c0,1.863,0.995,3.292,2.634,3.292
		c0.519,0,0.911-0.126,1.597-0.49l0.238,0.42l-1.863,0.883h-0.336c-1.106,0-1.988-0.364-2.605-0.98
		c-0.686-0.687-1.051-1.667-1.051-2.76c0-2.059,1.569-3.6,3.754-3.6c0.673,0,1.219,0.126,1.709,0.364l0.505,0.938
		c0.015,0.028,0.015,0.056,0.015,0.084C255.457,54.227,255.442,54.255,255.387,54.297z"/>
	<path fill="#FFFFFF" d="M261.518,59.97v-0.364c1.093-0.112,1.121-0.126,1.121-1.387v-2.592c0-1.513-0.435-2.072-1.583-2.072
		c-1.765,0-2.031,1.568-2.031,2.941v1.723c0,1.261,0.028,1.274,1.106,1.387v0.364h-3.474v-0.364c1.079-0.126,1.106-0.14,1.106-1.387
		v-6.962c0-0.28-0.027-0.477-0.098-0.603c-0.084-0.14-0.225-0.195-0.421-0.195h-0.588V50.08c0.757,0,1.667-0.153,2.367-0.406v4.343
		c0.784-0.841,1.723-1.219,2.843-1.219c1.808,0,2.031,1.009,2.031,2.465v2.956c0,1.205-0.041,1.274,1.135,1.387v0.364H261.518z"/>
	<path fill="#FFFFFF" d="M270.338,60.138h-0.365c-1.344,0-2.115-0.322-2.73-1.064c-0.617-0.757-0.953-1.765-0.953-2.731
		c0-0.952,0.35-1.905,0.938-2.563c0.561-0.63,1.387-0.98,2.312-0.98c1.246,0,2.115,0.645,2.465,1.793
		c0.127,0.42,0.168,0.757,0.154,1.499h-4.51c0.014,1.022,0.266,1.835,0.742,2.396c0.462,0.546,1.092,0.84,1.933,0.84
		c0.519,0,0.925-0.126,1.625-0.477l0.21,0.421L270.338,60.138z M269.441,53.26c-0.799,0-1.387,0.49-1.64,1.359
		c-0.084,0.266-0.112,0.49-0.153,0.966h2.408c0.631,0,0.896-0.237,0.896-0.813C270.953,53.919,270.323,53.26,269.441,53.26z"/>
	<path fill="#FFFFFF" d="M282.324,59.97v-0.364c1.092-0.112,1.12-0.126,1.12-1.387v-2.563c0-1.541-0.364-2.087-1.373-2.087
		c-0.574,0-1.05,0.21-1.345,0.588c-0.378,0.477-0.477,1.022-0.477,2.424v1.639c0,1.261,0.015,1.274,1.135,1.387v0.364h-3.516v-0.364
		c1.093-0.112,1.121-0.126,1.121-1.387v-2.563c0-1.541-0.322-2.087-1.359-2.087c-0.561,0-1.036,0.21-1.33,0.561
		c-0.379,0.462-0.505,1.064-0.505,2.451v1.639c0,1.261,0.015,1.274,1.135,1.387v0.364h-3.516v-0.364
		c1.093-0.112,1.12-0.126,1.12-1.387v-3.782c0-0.546-0.168-0.687-0.799-0.687h-0.321V53.4c0.938-0.042,1.793-0.267,2.381-0.603
		v1.232c0.7-0.854,1.442-1.232,2.55-1.232c0.98,0,1.429,0.322,1.835,1.232c0.771-0.854,1.526-1.232,2.535-1.232
		c0.938,0,1.499,0.322,1.793,1.022c0.154,0.364,0.196,0.771,0.196,1.471v2.928c0,1.261,0,1.274,1.121,1.387v0.364H282.324z"/>
	<path fill="#FFFFFF" d="M291.127,60.138h-0.364c-1.345,0-2.115-0.322-2.731-1.064c-0.616-0.757-0.953-1.765-0.953-2.731
		c0-0.952,0.351-1.905,0.939-2.563c0.561-0.63,1.387-0.98,2.311-0.98c1.247,0,2.115,0.645,2.466,1.793
		c0.126,0.42,0.168,0.757,0.153,1.499h-4.51c0.014,1.022,0.266,1.835,0.742,2.396c0.463,0.546,1.093,0.84,1.934,0.84
		c0.518,0,0.924-0.126,1.625-0.477l0.209,0.421L291.127,60.138z M290.23,53.26c-0.799,0-1.387,0.49-1.639,1.359
		c-0.084,0.266-0.112,0.49-0.154,0.966h2.409c0.63,0,0.896-0.237,0.896-0.813C291.743,53.919,291.113,53.26,290.23,53.26z"/>
</g>
</svg>
