<?xml version="1.0" encoding="utf-8"?>
<!-- Generator: Adobe Illustrator 16.0.0, SVG Export Plug-In . SVG Version: 6.00 Build 0)  -->
<!DOCTYPE svg PUBLIC "-//W3C//DTD SVG 1.1//EN" "http://www.w3.org/Graphics/SVG/1.1/DTD/svg11.dtd">
<svg version="1.1" id="logo_as_SVG" xmlns="http://www.w3.org/2000/svg" xmlns:xlink="http://www.w3.org/1999/xlink" x="0px"
	 y="0px" width="346px" height="79px" viewBox="0.479 0.495 346 79" enable-background="new 0.479 0.495 346 79"
	 xml:space="preserve">
<rect y="0" fill="#3E1951" width="170.75" height="79.99"/>
<rect x="176.207" y="0" fill="#878A8D" width="170.75" height="79.99"/>
<rect x="10.75" y="28.25" fill="none" width="156.5" height="42.25"/>
<rect x="188.75" y="14.5" fill="none" width="133" height="59"/>
<g enable-background="new    ">
	<path fill="#FFFFFF" d="M195.762,26.276V25.86c0.719-0.032,0.959-0.192,0.959-0.624c0-0.177-0.047-0.385-0.127-0.608l-0.689-2.063
		h-4.018l-0.736,2.129c-0.047,0.128-0.063,0.257-0.063,0.368c0,0.479,0.271,0.769,0.85,0.801v0.416h-2.961V25.86
		c0.655-0.017,1.104-0.464,1.487-1.488L194,14.88h0.93l3.232,9.571c0.367,1.073,0.656,1.377,1.313,1.409v0.416H195.762z
		 M194.08,16.656l-1.969,5.299h3.602L194.08,16.656z"/>
	<path fill="#FFFFFF" d="M206.48,26.469c-0.176-0.192-0.287-0.496-0.336-0.851c-0.018-0.145-0.031-0.24-0.031-0.384l-1.408,0.832
		c-0.514,0.304-0.801,0.399-1.346,0.399c-1.776,0-2.48-0.882-2.48-3.12v-3.396c0-0.641-0.191-0.784-0.912-0.784h-0.369v-0.398
		c1.057-0.048,2.049-0.307,2.723-0.688v5.122c0,1.328,0.191,2.305,1.714,2.305c0.911,0,1.647-0.479,1.889-1.265
		c0.146-0.448,0.208-1.136,0.208-1.889v-2.4c0-0.641-0.176-0.784-0.896-0.784h-0.385V18.77c1.072-0.048,2.049-0.307,2.721-0.688
		c0,2.563,0,5.858,0,5.858c0,1.377,0.08,1.473,0.563,1.473c0.145,0,0.288-0.032,0.544-0.11l0.097,0.446L206.48,26.469z"/>
	<path fill="#FFFFFF" d="M212.111,26.469c-0.801,0-1.409-0.13-2.098-0.435v-1.793h0.416c0.03,0.4,0.096,0.736,0.256,0.979
		c0.289,0.433,0.881,0.702,1.506,0.702c0.863,0,1.473-0.592,1.473-1.406c0-0.752-0.273-1.089-1.793-2.113
		c-1.473-0.992-1.842-1.456-1.842-2.257c0-1.232,1.09-2.064,2.688-2.064c0.625,0,1.139,0.048,1.777,0.256v1.585h-0.416
		c-0.051-0.304-0.08-0.433-0.16-0.593c-0.24-0.432-0.643-0.72-1.279-0.72c-0.722,0-1.248,0.448-1.248,1.057
		c0,0.24,0.096,0.528,0.256,0.704c0.271,0.304,0.271,0.304,1.744,1.345c1.279,0.912,1.695,1.456,1.695,2.307
		C215.088,25.492,213.92,26.469,212.111,26.469z"/>
	<path fill="#FFFFFF" d="M219.232,26.469c-0.852-0.032-1.201-0.179-1.553-0.608c-0.32-0.4-0.467-0.944-0.467-1.921v-4.578h-1.279
		v-0.72h1.279V16.96l1.01-0.881h0.434v2.563h2.447v0.432l-0.655,0.288h-1.792c0,4.242,0,0,0,4.242c0,0.96,0.111,1.921,1.279,1.921
		c0.353,0,0.672-0.08,1.041-0.208l0.127,0.416L219.232,26.469z"/>
	<path fill="#FFFFFF" d="M227.232,19.569l-0.368,0.288c-0.048,0.032-0.097,0.08-0.159,0.08c-0.049,0-0.113-0.031-0.145-0.048
		l-0.528-0.271c-0.177-0.097-0.304-0.112-0.513-0.112c-0.367,0-0.576,0.208-0.736,0.608c-0.145,0.368-0.145,1.232-0.145,1.664v2.497
		c0,1.553,0.129,1.505,1.615,1.585v0.416h-4.369V25.86c1.328-0.064,1.313-0.192,1.313-1.585v-4.321c0-0.641-0.192-0.784-0.912-0.784
		h-0.369V18.77c1.072-0.048,2.033-0.307,2.724-0.688v1.475l0.734-0.864c0.464-0.544,0.593-0.608,0.943-0.608
		c0.257,0,0.416,0.128,0.607,0.48l0.399,0.72c0.032,0.064,0.049,0.097,0.049,0.128C227.377,19.473,227.328,19.506,227.232,19.569z"
		/>
	<path fill="#FFFFFF" d="M232.992,26.452c-0.24-0.397-0.367-0.832-0.385-1.265l-1.231,0.833c-0.528,0.368-0.784,0.448-1.169,0.448
		c-1.232,0-2.08-0.883-2.08-2.161c0-0.896,0.4-1.521,1.217-2.001c0.383-0.226,0.783-0.4,1.536-0.688l1.745-0.672
		c-0.018-1.696-0.465-2.337-1.377-2.337c-0.752,0-1.168,0.576-1.488,1.168c-0.049,0.097-0.191,0.385-0.336,0.385
		c-0.033,0-0.08,0-0.129-0.017l-0.496-0.128c-0.096-0.032-0.145-0.098-0.128-0.16l0.24-0.896c0.079-0.288,0.128-0.336,0.416-0.464
		c0.593-0.271,1.329-0.416,2.049-0.416c1.89,0,2.688,0.771,2.688,2.563v3.554c0,0.912,0.145,1.201,0.561,1.201
		c0.145,0,0.288-0.032,0.545-0.112l0.096,0.448L232.992,26.452z M232.625,21.554c-0.801,0.286-1.073,0.398-1.426,0.544
		c-1.104,0.464-1.633,1.104-1.633,2.017c0,0.801,0.529,1.36,1.313,1.36c1.137,0,1.745-0.912,1.745-2.673L232.625,21.554
		L232.625,21.554z"/>
	<path fill="#FFFFFF" d="M236.109,26.276V25.86c1.248-0.128,1.281-0.146,1.281-1.585V16.32c0-0.416-0.033-0.656-0.191-0.784
		c-0.113-0.096-0.305-0.128-0.625-0.128h-0.448v-0.433c0.896-0.018,1.937-0.191,2.705-0.464v9.764c0,1.438,0,1.457,1.28,1.585v0.416
		H236.109z"/>
	<path fill="#FFFFFF" d="M241.07,26.276V25.86c1.248-0.128,1.279-0.146,1.279-1.585v-4.321c0-0.641-0.178-0.784-0.912-0.784h-0.367
		V18.77c1.072-0.048,2.049-0.307,2.721-0.688v6.194c0,1.345-0.031,1.457,1.281,1.585v0.416L241.07,26.276L241.07,26.276z
		 M242.879,17.024c-0.512,0-0.929-0.416-0.929-0.944c0-0.479,0.433-0.912,0.944-0.912c0.496,0,0.929,0.416,0.929,0.931
		C243.823,16.624,243.407,17.024,242.879,17.024z"/>
	<path fill="#FFFFFF" d="M251.057,26.452c-0.24-0.397-0.369-0.832-0.385-1.265l-1.232,0.833c-0.526,0.368-0.782,0.448-1.168,0.448
		c-1.23,0-2.082-0.883-2.082-2.161c0-0.896,0.4-1.521,1.219-2.001c0.385-0.226,0.783-0.4,1.535-0.688l1.744-0.672
		c-0.016-1.696-0.463-2.337-1.375-2.337c-0.754,0-1.17,0.576-1.488,1.168c-0.049,0.097-0.191,0.385-0.338,0.385
		c-0.029,0-0.078,0-0.127-0.017l-0.495-0.128c-0.099-0.032-0.146-0.098-0.13-0.16l0.24-0.896c0.08-0.288,0.129-0.336,0.416-0.464
		c0.592-0.271,1.328-0.416,2.049-0.416c1.891,0,2.689,0.771,2.689,2.563v3.554c0,0.912,0.145,1.201,0.561,1.201
		c0.145,0,0.287-0.032,0.543-0.112l0.099,0.448L251.057,26.452z M250.688,21.554c-0.799,0.286-1.07,0.398-1.424,0.544
		c-1.104,0.464-1.633,1.104-1.633,2.017c0,0.801,0.527,1.36,1.313,1.36c1.139,0,1.744-0.912,1.744-2.673V21.554L250.688,21.554z"/>
	<path fill="#FFFFFF" d="M259.744,26.276V25.86c1.376-0.146,1.279-0.32,1.279-1.585v-2.961c0-1.745-0.463-2.369-1.81-2.369
		c-1.329,0-1.97,0.721-2.192,1.713c-0.097,0.432-0.127,0.912-0.127,1.648c0,1.969,0,0,0,1.969c0,1.393,0.016,1.409,1.297,1.585
		v0.416h-4.02V25.86c1.248-0.176,1.28-0.225,1.28-1.585v-4.338c0-0.642-0.192-0.784-0.913-0.784h-0.367v-0.4
		c1.072-0.048,2.051-0.288,2.723-0.672v1.395c0.896-0.96,1.92-1.395,3.2-1.395c1.2,0,1.921,0.514,2.226,1.36
		c0.129,0.385,0.145,0.736,0.145,1.457v3.377c0,1.36-0.064,1.457,1.281,1.585v0.416H259.744z"/>
</g>
<g enable-background="new    ">
	<path fill="#FFFFFF" d="M196.609,44.908c-0.721,0.24-1.633,0.368-2.594,0.368h-4.625V44.86c0.91-0.08,1.104-0.128,1.248-0.354
		c0.11-0.176,0.11-0.238,0.11-1.23v-7.203c0-1.473,0-1.488-1.358-1.601v-0.399h5.279c1.139,0,2.082,0.128,2.852,0.432
		c1.953,0.752,3.023,2.449,3.023,4.754C200.547,41.963,199.059,44.107,196.609,44.908z M195.904,34.808
		c-0.512-0.146-1.168-0.24-1.889-0.24h-1.715v8.436c0,1.474,0.289,1.744,1.729,1.744c0.977,0,1.855-0.16,2.496-0.512
		c1.395-0.753,2.193-2.417,2.193-4.658C198.723,37.049,197.666,35.32,195.904,34.808z"/>
	<path fill="#FFFFFF" d="M206.561,45.469h-0.416c-1.537,0-2.418-0.368-3.121-1.219c-0.705-0.862-1.088-2.017-1.088-3.121
		c0-1.089,0.398-2.177,1.071-2.93c0.64-0.72,1.585-1.12,2.642-1.12c1.426,0,2.416,0.736,2.816,2.049
		c0.145,0.48,0.192,0.864,0.176,1.715h-5.154c0.019,1.168,0.307,2.097,0.852,2.735c0.525,0.624,1.248,0.96,2.209,0.96
		c0.594,0,1.057-0.144,1.854-0.544l0.24,0.479L206.561,45.469z M205.535,37.609c-0.912,0-1.584,0.561-1.872,1.553
		c-0.097,0.304-0.128,0.562-0.177,1.104h2.754c0.721,0,1.023-0.272,1.023-0.931C207.266,38.361,206.545,37.609,205.535,37.609z"/>
	<path fill="#FFFFFF" d="M215.152,34.488l-0.227,0.336c-0.047,0.063-0.096,0.112-0.176,0.112c-0.048,0-0.109-0.019-0.176-0.049
		L214,34.632c-0.545-0.238-0.752-0.286-0.943-0.286c-0.465,0-0.607,0.271-0.607,1.23v2.081h2.209v0.416L214,38.361h-1.553v4.914
		c0,0.496,0.016,0.929,0.049,1.057c0.096,0.368,0.512,0.48,1.584,0.528v0.416h-4.354V44.86c0.096,0,0.189-0.017,0.271-0.017
		c0.978-0.063,1.024-0.178,1.024-1.568v-4.914h-1.104v-0.704h1.104V36.36c0-0.96,0.433-1.584,1.601-2.32
		c0.642-0.398,1.024-0.561,1.44-0.561c0.127,0,0.256,0.048,0.336,0.11l0.705,0.576c0.063,0.048,0.11,0.098,0.11,0.146
		C215.217,34.36,215.217,34.391,215.152,34.488z"/>
	<path fill="#FFFFFF" d="M219.775,45.469h-0.416c-1.536,0-2.416-0.368-3.121-1.219c-0.704-0.862-1.088-2.017-1.088-3.121
		c0-1.089,0.398-2.177,1.072-2.93c0.641-0.72,1.584-1.12,2.641-1.12c1.425,0,2.418,0.736,2.816,2.049
		c0.145,0.48,0.191,0.864,0.178,1.715h-5.154c0.016,1.168,0.304,2.097,0.848,2.735c0.529,0.624,1.249,0.96,2.209,0.96
		c0.594,0,1.057-0.144,1.857-0.544l0.24,0.479L219.775,45.469z M218.752,37.609c-0.912,0-1.585,0.561-1.873,1.553
		c-0.096,0.304-0.128,0.562-0.176,1.104h2.753c0.72,0,1.024-0.272,1.024-0.931C220.48,38.361,219.76,37.609,218.752,37.609z"/>
	<path fill="#FFFFFF" d="M228.512,45.276V44.86c1.377-0.146,1.281-0.32,1.281-1.585v-2.961c0-1.745-0.465-2.369-1.809-2.369
		c-1.328,0-1.969,0.721-2.193,1.713c-0.096,0.432-0.128,0.912-0.128,1.648c0,1.969,0,0,0,1.969c0,1.393,0.017,1.409,1.297,1.585
		v0.416h-4.019V44.86c1.248-0.176,1.281-0.225,1.281-1.585v-4.338c0-0.642-0.191-0.784-0.912-0.784h-0.369v-0.4
		c1.072-0.048,2.049-0.288,2.722-0.672v1.395c0.896-0.96,1.921-1.395,3.201-1.395c1.2,0,1.921,0.514,2.226,1.36
		c0.127,0.385,0.145,0.736,0.145,1.457v3.377c0,1.36-0.063,1.457,1.279,1.585v0.416H228.512z"/>
	<path fill="#FFFFFF" d="M240.352,38.794l-0.512,0.306c-0.031,0.017-0.096,0.03-0.145,0.03c-0.047,0-0.096-0.03-0.146-0.096
		l-0.702-0.833c-0.337-0.384-0.752-0.576-1.267-0.576c-1.456,0-2.399,1.297-2.399,3.153c0,2.129,1.137,3.762,3.01,3.762
		c0.592,0,1.041-0.144,1.824-0.561l0.271,0.479l-2.129,1.011h-0.386c-1.265,0-2.271-0.416-2.978-1.121
		c-0.784-0.784-1.2-1.904-1.2-3.153c0-2.354,1.793-4.113,4.289-4.113c0.771,0,1.393,0.146,1.953,0.416l0.576,1.072
		c0.016,0.032,0.016,0.063,0.016,0.097C240.432,38.714,240.416,38.746,240.352,38.794z"/>
	<path fill="#FFFFFF" d="M245.982,45.469h-0.416c-1.537,0-2.416-0.368-3.121-1.219c-0.704-0.862-1.088-2.017-1.088-3.121
		c0-1.089,0.398-2.177,1.072-2.93c0.641-0.72,1.584-1.12,2.641-1.12c1.425,0,2.418,0.736,2.815,2.049
		c0.146,0.48,0.192,0.864,0.179,1.715h-5.154c0.016,1.168,0.304,2.097,0.848,2.735c0.529,0.624,1.249,0.96,2.209,0.96
		c0.594,0,1.057-0.144,1.857-0.544l0.24,0.479L245.982,45.469z M244.959,37.609c-0.912,0-1.585,0.561-1.873,1.553
		c-0.096,0.304-0.128,0.562-0.176,1.104h2.753c0.72,0,1.024-0.272,1.024-0.931C246.688,38.361,245.967,37.609,244.959,37.609z"/>
	<path fill="#FFFFFF" d="M259.584,36.633c-0.32-1.694-0.656-2.063-1.857-2.063h-1.969v4.945h1.489c1.04,0,1.425-0.354,1.505-1.426
		h0.416v3.427h-0.416c-0.111-1.104-0.449-1.505-1.505-1.505h-1.489v3.266c0,1.457,0,1.473,1.361,1.585v0.416h-4.273V44.86
		c1.359-0.112,1.359-0.128,1.359-1.585v-7.203c0-1.473,0-1.488-1.359-1.601v-0.399h7.139v2.561H259.584z"/>
	<path fill="#FFFFFF" d="M264.848,45.469c-2.322,0-3.938-1.825-3.938-4.1c0-2.449,1.792-4.29,4.258-4.29
		c2.368,0,4.001,1.683,4.001,4.113C269.168,43.643,267.344,45.469,264.848,45.469z M264.959,37.609
		c-1.889,0-2.465,2.097-2.465,3.634c0,2.16,1.04,3.681,2.561,3.681c1.537,0,2.529-1.393,2.529-3.553
		C267.584,39.065,266.559,37.609,264.959,37.609z"/>
	<path fill="#FFFFFF" d="M275.6,38.569l-0.369,0.288c-0.047,0.032-0.096,0.08-0.157,0.08c-0.05,0-0.112-0.031-0.146-0.048
		l-0.529-0.271c-0.176-0.097-0.303-0.112-0.512-0.112c-0.367,0-0.576,0.208-0.736,0.608c-0.145,0.368-0.145,1.232-0.145,1.664v2.497
		c0,1.553,0.129,1.505,1.617,1.585v0.416h-4.37V44.86c1.329-0.064,1.313-0.192,1.313-1.585v-4.321c0-0.641-0.192-0.784-0.912-0.784
		h-0.368V37.77c1.071-0.048,2.032-0.307,2.721-0.688v1.475l0.736-0.864c0.465-0.544,0.593-0.608,0.944-0.608
		c0.256,0,0.416,0.128,0.606,0.48l0.399,0.72c0.031,0.064,0.049,0.097,0.049,0.128C275.743,38.473,275.695,38.506,275.6,38.569z"/>
	<path fill="#FFFFFF" d="M283.216,38.794l-0.513,0.306c-0.031,0.017-0.096,0.03-0.145,0.03s-0.097-0.03-0.145-0.096l-0.705-0.833
		c-0.336-0.384-0.752-0.576-1.266-0.576c-1.457,0-2.399,1.297-2.399,3.153c0,2.129,1.138,3.762,3.011,3.762
		c0.592,0,1.039-0.144,1.823-0.561l0.271,0.479l-2.129,1.011h-0.385c-1.264,0-2.271-0.416-2.977-1.121
		c-0.785-0.784-1.201-1.904-1.201-3.153c0-2.354,1.793-4.113,4.29-4.113c0.769,0,1.394,0.146,1.952,0.416l0.576,1.072
		c0.017,0.032,0.017,0.063,0.017,0.097C283.296,38.714,283.279,38.746,283.216,38.794z"/>
	<path fill="#FFFFFF" d="M288.848,45.469h-0.416c-1.537,0-2.418-0.368-3.121-1.219c-0.705-0.862-1.09-2.017-1.09-3.121
		c0-1.089,0.4-2.177,1.072-2.93c0.641-0.72,1.585-1.12,2.643-1.12c1.424,0,2.416,0.736,2.816,2.049
		c0.145,0.48,0.191,0.864,0.176,1.715h-5.154c0.018,1.168,0.307,2.097,0.851,2.735c0.526,0.624,1.249,0.96,2.209,0.96
		c0.593,0,1.058-0.144,1.854-0.544l0.24,0.479L288.848,45.469z M287.822,37.609c-0.912,0-1.584,0.561-1.873,1.553
		c-0.096,0.304-0.127,0.562-0.176,1.104h2.754c0.72,0,1.021-0.272,1.021-0.931C289.551,38.361,288.831,37.609,287.822,37.609z"/>
</g>
<g enable-background="new    ">
	<path fill="#FFFFFF" d="M192.191,64.469c-0.896,0-2.209-0.259-2.625-0.467c-0.16-0.08-0.176-0.128-0.176-0.336V61.41h0.398
		c0.127,0.752,0.238,1.12,0.463,1.457c0.449,0.656,1.249,1.056,2.049,1.056c1.233,0,2.146-0.88,2.146-2.078
		c0-1.121-0.543-1.777-2.928-3.441c-1.49-1.041-1.985-1.665-1.985-2.737c0-1.921,1.825-2.785,3.505-2.785
		c0.753,0,1.648,0.098,2.049,0.258c0.193,0.08,0.24,0.128,0.24,0.305v2.049h-0.416c-0.225-1.409-0.832-2.049-2.032-2.049
		c-1.058,0-1.729,0.656-1.729,1.712c0,0.385,0.113,0.736,0.307,0.977c0.354,0.435,0.318,0.466,2.398,2.019
		c1.713,1.281,2.258,1.984,2.258,3.186C196.113,63.204,194.527,64.469,192.191,64.469z"/>
	<path fill="#FFFFFF" d="M203.824,64.469c-0.176-0.192-0.287-0.496-0.336-0.851c-0.016-0.145-0.031-0.24-0.031-0.384l-1.408,0.832
		c-0.513,0.304-0.801,0.399-1.346,0.399c-1.776,0-2.48-0.882-2.48-3.12v-3.396c0-0.641-0.19-0.784-0.912-0.784h-0.369v-0.398
		c1.059-0.048,2.051-0.307,2.724-0.688v5.122c0,1.328,0.19,2.305,1.713,2.305c0.912,0,1.647-0.479,1.89-1.265
		c0.145-0.448,0.209-1.136,0.209-1.889v-2.4c0-0.641-0.178-0.784-0.896-0.784h-0.385V56.77c1.072-0.048,2.05-0.307,2.722-0.688
		c0,2.563,0,5.858,0,5.858c0,1.377,0.08,1.473,0.562,1.473c0.145,0,0.287-0.032,0.543-0.11l0.098,0.446L203.824,64.469z"/>
	<path fill="#FFFFFF" d="M211.408,64.469c-0.641,0-1.121-0.099-1.809-0.368v2.16c0,1.407,0.016,1.457,1.646,1.602v0.416h-4.37
		v-0.416c1.249-0.177,1.28-0.225,1.28-1.602v-8.323c0-0.642-0.191-0.784-0.912-0.784h-0.368v-0.4
		c1.073-0.048,2.049-0.288,2.724-0.672v1.313c0.719-0.896,1.664-1.313,2.752-1.313c1.969,0,3.28,1.475,3.28,3.777
		C215.634,62.548,213.841,64.469,211.408,64.469z M211.632,56.849c-0.991,0-1.665,0.574-1.905,1.646
		c-0.08,0.368-0.127,1.232-0.127,1.856v2.815c0.607,0.544,1.168,0.752,1.811,0.752c1.664,0,2.641-1.344,2.641-3.743
		C214.049,58.097,213.121,56.849,211.632,56.849z"/>
	<path fill="#FFFFFF" d="M221.473,64.469h-0.416c-1.537,0-2.418-0.368-3.121-1.219c-0.705-0.862-1.09-2.017-1.09-3.121
		c0-1.089,0.4-2.177,1.072-2.93c0.641-0.72,1.585-1.12,2.643-1.12c1.424,0,2.416,0.736,2.816,2.049
		c0.145,0.48,0.191,0.864,0.176,1.715h-5.154c0.018,1.168,0.307,2.097,0.851,2.735c0.526,0.624,1.249,0.96,2.209,0.96
		c0.593,0,1.058-0.144,1.854-0.544l0.24,0.479L221.473,64.469z M220.447,56.609c-0.912,0-1.584,0.561-1.873,1.553
		c-0.096,0.304-0.127,0.562-0.176,1.104h2.754c0.72,0,1.021-0.272,1.021-0.931C222.176,57.361,221.456,56.609,220.447,56.609z"/>
	<path fill="#FFFFFF" d="M229.984,57.569l-0.369,0.288c-0.047,0.032-0.096,0.08-0.159,0.08c-0.048,0-0.112-0.031-0.144-0.048
		l-0.529-0.271c-0.176-0.097-0.305-0.112-0.512-0.112c-0.369,0-0.576,0.208-0.736,0.608c-0.145,0.368-0.145,1.232-0.145,1.664v2.497
		c0,1.553,0.129,1.505,1.615,1.585v0.416h-4.37V63.86c1.329-0.064,1.313-0.192,1.313-1.585v-4.321c0-0.641-0.192-0.784-0.912-0.784
		h-0.368V56.77c1.072-0.048,2.033-0.307,2.722-0.688v1.475l0.735-0.864c0.465-0.544,0.594-0.608,0.944-0.608
		c0.257,0,0.416,0.128,0.607,0.48l0.399,0.72c0.032,0.064,0.048,0.097,0.048,0.128C230.128,57.473,230.08,57.506,229.984,57.569z"/>
	<path fill="#FFFFFF" d="M235.744,64.452c-0.24-0.397-0.368-0.832-0.385-1.265l-1.232,0.833c-0.527,0.368-0.783,0.448-1.168,0.448
		c-1.232,0-2.081-0.883-2.081-2.161c0-0.896,0.399-1.521,1.218-2.001c0.383-0.226,0.783-0.4,1.535-0.688l1.745-0.672
		c-0.017-1.696-0.464-2.337-1.376-2.337c-0.753,0-1.169,0.576-1.488,1.168c-0.049,0.097-0.193,0.385-0.337,0.385
		c-0.032,0-0.079,0-0.128-0.017l-0.496-0.128c-0.097-0.032-0.145-0.098-0.129-0.16l0.24-0.896c0.08-0.288,0.129-0.336,0.416-0.464
		c0.593-0.271,1.329-0.416,2.049-0.416c1.889,0,2.689,0.771,2.689,2.563v3.554c0,0.912,0.145,1.201,0.561,1.201
		c0.145,0,0.288-0.032,0.544-0.112l0.097,0.448L235.744,64.452z M235.376,59.554c-0.8,0.286-1.073,0.398-1.425,0.544
		c-1.104,0.464-1.633,1.104-1.633,2.017c0,0.801,0.527,1.36,1.313,1.36c1.137,0,1.745-0.912,1.745-2.673V59.554z"/>
	<path fill="#FFFFFF" d="M244.432,64.276V63.86c1.377-0.146,1.281-0.32,1.281-1.585v-2.961c0-1.745-0.465-2.369-1.809-2.369
		c-1.328,0-1.969,0.721-2.193,1.713c-0.096,0.432-0.128,0.912-0.128,1.648c0,1.969,0,0,0,1.969c0,1.393,0.017,1.409,1.297,1.585
		v0.416h-4.019V63.86c1.248-0.176,1.281-0.225,1.281-1.585v-4.338c0-0.642-0.191-0.784-0.912-0.784h-0.369v-0.4
		c1.072-0.048,2.049-0.288,2.722-0.672v1.395c0.896-0.96,1.921-1.395,3.201-1.395c1.2,0,1.921,0.514,2.226,1.36
		c0.127,0.385,0.146,0.736,0.146,1.457v3.377c0,1.36-0.063,1.457,1.278,1.585v0.416H244.432z"/>
	<path fill="#FFFFFF" d="M254.959,64.276V63.86c1.377-0.146,1.281-0.32,1.281-1.585v-2.961c0-1.745-0.465-2.369-1.809-2.369
		c-1.328,0-1.971,0.721-2.193,1.713c-0.096,0.432-0.129,0.912-0.129,1.648c0,1.969,0,0,0,1.969c0,1.393,0.018,1.409,1.298,1.585
		v0.416h-4.019V63.86c1.247-0.176,1.279-0.225,1.279-1.585v-4.338c0-0.642-0.189-0.784-0.912-0.784h-0.367v-0.4
		c1.071-0.048,2.049-0.288,2.721-0.672v1.395c0.896-0.96,1.922-1.395,3.201-1.395c1.199,0,1.922,0.514,2.227,1.36
		c0.127,0.385,0.145,0.736,0.145,1.457v3.377c0,1.36-0.063,1.457,1.279,1.585v0.416H254.959z"/>
	<path fill="#FFFFFF" d="M266.512,64.469c-0.176-0.192-0.287-0.496-0.336-0.851c-0.016-0.145-0.031-0.24-0.031-0.384l-1.408,0.832
		c-0.512,0.304-0.801,0.399-1.346,0.399c-1.774,0-2.479-0.882-2.479-3.12v-3.396c0-0.641-0.191-0.784-0.912-0.784h-0.369v-0.398
		c1.059-0.048,2.051-0.307,2.723-0.688v5.122c0,1.328,0.191,2.305,1.713,2.305c0.912,0,1.647-0.479,1.89-1.265
		c0.144-0.448,0.208-1.136,0.208-1.889v-2.4c0-0.641-0.176-0.784-0.896-0.784h-0.384V56.77c1.072-0.048,2.05-0.307,2.722-0.688
		c0,2.563,0,5.858,0,5.858c0,1.377,0.08,1.473,0.562,1.473c0.146,0,0.288-0.032,0.544-0.11l0.098,0.446L266.512,64.469z"/>
	<path fill="#FFFFFF" d="M274.719,64.452c-0.24-0.397-0.367-0.832-0.384-1.265l-1.231,0.833c-0.527,0.368-0.785,0.448-1.17,0.448
		c-1.23,0-2.08-0.883-2.08-2.161c0-0.896,0.4-1.521,1.217-2.001c0.385-0.226,0.783-0.4,1.537-0.688l1.744-0.672
		c-0.017-1.696-0.465-2.337-1.377-2.337c-0.752,0-1.168,0.576-1.488,1.168c-0.049,0.097-0.19,0.385-0.336,0.385
		c-0.031,0-0.08,0-0.129-0.017l-0.496-0.128c-0.096-0.032-0.145-0.098-0.127-0.16l0.24-0.896c0.078-0.288,0.127-0.336,0.416-0.464
		c0.592-0.271,1.328-0.416,2.049-0.416c1.89,0,2.688,0.771,2.688,2.563v3.554c0,0.912,0.146,1.201,0.562,1.201
		c0.146,0,0.289-0.032,0.545-0.112l0.097,0.448L274.719,64.452z M274.352,59.554c-0.801,0.286-1.072,0.398-1.426,0.544
		c-1.104,0.464-1.632,1.104-1.632,2.017c0,0.801,0.528,1.36,1.313,1.36c1.136,0,1.744-0.912,1.744-2.673V59.554L274.352,59.554z"/>
	<path fill="#FFFFFF" d="M281.104,64.469c-0.85-0.032-1.201-0.179-1.554-0.608c-0.319-0.4-0.464-0.944-0.464-1.921v-4.578h-1.281
		v-0.72h1.281V54.96l1.008-0.881h0.434v2.563h2.447v0.432l-0.656,0.288h-1.791c0,4.242,0,0,0,4.242c0,0.96,0.111,1.921,1.279,1.921
		c0.354,0,0.672-0.08,1.041-0.208l0.127,0.416L281.104,64.469z"/>
	<path fill="#FFFFFF" d="M283.757,64.276V63.86c1.249-0.128,1.28-0.146,1.28-1.585v-4.321c0-0.641-0.176-0.784-0.912-0.784h-0.368
		V56.77c1.073-0.048,2.05-0.307,2.722-0.688v6.194c0,1.345-0.031,1.457,1.28,1.585v0.416L283.757,64.276L283.757,64.276z
		 M285.566,55.024c-0.515,0-0.93-0.416-0.93-0.944c0-0.479,0.432-0.912,0.943-0.912c0.496,0,0.928,0.416,0.928,0.931
		C286.51,54.624,286.094,55.024,285.566,55.024z"/>
	<path fill="#FFFFFF" d="M292.783,64.469c-2.321,0-3.938-1.825-3.938-4.1c0-2.449,1.79-4.29,4.256-4.29
		c2.369,0,4.002,1.683,4.002,4.113C297.104,62.643,295.279,64.469,292.783,64.469z M292.895,56.609
		c-1.889,0-2.465,2.097-2.465,3.634c0,2.16,1.041,3.681,2.563,3.681c1.535,0,2.527-1.393,2.527-3.553
		C295.52,58.065,294.495,56.609,292.895,56.609z"/>
	<path fill="#FFFFFF" d="M303.76,64.276V63.86c1.377-0.146,1.28-0.32,1.28-1.585v-2.961c0-1.745-0.464-2.369-1.81-2.369
		c-1.328,0-1.969,0.721-2.192,1.713c-0.097,0.432-0.128,0.912-0.128,1.648c0,1.969,0,0,0,1.969c0,1.393,0.016,1.409,1.297,1.585
		v0.416h-4.018V63.86c1.248-0.176,1.278-0.225,1.278-1.585v-4.338c0-0.642-0.19-0.784-0.911-0.784h-0.367v-0.4
		c1.072-0.048,2.049-0.288,2.721-0.672v1.395c0.896-0.96,1.921-1.395,3.201-1.395c1.201,0,1.921,0.514,2.225,1.36
		c0.129,0.385,0.145,0.736,0.145,1.457v3.377c0,1.36-0.063,1.457,1.281,1.585v0.416H303.76z"/>
</g>
<g>
	<path fill="#FFFFFF" d="M23.943,50.622v-0.93c1.23-0.062,1.68-0.391,1.68-1.201c0-0.299-0.09-0.6-0.24-1.02l-1.23-3.54h-7.229
		l-1.23,3.54c-0.12,0.33-0.15,0.569-0.15,0.84c0,0.84,0.45,1.319,1.53,1.381v0.93h-5.91v-0.93c1.62-0.09,2.43-0.99,3.63-4.141
		l6.209-16.29h2.01l5.669,15.659c1.41,3.932,2.01,4.59,3.63,4.771v0.93H23.943z M20.763,33.702l-3.36,8.88h6.27L20.763,33.702z"/>
	<path fill="#FFFFFF" d="M49.472,49.302c-1.71,0.811-3.93,1.319-6.45,1.319h-9.45v-0.93c1.5-0.15,1.98-0.15,2.31-0.57
		c0.24-0.301,0.3-0.569,0.3-2.041V33.162c0-2.37-0.06-2.459-2.61-2.64v-0.9h10.8c2.07,0,3.87,0.3,5.37,0.931
		c3.57,1.47,5.73,4.619,5.73,9C55.472,44.082,53.222,47.561,49.472,49.302z M45.992,31.152c-0.93-0.3-2.1-0.48-3.39-0.48h-2.19
		v15.659c0,2.82,0.36,3.211,2.49,3.211c1.77,0,3.27-0.391,4.38-1.141c2.43-1.619,3.63-4.859,3.63-8.521
		C50.912,35.472,49.202,32.202,45.992,31.152z"/>
	<path fill="#FFFFFF" d="M71.672,34.422c-0.69-2.909-1.44-3.659-3.57-3.659h-3.51v8.939h2.79c1.86,0,2.61-0.75,2.76-2.85h0.84v6.989
		h-0.84c-0.18-2.101-0.9-2.97-2.76-2.97h-2.79v6.209c0,2.34,0.06,2.431,2.61,2.611v0.93h-9.479v-0.93
		c2.55-0.182,2.61-0.271,2.61-2.611V33.162c0-2.37-0.06-2.459-2.61-2.64v-0.9h14.759v4.8H71.672z"/>
	<path fill="#FFFFFF" d="M86.281,50.981c-2.04,0-4.68-0.51-5.64-0.99c-0.24-0.119-0.3-0.209-0.3-0.539v-4.5h0.84
		c0.24,1.199,0.51,2.01,0.93,2.73c0.78,1.26,2.07,2.129,3.72,2.129c2.25,0,3.9-1.619,3.9-3.75c0-1.771-0.99-3.119-5.07-6
		c-2.91-2.04-4.11-3.45-4.11-5.641c0-3.869,4.02-5.159,7.23-5.159c1.77,0,3.87,0.18,4.53,0.479c0.36,0.15,0.42,0.271,0.42,0.72v3.9
		h-0.84c-0.84-2.79-1.95-3.93-3.9-3.93c-1.74,0-2.94,1.199-2.94,2.97c0,0.6,0.15,1.14,0.42,1.56c0.54,0.9,0.84,1.2,3.6,3.24
		c3.93,2.91,5.25,4.5,5.25,6.9C94.321,48.671,91.201,50.981,86.281,50.981z"/>
	<path fill="#FFFFFF" d="M108.361,50.981c-0.3-0.42-0.42-0.959-0.51-1.529c-0.03-0.211-0.06-0.27-0.06-0.69l-2.58,1.44
		c-1.11,0.601-1.53,0.779-2.85,0.779c-3.18,0-4.5-1.529-4.5-5.311v-6.39c0-1.29-0.39-1.74-1.62-1.8c0,0-0.6-0.03-0.72-0.03v-0.899
		c2.55-0.061,4.8-0.54,6.33-1.29v9.6c0,2.01,0.15,4.08,2.61,4.08c1.38,0,2.52-0.721,2.939-1.892c0.3-0.84,0.42-1.92,0.42-3.899
		v-3.869c0-1.32-0.36-1.83-1.62-1.83c0,0-0.6,0-0.72,0c0-0.42,0-0.479,0-0.899c2.58-0.061,4.8-0.54,6.33-1.29
		c0,2.939,0,10.648,0,10.648c0,2.82,0.27,3,1.02,3.031c0.27,0,0.51-0.062,0.96-0.15l0.15,1.021L108.361,50.981z"/>
	<path fill="#FFFFFF" d="M124.801,50.981c-1.14,0-2.04-0.15-3.33-0.601v4.171c0,2.25,0.27,2.399,3.03,2.639v0.932h-9.359V57.19
		c2.22-0.271,2.34-0.42,2.34-2.639V39.281c0-1.29-0.39-1.77-1.62-1.83c0,0-0.6-0.03-0.72-0.03v-0.899c2.55-0.061,4.8-0.51,6.33-1.26
		v2.579c1.5-1.739,3.36-2.579,5.43-2.579c3.54,0,5.97,2.819,5.97,7.17C132.87,47.411,129.42,50.981,124.801,50.981z M124.801,37.122
		c-1.53,0-2.58,0.931-3.03,2.49c-0.18,0.63-0.3,1.89-0.3,2.85v6.029c0.87,0.961,1.8,1.439,2.85,1.439c2.55,0,4.17-2.609,4.17-6.93
		C128.491,39.312,127.021,37.122,124.801,37.122z"/>
	<path fill="#FFFFFF" d="M138.961,42.311c0.03,2.311,0.45,3.779,1.32,4.859c0.87,1.079,2.16,1.71,3.75,1.71
		c1.17,0,2.16-0.358,3.6-1.229l0.63,1.051l-4.05,2.279h-0.72c-2.73,0-4.71-0.42-6.33-2.039c-1.5-1.5-2.34-3.812-2.34-6.09
		c0-2.25,0.9-4.261,2.28-5.642c1.29-1.29,3.18-1.949,5.28-1.949c2.79,0,4.74,1.26,5.49,3.51c0.33,0.99,0.42,1.77,0.42,3.54H138.961z
		 M142.141,36.312c-1.35,0-2.4,0.93-2.85,2.55c-0.18,0.66-0.27,1.2-0.33,2.37h4.29c1.05,0,1.47-0.51,1.47-1.739
		C144.721,37.632,143.671,36.312,142.141,36.312z"/>
	<path fill="#FFFFFF" d="M161.76,38.622l-0.63,0.78c-0.09,0.12-0.24,0.27-0.42,0.27s-0.36-0.09-0.51-0.149l-1.38-0.57
		c-0.39-0.149-0.66-0.3-1.05-0.3c-0.63,0-0.99,0.39-1.26,1.229c-0.21,0.689-0.24,2.011-0.24,3v4.199c0,2.49,0.36,2.4,2.729,2.611
		v0.93h-9.06v-0.93c2.22-0.182,2.37-0.271,2.37-2.611v-7.799c0-1.29-0.39-1.74-1.62-1.8c0,0-0.6-0.03-0.72-0.03v-0.899
		c2.55-0.061,4.74-0.54,6.3-1.29v3.149l1.38-1.74c0.87-1.08,1.23-1.409,1.98-1.409c0.57,0,0.93,0.39,1.29,0.96l0.96,1.5
		c0.12,0.18,0.15,0.27,0.15,0.39C162.03,38.262,161.97,38.382,161.76,38.622z"/>
</g>
</svg>
