<?xml version="1.0" encoding="utf-8"?>
<!-- Generator: Adobe Illustrator 16.0.0, SVG Export Plug-In . SVG Version: 6.00 Build 0)  -->
<!DOCTYPE svg PUBLIC "-//W3C//DTD SVG 1.1//EN" "http://www.w3.org/Graphics/SVG/1.1/DTD/svg11.dtd">
<svg version="1.1" id="new_logo" xmlns="http://www.w3.org/2000/svg" xmlns:xlink="http://www.w3.org/1999/xlink" x="0px" y="0px"
	 width="318.5px" height="72.854px" viewBox="-16.25 -3.356 318.5 72.854" enable-background="new -16.25 -3.356 318.5 72.854"
	 xml:space="preserve">
<rect x="-16.25" y="-3.356" fill="#4F5FAA" width="156.456" height="72.64"/>
<rect x="145.794" y="-3.356" fill="#939598" width="156.456" height="72.642"/>
<g>
	<path fill="#FFFFFF" d="M31.652,31.085c-1.045,0.204-2.121,0.204-3.196,0.204v-0.727c1.163-0.116,2.034-0.232,2.906-1.046
		c1.162-1.075,1.54-2.557,1.54-4.098c0-2.702-1.191-4.649-4.097-4.649h-1.568v15.806c0,2.384,0.058,2.384,2.527,2.5v0.929h-9.152
		v-0.929c2.47-0.117,2.528-0.145,2.528-2.5V23.095c0-2.47-0.058-2.266-2.528-2.528v-0.9h9.763c3.544,0,6.915,1.278,6.915,5.346
		C37.291,28.471,34.85,30.447,31.652,31.085z"/>
	<path fill="#FFFFFF" d="M45.192,40.356c-1.976,0-4.533-0.493-5.463-0.957c-0.232-0.118-0.29-0.206-0.29-0.524v-4.359h0.813
		c0.232,1.163,0.494,1.947,0.901,2.646c0.755,1.219,2.005,2.062,3.603,2.062c2.179,0,3.777-1.569,3.777-3.631
		c0-1.717-0.959-3.024-4.911-5.813c-2.818-1.976-3.981-3.341-3.981-5.463c0-3.748,3.893-4.997,7.003-4.997
		c1.714,0,3.749,0.174,4.388,0.465c0.35,0.145,0.407,0.261,0.407,0.697v3.777h-0.813c-0.813-2.702-1.889-3.807-3.777-3.807
		c-1.685,0-2.847,1.163-2.847,2.877c0,0.582,0.145,1.104,0.406,1.512c0.523,0.872,0.813,1.162,3.487,3.139
		c3.806,2.818,5.084,4.359,5.084,6.684C52.98,38.119,49.958,40.356,45.192,40.356z"/>
	<path fill="#FFFFFF" d="M60.534,40.356c-1.976,0-4.533-0.493-5.463-0.957c-0.232-0.118-0.29-0.206-0.29-0.524v-4.359h0.813
		c0.232,1.163,0.494,1.947,0.901,2.646c0.755,1.219,2.005,2.062,3.604,2.062c2.179,0,3.777-1.569,3.777-3.631
		c0-1.717-0.959-3.024-4.911-5.813c-2.818-1.976-3.981-3.341-3.981-5.463c0-3.748,3.894-4.997,7.002-4.997
		c1.714,0,3.749,0.174,4.388,0.465c0.349,0.145,0.406,0.261,0.406,0.697v3.777h-0.814c-0.814-2.702-1.889-3.807-3.777-3.807
		c-1.685,0-2.847,1.163-2.847,2.877c0,0.582,0.145,1.104,0.406,1.512c0.523,0.872,0.814,1.162,3.487,3.139
		c3.806,2.818,5.084,4.359,5.084,6.684C68.321,38.119,65.3,40.356,60.534,40.356z"/>
	<path fill="#FFFFFF" d="M79.74,40.326c-0.377-0.785-0.552-1.512-0.581-2.441l-2.382,1.627c-0.872,0.581-1.627,0.843-2.5,0.843
		c-2.295,0-3.864-1.628-3.864-3.981c0-1.713,0.785-2.849,2.15-3.69c0.755-0.464,1.598-0.813,2.848-1.221l3.748-1.249
		c-0.059-2.818-0.843-4.01-2.441-4.01c-1.627,0-2.266,1.453-2.876,2.732c-0.087,0.203-0.291,0.522-0.552,0.522
		c-0.087,0-0.175,0-0.261-0.029l-1.163-0.319c-0.291-0.087-0.378-0.232-0.32-0.494l0.377-1.453c0.146-0.582,0.292-0.901,0.872-1.162
		c1.279-0.552,2.789-0.872,4.446-0.872c3.922,0,5.811,1.656,5.811,5.085v5.52c0,1.424,0.145,2.237,0.901,2.471
		c0.262,0.088,0.581,0.117,1.046,0.028l0.145,0.989L79.74,40.326z M79.187,31.377c-1.162,0.406-1.714,0.638-2.354,0.93
		c-1.685,0.784-2.615,1.858-2.615,3.486c0,1.395,0.842,2.352,2.121,2.352c1.801,0,2.847-1.511,2.847-4.183V31.377z"/>
	<path fill="#FFFFFF" d="M95.342,40.356c-1.104,0-1.976-0.146-3.226-0.583v4.038c0,2.181,0.262,2.325,2.936,2.559v0.899h-9.066
		V46.37c2.15-0.262,2.266-0.408,2.266-2.559V29.024c0-1.25-0.377-1.715-1.569-1.772c0,0-0.582-0.029-0.697-0.029v-0.872
		c2.47-0.058,4.649-0.494,6.13-1.221v2.499c1.453-1.686,3.254-2.499,5.261-2.499c3.429,0,5.782,2.732,5.782,6.945
		C103.16,36.898,99.817,40.356,95.342,40.356z M95.342,26.931c-1.482,0-2.499,0.9-2.935,2.412c-0.174,0.611-0.291,1.831-0.291,2.761
		v5.841c0.843,0.93,1.743,1.394,2.761,1.394c2.47,0,4.039-2.527,4.039-6.711C98.917,29.053,97.492,26.931,95.342,26.931z"/>
</g>
<g>
	<path fill="#FFFFFF" d="M165.53,17.601c-0.553,0.188-1.018,0.247-2.078,0.262v-0.291c0.801-0.043,1.135-0.13,1.513-0.334
		c0.755-0.392,1.161-1.235,1.161-2.382c0-1.584-0.77-2.325-2.425-2.325h-0.872v7.89c0,1.337,0,1.337,1.22,1.438v0.378h-3.88v-0.378
		c1.234-0.101,1.234-0.101,1.234-1.438v-6.538c0-1.351,0-1.336-1.234-1.438v-0.379h3.793c2.385,0,3.604,0.9,3.604,2.658
		C167.563,16.062,166.809,17.151,165.53,17.601z"/>
	<path fill="#FFFFFF" d="M173.593,22.411c-0.159-0.174-0.26-0.451-0.304-0.77c-0.016-0.131-0.029-0.218-0.029-0.349l-1.28,0.755
		c-0.465,0.276-0.725,0.363-1.22,0.363c-1.611,0-2.251-0.799-2.251-2.833v-3.08c0-0.581-0.175-0.712-0.829-0.712h-0.334v-0.363
		c0.958-0.043,1.859-0.276,2.47-0.624v4.648c0,1.206,0.174,2.092,1.555,2.092c0.827,0,1.497-0.436,1.714-1.147
		c0.132-0.407,0.189-1.032,0.189-1.714v-2.179c0-0.581-0.161-0.712-0.813-0.712h-0.351v-0.363c0.974-0.043,1.86-0.276,2.47-0.624
		c0,2.323,0,5.316,0,5.316c0,1.25,0.073,1.337,0.509,1.337c0.131,0,0.262-0.029,0.494-0.102l0.087,0.408L173.593,22.411z"/>
	<path fill="#FFFFFF" d="M179.303,22.411c-0.305,0-0.698-0.043-1.104-0.102c-0.857-0.116-1.032-0.145-1.249-0.145
		c-0.13,0-0.305,0.015-0.595,0.073V13.2c0-0.654-0.072-0.829-0.74-0.829h-0.408V11.98c0.741,0,1.744-0.174,2.455-0.421v4.431
		c0.77-0.843,1.526-1.191,2.542-1.191c1.832,0,2.95,1.249,2.95,3.327C183.153,20.552,181.483,22.411,179.303,22.411z
		 M179.578,15.494c-0.959,0-1.583,0.539-1.786,1.511c-0.087,0.408-0.131,1.003-0.131,1.7v1.467c0,0.741,0.071,1.104,0.29,1.352
		c0.219,0.247,0.683,0.392,1.249,0.392c1.569,0,2.515-1.351,2.515-3.53C181.715,16.584,180.916,15.494,179.578,15.494z"/>
	<path fill="#FFFFFF" d="M183.239,22.236v-0.378c1.135-0.116,1.162-0.131,1.162-1.438v-7.22c0-0.378-0.027-0.596-0.172-0.712
		c-0.104-0.086-0.277-0.116-0.569-0.116h-0.404v-0.392c0.813-0.015,1.756-0.174,2.454-0.422v8.862c0,1.308,0,1.322,1.161,1.438
		v0.378H183.239z"/>
	<path fill="#FFFFFF" d="M186.856,22.236v-0.378c1.135-0.116,1.163-0.131,1.163-1.438v-3.922c0-0.581-0.16-0.712-0.827-0.712h-0.336
		v-0.363c0.974-0.043,1.859-0.276,2.47-0.625v5.623c0,1.22-0.026,1.322,1.164,1.438v0.378H186.856z M188.499,13.838
		c-0.464,0-0.842-0.377-0.842-0.857c0-0.436,0.392-0.828,0.856-0.828c0.45,0,0.843,0.378,0.843,0.843
		C189.356,13.475,188.979,13.838,188.499,13.838z"/>
	<path fill="#FFFFFF" d="M196.723,16.352l-0.465,0.276c-0.029,0.014-0.087,0.029-0.131,0.029s-0.087-0.029-0.131-0.087l-0.64-0.756
		c-0.303-0.349-0.681-0.523-1.146-0.523c-1.323,0-2.18,1.177-2.18,2.862c0,1.932,1.031,3.414,2.731,3.414
		c0.536,0,0.944-0.13,1.655-0.508l0.248,0.435l-1.933,0.916h-0.351c-1.146,0-2.063-0.378-2.702-1.017
		c-0.712-0.712-1.09-1.729-1.09-2.862c0-2.136,1.628-3.735,3.895-3.735c0.696,0,1.265,0.131,1.772,0.378l0.523,0.974
		c0.013,0.029,0.013,0.058,0.013,0.087C196.794,16.279,196.781,16.308,196.723,16.352z"/>
	<path fill="#FFFFFF" d="M205.423,22.411c-0.813,0-2.006-0.232-2.383-0.421c-0.145-0.073-0.16-0.117-0.16-0.306v-2.048h0.362
		c0.115,0.684,0.219,1.017,0.421,1.322c0.407,0.596,1.135,0.958,1.861,0.958c1.118,0,1.946-0.798,1.946-1.888
		c0-1.017-0.494-1.612-2.659-3.124c-1.351-0.944-1.802-1.511-1.802-2.484c0-1.743,1.656-2.528,3.183-2.528
		c0.683,0,1.497,0.087,1.86,0.232c0.173,0.073,0.217,0.116,0.217,0.276v1.859h-0.378c-0.203-1.278-0.755-1.859-1.844-1.859
		c-0.958,0-1.569,0.595-1.569,1.554c0,0.349,0.102,0.668,0.275,0.886c0.32,0.393,0.292,0.422,2.18,1.831
		c1.554,1.162,2.048,1.801,2.048,2.891C208.982,21.262,207.545,22.411,205.423,22.411z"/>
	<path fill="#FFFFFF" d="M214.4,22.411h-0.377c-1.395,0-2.194-0.334-2.833-1.104c-0.641-0.785-0.988-1.831-0.988-2.833
		c0-0.988,0.363-1.976,0.974-2.659c0.581-0.653,1.438-1.016,2.397-1.016c1.293,0,2.195,0.667,2.557,1.859
		c0.131,0.436,0.174,0.785,0.161,1.554h-4.68c0.015,1.061,0.277,1.903,0.771,2.485c0.48,0.566,1.133,0.872,2.005,0.872
		c0.536,0,0.957-0.131,1.686-0.494l0.218,0.436L214.4,22.411z M213.471,15.277c-0.826,0-1.438,0.508-1.699,1.409
		c-0.088,0.276-0.116,0.508-0.16,1.002h2.498c0.653,0,0.93-0.247,0.93-0.843C215.04,15.959,214.387,15.277,213.471,15.277z"/>
	<path fill="#FFFFFF" d="M223.612,16.352l-0.466,0.276c-0.028,0.014-0.087,0.029-0.131,0.029s-0.087-0.029-0.131-0.087l-0.639-0.756
		c-0.305-0.349-0.682-0.523-1.147-0.523c-1.322,0-2.178,1.177-2.178,2.862c0,1.932,1.03,3.414,2.73,3.414
		c0.537,0,0.946-0.13,1.655-0.508l0.249,0.435l-1.933,0.916h-0.351c-1.147,0-2.063-0.378-2.702-1.017
		c-0.712-0.712-1.09-1.729-1.09-2.862c0-2.136,1.628-3.735,3.895-3.735c0.696,0,1.264,0.131,1.771,0.378l0.524,0.974
		c0.013,0.029,0.013,0.058,0.013,0.087C223.684,16.279,223.671,16.308,223.612,16.352z"/>
	<path fill="#FFFFFF" d="M227.461,22.411c-0.77-0.029-1.09-0.16-1.409-0.552c-0.29-0.364-0.421-0.857-0.421-1.744V15.96h-1.164
		v-0.654h1.164v-1.525l0.913-0.799h0.394v2.324h2.222v0.393l-0.596,0.261h-1.626c0,3.85,0,0,0,3.85c0,0.871,0.103,1.744,1.162,1.744
		c0.32,0,0.611-0.073,0.944-0.189l0.115,0.377L227.461,22.411z"/>
	<path fill="#FFFFFF" d="M233.534,22.411c-2.107,0-3.573-1.657-3.573-3.719c0-2.223,1.626-3.893,3.863-3.893
		c2.149,0,3.633,1.525,3.633,3.733C237.457,20.753,235.801,22.411,233.534,22.411z M233.637,15.277
		c-1.715,0-2.237,1.903-2.237,3.298c0,1.961,0.943,3.341,2.325,3.341c1.395,0,2.294-1.264,2.294-3.225
		C236.019,16.6,235.088,15.277,233.637,15.277z"/>
	<path fill="#FFFFFF" d="M243.385,16.148l-0.334,0.261c-0.044,0.029-0.087,0.073-0.146,0.073c-0.045,0-0.104-0.029-0.13-0.043
		l-0.481-0.248c-0.16-0.086-0.275-0.101-0.466-0.101c-0.333,0-0.522,0.188-0.668,0.552c-0.13,0.334-0.13,1.119-0.13,1.511v2.266
		c0,1.409,0.116,1.366,1.467,1.438v0.378h-3.967v-0.378c1.205-0.059,1.19-0.175,1.19-1.438v-3.922c0-0.581-0.173-0.712-0.828-0.712
		h-0.334v-0.363c0.974-0.043,1.846-0.276,2.47-0.625v1.337l0.669-0.785c0.421-0.494,0.537-0.553,0.857-0.553
		c0.232,0,0.378,0.117,0.553,0.437l0.362,0.653c0.029,0.059,0.044,0.087,0.044,0.116C243.516,16.062,243.472,16.09,243.385,16.148z"
		/>
	<path fill="#FFFFFF" d="M162.696,39.844c-0.813,0-2.005-0.233-2.382-0.421c-0.146-0.073-0.161-0.116-0.161-0.305v-2.05h0.362
		c0.116,0.682,0.22,1.018,0.422,1.323c0.406,0.596,1.135,0.958,1.859,0.958c1.119,0,1.947-0.799,1.947-1.889
		c0-1.017-0.493-1.612-2.658-3.123c-1.351-0.944-1.802-1.511-1.802-2.484c0-1.745,1.656-2.529,3.183-2.529
		c0.682,0,1.495,0.088,1.859,0.233c0.174,0.073,0.217,0.117,0.217,0.276v1.86h-0.378c-0.203-1.279-0.755-1.86-1.844-1.86
		c-0.958,0-1.569,0.596-1.569,1.556c0,0.349,0.103,0.668,0.276,0.886c0.319,0.393,0.29,0.421,2.179,1.831
		c1.555,1.163,2.05,1.802,2.05,2.891C166.257,38.696,164.818,39.844,162.696,39.844z"/>
	<path fill="#FFFFFF" d="M172.532,39.844c-0.159-0.173-0.261-0.451-0.304-0.769c-0.016-0.132-0.029-0.219-0.029-0.352l-1.28,0.757
		c-0.465,0.277-0.725,0.363-1.22,0.363c-1.611,0-2.252-0.799-2.252-2.832V33.93c0-0.582-0.174-0.713-0.828-0.713h-0.334v-0.362
		c0.959-0.043,1.86-0.275,2.47-0.625v4.649c0,1.205,0.175,2.091,1.556,2.091c0.826,0,1.497-0.435,1.713-1.147
		c0.131-0.405,0.189-1.031,0.189-1.713v-2.18c0-0.582-0.16-0.713-0.813-0.713h-0.35v-0.362c0.974-0.043,1.86-0.275,2.472-0.625
		c0,2.324,0,5.318,0,5.318c0,1.247,0.071,1.335,0.508,1.335c0.13,0,0.261-0.027,0.493-0.102l0.087,0.407L172.532,39.844z"/>
	<path fill="#FFFFFF" d="M178.691,39.844c-0.581,0-1.017-0.086-1.642-0.334v1.961c0,1.28,0.016,1.323,1.497,1.454v0.378h-3.967
		v-0.378c1.134-0.161,1.163-0.204,1.163-1.454v-7.555c0-0.582-0.175-0.712-0.828-0.712h-0.335V32.84
		c0.975-0.044,1.86-0.261,2.47-0.61v1.19c0.655-0.813,1.511-1.19,2.5-1.19c1.787,0,2.978,1.335,2.978,3.428
		C182.528,38.101,180.901,39.844,178.691,39.844z M178.896,32.927c-0.901,0-1.513,0.525-1.729,1.498
		c-0.072,0.334-0.117,1.118-0.117,1.686v2.556c0.553,0.494,1.061,0.683,1.642,0.683c1.513,0,2.398-1.221,2.398-3.399
		C181.09,34.061,180.248,32.927,178.896,32.927z"/>
	<path fill="#FFFFFF" d="M187.104,39.844h-0.378c-1.394,0-2.193-0.334-2.833-1.104c-0.639-0.785-0.987-1.832-0.987-2.833
		c0-0.988,0.363-1.978,0.974-2.658c0.581-0.655,1.438-1.018,2.397-1.018c1.292,0,2.194,0.668,2.556,1.861
		c0.131,0.435,0.176,0.783,0.162,1.554h-4.681c0.016,1.061,0.277,1.903,0.771,2.483c0.479,0.568,1.133,0.874,2.004,0.874
		c0.536,0,0.958-0.132,1.686-0.496l0.218,0.438L187.104,39.844z M186.174,32.71c-0.827,0-1.438,0.507-1.7,1.409
		c-0.087,0.276-0.115,0.51-0.161,1.002h2.5c0.653,0,0.93-0.247,0.93-0.843C187.744,33.391,187.089,32.71,186.174,32.71z"/>
	<path fill="#FFFFFF" d="M194.105,33.582l-0.333,0.262c-0.045,0.028-0.088,0.072-0.146,0.072c-0.044,0-0.102-0.03-0.129-0.044
		l-0.481-0.247c-0.16-0.087-0.275-0.103-0.465-0.103c-0.334,0-0.522,0.19-0.668,0.552c-0.131,0.335-0.131,1.12-0.131,1.511v2.269
		c0,1.407,0.116,1.364,1.468,1.438v0.379h-3.969v-0.379c1.206-0.06,1.192-0.174,1.192-1.438v-3.925c0-0.583-0.174-0.713-0.829-0.713
		h-0.333v-0.362c0.974-0.043,1.845-0.276,2.47-0.625v1.335l0.67-0.783c0.421-0.495,0.536-0.552,0.856-0.552
		c0.232,0,0.378,0.116,0.552,0.436l0.364,0.654c0.027,0.059,0.044,0.088,0.044,0.117C194.239,33.495,194.195,33.524,194.105,33.582z
		"/>
	<path fill="#FFFFFF" d="M198.61,39.83c-0.218-0.363-0.334-0.756-0.349-1.148l-1.118,0.757c-0.479,0.333-0.713,0.406-1.062,0.406
		c-1.118,0-1.887-0.799-1.887-1.962c0-0.815,0.361-1.379,1.102-1.816c0.351-0.203,0.715-0.363,1.396-0.625l1.584-0.611
		c-0.015-1.538-0.422-2.12-1.25-2.12c-0.681,0-1.059,0.523-1.352,1.06c-0.043,0.086-0.172,0.349-0.303,0.349
		c-0.029,0-0.073,0-0.117-0.014l-0.448-0.115c-0.088-0.028-0.131-0.088-0.116-0.146l0.218-0.813
		c0.071-0.262,0.116-0.306,0.378-0.421c0.536-0.247,1.206-0.378,1.859-0.378c1.714,0,2.439,0.696,2.439,2.324v3.226
		c0,0.828,0.132,1.091,0.509,1.091c0.132,0,0.263-0.029,0.495-0.102l0.087,0.405L198.61,39.83z M198.276,35.384
		c-0.727,0.26-0.974,0.362-1.292,0.493c-1.003,0.423-1.481,1.002-1.481,1.831c0,0.726,0.479,1.234,1.189,1.234
		c1.031,0,1.584-0.826,1.584-2.428V35.384z"/>
	<path fill="#FFFFFF" d="M205.772,39.671v-0.378c1.25-0.131,1.162-0.291,1.162-1.438v-2.689c0-1.582-0.422-2.15-1.641-2.15
		c-1.206,0-1.789,0.656-1.991,1.556c-0.087,0.393-0.117,0.829-0.117,1.496c0,1.788,0,0,0,1.788c0,1.264,0.016,1.278,1.178,1.438
		v0.378h-3.648v-0.378c1.136-0.161,1.163-0.203,1.163-1.438v-3.937c0-0.581-0.174-0.712-0.826-0.712h-0.337v-0.364
		c0.974-0.044,1.859-0.261,2.471-0.609v1.264c0.814-0.872,1.745-1.264,2.906-1.264c1.091,0,1.745,0.465,2.021,1.233
		c0.116,0.349,0.13,0.669,0.13,1.321v3.067c0,1.235-0.058,1.321,1.162,1.438v0.378H205.772L205.772,39.671z"/>
	<path fill="#FFFFFF" d="M214.605,39.671v-0.378c1.248-0.131,1.163-0.291,1.163-1.438v-2.689c0-1.582-0.423-2.15-1.643-2.15
		c-1.205,0-1.788,0.656-1.99,1.556c-0.088,0.393-0.116,0.829-0.116,1.496c0,1.788,0,0,0,1.788c0,1.264,0.016,1.278,1.176,1.438
		v0.378h-3.646v-0.378c1.135-0.161,1.162-0.203,1.162-1.438v-3.937c0-0.581-0.174-0.712-0.827-0.712h-0.335v-0.364
		c0.974-0.044,1.859-0.261,2.471-0.609v1.264c0.813-0.872,1.744-1.264,2.905-1.264c1.09,0,1.745,0.465,2.02,1.233
		c0.116,0.349,0.131,0.669,0.131,1.321v3.067c0,1.235-0.058,1.321,1.163,1.438v0.378H214.605L214.605,39.671z"/>
	<path fill="#FFFFFF" d="M224.369,39.844c-0.16-0.173-0.263-0.451-0.305-0.769c-0.017-0.132-0.029-0.219-0.029-0.352l-1.279,0.757
		c-0.465,0.277-0.726,0.363-1.22,0.363c-1.613,0-2.253-0.799-2.253-2.832V33.93c0-0.582-0.175-0.713-0.827-0.713h-0.334v-0.362
		c0.957-0.043,1.858-0.275,2.469-0.625v4.649c0,1.205,0.175,2.091,1.554,2.091c0.829,0,1.497-0.435,1.717-1.147
		c0.13-0.405,0.187-1.031,0.187-1.713v-2.18c0-0.582-0.159-0.713-0.813-0.713h-0.351v-0.362c0.973-0.043,1.86-0.275,2.471-0.625
		c0,2.324,0,5.318,0,5.318c0,1.247,0.071,1.335,0.509,1.335c0.131,0,0.261-0.027,0.493-0.102l0.088,0.407L224.369,39.844z"/>
	<path fill="#FFFFFF" d="M231.096,39.83c-0.218-0.363-0.336-0.756-0.35-1.148l-1.119,0.757c-0.479,0.333-0.711,0.406-1.061,0.406
		c-1.117,0-1.887-0.799-1.887-1.962c0-0.815,0.362-1.379,1.104-1.816c0.349-0.203,0.713-0.363,1.394-0.625l1.583-0.611
		c-0.014-1.538-0.421-2.12-1.248-2.12c-0.683,0-1.061,0.523-1.352,1.06c-0.043,0.086-0.174,0.349-0.304,0.349
		c-0.03,0-0.072,0-0.116-0.014l-0.449-0.115c-0.087-0.028-0.13-0.088-0.117-0.146l0.218-0.813c0.072-0.262,0.117-0.306,0.378-0.421
		c0.537-0.247,1.207-0.378,1.859-0.378c1.716,0,2.441,0.696,2.441,2.324v3.226c0,0.828,0.13,1.091,0.509,1.091
		c0.13,0,0.262-0.029,0.495-0.102l0.085,0.405L231.096,39.83z M230.76,35.384c-0.725,0.26-0.973,0.362-1.29,0.493
		c-1.004,0.423-1.483,1.002-1.483,1.831c0,0.726,0.479,1.234,1.19,1.234c1.032,0,1.583-0.826,1.583-2.428V35.384z"/>
	<path fill="#FFFFFF" d="M236.165,39.844c-0.77-0.029-1.091-0.163-1.408-0.551c-0.29-0.364-0.421-0.859-0.421-1.745v-4.157h-1.164
		v-0.652h1.164v-1.526l0.913-0.799h0.394v2.326h2.222v0.392l-0.596,0.26h-1.626c0,3.851,0,0,0,3.851
		c0,0.872,0.102,1.745,1.161,1.745c0.321,0,0.611-0.072,0.945-0.191l0.115,0.379L236.165,39.844z"/>
	<path fill="#FFFFFF" d="M237.849,39.671v-0.378c1.136-0.118,1.163-0.131,1.163-1.438V33.93c0-0.582-0.16-0.713-0.827-0.713h-0.336
		v-0.362c0.974-0.043,1.86-0.275,2.47-0.625v5.623c0,1.221-0.026,1.321,1.164,1.438v0.378h-3.634V39.671z M239.491,31.272
		c-0.464,0-0.842-0.378-0.842-0.857c0-0.436,0.392-0.828,0.856-0.828c0.45,0,0.843,0.377,0.843,0.842
		C240.349,30.909,239.971,31.272,239.491,31.272z"/>
	<path fill="#FFFFFF" d="M245.319,39.844c-2.107,0-3.574-1.655-3.574-3.718c0-2.225,1.627-3.895,3.864-3.895
		c2.15,0,3.632,1.527,3.632,3.734C249.241,38.186,247.585,39.844,245.319,39.844z M245.419,32.71c-1.714,0-2.237,1.903-2.237,3.297
		c0,1.962,0.945,3.341,2.324,3.341c1.395,0,2.296-1.264,2.296-3.225C247.802,34.033,246.873,32.71,245.419,32.71z"/>
	<path fill="#FFFFFF" d="M254.558,39.671v-0.378c1.249-0.131,1.163-0.291,1.163-1.438v-2.689c0-1.582-0.423-2.15-1.644-2.15
		c-1.204,0-1.787,0.656-1.989,1.556c-0.087,0.393-0.116,0.829-0.116,1.496c0,1.788,0,0,0,1.788c0,1.264,0.015,1.278,1.177,1.438
		v0.378h-3.646v-0.378c1.133-0.161,1.162-0.203,1.162-1.438v-3.937c0-0.581-0.172-0.712-0.827-0.712h-0.335v-0.364
		c0.974-0.044,1.859-0.261,2.471-0.609v1.264c0.813-0.872,1.742-1.264,2.906-1.264c1.089,0,1.744,0.465,2.02,1.233
		c0.115,0.349,0.13,0.669,0.13,1.321v3.067c0,1.235-0.059,1.321,1.163,1.438v0.378H254.558L254.558,39.671z"/>
	<path fill="#FFFFFF" d="M164.57,57.262c-0.217-0.361-0.333-0.756-0.348-1.145l-1.12,0.755c-0.479,0.334-0.712,0.406-1.06,0.406
		c-1.119,0-1.888-0.799-1.888-1.96c0-0.815,0.362-1.382,1.104-1.816c0.349-0.206,0.713-0.364,1.395-0.627l1.584-0.609
		c-0.015-1.541-0.423-2.12-1.251-2.12c-0.68,0-1.058,0.523-1.35,1.059c-0.045,0.088-0.173,0.352-0.304,0.352
		c-0.03,0-0.073,0-0.117-0.016l-0.449-0.116c-0.086-0.031-0.131-0.088-0.116-0.148l0.219-0.813c0.07-0.26,0.115-0.304,0.377-0.421
		c0.536-0.247,1.206-0.378,1.859-0.378c1.715,0,2.44,0.698,2.44,2.324v3.227c0,0.827,0.132,1.089,0.51,1.089
		c0.13,0,0.261-0.027,0.493-0.101l0.088,0.406L164.57,57.262z M164.237,52.819c-0.726,0.258-0.974,0.361-1.292,0.491
		c-1.002,0.422-1.481,1.003-1.481,1.833c0,0.724,0.479,1.233,1.189,1.233c1.031,0,1.584-0.827,1.584-2.425V52.819z"/>
	<path fill="#FFFFFF" d="M172.925,51.219l-0.465,0.278c-0.029,0.014-0.087,0.026-0.131,0.026s-0.087-0.026-0.132-0.088l-0.639-0.755
		c-0.304-0.35-0.682-0.522-1.146-0.522c-1.323,0-2.18,1.178-2.18,2.862c0,1.933,1.032,3.416,2.732,3.416
		c0.536,0,0.943-0.132,1.654-0.51l0.248,0.438l-1.933,0.914h-0.35c-1.146,0-2.063-0.378-2.702-1.017
		c-0.711-0.713-1.089-1.729-1.089-2.862c0-2.137,1.627-3.735,3.895-3.735c0.695,0,1.264,0.131,1.771,0.378l0.522,0.973
		c0.015,0.031,0.015,0.061,0.015,0.088C172.997,51.146,172.982,51.176,172.925,51.219z"/>
	<path fill="#FFFFFF" d="M179.246,51.219l-0.466,0.278c-0.028,0.014-0.086,0.026-0.13,0.026s-0.088-0.026-0.131-0.088l-0.641-0.755
		c-0.303-0.35-0.68-0.522-1.146-0.522c-1.324,0-2.181,1.178-2.181,2.862c0,1.933,1.032,3.416,2.732,3.416
		c0.536,0,0.944-0.132,1.655-0.51l0.247,0.438l-1.932,0.914h-0.352c-1.146,0-2.062-0.378-2.701-1.017
		c-0.712-0.713-1.091-1.729-1.091-2.862c0-2.137,1.628-3.735,3.895-3.735c0.697,0,1.264,0.131,1.771,0.378l0.524,0.973
		c0.014,0.031,0.014,0.061,0.014,0.088C179.316,51.146,179.303,51.176,179.246,51.219z"/>
	<path fill="#FFFFFF" d="M185.303,57.277c-0.16-0.174-0.262-0.449-0.305-0.771c-0.017-0.13-0.028-0.214-0.028-0.348l-1.279,0.757
		c-0.465,0.273-0.727,0.361-1.221,0.361c-1.612,0-2.253-0.799-2.253-2.832v-3.081c0-0.581-0.175-0.712-0.827-0.712h-0.333v-0.364
		c0.957-0.042,1.858-0.275,2.469-0.624v4.649c0,1.207,0.174,2.093,1.555,2.093c0.828,0,1.496-0.437,1.715-1.148
		c0.13-0.405,0.187-1.032,0.187-1.716v-2.178c0-0.581-0.159-0.712-0.813-0.712h-0.35v-0.364c0.973-0.042,1.859-0.275,2.471-0.624
		c0,2.324,0,5.317,0,5.317c0,1.25,0.071,1.338,0.508,1.338c0.131,0,0.262-0.029,0.493-0.104l0.088,0.408L185.303,57.277z"/>
	<path fill="#FFFFFF" d="M196.708,57.103v-0.378c1.135-0.116,1.163-0.131,1.163-1.438v-2.659c0-1.599-0.378-2.166-1.424-2.166
		c-0.596,0-1.091,0.218-1.394,0.61c-0.394,0.493-0.493,1.062-0.493,2.513v1.701c0,1.307,0.012,1.322,1.176,1.438v0.376h-3.646
		v-0.376c1.132-0.117,1.161-0.132,1.161-1.438v-2.659c0-1.598-0.334-2.166-1.409-2.166c-0.582,0-1.075,0.218-1.379,0.581
		c-0.395,0.479-0.524,1.103-0.524,2.541v1.7c0,1.308,0.016,1.323,1.177,1.438v0.377h-3.647v-0.377
		c1.136-0.117,1.163-0.131,1.163-1.438v-3.922c0-0.567-0.174-0.713-0.827-0.713h-0.336v-0.364c0.974-0.041,1.859-0.274,2.471-0.624
		v1.28c0.725-0.887,1.497-1.28,2.644-1.28c1.018,0,1.482,0.333,1.903,1.28c0.8-0.887,1.583-1.28,2.63-1.28
		c0.974,0,1.554,0.333,1.859,1.061c0.16,0.378,0.204,0.799,0.204,1.524v3.037c0,1.308,0,1.322,1.163,1.438v0.378h-3.634V57.103z"/>
	<path fill="#FFFFFF" d="M206.47,57.277c-0.16-0.174-0.261-0.449-0.305-0.771c-0.016-0.13-0.027-0.214-0.027-0.348l-1.279,0.757
		c-0.465,0.273-0.727,0.361-1.222,0.361c-1.611,0-2.252-0.799-2.252-2.832v-3.081c0-0.581-0.175-0.712-0.828-0.712h-0.333v-0.364
		c0.957-0.042,1.859-0.275,2.47-0.624v4.649c0,1.207,0.174,2.093,1.554,2.093c0.828,0,1.497-0.437,1.714-1.148
		c0.131-0.405,0.188-1.032,0.188-1.716v-2.178c0-0.581-0.159-0.712-0.813-0.712h-0.351v-0.364c0.974-0.042,1.86-0.275,2.472-0.624
		c0,2.324,0,5.317,0,5.317c0,1.25,0.071,1.338,0.507,1.338c0.131,0,0.262-0.029,0.494-0.104l0.087,0.408L206.47,57.277z"/>
	<path fill="#FFFFFF" d="M208.634,57.103v-0.378c1.134-0.116,1.161-0.131,1.161-1.438v-7.222c0-0.378-0.027-0.596-0.172-0.712
		c-0.104-0.087-0.276-0.116-0.568-0.116h-0.405v-0.392c0.813-0.017,1.757-0.176,2.453-0.422v8.862c0,1.307,0,1.322,1.163,1.438
		v0.376h-3.632V57.103z"/>
	<path fill="#FFFFFF" d="M216.975,57.262c-0.218-0.361-0.335-0.756-0.35-1.145l-1.119,0.755c-0.479,0.334-0.711,0.406-1.06,0.406
		c-1.12,0-1.889-0.799-1.889-1.96c0-0.815,0.363-1.382,1.104-1.816c0.35-0.206,0.713-0.364,1.395-0.627l1.584-0.609
		c-0.015-1.541-0.421-2.12-1.25-2.12c-0.682,0-1.059,0.523-1.352,1.059c-0.044,0.088-0.173,0.352-0.303,0.352
		c-0.029,0-0.072,0-0.115-0.016l-0.45-0.116c-0.088-0.031-0.132-0.088-0.116-0.148l0.217-0.813c0.071-0.26,0.117-0.304,0.378-0.421
		c0.538-0.247,1.206-0.378,1.859-0.378c1.715,0,2.442,0.698,2.442,2.324v3.227c0,0.827,0.131,1.089,0.508,1.089
		c0.131,0,0.261-0.027,0.493-0.101l0.088,0.406L216.975,57.262z M216.64,52.819c-0.724,0.258-0.974,0.361-1.292,0.491
		c-1.001,0.422-1.481,1.003-1.481,1.833c0,0.724,0.48,1.233,1.191,1.233c1.029,0,1.582-0.827,1.582-2.425V52.819z"/>
	<path fill="#FFFFFF" d="M222.045,57.277c-0.771-0.027-1.091-0.16-1.41-0.552c-0.291-0.362-0.422-0.858-0.422-1.744v-4.154h-1.162
		v-0.655h1.162v-1.524l0.915-0.8h0.393v2.324h2.223v0.394l-0.596,0.262h-1.627c0,3.851,0,0,0,3.851c0,0.87,0.103,1.742,1.162,1.742
		c0.32,0,0.61-0.072,0.944-0.188l0.116,0.378L222.045,57.277z"/>
	<path fill="#FFFFFF" d="M223.729,57.103v-0.378c1.134-0.116,1.161-0.131,1.161-1.438v-3.924c0-0.581-0.159-0.712-0.826-0.712
		h-0.335v-0.364c0.974-0.042,1.859-0.275,2.47-0.624v5.623c0,1.219-0.028,1.322,1.164,1.438v0.376h-3.634V57.103z M225.372,48.708
		c-0.465,0-0.843-0.378-0.843-0.859c0-0.435,0.392-0.826,0.856-0.826c0.451,0,0.843,0.378,0.843,0.843
		C226.229,48.343,225.852,48.708,225.372,48.708z"/>
	<path fill="#FFFFFF" d="M231.197,57.277c-2.106,0-3.574-1.656-3.574-3.72c0-2.221,1.629-3.893,3.866-3.893
		c2.149,0,3.632,1.526,3.632,3.734C235.121,55.621,233.463,57.277,231.197,57.277z M231.299,50.146
		c-1.713,0-2.237,1.901-2.237,3.297c0,1.961,0.945,3.342,2.325,3.342c1.395,0,2.296-1.264,2.296-3.228
		C233.683,51.467,232.753,50.146,231.299,50.146z"/>
	<path fill="#FFFFFF" d="M240.437,57.103v-0.378c1.25-0.131,1.162-0.291,1.162-1.438V52.6c0-1.585-0.421-2.149-1.643-2.149
		c-1.206,0-1.787,0.652-1.988,1.555c-0.088,0.394-0.118,0.826-0.118,1.497c0,1.786,0,0,0,1.786c0,1.264,0.017,1.279,1.179,1.438
		v0.378h-3.648v-0.378c1.136-0.159,1.163-0.204,1.163-1.438v-3.938c0-0.581-0.174-0.712-0.827-0.712h-0.336v-0.362
		c0.974-0.043,1.861-0.263,2.47-0.611v1.264c0.816-0.871,1.746-1.264,2.907-1.264c1.09,0,1.743,0.465,2.021,1.235
		c0.115,0.35,0.13,0.668,0.13,1.323v3.064c0,1.234-0.057,1.322,1.162,1.438v0.378h-3.633V57.103z"/>
	<path fill="#FFFFFF" d="M250.68,57.277c-0.582,0-1.018-0.088-1.643-0.334v1.962c0,1.277,0.015,1.322,1.496,1.451v0.379h-3.966
		v-0.379c1.133-0.159,1.162-0.202,1.162-1.451v-7.557c0-0.58-0.174-0.711-0.829-0.711h-0.333v-0.362
		c0.974-0.045,1.859-0.263,2.47-0.611v1.191c0.653-0.814,1.512-1.191,2.499-1.191c1.786,0,2.979,1.338,2.979,3.429
		C254.515,55.535,252.887,57.277,250.68,57.277z M250.882,50.363c-0.901,0-1.513,0.522-1.73,1.495
		c-0.071,0.335-0.115,1.12-0.115,1.687v2.558c0.552,0.492,1.061,0.683,1.642,0.683c1.513,0,2.398-1.221,2.398-3.401
		C253.076,51.498,252.233,50.363,250.882,50.363z"/>
	<path fill="#FFFFFF" d="M254.776,57.103v-0.378c1.134-0.116,1.161-0.131,1.161-1.438v-7.222c0-0.378-0.027-0.596-0.173-0.712
		c-0.103-0.087-0.275-0.116-0.567-0.116h-0.405v-0.392c0.813-0.017,1.756-0.176,2.455-0.422v8.862c0,1.307,0,1.322,1.162,1.438
		v0.376h-3.633V57.103z"/>
	<path fill="#FFFFFF" d="M263.113,57.262c-0.217-0.361-0.333-0.756-0.349-1.145l-1.118,0.755c-0.479,0.334-0.713,0.406-1.062,0.406
		c-1.118,0-1.888-0.799-1.888-1.96c0-0.815,0.364-1.382,1.104-1.816c0.351-0.206,0.714-0.364,1.395-0.627l1.585-0.609
		c-0.016-1.541-0.421-2.12-1.25-2.12c-0.682,0-1.06,0.523-1.352,1.059c-0.044,0.088-0.173,0.352-0.304,0.352
		c-0.028,0-0.072,0-0.115-0.016l-0.449-0.116c-0.088-0.031-0.132-0.088-0.116-0.148l0.217-0.813c0.071-0.26,0.117-0.304,0.378-0.421
		c0.538-0.247,1.206-0.378,1.859-0.378c1.714,0,2.441,0.698,2.441,2.324v3.227c0,0.827,0.131,1.089,0.509,1.089
		c0.13,0,0.261-0.027,0.493-0.101l0.087,0.406L263.113,57.262z M262.78,52.819c-0.725,0.258-0.974,0.361-1.293,0.491
		c-1.001,0.422-1.48,1.003-1.48,1.833c0,0.724,0.479,1.233,1.19,1.233c1.03,0,1.583-0.827,1.583-2.425V52.819z"/>
	<path fill="#FFFFFF" d="M270.278,57.103v-0.378c1.248-0.131,1.16-0.291,1.16-1.438V52.6c0-1.585-0.421-2.149-1.641-2.149
		c-1.206,0-1.788,0.652-1.99,1.555c-0.088,0.394-0.117,0.826-0.117,1.497c0,1.786,0,0,0,1.786c0,1.264,0.016,1.279,1.179,1.438
		v0.378h-3.648v-0.378c1.135-0.159,1.163-0.204,1.163-1.438v-3.938c0-0.581-0.174-0.712-0.827-0.712h-0.336v-0.362
		c0.973-0.043,1.861-0.263,2.47-0.611v1.264c0.815-0.871,1.745-1.264,2.908-1.264c1.089,0,1.741,0.465,2.02,1.235
		c0.115,0.35,0.131,0.668,0.131,1.323v3.064c0,1.234-0.059,1.322,1.16,1.438v0.378h-3.631V57.103z"/>
</g>
</svg>
