<?xml version="1.0" encoding="utf-8"?>
<!-- Generator: Adobe Illustrator 16.0.0, SVG Export Plug-In . SVG Version: 6.00 Build 0)  -->
<!DOCTYPE svg PUBLIC "-//W3C//DTD SVG 1.1//EN" "http://www.w3.org/Graphics/SVG/1.1/DTD/svg11.dtd">
<svg version="1.1" id="new_logo" xmlns="http://www.w3.org/2000/svg" xmlns:xlink="http://www.w3.org/1999/xlink" x="0px" y="0px"
	 width="346px" height="79px" viewBox="-11.5 -2.667 346 79" enable-background="new -11.5 -2.667 346 79" xml:space="preserve">
<rect x="-11.5" y="-3.019" fill="#B1171E" width="170.37" height="79.301"/>
<rect x="164.46" y="-3.019" fill="#939598" width="170.04" height="79.301"/>
<g>
	<path fill="#FFFFFF" d="M190.813,24.104c-0.071,0.288-0.115,0.347-0.537,0.491c-0.873,0.304-2.068,0.463-3.057,0.463
		c-1.369,0-2.665-0.405-3.686-1.171c-1.148-0.866-1.905-2.225-1.905-4.016c0-1.459,0.655-3.079,2.064-4.133
		c0.933-0.693,2.187-1.141,3.806-1.141c1.005,0,2.111,0.217,2.766,0.491c0.424,0.172,0.553,0.304,0.553,0.65v1.777h-0.376
		c-0.046-0.506-0.135-0.881-0.281-1.155c-0.422-0.795-1.617-1.271-2.824-1.271c-2.491,0-4.047,1.72-4.047,4.652
		c0,1.574,0.451,2.946,1.381,3.828c0.67,0.621,1.589,0.998,2.77,0.998c1.149,0,2.184-0.391,2.825-1.184
		c0.232-0.29,0.362-0.535,0.609-1.084h0.381L190.813,24.104z"/>
	<path fill="#FFFFFF" d="M195.041,25.057c-0.818,0-2.009-0.232-2.39-0.419c-0.145-0.072-0.159-0.116-0.159-0.304v-2.038h0.367
		c0.112,0.679,0.22,1.011,0.422,1.314c0.406,0.593,1.136,0.954,1.862,0.954c1.123,0,1.952-0.795,1.952-1.879
		c0-1.011-0.494-1.603-2.664-3.106c-1.353-0.94-1.806-1.503-1.806-2.471c0-1.734,1.659-2.514,3.188-2.514
		c0.686,0,1.499,0.087,1.864,0.231c0.175,0.072,0.22,0.116,0.22,0.274v1.85h-0.382c-0.203-1.271-0.757-1.85-1.85-1.85
		c-0.96,0-1.572,0.592-1.572,1.547c0,0.348,0.102,0.665,0.277,0.881c0.32,0.391,0.289,0.42,2.185,1.82
		c1.554,1.155,2.05,1.791,2.05,2.875C198.609,23.914,197.164,25.057,195.041,25.057z"/>
	<path fill="#FFFFFF" d="M209.268,24.104c-0.071,0.288-0.114,0.347-0.54,0.491c-0.87,0.304-2.066,0.463-3.056,0.463
		c-1.369,0-2.664-0.405-3.685-1.171c-1.147-0.866-1.904-2.225-1.904-4.016c0-1.459,0.653-3.079,2.066-4.133
		c0.934-0.693,2.186-1.141,3.802-1.141c1.005,0,2.114,0.217,2.767,0.491c0.424,0.172,0.555,0.304,0.555,0.65v1.777h-0.379
		c-0.042-0.506-0.13-0.881-0.276-1.155c-0.425-0.795-1.617-1.271-2.824-1.271c-2.49,0-4.049,1.72-4.049,4.652
		c0,1.574,0.452,2.946,1.384,3.828c0.668,0.621,1.585,0.998,2.766,0.998c1.149,0,2.184-0.391,2.824-1.184
		c0.236-0.29,0.366-0.535,0.613-1.084h0.379L209.268,24.104z"/>
	<path fill="#FFFFFF" d="M186.227,38.102l-0.335,0.263c-0.044,0.026-0.087,0.068-0.148,0.068c-0.044,0-0.101-0.025-0.13-0.042
		l-0.479-0.243c-0.158-0.086-0.278-0.104-0.469-0.104c-0.335,0-0.523,0.19-0.67,0.551c-0.131,0.332-0.131,1.112-0.131,1.503v2.255
		c0,1.399,0.117,1.354,1.471,1.428v0.376h-3.976V43.78c1.209-0.055,1.195-0.174,1.195-1.428v-3.903c0-0.577-0.174-0.708-0.83-0.708
		h-0.333v-0.36c0.975-0.044,1.847-0.275,2.473-0.621v1.328l0.672-0.778c0.424-0.492,0.537-0.549,0.859-0.549
		c0.234,0,0.379,0.113,0.553,0.432l0.365,0.651c0.029,0.056,0.045,0.086,0.045,0.113C186.358,38.019,186.313,38.044,186.227,38.102z
		"/>
	<path fill="#FFFFFF" d="M191.413,44.328h-0.379c-1.398,0-2.199-0.332-2.837-1.098c-0.643-0.778-0.992-1.819-0.992-2.815
		c0-0.981,0.364-1.966,0.975-2.643c0.584-0.651,1.442-1.011,2.402-1.011c1.297,0,2.201,0.664,2.563,1.848
		c0.133,0.434,0.177,0.781,0.162,1.546h-4.691c0.018,1.056,0.279,1.892,0.774,2.471c0.479,0.562,1.136,0.865,2.011,0.865
		c0.537,0,0.96-0.128,1.687-0.489l0.22,0.432L191.413,44.328z M190.479,37.237c-0.828,0-1.441,0.506-1.705,1.398
		c-0.086,0.276-0.111,0.507-0.157,0.996h2.505c0.655,0,0.933-0.241,0.933-0.836C192.055,37.914,191.4,37.237,190.479,37.237z"/>
	<path fill="#FFFFFF" d="M197.343,44.328c-0.772-0.026-1.093-0.157-1.411-0.55c-0.291-0.358-0.424-0.852-0.424-1.733v-4.133h-1.166
		v-0.649h1.166v-1.517l0.916-0.793h0.394v2.311h2.228v0.393l-0.601,0.256h-1.629c0,3.832,0,0,0,3.832
		c0,0.863,0.102,1.732,1.165,1.732c0.321,0,0.608-0.071,0.945-0.188l0.117,0.376L197.343,44.328z"/>
	<path fill="#FFFFFF" d="M199.951,44.156V43.78c1.136-0.116,1.166-0.131,1.166-1.43v-3.903c0-0.577-0.16-0.709-0.832-0.709h-0.334
		V37.38c0.974-0.044,1.859-0.275,2.478-0.621v5.591c0,1.212-0.029,1.312,1.165,1.43v0.376H199.951z M201.593,35.807
		c-0.464,0-0.84-0.376-0.84-0.853c0-0.433,0.391-0.822,0.859-0.822c0.452,0,0.844,0.375,0.844,0.837
		C202.456,35.445,202.074,35.807,201.593,35.807z"/>
	<path fill="#FFFFFF" d="M209.521,38.102l-0.335,0.263c-0.045,0.026-0.089,0.068-0.148,0.068c-0.044,0-0.101-0.025-0.133-0.042
		l-0.478-0.243c-0.158-0.086-0.277-0.104-0.468-0.104c-0.334,0-0.522,0.19-0.669,0.551c-0.133,0.332-0.133,1.112-0.133,1.503v2.255
		c0,1.399,0.118,1.354,1.472,1.428v0.376h-3.976V43.78c1.211-0.055,1.194-0.174,1.194-1.428v-3.903c0-0.577-0.175-0.708-0.83-0.708
		h-0.335v-0.36c0.977-0.044,1.85-0.275,2.475-0.621v1.328l0.675-0.778c0.423-0.492,0.537-0.549,0.857-0.549
		c0.234,0,0.379,0.113,0.554,0.432l0.365,0.651c0.031,0.056,0.045,0.086,0.045,0.113C209.652,38.019,209.609,38.044,209.521,38.102z
		"/>
	<path fill="#FFFFFF" d="M214.705,44.328h-0.379c-1.396,0-2.201-0.332-2.839-1.098c-0.64-0.778-0.989-1.819-0.989-2.815
		c0-0.981,0.364-1.966,0.978-2.643c0.582-0.651,1.439-1.011,2.401-1.011c1.295,0,2.197,0.664,2.562,1.848
		c0.131,0.434,0.175,0.781,0.16,1.546h-4.688c0.014,1.056,0.275,1.892,0.771,2.471c0.481,0.562,1.135,0.865,2.012,0.865
		c0.538,0,0.958-0.128,1.686-0.489l0.22,0.432L214.705,44.328z M213.774,37.237c-0.829,0-1.441,0.506-1.705,1.398
		c-0.085,0.276-0.112,0.507-0.156,0.996h2.504c0.652,0,0.932-0.241,0.932-0.836C215.349,37.914,214.695,37.237,213.774,37.237z"/>
	<path fill="#FFFFFF" d="M227.044,44.156V43.78c1.136-0.116,1.165-0.131,1.165-1.43v-2.646c0-1.59-0.381-2.15-1.428-2.15
		c-0.598,0-1.094,0.216-1.399,0.606c-0.391,0.491-0.495,1.055-0.495,2.499v1.692c0,1.3,0.016,1.312,1.18,1.43v0.376h-3.652v-0.376
		c1.135-0.116,1.166-0.13,1.166-1.43v-2.646c0-1.588-0.338-2.15-1.414-2.15c-0.581,0-1.077,0.218-1.383,0.576
		c-0.391,0.477-0.525,1.096-0.525,2.527v1.694c0,1.3,0.017,1.31,1.181,1.428v0.376h-3.653v-0.376c1.138-0.116,1.165-0.13,1.165-1.43
		v-3.903c0-0.563-0.177-0.706-0.828-0.706h-0.337v-0.361c0.976-0.044,1.862-0.275,2.475-0.621v1.271
		c0.731-0.881,1.5-1.271,2.651-1.271c1.021,0,1.487,0.33,1.908,1.271c0.802-0.881,1.586-1.271,2.637-1.271
		c0.975,0,1.556,0.33,1.864,1.053c0.156,0.377,0.2,0.795,0.2,1.518v3.022c0,1.3,0,1.31,1.165,1.428v0.376h-3.64v-0.002H227.044z"/>
	<path fill="#FFFFFF" d="M236.08,44.328h-0.38c-1.398,0-2.203-0.332-2.839-1.098c-0.643-0.778-0.991-1.819-0.991-2.815
		c0-0.981,0.364-1.966,0.975-2.643c0.585-0.651,1.442-1.011,2.4-1.011c1.297,0,2.2,0.664,2.565,1.848
		c0.131,0.434,0.176,0.781,0.158,1.546h-4.688c0.017,1.056,0.278,1.892,0.773,2.471c0.478,0.562,1.137,0.865,2.009,0.865
		c0.539,0,0.961-0.128,1.688-0.489l0.218,0.432L236.08,44.328z M235.146,37.237c-0.829,0-1.441,0.506-1.701,1.398
		c-0.089,0.276-0.117,0.507-0.16,0.996h2.502c0.654,0,0.934-0.241,0.934-0.836C236.716,37.914,236.063,37.237,235.146,37.237z"/>
	<path fill="#FFFFFF" d="M244.218,44.156V43.78c1.256-0.131,1.169-0.289,1.169-1.43v-2.674c0-1.575-0.424-2.141-1.645-2.141
		c-1.21,0-1.793,0.651-1.995,1.546c-0.087,0.39-0.117,0.822-0.117,1.487c0,1.779,0,0,0,1.779c0,1.255,0.018,1.268,1.181,1.43v0.375
		h-3.654v-0.375c1.135-0.157,1.164-0.201,1.164-1.43v-3.92c0-0.575-0.174-0.705-0.826-0.705h-0.336v-0.36
		c0.975-0.043,1.863-0.26,2.477-0.607v1.258c0.815-0.867,1.747-1.258,2.912-1.258c1.095,0,1.747,0.462,2.025,1.23
		c0.115,0.345,0.13,0.665,0.13,1.312v3.049c0,1.227-0.06,1.312,1.165,1.43v0.376h-3.645v0.004H244.218z"/>
	<path fill="#FFFFFF" d="M251.901,44.328c-0.776-0.026-1.095-0.157-1.415-0.55c-0.291-0.358-0.424-0.852-0.424-1.733v-4.133h-1.163
		v-0.649h1.163v-1.517l0.918-0.793h0.394v2.311h2.229v0.393l-0.599,0.256h-1.63c0,3.832,0,0,0,3.832
		c0,0.863,0.103,1.732,1.165,1.732c0.318,0,0.61-0.071,0.945-0.188l0.118,0.376L251.901,44.328z"/>
	<path fill="#FFFFFF" d="M181.362,63.432v-0.376c1.138-0.118,1.167-0.132,1.167-1.431v-3.904c0-0.575-0.159-0.708-0.831-0.708
		h-0.334v-0.359c0.975-0.044,1.862-0.276,2.477-0.62v5.592c0,1.213-0.029,1.313,1.165,1.431v0.376H181.362L181.362,63.432z
		 M183.009,55.08c-0.468,0-0.844-0.376-0.844-0.853c0-0.433,0.392-0.822,0.857-0.822c0.452,0,0.846,0.378,0.846,0.839
		C183.864,54.718,183.489,55.08,183.009,55.08z"/>
	<path fill="#FFFFFF" d="M191.137,63.432v-0.376c1.253-0.132,1.166-0.291,1.166-1.431v-2.677c0-1.572-0.424-2.139-1.646-2.139
		c-1.208,0-1.791,0.65-1.993,1.545c-0.087,0.392-0.119,0.823-0.119,1.491c0,1.777,0,0,0,1.777c0,1.254,0.02,1.271,1.185,1.429v0.376
		h-3.657v-0.376c1.138-0.156,1.167-0.203,1.167-1.429v-3.916c0-0.58-0.175-0.711-0.83-0.711h-0.335v-0.361
		c0.975-0.042,1.864-0.26,2.475-0.605v1.258c0.818-0.866,1.748-1.258,2.915-1.258c1.093,0,1.747,0.462,2.026,1.229
		c0.114,0.347,0.129,0.665,0.129,1.314v3.048c0,1.225-0.06,1.312,1.165,1.432v0.374h-3.645v0.006H191.137z"/>
	<path fill="#FFFFFF" d="M202.104,57.576l-0.47,0.278c-0.025,0.015-0.084,0.026-0.128,0.026c-0.042,0-0.088-0.026-0.13-0.086
		l-0.643-0.751c-0.308-0.346-0.687-0.52-1.15-0.52c-1.324,0-2.185,1.171-2.185,2.847c0,1.923,1.036,3.394,2.739,3.394
		c0.54,0,0.947-0.128,1.659-0.505l0.249,0.433l-1.939,0.907h-0.351c-1.146,0-2.066-0.375-2.704-1.008
		c-0.714-0.708-1.095-1.721-1.095-2.849c0-2.123,1.63-3.712,3.904-3.712c0.697,0,1.268,0.128,1.772,0.378l0.527,0.967
		c0.012,0.025,0.012,0.059,0.012,0.087C202.173,57.508,202.163,57.536,202.104,57.576z"/>
	<path fill="#FFFFFF" d="M206.797,63.602c-2.111,0-3.582-1.645-3.582-3.697c0-2.209,1.631-3.871,3.873-3.871
		c2.154,0,3.639,1.518,3.639,3.71C210.73,61.957,209.066,63.602,206.797,63.602z M206.895,56.511c-1.715,0-2.24,1.892-2.24,3.277
		c0,1.953,0.946,3.325,2.329,3.325c1.401,0,2.301-1.257,2.301-3.211C209.286,57.825,208.354,56.511,206.895,56.511z"/>
	<path fill="#FFFFFF" d="M221.173,63.432v-0.376c1.138-0.118,1.165-0.132,1.165-1.431v-2.644c0-1.59-0.378-2.154-1.428-2.154
		c-0.595,0-1.092,0.219-1.398,0.609c-0.392,0.492-0.494,1.054-0.494,2.499v1.693c0,1.299,0.015,1.312,1.18,1.432v0.375h-3.654
		v-0.375c1.136-0.118,1.164-0.133,1.164-1.432v-2.647c0-1.59-0.334-2.154-1.409-2.154c-0.584,0-1.08,0.219-1.385,0.58
		c-0.393,0.476-0.523,1.098-0.523,2.528v1.693c0,1.299,0.015,1.312,1.183,1.432v0.375h-3.657v-0.375
		c1.138-0.118,1.167-0.133,1.167-1.432v-3.904c0-0.561-0.176-0.708-0.83-0.708h-0.335v-0.358c0.975-0.045,1.862-0.279,2.477-0.621
		v1.269c0.726-0.882,1.498-1.269,2.649-1.269c1.019,0,1.487,0.33,1.907,1.269c0.802-0.882,1.587-1.269,2.637-1.269
		c0.976,0,1.557,0.33,1.862,1.053c0.159,0.377,0.205,0.793,0.205,1.517v3.022c0,1.299,0,1.312,1.165,1.432v0.375h-3.645v-0.004
		H221.173z"/>
	<path fill="#FFFFFF" d="M230.206,63.602h-0.378c-1.399,0-2.201-0.33-2.842-1.097c-0.64-0.779-0.988-1.819-0.988-2.816
		c0-0.981,0.363-1.966,0.975-2.643c0.583-0.649,1.44-1.009,2.401-1.009c1.298,0,2.199,0.663,2.563,1.846
		c0.131,0.433,0.176,0.781,0.161,1.546h-4.688c0.014,1.056,0.275,1.894,0.771,2.471c0.479,0.565,1.139,0.865,2.009,0.865
		c0.536,0,0.96-0.128,1.688-0.491l0.22,0.435L230.206,63.602z M229.275,56.511c-0.828,0-1.445,0.504-1.704,1.398
		c-0.086,0.277-0.115,0.507-0.159,0.997h2.504c0.654,0,0.932-0.242,0.932-0.836C230.848,57.189,230.195,56.511,229.275,56.511z"/>
</g>
<g>
	<path fill="#FFFFFF" d="M48.928,44.438c-0.133,0.594-0.266,0.757-1.063,1.054c-2.125,0.792-4.949,1.286-7.274,1.286
		c-3.123,0-6.211-0.857-8.436-2.604c-2.558-2.009-4.251-5.239-4.251-9.26c0-3.658,1.495-7.118,4.683-9.523
		c2.092-1.582,5.182-2.473,8.769-2.473c2.291,0,4.683,0.495,6.344,1.186c0.863,0.363,1.162,0.658,1.162,1.351v4.12h-0.929
		c-0.2-1.021-0.465-1.779-0.831-2.407c-1.129-1.944-3.455-2.999-5.879-2.999c-5.048,0-8.204,3.988-8.204,10.579
		c0,3.36,0.863,6.293,2.557,8.272c1.295,1.516,3.289,2.47,5.646,2.47c2.392,0,4.65-0.92,6.112-2.699
		c0.598-0.728,0.996-1.353,1.627-2.606h0.897L48.928,44.438z"/>
	<path fill="#FFFFFF" d="M58.256,46.778c-2.258,0-5.182-0.56-6.244-1.086c-0.266-0.133-0.333-0.231-0.333-0.594v-4.943h0.93
		c0.266,1.318,0.564,2.208,1.029,2.998c0.863,1.385,2.291,2.339,4.119,2.339c2.492,0,4.318-1.779,4.318-4.118
		c0-1.944-1.096-3.427-5.614-6.592c-3.221-2.24-4.551-3.79-4.551-6.195c0-4.252,4.452-5.668,8.005-5.668
		c1.96,0,4.285,0.198,5.016,0.527c0.398,0.165,0.465,0.296,0.465,0.791v4.284h-0.93c-0.93-3.065-2.16-4.318-4.318-4.318
		c-1.926,0-3.255,1.318-3.255,3.262c0,0.659,0.166,1.253,0.464,1.714c0.598,0.988,0.93,1.318,3.987,3.56
		c4.351,3.197,5.812,4.941,5.812,7.581C67.158,44.241,63.703,46.778,58.256,46.778z"/>
	<path fill="#FFFFFF" d="M90.37,44.438c-0.133,0.594-0.266,0.757-1.063,1.054c-2.125,0.792-4.949,1.286-7.274,1.286
		c-3.123,0-6.21-0.857-8.436-2.604c-2.557-2.009-4.251-5.239-4.251-9.26c0-3.658,1.494-7.118,4.683-9.523
		c2.093-1.582,5.182-2.473,8.769-2.473c2.293,0,4.684,0.495,6.345,1.186c0.862,0.363,1.162,0.658,1.162,1.351v4.12h-0.93
		c-0.2-1.021-0.466-1.779-0.83-2.407c-1.129-1.944-3.455-2.999-5.879-2.999c-5.048,0-8.203,3.988-8.203,10.579
		c0,3.36,0.863,6.293,2.558,8.272c1.295,1.516,3.288,2.47,5.647,2.47c2.391,0,4.65-0.92,6.11-2.699
		c0.599-0.728,0.998-1.353,1.629-2.606h0.896L90.37,44.438z"/>
	<path fill="#FFFFFF" d="M105.278,33.201l-0.698,0.856c-0.099,0.132-0.265,0.297-0.465,0.297c-0.199,0-0.398-0.099-0.565-0.165
		l-1.527-0.626c-0.432-0.166-0.731-0.331-1.162-0.331c-0.698,0-1.096,0.428-1.396,1.351c-0.232,0.758-0.266,2.208-0.266,3.296v4.612
		c0,2.737,0.399,2.638,3.023,2.868v1.023H92.19V45.36c2.458-0.197,2.624-0.295,2.624-2.868v-8.567c0-1.417-0.433-1.911-1.793-1.977
		c0,0-0.664-0.033-0.797-0.033v-0.989c2.822-0.066,5.247-0.594,6.974-1.416v3.459l1.529-1.911c0.963-1.187,1.361-1.55,2.191-1.55
		c0.631,0,1.03,0.429,1.428,1.054l1.063,1.648c0.132,0.198,0.166,0.296,0.166,0.429C105.577,32.806,105.51,32.937,105.278,33.201z"
		/>
	<path fill="#FFFFFF" d="M106.438,46.384v-1.021c2.457-0.232,2.556-0.33,2.556-2.867v-8.569c0-1.417-0.432-2.011-1.827-2.011
		c0,0-0.597,0-0.729,0v-0.989c2.822-0.066,5.28-0.594,6.974-1.416v12.982c0,2.506,0.167,2.604,2.558,2.868v1.023H106.438
		L106.438,46.384z M110.921,27.764c-1.362,0-2.425-1.087-2.425-2.439c0-1.252,1.096-2.34,2.425-2.34c1.33,0,2.424,1.055,2.424,2.407
		C113.345,26.741,112.283,27.764,110.921,27.764z"/>
</g>
</svg>
