<?xml version="1.0" encoding="utf-8"?>
<!-- Generator: Adobe Illustrator 16.0.0, SVG Export Plug-In . SVG Version: 6.00 Build 0)  -->
<!DOCTYPE svg PUBLIC "-//W3C//DTD SVG 1.1//EN" "http://www.w3.org/Graphics/SVG/1.1/DTD/svg11.dtd">
<svg version="1.1" id="new_logo" xmlns="http://www.w3.org/2000/svg" xmlns:xlink="http://www.w3.org/1999/xlink" x="0px" y="0px"
	 width="346px" height="79px" viewBox="-11.167 -2.906 346 79" enable-background="new -11.167 -2.906 346 79" xml:space="preserve"
	>
<rect x="-11.167" y="-3.045" fill="#B95915" width="171.214" height="79.632"/>
<rect x="164.446" y="-3.045" fill="#939598" width="170.388" height="79.632"/>
<rect x="26.788" y="18.903" fill="none" width="101.378" height="30.292"/>
<g enable-background="new    ">
	<path fill="#FFFFFF" d="M43.563,30.826c-0.079-2.136-0.158-4.722-0.158-7.307h-0.079c-0.553,2.268-1.292,4.8-1.978,6.885
		l-2.163,6.937h-3.14l-1.899-6.884c-0.58-2.084-1.187-4.617-1.609-6.937h-0.052c-0.106,2.399-0.185,5.143-0.317,7.358l-0.316,6.753
		h-3.72l1.135-17.779h5.354l1.74,5.935c0.555,2.058,1.108,4.273,1.504,6.357h0.079c0.501-2.058,1.108-4.405,1.688-6.384l1.899-5.91
		h5.249l0.977,17.779h-3.93L43.563,30.826z"/>
	<path fill="#FFFFFF" d="M55.016,21.145c0,1.108-0.845,2.004-2.163,2.004c-1.266,0-2.11-0.896-2.084-2.004
		c-0.025-1.16,0.818-2.031,2.11-2.031C54.172,19.114,54.989,19.985,55.016,21.145z M50.873,37.632V24.733h4.01v12.898H50.873z"/>
	<path fill="#FFFFFF" d="M58.103,18.903h4.01v18.729h-4.01V18.903z"/>
	<path fill="#FFFFFF" d="M69.499,21.145c0,1.108-0.844,2.004-2.163,2.004c-1.266,0-2.11-0.896-2.083-2.004
		c-0.026-1.16,0.818-2.031,2.11-2.031C68.656,19.114,69.472,19.985,69.499,21.145z M65.357,37.632V24.733h4.01v12.898H65.357z"/>
	<path fill="#FFFFFF" d="M77.071,21.04v3.693h2.875v2.956h-2.875v4.668c0,1.556,0.369,2.269,1.583,2.269
		c0.501,0,0.896-0.052,1.187-0.106l0.027,3.034c-0.528,0.21-1.477,0.342-2.612,0.342c-1.293,0-2.374-0.448-3.007-1.108
		c-0.738-0.765-1.108-2.005-1.108-3.824v-5.275h-1.715v-2.956h1.715v-2.796L77.071,21.04z"/>
	<path fill="#FFFFFF" d="M89.602,37.632l-0.236-1.292h-0.079c-0.845,1.029-2.163,1.583-3.693,1.583
		c-2.612,0-4.167-1.899-4.167-3.956c0-3.352,3.007-4.959,7.571-4.933v-0.184c0-0.687-0.369-1.662-2.348-1.662
		c-1.319,0-2.717,0.448-3.561,0.976l-0.738-2.585c0.896-0.501,2.664-1.133,5.012-1.133c4.3,0,5.672,2.533,5.672,5.565v4.484
		c0,1.241,0.052,2.426,0.185,3.138L89.602,37.632L89.602,37.632z M89.127,31.538c-2.111-0.025-3.747,0.475-3.747,2.032
		c0,1.029,0.687,1.53,1.583,1.53c1.002,0,1.82-0.658,2.083-1.477c0.053-0.211,0.079-0.448,0.079-0.685L89.127,31.538L89.127,31.538z
		"/>
	<path fill="#FFFFFF" d="M96.199,28.98c0-1.9-0.052-3.139-0.106-4.247h3.456l0.132,2.374h0.106c0.66-1.874,2.243-2.664,3.481-2.664
		c0.369,0,0.555,0,0.845,0.052v3.772c-0.29-0.053-0.633-0.106-1.081-0.106c-1.478,0-2.479,0.792-2.743,2.032
		c-0.053,0.265-0.079,0.58-0.079,0.897v6.542H96.2L96.199,28.98L96.199,28.98z"/>
	<path fill="#FFFFFF" d="M109.706,24.733l1.926,6.332c0.211,0.764,0.475,1.713,0.633,2.399h0.079
		c0.185-0.687,0.396-1.662,0.581-2.399l1.582-6.332h4.3l-3.008,8.493c-1.846,5.118-3.086,7.176-4.537,8.468
		c-1.398,1.213-2.875,1.635-3.877,1.768l-0.845-3.403c0.501-0.079,1.133-0.317,1.74-0.686c0.606-0.317,1.267-0.951,1.663-1.61
		c0.132-0.186,0.211-0.396,0.211-0.58c0-0.132-0.026-0.342-0.185-0.66l-4.721-11.791L109.706,24.733L109.706,24.733z"/>
</g>
<rect x="52.683" y="32.766" fill="none" width="74.752" height="29.314"/>
<g enable-background="new    ">
	<path fill="#ECBC2F" d="M54.465,49.586c1.085,0.668,2.672,1.225,4.343,1.225c2.479,0,3.926-1.311,3.926-3.202
		c0-1.755-1.002-2.756-3.535-3.73c-3.063-1.087-4.956-2.673-4.956-5.318c0-2.923,2.422-5.094,6.069-5.094
		c1.922,0,3.313,0.445,4.149,0.917l-0.669,1.978c-0.612-0.334-1.865-0.89-3.564-0.89c-2.562,0-3.535,1.531-3.535,2.812
		c0,1.754,1.141,2.617,3.73,3.619c3.175,1.226,4.79,2.758,4.79,5.515c0,2.895-2.144,5.4-6.572,5.4c-1.81,0-3.786-0.529-4.789-1.197
		L54.465,49.586z"/>
	<path fill="#ECBC2F" d="M79.721,48.861c0,1.393,0.028,2.617,0.111,3.676H77.66l-0.139-2.201h-0.056
		c-0.641,1.088-2.061,2.509-4.454,2.509c-2.116,0-4.65-1.172-4.65-5.904v-7.879h2.45v7.46c0,2.563,0.779,4.289,3.007,4.289
		c1.642,0,2.784-1.142,3.229-2.227c0.139-0.362,0.223-0.809,0.223-1.253v-8.27h2.45L79.721,48.861L79.721,48.861z"/>
	<path fill="#ECBC2F" d="M83.79,43.462c0-1.727-0.056-3.12-0.111-4.399h2.2l0.111,2.312h0.055c1.002-1.644,2.59-2.618,4.79-2.618
		c3.258,0,5.708,2.756,5.708,6.85c0,4.845-2.952,7.239-6.126,7.239c-1.782,0-3.341-0.778-4.148-2.115h-0.056v7.322h-2.422
		L83.79,43.462L83.79,43.462z M86.211,47.052c0,0.363,0.055,0.696,0.111,1.003c0.444,1.698,1.92,2.866,3.675,2.866
		c2.589,0,4.093-2.113,4.093-5.206c0-2.701-1.42-5.012-4.01-5.012c-1.67,0-3.229,1.196-3.703,3.035
		c-0.084,0.307-0.167,0.669-0.167,1.001L86.211,47.052L86.211,47.052z"/>
	<path fill="#ECBC2F" d="M100.999,46.244c0.056,3.313,2.172,4.678,4.622,4.678c1.754,0,2.813-0.305,3.732-0.693l0.418,1.754
		c-0.864,0.39-2.338,0.835-4.483,0.835c-4.148,0-6.626-2.729-6.626-6.794c0-4.063,2.395-7.266,6.32-7.266
		c4.399,0,5.569,3.871,5.569,6.349c0,0.501-0.056,0.891-0.083,1.141L100.999,46.244L100.999,46.244z M108.183,44.492
		c0.028-1.56-0.641-3.982-3.396-3.982c-2.479,0-3.564,2.284-3.758,3.982H108.183z"/>
	<path fill="#ECBC2F" d="M113.586,43.264c0-1.586-0.027-2.95-0.111-4.202h2.143l0.084,2.644h0.111
		c0.612-1.81,2.088-2.952,3.731-2.952c0.279,0,0.474,0.027,0.695,0.085v2.311c-0.25-0.057-0.501-0.084-0.834-0.084
		c-1.727,0-2.951,1.309-3.286,3.146c-0.056,0.334-0.111,0.726-0.111,1.143v7.182h-2.422L113.586,43.264L113.586,43.264z"/>
</g>
<rect x="179.834" y="10.047" fill="none" width="145.472" height="61.192"/>
<g enable-background="new    ">
	<path fill="#FFFFFF" d="M193.299,12.704v7.192c0,1.468,0,1.484,1.37,1.597v0.42h-4.306v-0.419c1.355-0.081,1.371-0.097,1.371-1.597
		V13.14l-4.612,8.87h-0.241l-4.227-8.87v6.597c0,1.322,0.242,1.628,1.469,1.757v0.42h-3.628v-0.42
		c1.241-0.129,1.482-0.435,1.482-1.757v-7.306c-0.208-0.451-0.5-0.822-0.854-1.064c-0.307-0.193-0.646-0.322-1.017-0.322v-0.42
		h2.983l4.371,9.143l4.741-9.143h2.69v0.418C193.782,11.092,193.299,11.544,193.299,12.704z"/>
	<path fill="#FFFFFF" d="M195.844,21.914v-0.42c1.258-0.129,1.289-0.145,1.289-1.597v-4.354c0-0.644-0.177-0.791-0.918-0.791h-0.371
		v-0.403c1.081-0.048,2.064-0.306,2.741-0.692v6.24c0,1.355-0.032,1.468,1.29,1.597v0.42H195.844z M197.666,12.592
		c-0.516,0-0.936-0.42-0.936-0.952c0-0.483,0.436-0.918,0.953-0.918c0.5,0,0.936,0.419,0.936,0.936
		C198.619,12.189,198.198,12.592,197.666,12.592z"/>
	<path fill="#FFFFFF" d="M200.841,21.914v-0.42c1.258-0.129,1.289-0.145,1.289-1.597v-8.015c0-0.419-0.031-0.661-0.193-0.79
		c-0.112-0.097-0.307-0.129-0.628-0.129h-0.452v-0.435c0.902-0.016,1.951-0.194,2.726-0.467v9.836c0,1.452,0,1.468,1.29,1.597v0.42
		H200.841z"/>
	<path fill="#FFFFFF" d="M205.84,21.914v-0.42c1.258-0.129,1.289-0.145,1.289-1.597v-4.354c0-0.644-0.177-0.791-0.919-0.791h-0.37
		v-0.403c1.081-0.048,2.063-0.306,2.741-0.692v6.24c0,1.355-0.032,1.468,1.289,1.597v0.42H205.84z M207.662,12.592
		c-0.516,0-0.936-0.42-0.936-0.952c0-0.483,0.436-0.918,0.953-0.918c0.5,0,0.936,0.419,0.936,0.936
		C208.615,12.189,208.194,12.592,207.662,12.592z"/>
	<path fill="#FFFFFF" d="M214.126,22.106c-0.854-0.032-1.209-0.178-1.564-0.613c-0.323-0.403-0.467-0.951-0.467-1.934v-4.613h-1.289
		v-0.725h1.289v-1.694l1.015-0.888h0.435v2.582h2.467v0.434l-0.662,0.291h-1.805c0,4.273,0,0,0,4.273
		c0,0.967,0.111,1.935,1.292,1.935c0.354,0,0.677-0.08,1.046-0.209l0.129,0.419L214.126,22.106z"/>
	<path fill="#FFFFFF" d="M222.029,22.091c-0.244-0.403-0.373-0.839-0.388-1.274l-1.241,0.838c-0.531,0.371-0.789,0.452-1.177,0.452
		c-1.241,0-2.098-0.887-2.098-2.178c0-0.903,0.404-1.533,1.225-2.015c0.388-0.226,0.792-0.403,1.55-0.693l1.754-0.677
		c-0.015-1.71-0.467-2.354-1.385-2.354c-0.759,0-1.18,0.58-1.5,1.177c-0.05,0.096-0.194,0.387-0.338,0.387
		c-0.031,0-0.081,0-0.129-0.016l-0.502-0.129c-0.096-0.032-0.146-0.097-0.127-0.162l0.243-0.903
		c0.079-0.291,0.128-0.338,0.419-0.468c0.598-0.274,1.34-0.418,2.066-0.418c1.901,0,2.708,0.774,2.708,2.58v3.58
		c0,0.919,0.146,1.21,0.564,1.21c0.146,0,0.289-0.032,0.548-0.113l0.098,0.451L222.029,22.091z M221.656,17.156
		c-0.806,0.29-1.079,0.403-1.436,0.548c-1.112,0.467-1.643,1.112-1.643,2.032c0,0.806,0.53,1.371,1.322,1.371
		c1.144,0,1.756-0.919,1.756-2.692V17.156L221.656,17.156z"/>
	<path fill="#FFFFFF" d="M230.558,15.156l-0.373,0.29c-0.048,0.032-0.098,0.08-0.16,0.08c-0.048,0-0.112-0.032-0.146-0.048
		l-0.531-0.274c-0.177-0.098-0.307-0.113-0.517-0.113c-0.371,0-0.579,0.21-0.741,0.613c-0.145,0.371-0.145,1.243-0.145,1.678v2.515
		c0,1.564,0.13,1.516,1.627,1.597v0.42h-4.401v-0.42c1.338-0.064,1.321-0.194,1.321-1.597v-4.354c0-0.644-0.194-0.791-0.919-0.791
		h-0.371v-0.403c1.081-0.048,2.048-0.306,2.741-0.692v1.483l0.739-0.87c0.469-0.549,0.599-0.613,0.954-0.613
		c0.257,0,0.419,0.129,0.612,0.484l0.402,0.726c0.031,0.066,0.05,0.096,0.05,0.129C230.702,15.059,230.654,15.091,230.558,15.156z"
		/>
	<path fill="#FFFFFF" d="M238.973,15.72l-4.289,9.192c-0.355,0.775-0.629,1.032-1.144,1.032h-1.146c-0.144,0-0.225-0.08-0.225-0.306
		v-0.274c0-0.177,0.017-0.258,0.193-0.322l0.954-0.338c0.677-0.242,1.015-0.516,1.32-1.145l0.856-1.758l-2.693-6.272
		c-0.452-1.049-0.662-1.257-1.339-1.257v-0.422h4.192v0.42c-0.401,0-1.399-0.129-1.399,0.516c0,0.113,0.048,0.306,0.11,0.484
		l1.89,4.822l2.028-4.532c0.112-0.258,0.177-0.452,0.177-0.598c0-0.484-0.383-0.677-1.416-0.692v-0.419h3.32v0.42
		C239.668,14.349,239.521,14.543,238.973,15.72z"/>
</g>
<g enable-background="new    ">
	<path fill="#FFFFFF" d="M183.301,41.161c-0.904,0-2.228-0.258-2.644-0.468c-0.162-0.081-0.18-0.129-0.18-0.337V38.08h0.404
		c0.128,0.76,0.243,1.131,0.468,1.468c0.451,0.661,1.257,1.064,2.065,1.064c1.241,0,2.159-0.886,2.159-2.097
		c0-1.129-0.549-1.789-2.951-3.467c-1.499-1.047-1.999-1.676-1.999-2.757c0-1.934,1.838-2.806,3.531-2.806
		c0.758,0,1.661,0.097,2.065,0.258c0.193,0.081,0.241,0.129,0.241,0.306v2.064h-0.421c-0.225-1.42-0.837-2.064-2.047-2.064
		c-1.064,0-1.741,0.661-1.741,1.726c0,0.387,0.112,0.741,0.306,0.983c0.355,0.435,0.323,0.466,2.421,2.031
		c1.725,1.29,2.272,2,2.272,3.209C187.252,39.887,185.656,41.161,183.301,41.161z"/>
	<path fill="#FFFFFF" d="M195.024,41.161c-0.178-0.194-0.291-0.5-0.339-0.855c-0.018-0.146-0.032-0.242-0.032-0.386l-1.419,0.838
		c-0.517,0.307-0.807,0.403-1.354,0.403c-1.79,0-2.501-0.888-2.501-3.146v-3.419c0-0.644-0.193-0.791-0.918-0.791h-0.371v-0.403
		c1.064-0.048,2.064-0.307,2.74-0.692v5.16c0,1.338,0.194,2.322,1.726,2.322c0.92,0,1.662-0.484,1.903-1.274
		c0.145-0.451,0.209-1.144,0.209-1.902v-2.42c0-0.644-0.177-0.791-0.904-0.791h-0.385v-0.403c1.08-0.048,2.063-0.307,2.739-0.692
		c0,2.58,0,5.9,0,5.9c0,1.389,0.081,1.485,0.564,1.485c0.146,0,0.291-0.032,0.549-0.113l0.097,0.452L195.024,41.161z"/>
	<path fill="#FFFFFF" d="M202.664,41.161c-0.645,0-1.129-0.097-1.822-0.372v2.177c0,1.42,0.017,1.468,1.662,1.613v0.42h-4.402v-0.42
		c1.257-0.177,1.289-0.225,1.289-1.613v-8.385c0-0.645-0.192-0.791-0.918-0.791h-0.371v-0.403c1.08-0.048,2.065-0.291,2.74-0.677
		v1.321c0.727-0.903,1.677-1.321,2.774-1.321c1.982,0,3.308,1.483,3.308,3.805C206.923,39.226,205.116,41.161,202.664,41.161z
		 M202.891,33.484c-1.001,0-1.679,0.58-1.921,1.661c-0.081,0.372-0.129,1.243-0.129,1.872v2.838
		c0.612,0.549,1.178,0.757,1.822,0.757c1.677,0,2.662-1.354,2.662-3.772C205.326,34.742,204.39,33.484,202.891,33.484z"/>
	<path fill="#FFFFFF" d="M212.805,41.161h-0.418c-1.55,0-2.436-0.372-3.146-1.226c-0.711-0.87-1.097-2.032-1.097-3.146
		c0-1.096,0.404-2.193,1.08-2.95c0.644-0.726,1.598-1.129,2.662-1.129c1.435,0,2.435,0.741,2.837,2.064
		c0.146,0.484,0.195,0.871,0.177,1.726h-5.192c0.019,1.177,0.308,2.111,0.855,2.758c0.533,0.629,1.258,0.967,2.227,0.967
		c0.596,0,1.064-0.146,1.871-0.55l0.241,0.484L212.805,41.161z M211.772,33.244c-0.918,0-1.595,0.563-1.887,1.564
		c-0.096,0.306-0.129,0.564-0.177,1.112h2.774c0.725,0,1.033-0.274,1.033-0.935C213.516,34.002,212.791,33.244,211.772,33.244z"/>
	<path fill="#FFFFFF" d="M221.383,34.21l-0.371,0.291c-0.048,0.032-0.098,0.08-0.162,0.08c-0.048,0-0.11-0.032-0.145-0.048
		l-0.533-0.275c-0.177-0.097-0.306-0.112-0.517-0.112c-0.37,0-0.579,0.21-0.739,0.613c-0.146,0.371-0.146,1.243-0.146,1.677v2.515
		c0,1.564,0.129,1.517,1.629,1.597v0.42h-4.403v-0.42c1.339-0.064,1.322-0.192,1.322-1.597v-4.354c0-0.644-0.195-0.791-0.918-0.791
		h-0.373v-0.403c1.081-0.048,2.05-0.307,2.741-0.692v1.483l0.741-0.871c0.467-0.548,0.598-0.612,0.952-0.612
		c0.258,0,0.421,0.129,0.612,0.484l0.404,0.726c0.031,0.064,0.048,0.096,0.048,0.129C221.529,34.114,221.479,34.146,221.383,34.21z"
		/>
	<path fill="#FFFFFF" d="M227.188,41.144c-0.244-0.403-0.373-0.837-0.388-1.272l-1.241,0.838c-0.531,0.371-0.789,0.452-1.177,0.452
		c-1.241,0-2.098-0.888-2.098-2.178c0-0.904,0.404-1.533,1.225-2.016c0.388-0.226,0.792-0.403,1.55-0.692l1.754-0.677
		c-0.015-1.71-0.467-2.354-1.385-2.354c-0.759,0-1.177,0.58-1.5,1.177c-0.05,0.096-0.193,0.387-0.337,0.387
		c-0.031,0-0.082,0-0.13-0.017l-0.5-0.128c-0.098-0.032-0.147-0.098-0.129-0.162l0.244-0.903c0.079-0.291,0.129-0.338,0.421-0.468
		c0.596-0.274,1.337-0.418,2.063-0.418c1.902,0,2.708,0.774,2.708,2.58v3.58c0,0.92,0.146,1.21,0.564,1.21
		c0.146,0,0.289-0.032,0.548-0.112l0.098,0.452L227.188,41.144z M226.815,36.21c-0.806,0.291-1.079,0.403-1.435,0.549
		c-1.112,0.467-1.644,1.112-1.644,2.032c0,0.807,0.531,1.37,1.32,1.37c1.146,0,1.756-0.918,1.756-2.692V36.21H226.815z"/>
	<path fill="#FFFFFF" d="M235.943,40.968v-0.42c1.387-0.145,1.291-0.322,1.291-1.597v-2.983c0-1.758-0.469-2.387-1.822-2.387
		c-1.34,0-1.983,0.727-2.21,1.726c-0.096,0.435-0.13,0.919-0.13,1.661c0,1.983,0,0,0,1.983c0,1.404,0.02,1.42,1.309,1.597v0.42
		h-4.049v-0.42c1.26-0.177,1.289-0.225,1.289-1.597v-4.37c0-0.645-0.193-0.791-0.917-0.791h-0.372v-0.403
		c1.083-0.048,2.065-0.291,2.74-0.677v1.401c0.904-0.967,1.936-1.401,3.227-1.401c1.208,0,1.934,0.515,2.241,1.369
		c0.13,0.388,0.145,0.743,0.145,1.468v3.402c0,1.371-0.063,1.469,1.291,1.597v0.42L235.943,40.968L235.943,40.968z"/>
	<path fill="#FFFFFF" d="M246.551,40.968v-0.42c1.387-0.145,1.289-0.322,1.289-1.597v-2.983c0-1.758-0.467-2.387-1.822-2.387
		c-1.338,0-1.981,0.727-2.208,1.726c-0.096,0.435-0.13,0.919-0.13,1.661c0,1.983,0,0,0,1.983c0,1.404,0.017,1.42,1.307,1.597v0.42
		h-4.048v-0.42c1.259-0.177,1.29-0.225,1.29-1.597v-4.37c0-0.645-0.194-0.791-0.917-0.791h-0.373v-0.403
		c1.084-0.048,2.066-0.291,2.741-0.677v1.401c0.904-0.967,1.936-1.401,3.225-1.401c1.21,0,1.936,0.515,2.243,1.369
		c0.13,0.388,0.145,0.743,0.145,1.468v3.402c0,1.371-0.063,1.469,1.291,1.597v0.42L246.551,40.968L246.551,40.968z"/>
	<path fill="#FFFFFF" d="M258.19,41.161c-0.177-0.194-0.289-0.5-0.337-0.855c-0.017-0.146-0.031-0.242-0.031-0.386l-1.421,0.838
		c-0.513,0.307-0.806,0.403-1.354,0.403c-1.792,0-2.5-0.888-2.5-3.146v-3.419c0-0.644-0.193-0.791-0.918-0.791h-0.373v-0.403
		c1.064-0.048,2.066-0.307,2.741-0.692v5.16c0,1.338,0.193,2.322,1.725,2.322c0.921,0,1.662-0.484,1.903-1.274
		c0.146-0.451,0.206-1.144,0.206-1.902v-2.42c0-0.644-0.177-0.791-0.901-0.791h-0.388v-0.403c1.083-0.048,2.066-0.307,2.741-0.692
		c0,2.58,0,5.9,0,5.9c0,1.389,0.081,1.485,0.564,1.485c0.146,0,0.29-0.032,0.548-0.113l0.098,0.452L258.19,41.161z"/>
	<path fill="#FFFFFF" d="M266.463,41.144c-0.243-0.403-0.373-0.837-0.388-1.272l-1.241,0.838c-0.533,0.371-0.791,0.452-1.179,0.452
		c-1.241,0-2.096-0.888-2.096-2.178c0-0.904,0.402-1.533,1.225-2.016c0.388-0.226,0.792-0.403,1.55-0.692l1.756-0.677
		c-0.017-1.71-0.466-2.354-1.387-2.354c-0.758,0-1.179,0.58-1.5,1.177c-0.048,0.096-0.193,0.387-0.337,0.387
		c-0.031,0-0.082,0-0.13-0.017l-0.499-0.128c-0.099-0.032-0.146-0.098-0.13-0.162l0.242-0.903c0.081-0.291,0.129-0.338,0.421-0.468
		c0.598-0.274,1.339-0.418,2.065-0.418c1.902,0,2.708,0.774,2.708,2.58v3.58c0,0.92,0.146,1.21,0.564,1.21
		c0.146,0,0.29-0.032,0.55-0.112l0.096,0.452L266.463,41.144z M266.09,36.21c-0.806,0.291-1.081,0.403-1.435,0.549
		c-1.112,0.467-1.646,1.112-1.646,2.032c0,0.807,0.533,1.37,1.322,1.37c1.144,0,1.756-0.918,1.756-2.692V36.21H266.09z"/>
	<path fill="#FFFFFF" d="M272.894,41.161c-0.854-0.032-1.209-0.178-1.564-0.613c-0.323-0.403-0.467-0.951-0.467-1.936v-4.61h-1.289
		v-0.727h1.289v-1.693l1.015-0.888h0.435v2.58h2.469v0.435L274.119,34h-1.804c0,4.273,0,0,0,4.273c0,0.967,0.11,1.934,1.289,1.934
		c0.354,0,0.679-0.079,1.048-0.208l0.129,0.42L272.894,41.161z"/>
	<path fill="#FFFFFF" d="M275.572,40.968v-0.42c1.257-0.128,1.29-0.145,1.29-1.597v-4.354c0-0.644-0.178-0.791-0.919-0.791h-0.371
		v-0.403c1.079-0.048,2.064-0.307,2.739-0.692v6.24c0,1.356-0.031,1.469,1.292,1.597v0.42H275.572z M277.393,31.647
		c-0.515,0-0.936-0.42-0.936-0.952c0-0.484,0.436-0.918,0.952-0.918c0.5,0,0.935,0.419,0.935,0.935
		C278.344,31.244,277.923,31.647,277.393,31.647z"/>
	<path fill="#FFFFFF" d="M284.665,41.161c-2.337,0-3.969-1.839-3.969-4.128c0-2.468,1.809-4.322,4.289-4.322
		c2.387,0,4.032,1.693,4.032,4.144C289.017,39.323,287.18,41.161,284.665,41.161z M284.779,33.244c-1.904,0-2.485,2.112-2.485,3.661
		c0,2.176,1.048,3.708,2.581,3.708c1.548,0,2.548-1.401,2.548-3.579C287.422,34.711,286.389,33.244,284.779,33.244z"/>
	<path fill="#FFFFFF" d="M295.724,40.968v-0.42c1.388-0.145,1.292-0.322,1.292-1.597v-2.983c0-1.758-0.467-2.387-1.823-2.387
		c-1.339,0-1.98,0.727-2.209,1.726c-0.097,0.435-0.13,0.919-0.13,1.661c0,1.983,0,0,0,1.983c0,1.404,0.019,1.42,1.309,1.597v0.42
		h-4.048v-0.42c1.259-0.177,1.29-0.225,1.29-1.597v-4.37c0-0.645-0.196-0.791-0.917-0.791h-0.373v-0.403
		c1.081-0.048,2.066-0.291,2.741-0.677v1.401c0.904-0.967,1.934-1.401,3.225-1.401c1.208,0,1.936,0.515,2.243,1.369
		c0.127,0.388,0.144,0.743,0.144,1.468v3.402c0,1.371-0.066,1.469,1.292,1.597v0.42L295.724,40.968L295.724,40.968z"/>
</g>
<g enable-background="new    ">
	<path fill="#FFFFFF" d="M191.719,53.104h-1.823c0.019,0.306,0.019,0.533,0.019,0.679c0,1.386-0.228,2.436-0.711,3.449
		c1.323,1.163,2.597,2.228,3,2.483v0.307h-1.888c-0.421-0.386-1.662-1.548-1.791-1.675c-1.047,1.271-2.241,1.87-3.854,1.87
		c-2.032,0-3.968-1.131-3.968-3.322c0-1.693,1.451-2.87,3.032-2.967c-1.499-1.437-1.839-1.952-1.839-3
		c0-1.662,1.517-2.387,2.967-2.387c0.903,0,1.613,0.228,2.081,0.644v1.485h-0.42c-0.371-1.144-0.855-1.579-1.758-1.579
		c-0.901,0-1.517,0.58-1.517,1.468c0,0.788,0.501,1.565,1.743,2.74l3.821,3.613c0.5-1.258,0.646-2.55,0.016-3.805h-1.901v-0.323
		l0.822-0.435h4.739v0.323L191.719,53.104z M184.01,54.232c-1.064,0.5-1.58,1.272-1.58,2.483c0,1.677,1.129,2.869,2.727,2.869
		c1.144,0,2.064-0.482,2.999-1.564L184.01,54.232z"/>
	<path fill="#FFFFFF" d="M201.632,60.022h-4.467v-0.42c1.372-0.112,1.372-0.129,1.372-1.598v-7.257c0-1.484,0-1.5-1.372-1.613
		v-0.403h4.001c1.063,0,1.515,0.017,2.095,0.177c1.113,0.306,1.726,1.113,1.726,2.339c0,1.224-0.741,2.08-2.321,2.676
		c0.742,0.13,1.064,0.178,1.548,0.421c0.952,0.468,1.517,1.355,1.517,2.501C205.728,58.86,204.229,60.022,201.632,60.022z
		 M201.051,49.233h-0.95v4.644h1.046c1.469,0,2.227-0.806,2.227-2.37C203.374,49.894,202.697,49.233,201.051,49.233z
		 M201.165,54.377h-1.063v3.308c0,0.741,0.08,1.273,0.467,1.547c0.226,0.178,0.548,0.259,1.015,0.259c1.533,0,2.29-0.807,2.29-2.403
		C203.874,55.313,202.939,54.377,201.165,54.377z"/>
	<path fill="#FFFFFF" d="M211.741,60.218h-0.418c-1.55,0-2.436-0.373-3.146-1.227c-0.71-0.87-1.097-2.031-1.097-3.144
		c0-1.095,0.404-2.193,1.082-2.951c0.644-0.728,1.596-1.131,2.66-1.131c1.435,0,2.435,0.741,2.837,2.066
		c0.146,0.482,0.195,0.868,0.177,1.725h-5.192c0.017,1.177,0.308,2.11,0.855,2.758c0.531,0.629,1.259,0.968,2.225,0.968
		c0.598,0,1.064-0.147,1.871-0.551l0.243,0.484L211.741,60.218z M210.708,52.298c-0.918,0-1.595,0.564-1.887,1.565
		c-0.096,0.306-0.129,0.563-0.178,1.111h2.775c0.725,0,1.033-0.274,1.033-0.935C212.452,53.055,211.726,52.298,210.708,52.298z"/>
	<path fill="#FFFFFF" d="M220.543,60.022v-0.42c1.388-0.146,1.291-0.323,1.291-1.598v-2.98c0-1.759-0.466-2.388-1.822-2.388
		c-1.339,0-1.98,0.727-2.208,1.725c-0.098,0.436-0.129,0.921-0.129,1.662c0,1.983,0,0,0,1.983c0,1.401,0.017,1.418,1.309,1.596
		v0.421h-4.05v-0.421c1.258-0.178,1.289-0.226,1.289-1.596v-4.369c0-0.646-0.193-0.791-0.916-0.791h-0.373v-0.402
		c1.081-0.048,2.066-0.289,2.741-0.679v1.402c0.904-0.968,1.933-1.402,3.225-1.402c1.208,0,1.935,0.516,2.243,1.37
		c0.129,0.387,0.144,0.74,0.144,1.468v3.401c0,1.372-0.066,1.469,1.291,1.598v0.42H220.543z"/>
	<path fill="#FFFFFF" d="M230.329,60.218h-0.418c-1.548,0-2.436-0.373-3.146-1.227c-0.708-0.87-1.096-2.031-1.096-3.144
		c0-1.095,0.404-2.193,1.081-2.951c0.644-0.728,1.598-1.131,2.662-1.131c1.436,0,2.435,0.741,2.837,2.066
		c0.146,0.482,0.193,0.868,0.177,1.725h-5.192c0.017,1.177,0.309,2.11,0.856,2.758c0.53,0.629,1.258,0.968,2.224,0.968
		c0.601,0,1.064-0.147,1.871-0.551l0.243,0.484L230.329,60.218z M229.298,52.298c-0.917,0-1.598,0.564-1.888,1.565
		c-0.096,0.306-0.129,0.563-0.177,1.111h2.774c0.725,0,1.031-0.274,1.031-0.935C231.04,53.055,230.314,52.298,229.298,52.298z"/>
	<path fill="#FFFFFF" d="M238.988,49.155l-0.225,0.337c-0.051,0.065-0.099,0.112-0.178,0.112c-0.05,0-0.112-0.018-0.179-0.048
		l-0.579-0.259c-0.55-0.243-0.758-0.29-0.954-0.29c-0.467,0-0.612,0.274-0.612,1.241v2.098h2.227v0.421l-0.66,0.288h-1.566v4.952
		c0,0.5,0.017,0.936,0.048,1.064c0.098,0.372,0.517,0.483,1.598,0.531v0.421h-4.385v-0.421c0.096,0,0.194-0.017,0.273-0.017
		c0.985-0.065,1.033-0.178,1.033-1.579v-4.952h-1.112v-0.709h1.112v-1.308c0-0.967,0.435-1.596,1.611-2.338
		c0.646-0.403,1.033-0.563,1.452-0.563c0.129,0,0.259,0.048,0.338,0.111l0.71,0.581c0.064,0.048,0.112,0.099,0.112,0.146
		C239.054,49.026,239.054,49.056,238.988,49.155z"/>
	<path fill="#FFFFFF" d="M239.117,60.022v-0.42c1.256-0.129,1.289-0.146,1.289-1.598v-4.354c0-0.645-0.177-0.789-0.916-0.789h-0.373
		v-0.404c1.079-0.048,2.066-0.306,2.741-0.692v6.242c0,1.354-0.033,1.469,1.289,1.596v0.421L239.117,60.022L239.117,60.022z
		 M240.937,50.701c-0.512,0-0.935-0.42-0.935-0.953c0-0.482,0.435-0.918,0.954-0.918c0.5,0,0.935,0.421,0.935,0.936
		C241.891,50.298,241.47,50.701,240.937,50.701z"/>
	<path fill="#FFFFFF" d="M247.405,60.218c-0.856-0.033-1.21-0.179-1.566-0.614c-0.32-0.402-0.467-0.952-0.467-1.935v-4.609h-1.289
		v-0.728h1.289v-1.693l1.017-0.888h0.436v2.581h2.466v0.436l-0.66,0.288h-1.806c0,4.275,0,0,0,4.275
		c0,0.965,0.112,1.933,1.291,1.933c0.354,0,0.678-0.08,1.046-0.209l0.129,0.422L247.405,60.218z"/>
	<path fill="#FFFFFF" d="M252.547,60.218c-0.808,0-1.42-0.129-2.112-0.436v-1.807h0.419c0.033,0.404,0.098,0.742,0.259,0.984
		c0.289,0.436,0.887,0.709,1.516,0.709c0.871,0,1.485-0.597,1.485-1.419c0-0.758-0.276-1.095-1.806-2.128
		c-1.483-1-1.854-1.468-1.854-2.274c0-1.242,1.096-2.08,2.71-2.08c0.629,0,1.144,0.049,1.789,0.258v1.597h-0.419
		c-0.048-0.307-0.081-0.436-0.162-0.597c-0.242-0.436-0.644-0.728-1.29-0.728c-0.725,0-1.258,0.453-1.258,1.064
		c0,0.242,0.098,0.532,0.259,0.709c0.274,0.306,0.274,0.306,1.754,1.355c1.291,0.921,1.712,1.469,1.712,2.324
		C255.547,59.231,254.368,60.218,252.547,60.218z"/>
	<path fill="#FFFFFF" d="M263.172,60.218c-0.903,0-2.227-0.258-2.643-0.468c-0.163-0.081-0.18-0.129-0.18-0.337v-2.278h0.404
		c0.129,0.759,0.243,1.131,0.467,1.468c0.452,0.661,1.258,1.064,2.066,1.064c1.241,0,2.157-0.887,2.157-2.097
		c0-1.13-0.55-1.79-2.951-3.467c-1.5-1.048-2-1.677-2-2.758c0-1.936,1.84-2.806,3.533-2.806c0.758,0,1.662,0.096,2.066,0.258
		c0.193,0.078,0.241,0.13,0.241,0.307v2.064h-0.421c-0.225-1.421-0.837-2.064-2.047-2.064c-1.064,0-1.742,0.659-1.742,1.724
		c0,0.388,0.11,0.741,0.307,0.983c0.354,0.436,0.322,0.468,2.42,2.031c1.725,1.291,2.272,2.001,2.272,3.21
		C267.124,58.942,265.526,60.218,263.172,60.218z"/>
	<path fill="#FFFFFF" d="M275.185,53.491l-0.517,0.306c-0.033,0.018-0.099,0.031-0.146,0.031s-0.096-0.031-0.144-0.096l-0.71-0.839
		c-0.34-0.387-0.758-0.581-1.274-0.581c-1.467,0-2.419,1.308-2.419,3.176c0,2.145,1.144,3.791,3.031,3.791
		c0.598,0,1.048-0.146,1.839-0.564l0.275,0.483l-2.146,1.017h-0.388c-1.271,0-2.287-0.421-2.999-1.13
		c-0.79-0.791-1.211-1.921-1.211-3.177c0-2.372,1.807-4.146,4.322-4.146c0.775,0,1.402,0.147,1.969,0.422l0.581,1.08
		c0.017,0.032,0.017,0.067,0.017,0.098C275.266,53.41,275.25,53.442,275.185,53.491z"/>
	<path fill="#FFFFFF" d="M281.892,60.022v-0.42c1.256-0.129,1.289-0.146,1.289-1.598v-2.98c0-1.741-0.5-2.388-1.822-2.388
		c-2.031,0-2.34,1.807-2.34,3.387v1.983c0,1.452,0.034,1.469,1.275,1.596v0.421h-3.999v-0.421c1.241-0.144,1.272-0.159,1.272-1.596
		v-8.015c0-0.324-0.031-0.551-0.112-0.694c-0.097-0.16-0.257-0.225-0.483-0.225h-0.677v-0.436c0.87,0,1.918-0.177,2.724-0.467v4.999
		c0.906-0.967,1.985-1.402,3.274-1.402c2.081,0,2.337,1.162,2.337,2.838v3.401c0,1.389-0.048,1.469,1.309,1.598v0.42h-4.047V60.022
		L281.892,60.022z"/>
	<path fill="#FFFFFF" d="M291.692,60.218h-0.419c-1.547,0-2.435-0.373-3.145-1.227c-0.709-0.87-1.096-2.031-1.096-3.144
		c0-1.095,0.404-2.193,1.081-2.951c0.644-0.728,1.598-1.131,2.662-1.131c1.435,0,2.433,0.741,2.837,2.066
		c0.146,0.482,0.193,0.868,0.177,1.725h-5.192c0.017,1.177,0.308,2.11,0.855,2.758c0.531,0.629,1.258,0.968,2.225,0.968
		c0.598,0,1.064-0.147,1.871-0.551l0.243,0.484L291.692,60.218z M290.661,52.298c-0.918,0-1.598,0.564-1.887,1.565
		c-0.098,0.306-0.129,0.563-0.177,1.111h2.774c0.725,0,1.03-0.274,1.03-0.935C292.402,53.055,291.677,52.298,290.661,52.298z"/>
	<path fill="#FFFFFF" d="M305.141,60.022v-0.42c1.256-0.129,1.29-0.146,1.29-1.598v-2.949c0-1.771-0.419-2.403-1.581-2.403
		c-0.658,0-1.208,0.244-1.546,0.68c-0.436,0.548-0.55,1.177-0.55,2.788v1.888c0,1.452,0.017,1.469,1.308,1.596v0.421h-4.047v-0.421
		c1.256-0.127,1.289-0.144,1.289-1.596v-2.952c0-1.771-0.372-2.403-1.566-2.403c-0.644,0-1.191,0.244-1.532,0.645
		c-0.436,0.531-0.579,1.225-0.579,2.821v1.888c0,1.452,0.015,1.469,1.306,1.598v0.42h-4.047v-0.42
		c1.256-0.129,1.289-0.146,1.289-1.598v-4.354c0-0.629-0.193-0.789-0.916-0.789h-0.373v-0.404c1.079-0.048,2.066-0.306,2.741-0.692
		v1.419c0.806-0.983,1.66-1.419,2.935-1.419c1.129,0,1.644,0.373,2.11,1.419c0.887-0.983,1.758-1.419,2.92-1.419
		c1.081,0,1.725,0.373,2.064,1.178c0.177,0.42,0.227,0.888,0.227,1.693v3.37c0,1.452,0,1.469,1.289,1.596v0.421L305.141,60.022
		L305.141,60.022z"/>
	<path fill="#FFFFFF" d="M314.925,60.218h-0.419c-1.548,0-2.435-0.373-3.146-1.227c-0.708-0.87-1.096-2.031-1.096-3.144
		c0-1.095,0.404-2.193,1.083-2.951c0.644-0.728,1.596-1.131,2.658-1.131c1.438,0,2.435,0.741,2.839,2.066
		c0.146,0.482,0.196,0.868,0.177,1.725h-5.192c0.019,1.177,0.307,2.11,0.856,2.758c0.533,0.629,1.26,0.968,2.227,0.968
		c0.598,0,1.064-0.147,1.87-0.551l0.242,0.484L314.925,60.218z M313.894,52.298c-0.919,0-1.598,0.564-1.888,1.565
		c-0.098,0.306-0.129,0.563-0.179,1.111h2.776c0.725,0,1.031-0.274,1.031-0.935C315.635,53.055,314.911,52.298,313.894,52.298z"/>
</g>
</svg>
