<?xml version="1.0" encoding="utf-8"?>
<!-- Generator: Adobe Illustrator 16.0.0, SVG Export Plug-In . SVG Version: 6.00 Build 0)  -->
<!DOCTYPE svg PUBLIC "-//W3C//DTD SVG 1.1//EN" "http://www.w3.org/Graphics/SVG/1.1/DTD/svg11.dtd">
<svg version="1.1" id="new_logo" xmlns="http://www.w3.org/2000/svg" xmlns:xlink="http://www.w3.org/1999/xlink" x="0px" y="0px"
	 width="323.667px" height="73.187px" viewBox="-43.085 -9.742 323.667 73.187"
	 enable-background="new -43.085 -9.742 323.667 73.187" xml:space="preserve">
<rect x="-43.085" y="-9.742" fill="#B95915" width="159.772" height="73.187"/>
<rect x="120.811" y="-9.742" fill="#939598" width="159.771" height="73.187"/>
<rect x="-8.269" y="9.9" fill="none" width="95.061" height="28.404"/>
<g enable-background="new    ">
	<path fill="#FFFFFF" d="M7.461,21.081c-0.074-2.003-0.148-4.428-0.148-6.852H7.239c-0.519,2.127-1.212,4.501-1.855,6.456
		L3.356,27.19H0.412l-1.781-6.455c-0.544-1.954-1.113-4.329-1.509-6.505h-0.049c-0.099,2.25-0.173,4.822-0.297,6.9l-0.297,6.332
		h-3.488l1.064-16.671h5.021l1.632,5.565c0.52,1.93,1.039,4.007,1.41,5.961h0.074c0.47-1.93,1.039-4.131,1.583-5.986l1.781-5.541
		h4.922l0.916,16.671H7.709L7.461,21.081z"/>
	<path fill="#FFFFFF" d="M18.2,12.003c0,1.039-0.792,1.88-2.028,1.88c-1.187,0-1.979-0.841-1.954-1.88
		c-0.024-1.088,0.767-1.905,1.979-1.905C17.409,10.098,18.175,10.915,18.2,12.003z M14.316,27.462V15.367h3.76v12.095H14.316z"/>
	<path fill="#FFFFFF" d="M21.095,9.9h3.76v17.562h-3.76V9.9z"/>
	<path fill="#FFFFFF" d="M31.781,12.003c0,1.039-0.792,1.88-2.028,1.88c-1.187,0-1.979-0.841-1.954-1.88
		c-0.024-1.088,0.767-1.905,1.979-1.905C30.99,10.098,31.756,10.915,31.781,12.003z M27.897,27.462V15.367h3.76v12.095H27.897z"/>
	<path fill="#FFFFFF" d="M38.881,11.904v3.463h2.696v2.771h-2.696v4.378c0,1.459,0.346,2.127,1.484,2.127
		c0.47,0,0.841-0.049,1.113-0.099l0.025,2.844c-0.495,0.198-1.385,0.321-2.449,0.321c-1.212,0-2.226-0.42-2.82-1.039
		c-0.692-0.717-1.039-1.88-1.039-3.586v-4.947h-1.608v-2.771h1.608v-2.622L38.881,11.904z"/>
	<path fill="#FFFFFF" d="M50.631,27.462l-0.222-1.212h-0.074c-0.792,0.965-2.028,1.484-3.463,1.484c-2.449,0-3.908-1.781-3.908-3.71
		c0-3.142,2.82-4.65,7.099-4.625v-0.173c0-0.643-0.346-1.558-2.201-1.558c-1.237,0-2.548,0.42-3.339,0.915l-0.692-2.424
		c0.841-0.47,2.498-1.063,4.7-1.063c4.032,0,5.318,2.375,5.318,5.219v4.205c0,1.163,0.049,2.275,0.173,2.943L50.631,27.462
		L50.631,27.462z M50.186,21.748c-1.979-0.024-3.513,0.445-3.513,1.905c0,0.965,0.644,1.435,1.484,1.435
		c0.94,0,1.707-0.618,1.954-1.385c0.049-0.198,0.074-0.42,0.074-0.643L50.186,21.748L50.186,21.748z"/>
	<path fill="#FFFFFF" d="M56.817,19.349c0-1.781-0.049-2.943-0.099-3.982h3.24l0.124,2.226h0.099
		c0.619-1.756,2.103-2.498,3.265-2.498c0.346,0,0.52,0,0.792,0.049v3.537c-0.272-0.049-0.594-0.099-1.014-0.099
		c-1.385,0-2.325,0.742-2.572,1.905c-0.05,0.248-0.074,0.544-0.074,0.841v6.134h-3.76L56.817,19.349L56.817,19.349z"/>
	<path fill="#FFFFFF" d="M69.482,15.367l1.806,5.937c0.198,0.717,0.445,1.607,0.594,2.25h0.074c0.173-0.643,0.371-1.558,0.544-2.25
		l1.484-5.937h4.032l-2.82,7.964c-1.731,4.799-2.894,6.728-4.254,7.94c-1.311,1.138-2.696,1.533-3.636,1.657l-0.792-3.191
		c0.47-0.074,1.063-0.297,1.632-0.643c0.569-0.297,1.188-0.891,1.559-1.509c0.124-0.174,0.198-0.371,0.198-0.544
		c0-0.124-0.025-0.322-0.173-0.619l-4.427-11.056L69.482,15.367L69.482,15.367z"/>
</g>
<rect x="16.013" y="22.899" fill="none" width="70.094" height="27.487"/>
<g enable-background="new    ">
	<path fill="#ECBC2F" d="M17.684,38.671c1.018,0.627,2.506,1.148,4.073,1.148c2.324,0,3.681-1.228,3.681-3.002
		c0-1.645-0.94-2.585-3.315-3.498c-2.872-1.019-4.647-2.507-4.647-4.987c0-2.741,2.271-4.777,5.691-4.777
		c1.802,0,3.107,0.417,3.89,0.861L26.43,26.27c-0.574-0.313-1.749-0.835-3.342-0.835c-2.402,0-3.315,1.436-3.315,2.637
		c0,1.645,1.07,2.454,3.498,3.394c2.977,1.149,4.491,2.585,4.491,5.17c0,2.714-2.01,5.064-6.162,5.064
		c-1.697,0-3.55-0.496-4.49-1.122L17.684,38.671z"/>
	<path fill="#ECBC2F" d="M41.366,37.992c0,1.306,0.026,2.454,0.104,3.446h-2.037l-0.13-2.063h-0.052
		c-0.601,1.019-1.932,2.351-4.177,2.351c-1.984,0-4.36-1.098-4.36-5.536v-7.388h2.297v6.996c0,2.402,0.731,4.021,2.82,4.021
		c1.54,0,2.611-1.07,3.028-2.088c0.13-0.34,0.209-0.758,0.209-1.175v-7.754h2.297L41.366,37.992L41.366,37.992z"/>
	<path fill="#ECBC2F" d="M45.181,32.928c0-1.619-0.052-2.925-0.104-4.125h2.063l0.104,2.167h0.052
		c0.94-1.541,2.428-2.455,4.491-2.455c3.055,0,5.352,2.585,5.352,6.423c0,4.543-2.768,6.788-5.744,6.788
		c-1.671,0-3.133-0.729-3.89-1.983h-0.052v6.866h-2.271L45.181,32.928L45.181,32.928z M47.452,36.295c0,0.34,0.052,0.653,0.104,0.94
		c0.417,1.593,1.801,2.688,3.446,2.688c2.428,0,3.838-1.982,3.838-4.882c0-2.532-1.332-4.699-3.76-4.699
		c-1.566,0-3.028,1.122-3.472,2.846c-0.079,0.287-0.157,0.627-0.157,0.939L47.452,36.295L47.452,36.295z"/>
	<path fill="#ECBC2F" d="M61.318,35.538c0.052,3.105,2.037,4.386,4.334,4.386c1.645,0,2.637-0.286,3.499-0.651l0.392,1.645
		c-0.81,0.366-2.193,0.783-4.204,0.783c-3.89,0-6.213-2.559-6.213-6.37c0-3.811,2.245-6.814,5.926-6.814
		c4.125,0,5.222,3.63,5.222,5.953c0,0.47-0.052,0.835-0.078,1.07L61.318,35.538L61.318,35.538z M68.054,33.894
		c0.026-1.462-0.601-3.733-3.185-3.733c-2.324,0-3.342,2.141-3.524,3.733H68.054z"/>
	<path fill="#ECBC2F" d="M73.121,32.744c0-1.487-0.026-2.767-0.104-3.941h2.01l0.079,2.479h0.104
		c0.574-1.696,1.958-2.768,3.499-2.768c0.261,0,0.444,0.026,0.652,0.079v2.167c-0.235-0.053-0.47-0.079-0.783-0.079
		c-1.619,0-2.767,1.228-3.081,2.95c-0.052,0.313-0.104,0.68-0.104,1.071v6.734h-2.271L73.121,32.744L73.121,32.744z"/>
</g>
<rect x="135.241" y="1.596" fill="none" width="136.407" height="57.379"/>
<g enable-background="new    ">
	<path fill="#FFFFFF" d="M147.866,4.088v6.744c0,1.376,0,1.391,1.286,1.497v0.393h-4.038V12.33c1.271-0.076,1.285-0.091,1.285-1.497
		V4.497l-4.324,8.317h-0.227l-3.962-8.317v6.185c0,1.24,0.227,1.527,1.376,1.648v0.393h-3.402V12.33
		c1.164-0.121,1.391-0.408,1.391-1.648v-6.85c-0.196-0.423-0.469-0.771-0.801-0.998c-0.287-0.181-0.605-0.302-0.953-0.302V2.138
		h2.798l4.098,8.574l4.446-8.574h2.524v0.393C148.32,2.576,147.866,3,147.866,4.088z"/>
	<path fill="#FFFFFF" d="M150.253,12.723V12.33c1.179-0.121,1.209-0.136,1.209-1.497V6.75c0-0.604-0.166-0.741-0.861-0.741h-0.348
		V5.631c1.013-0.045,1.936-0.288,2.57-0.65v5.852c0,1.27-0.03,1.376,1.21,1.497v0.393H150.253z M151.961,3.982
		c-0.483,0-0.877-0.393-0.877-0.892c0-0.454,0.408-0.862,0.893-0.862c0.469,0,0.877,0.393,0.877,0.877
		C152.854,3.604,152.46,3.982,151.961,3.982z"/>
	<path fill="#FFFFFF" d="M154.939,12.723V12.33c1.179-0.121,1.209-0.136,1.209-1.497V3.317c0-0.393-0.03-0.62-0.182-0.741
		c-0.105-0.091-0.287-0.121-0.589-0.121h-0.424V2.047c0.847-0.015,1.83-0.182,2.556-0.438v9.224c0,1.361,0,1.376,1.21,1.497v0.393
		H154.939z"/>
	<path fill="#FFFFFF" d="M159.626,12.723V12.33c1.179-0.121,1.209-0.136,1.209-1.497V6.75c0-0.604-0.166-0.741-0.861-0.741h-0.348
		V5.631c1.013-0.045,1.936-0.288,2.57-0.65v5.852c0,1.27-0.03,1.376,1.21,1.497v0.393H159.626z M161.334,3.982
		c-0.483,0-0.877-0.393-0.877-0.892c0-0.454,0.408-0.862,0.893-0.862c0.469,0,0.877,0.393,0.877,0.877
		C162.227,3.604,161.833,3.982,161.334,3.982z"/>
	<path fill="#FFFFFF" d="M167.396,12.904c-0.801-0.03-1.134-0.167-1.467-0.575c-0.303-0.378-0.438-0.892-0.438-1.814V6.19h-1.209
		V5.51h1.209V3.922l0.952-0.832h0.408v2.42h2.313v0.408l-0.621,0.272h-1.692c0,4.007,0,0,0,4.007c0,0.907,0.104,1.814,1.21,1.814
		c0.332,0,0.635-0.075,0.982-0.196l0.121,0.393L167.396,12.904z"/>
	<path fill="#FFFFFF" d="M174.806,12.889c-0.229-0.378-0.35-0.787-0.363-1.195l-1.164,0.786c-0.499,0.348-0.74,0.424-1.104,0.424
		c-1.164,0-1.967-0.832-1.967-2.042c0-0.847,0.379-1.437,1.149-1.89c0.363-0.212,0.741-0.378,1.452-0.65l1.646-0.635
		c-0.015-1.603-0.438-2.208-1.299-2.208c-0.712,0-1.105,0.544-1.406,1.104c-0.047,0.09-0.183,0.363-0.317,0.363
		c-0.03,0-0.076,0-0.121-0.015l-0.47-0.121c-0.09-0.03-0.137-0.091-0.12-0.151l0.228-0.847c0.075-0.272,0.12-0.317,0.393-0.438
		c0.561-0.257,1.256-0.393,1.937-0.393c1.784,0,2.54,0.726,2.54,2.419v3.357c0,0.862,0.137,1.134,0.529,1.134
		c0.136,0,0.271-0.03,0.514-0.106l0.092,0.423L174.806,12.889z M174.457,8.262c-0.756,0.272-1.013,0.378-1.346,0.514
		c-1.043,0.438-1.542,1.043-1.542,1.905c0,0.756,0.499,1.286,1.24,1.286c1.073,0,1.647-0.862,1.647-2.525V8.262L174.457,8.262z"/>
	<path fill="#FFFFFF" d="M182.803,6.387l-0.349,0.272c-0.045,0.03-0.091,0.075-0.15,0.075c-0.045,0-0.105-0.03-0.137-0.045
		l-0.498-0.257c-0.166-0.091-0.287-0.106-0.484-0.106c-0.348,0-0.544,0.197-0.695,0.575c-0.136,0.348-0.136,1.165-0.136,1.573v2.359
		c0,1.467,0.121,1.421,1.526,1.497v0.393h-4.127V12.33c1.254-0.061,1.238-0.182,1.238-1.497V6.75c0-0.604-0.182-0.741-0.861-0.741
		h-0.348V5.631c1.014-0.045,1.92-0.288,2.57-0.65v1.391l0.695-0.816c0.438-0.514,0.56-0.575,0.893-0.575
		c0.241,0,0.393,0.121,0.574,0.454l0.378,0.681c0.03,0.061,0.046,0.09,0.046,0.121C182.939,6.296,182.894,6.326,182.803,6.387z"/>
	<path fill="#FFFFFF" d="M190.695,6.916l-4.021,8.619c-0.334,0.726-0.59,0.968-1.074,0.968h-1.073c-0.136,0-0.212-0.076-0.212-0.287
		v-0.257c0-0.166,0.016-0.242,0.182-0.302l0.894-0.317c0.635-0.227,0.952-0.484,1.239-1.074l0.802-1.648l-2.525-5.882
		c-0.423-0.983-0.62-1.179-1.255-1.179V5.162h3.932v0.393c-0.377,0-1.314-0.121-1.314,0.484c0,0.106,0.045,0.287,0.105,0.454
		l1.77,4.521l1.904-4.25c0.105-0.242,0.166-0.423,0.166-0.56c0-0.454-0.361-0.635-1.33-0.65V5.162h3.115v0.393
		C191.346,5.631,191.208,5.812,190.695,6.916z"/>
</g>
<g enable-background="new    ">
	<path fill="#FFFFFF" d="M138.491,30.771c-0.847,0-2.087-0.242-2.479-0.438c-0.151-0.076-0.167-0.121-0.167-0.317v-2.133h0.378
		c0.121,0.711,0.228,1.059,0.439,1.376c0.423,0.62,1.179,0.998,1.936,0.998c1.164,0,2.025-0.831,2.025-1.966
		c0-1.059-0.514-1.678-2.767-3.251c-1.406-0.982-1.875-1.572-1.875-2.585c0-1.814,1.724-2.631,3.312-2.631
		c0.711,0,1.558,0.091,1.936,0.242c0.182,0.076,0.227,0.121,0.227,0.287v1.936h-0.394c-0.211-1.331-0.786-1.936-1.92-1.936
		c-0.998,0-1.633,0.62-1.633,1.618c0,0.363,0.105,0.695,0.287,0.922c0.333,0.408,0.303,0.438,2.269,1.905
		c1.617,1.209,2.132,1.875,2.132,3.009C142.196,29.577,140.699,30.771,138.491,30.771z"/>
	<path fill="#FFFFFF" d="M149.483,30.771c-0.166-0.182-0.272-0.469-0.317-0.802c-0.016-0.136-0.03-0.227-0.03-0.362l-1.331,0.786
		c-0.483,0.287-0.756,0.378-1.27,0.378c-1.679,0-2.344-0.832-2.344-2.949v-3.206c0-0.604-0.182-0.741-0.862-0.741h-0.348v-0.378
		c0.998-0.045,1.936-0.288,2.57-0.65v4.839c0,1.255,0.182,2.178,1.618,2.178c0.862,0,1.558-0.454,1.784-1.195
		c0.136-0.423,0.196-1.073,0.196-1.784v-2.269c0-0.604-0.166-0.741-0.847-0.741h-0.362v-0.378c1.013-0.045,1.936-0.288,2.57-0.65
		c0,2.419,0,5.534,0,5.534c0,1.301,0.075,1.392,0.529,1.392c0.136,0,0.272-0.03,0.514-0.106l0.091,0.424L149.483,30.771z"/>
	<path fill="#FFFFFF" d="M156.648,30.771c-0.605,0-1.059-0.091-1.709-0.348v2.041c0,1.331,0.015,1.376,1.558,1.512v0.394h-4.128
		v-0.394c1.179-0.166,1.209-0.211,1.209-1.512v-7.863c0-0.604-0.181-0.741-0.861-0.741h-0.348v-0.378
		c1.013-0.045,1.936-0.272,2.57-0.635v1.24c0.681-0.847,1.572-1.24,2.601-1.24c1.86,0,3.101,1.391,3.101,3.569
		C160.641,28.957,158.946,30.771,156.648,30.771z M156.86,23.573c-0.938,0-1.573,0.544-1.8,1.558
		c-0.076,0.348-0.121,1.165-0.121,1.754v2.662c0.574,0.514,1.104,0.71,1.709,0.71c1.572,0,2.495-1.27,2.495-3.538
		C159.144,24.753,158.267,23.573,156.86,23.573z"/>
	<path fill="#FFFFFF" d="M166.158,30.771h-0.394c-1.452,0-2.283-0.348-2.949-1.149c-0.665-0.816-1.028-1.905-1.028-2.949
		c0-1.028,0.379-2.057,1.013-2.767c0.604-0.681,1.498-1.059,2.496-1.059c1.346,0,2.283,0.696,2.66,1.936
		c0.137,0.454,0.183,0.816,0.166,1.618h-4.869c0.017,1.104,0.289,1.98,0.803,2.586c0.499,0.59,1.18,0.907,2.087,0.907
		c0.56,0,0.998-0.137,1.754-0.515l0.228,0.454L166.158,30.771z M165.189,23.347c-0.861,0-1.497,0.529-1.77,1.467
		c-0.09,0.287-0.121,0.529-0.166,1.043h2.602c0.68,0,0.969-0.257,0.969-0.877C166.824,24.058,166.143,23.347,165.189,23.347z"/>
	<path fill="#FFFFFF" d="M174.201,24.254l-0.349,0.272c-0.045,0.03-0.091,0.075-0.151,0.075c-0.045,0-0.104-0.03-0.136-0.045
		l-0.499-0.257c-0.166-0.091-0.287-0.106-0.484-0.106c-0.348,0-0.543,0.197-0.694,0.575c-0.136,0.348-0.136,1.165-0.136,1.573v2.358
		c0,1.467,0.121,1.422,1.526,1.497v0.394h-4.128v-0.394c1.255-0.061,1.239-0.181,1.239-1.497v-4.083
		c0-0.604-0.183-0.741-0.861-0.741h-0.349v-0.378c1.014-0.045,1.921-0.288,2.57-0.65v1.391l0.695-0.816
		c0.438-0.514,0.561-0.575,0.893-0.575c0.242,0,0.394,0.121,0.574,0.454l0.379,0.681c0.029,0.061,0.045,0.09,0.045,0.121
		C174.337,24.163,174.291,24.193,174.201,24.254z"/>
	<path fill="#FFFFFF" d="M179.644,30.756c-0.229-0.378-0.35-0.786-0.363-1.194l-1.164,0.786c-0.498,0.348-0.74,0.424-1.104,0.424
		c-1.164,0-1.967-0.832-1.967-2.042c0-0.847,0.379-1.437,1.149-1.89c0.363-0.212,0.741-0.378,1.452-0.65l1.646-0.635
		c-0.015-1.603-0.438-2.208-1.299-2.208c-0.711,0-1.104,0.544-1.406,1.104c-0.047,0.09-0.183,0.363-0.317,0.363
		c-0.03,0-0.076,0-0.121-0.015l-0.469-0.121c-0.091-0.03-0.138-0.091-0.121-0.151l0.228-0.847c0.075-0.272,0.121-0.317,0.394-0.438
		c0.56-0.257,1.255-0.393,1.937-0.393c1.783,0,2.539,0.726,2.539,2.419v3.357c0,0.862,0.137,1.134,0.529,1.134
		c0.136,0,0.271-0.03,0.514-0.105l0.092,0.424L179.644,30.756z M179.294,26.129c-0.756,0.272-1.012,0.378-1.346,0.514
		c-1.043,0.438-1.541,1.043-1.541,1.906c0,0.756,0.498,1.285,1.239,1.285c1.073,0,1.647-0.862,1.647-2.525V26.129L179.294,26.129z"
		/>
	<path fill="#FFFFFF" d="M187.853,30.59v-0.394c1.301-0.136,1.21-0.302,1.21-1.497v-2.797c0-1.648-0.438-2.238-1.709-2.238
		c-1.255,0-1.858,0.681-2.071,1.618c-0.091,0.408-0.121,0.862-0.121,1.558c0,1.859,0,0,0,1.859c0,1.316,0.016,1.331,1.226,1.497
		v0.394h-3.796v-0.394c1.18-0.166,1.209-0.211,1.209-1.497v-4.098c0-0.604-0.182-0.741-0.86-0.741h-0.349v-0.378
		c1.014-0.045,1.937-0.272,2.57-0.635v1.315c0.848-0.907,1.814-1.315,3.024-1.315c1.134,0,1.813,0.484,2.103,1.285
		c0.121,0.363,0.135,0.696,0.135,1.376v3.19c0,1.286-0.059,1.377,1.211,1.497v0.394L187.853,30.59L187.853,30.59z"/>
	<path fill="#FFFFFF" d="M197.8,30.59v-0.394c1.301-0.136,1.209-0.302,1.209-1.497v-2.797c0-1.648-0.438-2.238-1.709-2.238
		c-1.254,0-1.858,0.681-2.07,1.618c-0.091,0.408-0.121,0.862-0.121,1.558c0,1.859,0,0,0,1.859c0,1.316,0.016,1.331,1.225,1.497
		v0.394h-3.795v-0.394c1.18-0.166,1.209-0.211,1.209-1.497v-4.098c0-0.604-0.182-0.741-0.86-0.741h-0.349v-0.378
		c1.014-0.045,1.937-0.272,2.57-0.635v1.315c0.848-0.907,1.814-1.315,3.023-1.315c1.135,0,1.814,0.484,2.103,1.285
		c0.121,0.363,0.136,0.696,0.136,1.376v3.19c0,1.286-0.06,1.377,1.211,1.497v0.394L197.8,30.59L197.8,30.59z"/>
	<path fill="#FFFFFF" d="M208.714,30.771c-0.166-0.182-0.271-0.469-0.316-0.802c-0.016-0.136-0.029-0.227-0.029-0.362l-1.332,0.786
		c-0.482,0.287-0.756,0.378-1.27,0.378c-1.68,0-2.344-0.832-2.344-2.949v-3.206c0-0.604-0.182-0.741-0.862-0.741h-0.349v-0.378
		c0.998-0.045,1.937-0.288,2.57-0.65v4.839c0,1.255,0.182,2.178,1.618,2.178c0.862,0,1.558-0.454,1.784-1.195
		c0.137-0.423,0.195-1.073,0.195-1.784v-2.269c0-0.604-0.166-0.741-0.846-0.741h-0.363v-0.378c1.014-0.045,1.937-0.288,2.57-0.65
		c0,2.419,0,5.534,0,5.534c0,1.301,0.075,1.392,0.529,1.392c0.137,0,0.271-0.03,0.514-0.106l0.092,0.424L208.714,30.771z"/>
	<path fill="#FFFFFF" d="M216.471,30.756c-0.228-0.378-0.349-0.786-0.363-1.194l-1.164,0.786c-0.499,0.348-0.741,0.424-1.104,0.424
		c-1.164,0-1.965-0.832-1.965-2.042c0-0.847,0.377-1.437,1.148-1.89c0.363-0.212,0.741-0.378,1.452-0.65l1.647-0.635
		c-0.016-1.603-0.438-2.208-1.301-2.208c-0.711,0-1.104,0.544-1.406,1.104c-0.045,0.09-0.182,0.363-0.316,0.363
		c-0.03,0-0.076,0-0.121-0.015l-0.469-0.121c-0.092-0.03-0.137-0.091-0.121-0.151l0.227-0.847c0.076-0.272,0.121-0.317,0.395-0.438
		c0.56-0.257,1.255-0.393,1.936-0.393c1.784,0,2.54,0.726,2.54,2.419v3.357c0,0.862,0.136,1.134,0.529,1.134
		c0.136,0,0.272-0.03,0.515-0.105l0.09,0.424L216.471,30.756z M216.123,26.129c-0.756,0.272-1.014,0.378-1.347,0.514
		c-1.043,0.438-1.542,1.043-1.542,1.906c0,0.756,0.499,1.285,1.24,1.285c1.072,0,1.646-0.862,1.646-2.525v-1.18H216.123z"/>
	<path fill="#FFFFFF" d="M222.501,30.771c-0.801-0.03-1.133-0.167-1.467-0.575c-0.302-0.378-0.438-0.892-0.438-1.814v-4.324h-1.209
		v-0.681h1.209v-1.588l0.953-0.832h0.408v2.419h2.313v0.408l-0.62,0.272h-1.692c0,4.007,0,0,0,4.007
		c0,0.907,0.104,1.814,1.209,1.814c0.332,0,0.636-0.075,0.982-0.196l0.121,0.394L222.501,30.771z"/>
	<path fill="#FFFFFF" d="M225.012,30.59v-0.394c1.179-0.12,1.209-0.136,1.209-1.497v-4.083c0-0.604-0.166-0.741-0.861-0.741h-0.348
		v-0.378c1.013-0.045,1.937-0.288,2.569-0.65v5.852c0,1.271-0.029,1.377,1.211,1.497v0.394H225.012z M226.72,21.85
		c-0.483,0-0.877-0.393-0.877-0.892c0-0.454,0.408-0.862,0.893-0.862c0.469,0,0.877,0.393,0.877,0.877
		C227.612,21.472,227.218,21.85,226.72,21.85z"/>
	<path fill="#FFFFFF" d="M233.539,30.771c-2.192,0-3.721-1.724-3.721-3.871c0-2.314,1.694-4.053,4.021-4.053
		c2.238,0,3.781,1.588,3.781,3.886C237.621,29.048,235.897,30.771,233.539,30.771z M233.645,23.347
		c-1.784,0-2.329,1.981-2.329,3.433c0,2.041,0.982,3.478,2.42,3.478c1.451,0,2.389-1.315,2.389-3.356
		C236.125,24.723,235.156,23.347,233.645,23.347z"/>
	<path fill="#FFFFFF" d="M243.91,30.59v-0.394c1.301-0.136,1.211-0.302,1.211-1.497v-2.797c0-1.648-0.438-2.238-1.709-2.238
		c-1.256,0-1.859,0.681-2.072,1.618c-0.09,0.408-0.121,0.862-0.121,1.558c0,1.859,0,0,0,1.859c0,1.316,0.016,1.331,1.226,1.497
		v0.394h-3.795v-0.394c1.179-0.166,1.209-0.211,1.209-1.497v-4.098c0-0.604-0.183-0.741-0.86-0.741h-0.349v-0.378
		c1.013-0.045,1.937-0.272,2.57-0.635v1.315c0.847-0.907,1.813-1.315,3.024-1.315c1.133,0,1.813,0.484,2.102,1.285
		c0.121,0.363,0.136,0.696,0.136,1.376v3.19c0,1.286-0.062,1.377,1.21,1.497v0.394L243.91,30.59L243.91,30.59z"/>
</g>
<g enable-background="new    ">
	<path fill="#FFFFFF" d="M146.385,41.97h-1.709c0.016,0.287,0.016,0.5,0.016,0.637c0,1.299-0.212,2.283-0.666,3.234
		c1.24,1.09,2.435,2.088,2.813,2.329v0.287h-1.77c-0.394-0.362-1.558-1.451-1.679-1.571c-0.982,1.193-2.102,1.754-3.614,1.754
		c-1.905,0-3.72-1.06-3.72-3.115c0-1.588,1.361-2.691,2.843-2.782c-1.406-1.347-1.724-1.83-1.724-2.813
		c0-1.558,1.422-2.238,2.782-2.238c0.847,0,1.513,0.213,1.951,0.604v1.392h-0.394c-0.348-1.072-0.802-1.48-1.648-1.48
		c-0.846,0-1.421,0.544-1.421,1.376c0,0.739,0.469,1.467,1.633,2.569l3.584,3.389c0.469-1.18,0.604-2.391,0.015-3.568h-1.784v-0.303
		l0.771-0.408h4.445v0.303L146.385,41.97z M139.156,43.028c-0.998,0.469-1.481,1.193-1.481,2.328c0,1.572,1.059,2.691,2.556,2.691
		c1.073,0,1.936-0.453,2.813-1.467L139.156,43.028z"/>
	<path fill="#FFFFFF" d="M155.681,48.457h-4.189v-0.394c1.286-0.105,1.286-0.121,1.286-1.498v-6.805c0-1.391,0-1.406-1.286-1.512
		v-0.378h3.751c0.997,0,1.421,0.015,1.965,0.166c1.044,0.286,1.618,1.044,1.618,2.192s-0.695,1.951-2.177,2.51
		c0.695,0.121,0.998,0.166,1.451,0.395c0.893,0.438,1.422,1.27,1.422,2.344C159.521,47.368,158.115,48.457,155.681,48.457z
		 M155.136,38.341h-0.892v4.354h0.982c1.376,0,2.087-0.756,2.087-2.223C157.313,38.961,156.679,38.341,155.136,38.341z
		 M155.242,43.164h-0.998v3.101c0,0.695,0.075,1.194,0.438,1.451c0.211,0.167,0.514,0.242,0.952,0.242
		c1.437,0,2.147-0.756,2.147-2.253C157.782,44.042,156.905,43.164,155.242,43.164z"/>
	<path fill="#FFFFFF" d="M165.16,48.64h-0.394c-1.452,0-2.283-0.349-2.949-1.15c-0.665-0.815-1.028-1.904-1.028-2.947
		c0-1.027,0.379-2.057,1.014-2.768c0.604-0.682,1.497-1.06,2.495-1.06c1.346,0,2.283,0.695,2.66,1.937
		c0.137,0.453,0.183,0.815,0.166,1.617h-4.869c0.016,1.104,0.289,1.98,0.802,2.586c0.499,0.59,1.18,0.908,2.087,0.908
		c0.56,0,0.998-0.138,1.754-0.516l0.228,0.454L165.16,48.64z M164.191,41.214c-0.861,0-1.497,0.529-1.77,1.467
		c-0.09,0.287-0.121,0.529-0.167,1.043h2.602c0.68,0,0.969-0.257,0.969-0.877C165.826,41.925,165.145,41.214,164.191,41.214z"/>
	<path fill="#FFFFFF" d="M173.414,48.457v-0.394c1.301-0.137,1.211-0.303,1.211-1.498v-2.795c0-1.648-0.438-2.238-1.709-2.238
		c-1.256,0-1.859,0.681-2.071,1.617c-0.091,0.408-0.121,0.863-0.121,1.559c0,1.859,0,0,0,1.859c0,1.315,0.015,1.33,1.226,1.496
		v0.395h-3.796v-0.395c1.179-0.166,1.209-0.211,1.209-1.496V42.47c0-0.605-0.182-0.742-0.86-0.742h-0.349v-0.377
		c1.013-0.045,1.937-0.271,2.57-0.636v1.315c0.847-0.907,1.813-1.315,3.024-1.315c1.133,0,1.813,0.483,2.102,1.285
		c0.121,0.362,0.136,0.694,0.136,1.376v3.189c0,1.287-0.062,1.377,1.21,1.498v0.394H173.414z"/>
	<path fill="#FFFFFF" d="M182.589,48.64h-0.393c-1.451,0-2.283-0.349-2.949-1.15c-0.664-0.815-1.027-1.904-1.027-2.947
		c0-1.027,0.379-2.057,1.014-2.768c0.604-0.682,1.497-1.06,2.495-1.06c1.347,0,2.283,0.695,2.661,1.937
		c0.136,0.453,0.182,0.815,0.166,1.617h-4.869c0.016,1.104,0.288,1.98,0.802,2.586c0.499,0.59,1.181,0.908,2.087,0.908
		c0.561,0,0.998-0.138,1.754-0.516l0.228,0.454L182.589,48.64z M181.623,41.214c-0.861,0-1.498,0.529-1.77,1.467
		c-0.091,0.287-0.121,0.529-0.167,1.043h2.603c0.68,0,0.967-0.257,0.967-0.877C183.255,41.925,182.576,41.214,181.623,41.214z"/>
	<path fill="#FFFFFF" d="M190.708,38.267l-0.211,0.316c-0.047,0.061-0.092,0.105-0.166,0.105c-0.047,0-0.106-0.016-0.168-0.045
		l-0.543-0.242c-0.516-0.228-0.711-0.272-0.894-0.272c-0.438,0-0.574,0.257-0.574,1.164v1.966h2.087v0.395l-0.619,0.271h-1.468
		v4.643c0,0.469,0.015,0.877,0.045,0.998c0.091,0.349,0.484,0.453,1.497,0.498v0.395h-4.111v-0.395c0.09,0,0.181-0.015,0.256-0.015
		c0.923-0.062,0.969-0.166,0.969-1.481v-4.643h-1.044v-0.666h1.044v-1.225c0-0.907,0.408-1.497,1.512-2.192
		c0.605-0.378,0.969-0.529,1.361-0.529c0.121,0,0.242,0.045,0.316,0.105l0.666,0.545c0.061,0.045,0.105,0.091,0.105,0.136
		C190.77,38.146,190.77,38.175,190.708,38.267z"/>
	<path fill="#FFFFFF" d="M190.83,48.457v-0.394c1.178-0.121,1.209-0.137,1.209-1.498v-4.082c0-0.604-0.166-0.74-0.861-0.74h-0.348
		v-0.379c1.012-0.045,1.936-0.286,2.569-0.649v5.853c0,1.271-0.03,1.377,1.21,1.496v0.395L190.83,48.457L190.83,48.457z
		 M192.537,39.717c-0.482,0-0.877-0.394-0.877-0.894c0-0.452,0.408-0.86,0.894-0.86c0.469,0,0.877,0.394,0.877,0.877
		C193.43,39.339,193.037,39.717,192.537,39.717z"/>
	<path fill="#FFFFFF" d="M198.6,48.64c-0.802-0.031-1.134-0.168-1.468-0.576c-0.301-0.377-0.438-0.892-0.438-1.813v-4.323h-1.209
		v-0.682h1.209v-1.588l0.953-0.832h0.408v2.42h2.313v0.408l-0.619,0.271h-1.693c0,4.008,0,0,0,4.008c0,0.906,0.105,1.813,1.21,1.813
		c0.332,0,0.635-0.075,0.981-0.196l0.121,0.395L198.6,48.64z"/>
	<path fill="#FFFFFF" d="M203.423,48.64c-0.758,0-1.332-0.121-1.981-0.408v-1.694h0.394c0.031,0.379,0.092,0.696,0.242,0.923
		c0.271,0.408,0.832,0.665,1.422,0.665c0.815,0,1.392-0.56,1.392-1.33c0-0.711-0.259-1.028-1.694-1.996
		c-1.391-0.938-1.738-1.376-1.738-2.133c0-1.164,1.028-1.95,2.541-1.95c0.59,0,1.072,0.045,1.678,0.242v1.497h-0.393
		c-0.045-0.288-0.076-0.408-0.152-0.56c-0.227-0.408-0.604-0.682-1.209-0.682c-0.68,0-1.18,0.424-1.18,0.998
		c0,0.227,0.092,0.499,0.242,0.665c0.258,0.287,0.258,0.287,1.646,1.271c1.211,0.863,1.604,1.377,1.604,2.179
		C206.235,47.716,205.13,48.64,203.423,48.64z"/>
	<path fill="#FFFFFF" d="M213.386,48.64c-0.848,0-2.088-0.242-2.479-0.438c-0.152-0.076-0.168-0.121-0.168-0.317V45.75h0.379
		c0.121,0.711,0.228,1.06,0.438,1.376c0.423,0.62,1.179,0.998,1.937,0.998c1.164,0,2.024-0.831,2.024-1.966
		c0-1.06-0.515-1.679-2.767-3.251c-1.406-0.982-1.875-1.572-1.875-2.586c0-1.814,1.724-2.631,3.312-2.631
		c0.711,0,1.558,0.09,1.937,0.242c0.182,0.074,0.227,0.121,0.227,0.287v1.936h-0.395c-0.211-1.332-0.785-1.936-1.92-1.936
		c-0.998,0-1.633,0.619-1.633,1.617c0,0.363,0.105,0.695,0.287,0.922c0.333,0.409,0.303,0.439,2.27,1.905
		c1.617,1.21,2.131,1.876,2.131,3.01C217.091,47.444,215.593,48.64,213.386,48.64z"/>
	<path fill="#FFFFFF" d="M224.649,42.333l-0.483,0.287c-0.031,0.016-0.092,0.029-0.137,0.029s-0.091-0.029-0.136-0.09l-0.666-0.787
		c-0.317-0.362-0.71-0.545-1.194-0.545c-1.375,0-2.269,1.227-2.269,2.979c0,2.011,1.073,3.554,2.843,3.554
		c0.561,0,0.982-0.137,1.725-0.529l0.258,0.453l-2.012,0.953h-0.363c-1.193,0-2.146-0.394-2.813-1.059
		c-0.74-0.741-1.135-1.801-1.135-2.979c0-2.224,1.693-3.887,4.053-3.887c0.727,0,1.314,0.137,1.846,0.395l0.545,1.013
		c0.015,0.03,0.015,0.062,0.015,0.091C224.725,42.257,224.71,42.287,224.649,42.333z"/>
	<path fill="#FFFFFF" d="M230.938,48.457v-0.394c1.179-0.121,1.209-0.137,1.209-1.498v-2.795c0-1.633-0.469-2.238-1.708-2.238
		c-1.904,0-2.193,1.693-2.193,3.176v1.859c0,1.361,0.03,1.377,1.195,1.496v0.395h-3.75v-0.395c1.164-0.135,1.193-0.149,1.193-1.496
		v-7.516c0-0.303-0.029-0.515-0.105-0.65c-0.09-0.15-0.24-0.211-0.453-0.211h-0.635v-0.408c0.816,0,1.799-0.166,2.555-0.438v4.688
		c0.849-0.907,1.86-1.315,3.07-1.315c1.95,0,2.191,1.089,2.191,2.661v3.189c0,1.302-0.045,1.377,1.226,1.498v0.394h-3.795V48.457z"
		/>
	<path fill="#FFFFFF" d="M240.128,48.64h-0.393c-1.451,0-2.283-0.349-2.949-1.15c-0.664-0.815-1.027-1.904-1.027-2.947
		c0-1.027,0.379-2.057,1.014-2.768c0.604-0.682,1.497-1.06,2.495-1.06c1.346,0,2.282,0.695,2.661,1.937
		c0.136,0.453,0.182,0.815,0.166,1.617h-4.869c0.016,1.104,0.288,1.98,0.802,2.586c0.499,0.59,1.181,0.908,2.087,0.908
		c0.561,0,0.998-0.138,1.754-0.516l0.228,0.454L240.128,48.64z M239.162,41.214c-0.861,0-1.498,0.529-1.77,1.467
		c-0.092,0.287-0.121,0.529-0.167,1.043h2.603c0.68,0,0.967-0.257,0.967-0.877C240.794,41.925,240.115,41.214,239.162,41.214z"/>
	<path fill="#FFFFFF" d="M252.74,48.457v-0.394c1.178-0.121,1.209-0.137,1.209-1.498V43.8c0-1.662-0.394-2.253-1.482-2.253
		c-0.619,0-1.133,0.228-1.451,0.636c-0.408,0.514-0.514,1.104-0.514,2.615v1.77c0,1.361,0.015,1.377,1.225,1.496v0.395h-3.795
		v-0.395c1.179-0.119,1.209-0.135,1.209-1.496V43.8c0-1.662-0.348-2.253-1.467-2.253c-0.604,0-1.119,0.228-1.438,0.604
		c-0.408,0.498-0.544,1.148-0.544,2.646v1.769c0,1.361,0.015,1.377,1.226,1.498v0.394h-3.795v-0.394
		c1.178-0.121,1.209-0.137,1.209-1.498v-4.082c0-0.59-0.183-0.74-0.861-0.74h-0.348v-0.379c1.012-0.045,1.936-0.286,2.569-0.649
		v1.331c0.757-0.923,1.558-1.331,2.752-1.331c1.06,0,1.542,0.349,1.979,1.331c0.832-0.923,1.648-1.331,2.738-1.331
		c1.014,0,1.617,0.349,1.936,1.104c0.166,0.394,0.212,0.832,0.212,1.588v3.16c0,1.361,0,1.377,1.21,1.496v0.395L252.74,48.457
		L252.74,48.457z"/>
	<path fill="#FFFFFF" d="M261.914,48.64h-0.393c-1.452,0-2.283-0.349-2.949-1.15c-0.664-0.815-1.027-1.904-1.027-2.947
		c0-1.027,0.379-2.057,1.014-2.768c0.604-0.682,1.497-1.06,2.494-1.06c1.347,0,2.283,0.695,2.662,1.937
		c0.136,0.453,0.182,0.815,0.166,1.617h-4.869c0.016,1.104,0.287,1.98,0.802,2.586c0.499,0.59,1.181,0.908,2.087,0.908
		c0.561,0,0.998-0.138,1.754-0.516l0.227,0.454L261.914,48.64z M260.946,41.214c-0.86,0-1.497,0.529-1.769,1.467
		c-0.092,0.287-0.121,0.529-0.168,1.043h2.603c0.681,0,0.968-0.257,0.968-0.877C262.58,41.925,261.899,41.214,260.946,41.214z"/>
</g>
</svg>
