<?xml version="1.0" encoding="utf-8"?>
<!-- Generator: Adobe Illustrator 16.0.0, SVG Export Plug-In . SVG Version: 6.00 Build 0)  -->
<!DOCTYPE svg PUBLIC "-//W3C//DTD SVG 1.1//EN" "http://www.w3.org/Graphics/SVG/1.1/DTD/svg11.dtd">
<svg version="1.1" id="new_logo" xmlns="http://www.w3.org/2000/svg" xmlns:xlink="http://www.w3.org/1999/xlink" x="0px" y="0px"
	 width="315.875px" height="72.714px" viewBox="0 0 315.875 72.714" enable-background="new 0 0 315.875 72.714"
	 xml:space="preserve">
<rect x="1.063" y="0.993" fill="none" stroke="#240743" stroke-width="2" stroke-miterlimit="10" width="153.5" height="71.25"/>
<rect x="160.146" fill="#939598" width="155.729" height="72.714"/>
<g>
	<path fill="#2C114A" d="M22.108,45.901v-0.837c1.106-0.054,1.512-0.351,1.512-1.079c0-0.271-0.081-0.541-0.216-0.918l-1.106-3.186
		h-6.505l-1.106,3.186c-0.108,0.297-0.135,0.513-0.135,0.756c0,0.756,0.405,1.188,1.376,1.241v0.837h-5.317v-0.837
		c1.458-0.081,2.187-0.891,3.266-3.726l5.587-14.656h1.809l5.102,14.09c1.269,3.536,1.809,4.13,3.266,4.292v0.837H22.108z
		 M19.247,30.677l-3.023,7.99h5.641L19.247,30.677z"/>
	<path fill="#2C114A" d="M44.949,44.714c-1.539,0.729-3.536,1.188-5.803,1.188h-8.503v-0.837c1.35-0.135,1.782-0.135,2.079-0.513
		c0.216-0.27,0.27-0.513,0.27-1.836V30.191c0-2.132-0.054-2.213-2.349-2.375v-0.81h9.718c1.862,0,3.482,0.27,4.832,0.837
		c3.212,1.323,5.156,4.157,5.156,8.097C50.348,40.017,48.324,43.147,44.949,44.714z M41.818,28.383
		c-0.837-0.27-1.89-0.432-3.05-0.432h-1.97v14.091c0,2.537,0.324,2.888,2.24,2.888c1.592,0,2.942-0.351,3.941-1.025
		c2.187-1.458,3.266-4.373,3.266-7.667C46.245,32.27,44.707,29.328,41.818,28.383z"/>
	<path fill="#2C114A" d="M64.794,31.325c-0.621-2.618-1.295-3.293-3.212-3.293h-3.158v8.044h2.51c1.673,0,2.348-0.675,2.483-2.564
		h0.756v6.289h-0.756c-0.162-1.89-0.81-2.672-2.483-2.672h-2.51v5.587c0,2.105,0.054,2.187,2.348,2.349v0.837h-8.53v-0.837
		c2.294-0.162,2.349-0.243,2.349-2.349V30.191c0-2.132-0.054-2.213-2.349-2.375v-0.81h13.281v4.319H64.794z"/>
	<path fill="#2C114A" d="M89.659,44.309c-0.108,0.486-0.216,0.621-0.864,0.864c-1.728,0.647-4.022,1.053-5.911,1.053
		c-2.538,0-5.048-0.702-6.856-2.133c-2.078-1.646-3.455-4.292-3.455-7.585c0-2.996,1.215-5.831,3.806-7.801
		c1.701-1.296,4.211-2.024,7.126-2.024c1.863,0,3.806,0.405,5.156,0.972c0.702,0.297,0.945,0.54,0.945,1.106v3.375H88.85
		c-0.162-0.837-0.378-1.458-0.675-1.971c-0.918-1.593-2.807-2.457-4.778-2.457c-4.103,0-6.667,3.266-6.667,8.665
		c0,2.753,0.702,5.155,2.078,6.774c1.053,1.242,2.672,2.025,4.589,2.025c1.943,0,3.779-0.756,4.967-2.214
		c0.486-0.594,0.81-1.106,1.323-2.132h0.729L89.659,44.309z"/>
	<path fill="#2C114A" d="M98.815,46.226c-3.995,0-7.045-2.889-7.045-6.938c0-4.265,3.401-7.207,7.558-7.207
		c4.184,0,7.072,2.861,7.072,6.883C106.4,43.095,103.188,46.226,98.815,46.226z M99.031,32.972c-2.888,0-3.428,4.021-3.428,6.182
		c0,3.833,1.35,6.154,3.536,6.154s3.428-2.24,3.428-5.965C102.567,35.428,101.353,32.972,99.031,32.972z"/>
	<path fill="#2C114A" d="M119.495,35.536l-4.777,10.365h-1.485l-4.643-10.689c-0.648-1.485-1.08-1.89-2.187-1.971v-0.837h7.504
		v0.837c-1.376,0.027-1.835,0.243-1.835,0.864c0,0.162,0.027,0.27,0.216,0.783l2.861,7.207l3.077-6.99
		c0.162-0.378,0.216-0.621,0.216-0.783c0-1.08-1.539-1.053-2.267-1.08v-0.837h5.668v0.837
		C120.683,33.35,120.332,33.701,119.495,35.536z"/>
	<path fill="#2C114A" d="M125.708,38.425c0.027,2.078,0.405,3.4,1.188,4.373c0.783,0.971,1.944,1.538,3.374,1.538
		c1.053,0,1.944-0.324,3.239-1.106l0.567,0.944l-3.644,2.052h-0.648c-2.456,0-4.238-0.378-5.695-1.836
		c-1.35-1.35-2.105-3.428-2.105-5.479c0-2.024,0.81-3.833,2.051-5.075c1.161-1.161,2.861-1.754,4.751-1.754
		c2.51,0,4.265,1.134,4.939,3.158c0.297,0.891,0.378,1.593,0.378,3.186H125.708z M128.569,33.026c-1.215,0-2.16,0.837-2.564,2.294
		c-0.162,0.594-0.243,1.079-0.297,2.132h3.86c0.945,0,1.323-0.459,1.323-1.564C130.891,34.213,129.946,33.026,128.569,33.026z"/>
	<path fill="#2C114A" d="M146.091,35.104l-0.567,0.701c-0.081,0.108-0.216,0.243-0.378,0.243s-0.324-0.081-0.459-0.135l-1.242-0.513
		c-0.351-0.135-0.594-0.27-0.945-0.27c-0.567,0-0.891,0.351-1.134,1.106c-0.188,0.621-0.216,1.809-0.216,2.699v3.779
		c0,2.241,0.324,2.16,2.457,2.349v0.837h-8.152v-0.837c1.998-0.162,2.132-0.243,2.132-2.349v-7.018c0-1.161-0.351-1.566-1.458-1.62
		c0,0-0.54-0.027-0.648-0.027v-0.81c2.294-0.054,4.265-0.486,5.668-1.161v2.834l1.242-1.566c0.783-0.972,1.107-1.269,1.782-1.269
		c0.513,0,0.836,0.351,1.161,0.864l0.864,1.35c0.108,0.162,0.135,0.243,0.135,0.351C146.334,34.78,146.28,34.888,146.091,35.104z"/>
</g>
<g>
	<path fill="#FFFFFF" d="M178.281,24.018v-0.364c0.63-0.028,0.84-0.168,0.84-0.546c0-0.154-0.042-0.336-0.112-0.532l-0.602-1.807
		h-3.517l-0.644,1.863c-0.042,0.112-0.057,0.224-0.057,0.322c0,0.42,0.238,0.672,0.742,0.7v0.364h-2.591v-0.364
		c0.574-0.014,0.967-0.406,1.303-1.303l3.096-8.307h0.813l2.829,8.377c0.322,0.938,0.574,1.205,1.148,1.232v0.364H178.281z
		 M176.81,15.6l-1.723,4.636h3.152L176.81,15.6z"/>
	<path fill="#FFFFFF" d="M187.605,24.186c-0.154-0.168-0.252-0.434-0.294-0.742c-0.015-0.126-0.028-0.21-0.028-0.336l-1.232,0.729
		c-0.448,0.266-0.7,0.35-1.177,0.35c-1.555,0-2.171-0.771-2.171-2.731v-2.97c0-0.56-0.169-0.686-0.799-0.686h-0.322v-0.35
		c0.925-0.042,1.793-0.267,2.382-0.603v4.482c0,1.163,0.168,2.017,1.498,2.017c0.799,0,1.443-0.42,1.653-1.106
		c0.126-0.393,0.182-0.995,0.182-1.653v-2.102c0-0.56-0.153-0.686-0.784-0.686h-0.336v-0.35c0.938-0.042,1.793-0.267,2.381-0.603
		c0,2.241,0,5.127,0,5.127c0,1.205,0.07,1.289,0.49,1.289c0.126,0,0.253-0.028,0.477-0.098l0.084,0.392L187.605,24.186z"/>
	<path fill="#FFFFFF" d="M192.475,24.186c-0.7,0-1.232-0.112-1.835-0.378v-1.569h0.364c0.028,0.35,0.084,0.644,0.224,0.854
		c0.252,0.378,0.771,0.616,1.317,0.616c0.756,0,1.288-0.519,1.288-1.233c0-0.658-0.238-0.952-1.568-1.849
		c-1.289-0.869-1.611-1.275-1.611-1.975c0-1.079,0.953-1.807,2.354-1.807c0.546,0,0.994,0.042,1.555,0.224v1.387h-0.364
		c-0.042-0.266-0.07-0.378-0.14-0.518c-0.21-0.378-0.561-0.63-1.121-0.63c-0.63,0-1.093,0.392-1.093,0.924
		c0,0.21,0.085,0.462,0.225,0.616c0.238,0.266,0.238,0.266,1.526,1.177c1.121,0.798,1.485,1.275,1.485,2.017
		C195.08,23.332,194.058,24.186,192.475,24.186z"/>
	<path fill="#FFFFFF" d="M198.649,24.186c-0.742-0.028-1.05-0.154-1.358-0.532c-0.28-0.35-0.406-0.826-0.406-1.681v-4.006h-1.12
		v-0.63h1.12v-1.471l0.883-0.771h0.378v2.241h2.144v0.378l-0.574,0.252h-1.569c0,3.712,0,0,0,3.712c0,0.84,0.098,1.681,1.121,1.681
		c0.308,0,0.588-0.07,0.91-0.182l0.112,0.364L198.649,24.186z"/>
	<path fill="#FFFFFF" d="M205.595,18.149l-0.322,0.252c-0.042,0.028-0.084,0.07-0.14,0.07c-0.042,0-0.099-0.028-0.126-0.042
		l-0.463-0.238c-0.153-0.084-0.266-0.098-0.448-0.098c-0.322,0-0.504,0.182-0.644,0.532c-0.127,0.322-0.127,1.079-0.127,1.457v2.185
		c0,1.359,0.112,1.317,1.415,1.387v0.364h-3.824v-0.364c1.163-0.056,1.149-0.168,1.149-1.387v-3.782c0-0.56-0.169-0.686-0.799-0.686
		h-0.322v-0.35c0.938-0.042,1.779-0.267,2.381-0.603v1.289l0.645-0.756c0.406-0.476,0.519-0.532,0.827-0.532
		c0.224,0,0.363,0.112,0.532,0.42l0.35,0.63c0.028,0.056,0.042,0.084,0.042,0.112C205.721,18.065,205.679,18.093,205.595,18.149z"/>
	<path fill="#FFFFFF" d="M210.577,24.172c-0.21-0.351-0.322-0.729-0.336-1.107l-1.078,0.729c-0.463,0.322-0.687,0.392-1.023,0.392
		c-1.078,0-1.82-0.771-1.82-1.891c0-0.784,0.35-1.331,1.064-1.75c0.336-0.196,0.687-0.351,1.345-0.603l1.526-0.588
		c-0.014-1.485-0.406-2.045-1.204-2.045c-0.658,0-1.022,0.504-1.303,1.022c-0.042,0.084-0.168,0.336-0.294,0.336
		c-0.028,0-0.07,0-0.112-0.014l-0.435-0.112c-0.084-0.028-0.126-0.084-0.112-0.14l0.211-0.784c0.069-0.252,0.111-0.294,0.364-0.406
		c0.518-0.238,1.162-0.364,1.793-0.364c1.652,0,2.353,0.672,2.353,2.241v3.11c0,0.798,0.126,1.05,0.49,1.05
		c0.126,0,0.253-0.028,0.477-0.098l0.084,0.393L210.577,24.172z M210.255,19.886c-0.7,0.252-0.938,0.35-1.246,0.477
		c-0.967,0.406-1.429,0.966-1.429,1.765c0,0.701,0.462,1.191,1.148,1.191c0.994,0,1.526-0.799,1.526-2.339V19.886z"/>
	<path fill="#FFFFFF" d="M213.249,24.018v-0.364c1.093-0.112,1.121-0.126,1.121-1.387v-6.962c0-0.364-0.028-0.574-0.168-0.686
		c-0.099-0.084-0.267-0.112-0.547-0.112h-0.392v-0.378c0.784-0.014,1.694-0.168,2.367-0.406v8.544c0,1.261,0,1.275,1.12,1.387v0.364
		H213.249z"/>
	<path fill="#FFFFFF" d="M217.533,24.018v-0.364c1.093-0.112,1.121-0.126,1.121-1.387v-3.782c0-0.56-0.154-0.686-0.799-0.686h-0.322
		v-0.35c0.938-0.042,1.793-0.267,2.382-0.603v5.421c0,1.177-0.028,1.275,1.12,1.387v0.364H217.533z M219.116,15.922
		c-0.448,0-0.813-0.364-0.813-0.827c0-0.42,0.379-0.798,0.826-0.798c0.435,0,0.813,0.364,0.813,0.813
		C219.942,15.571,219.579,15.922,219.116,15.922z"/>
	<path fill="#FFFFFF" d="M226.215,24.172c-0.21-0.351-0.322-0.729-0.336-1.107l-1.078,0.729c-0.463,0.322-0.687,0.392-1.023,0.392
		c-1.078,0-1.82-0.771-1.82-1.891c0-0.784,0.35-1.331,1.064-1.75c0.336-0.196,0.687-0.351,1.345-0.603l1.526-0.588
		c-0.014-1.485-0.406-2.045-1.204-2.045c-0.658,0-1.022,0.504-1.303,1.022c-0.042,0.084-0.168,0.336-0.294,0.336
		c-0.028,0-0.07,0-0.112-0.014l-0.435-0.112c-0.084-0.028-0.126-0.084-0.112-0.14l0.211-0.784c0.069-0.252,0.111-0.294,0.364-0.406
		c0.518-0.238,1.162-0.364,1.793-0.364c1.652,0,2.353,0.672,2.353,2.241v3.11c0,0.798,0.126,1.05,0.49,1.05
		c0.126,0,0.252-0.028,0.477-0.098l0.084,0.393L226.215,24.172z M225.893,19.886c-0.7,0.252-0.938,0.35-1.246,0.477
		c-0.967,0.406-1.429,0.966-1.429,1.765c0,0.701,0.462,1.191,1.148,1.191c0.994,0,1.526-0.799,1.526-2.339V19.886z"/>
	<path fill="#FFFFFF" d="M233.762,24.018v-0.364c1.204-0.126,1.12-0.28,1.12-1.387v-2.591c0-1.527-0.406-2.073-1.582-2.073
		c-1.163,0-1.724,0.63-1.92,1.499c-0.084,0.378-0.111,0.798-0.111,1.443c0,1.723,0,0,0,1.723c0,1.219,0.014,1.233,1.135,1.387v0.364
		h-3.517v-0.364c1.093-0.154,1.121-0.196,1.121-1.387v-3.796c0-0.561-0.168-0.687-0.799-0.687h-0.322v-0.35
		c0.938-0.042,1.793-0.252,2.382-0.588v1.219c0.784-0.84,1.681-1.219,2.801-1.219c1.051,0,1.682,0.448,1.947,1.19
		c0.112,0.336,0.126,0.645,0.126,1.275v2.956c0,1.19-0.056,1.275,1.121,1.387v0.364H233.762z"/>
	<path fill="#FFFFFF" d="M179.023,40.696c-0.631,0.209-1.429,0.322-2.27,0.322h-4.048v-0.365c0.798-0.069,0.966-0.111,1.093-0.308
		c0.098-0.154,0.098-0.21,0.098-1.079v-6.303c0-1.289,0-1.303-1.19-1.401v-0.35h4.622c0.995,0,1.821,0.112,2.493,0.378
		c1.709,0.659,2.647,2.143,2.647,4.16C182.469,38.118,181.166,39.995,179.023,40.696z M178.407,31.857
		c-0.448-0.126-1.022-0.21-1.653-0.21h-1.499v7.381c0,1.289,0.252,1.527,1.513,1.527c0.854,0,1.625-0.141,2.186-0.448
		c1.219-0.658,1.919-2.114,1.919-4.076C180.872,33.818,179.947,32.305,178.407,31.857z"/>
	<path fill="#FFFFFF" d="M187.674,41.187h-0.364c-1.345,0-2.114-0.322-2.731-1.064c-0.616-0.757-0.952-1.766-0.952-2.732
		c0-0.952,0.351-1.905,0.938-2.563c0.561-0.63,1.387-0.98,2.312-0.98c1.246,0,2.115,0.645,2.465,1.793
		c0.126,0.42,0.168,0.756,0.154,1.499h-4.511c0.015,1.023,0.267,1.836,0.743,2.396c0.462,0.546,1.092,0.841,1.933,0.841
		c0.519,0,0.925-0.127,1.625-0.477l0.21,0.42L187.674,41.187z M186.777,34.309c-0.798,0-1.387,0.49-1.639,1.358
		c-0.084,0.266-0.112,0.49-0.154,0.967h2.41c0.63,0,0.896-0.238,0.896-0.813C188.291,34.967,187.66,34.309,186.777,34.309z"/>
	<path fill="#FFFFFF" d="M195.136,31.577l-0.196,0.294c-0.042,0.056-0.084,0.098-0.154,0.098c-0.042,0-0.098-0.014-0.154-0.042
		l-0.504-0.224c-0.477-0.21-0.658-0.252-0.826-0.252c-0.406,0-0.532,0.238-0.532,1.079v1.821h1.933v0.364l-0.574,0.252h-1.358v4.3
		c0,0.435,0.014,0.813,0.042,0.925c0.084,0.322,0.448,0.421,1.387,0.462v0.365h-3.811v-0.365c0.084,0,0.168-0.014,0.238-0.014
		c0.854-0.056,0.896-0.154,0.896-1.373v-4.3h-0.967v-0.616h0.967v-1.135c0-0.84,0.378-1.387,1.401-2.031
		c0.56-0.35,0.896-0.49,1.26-0.49c0.112,0,0.225,0.042,0.295,0.098l0.616,0.504c0.056,0.042,0.098,0.084,0.098,0.126
		S195.191,31.493,195.136,31.577z"/>
	<path fill="#FFFFFF" d="M199.125,41.187h-0.364c-1.345,0-2.114-0.322-2.731-1.064c-0.616-0.757-0.952-1.766-0.952-2.732
		c0-0.952,0.351-1.905,0.938-2.563c0.561-0.63,1.387-0.98,2.312-0.98c1.246,0,2.115,0.645,2.465,1.793
		c0.126,0.42,0.168,0.756,0.154,1.499h-4.511c0.015,1.023,0.267,1.836,0.743,2.396c0.462,0.546,1.092,0.841,1.933,0.841
		c0.519,0,0.925-0.127,1.625-0.477l0.21,0.42L199.125,41.187z M198.229,34.309c-0.798,0-1.387,0.49-1.639,1.358
		c-0.084,0.266-0.112,0.49-0.154,0.967h2.41c0.63,0,0.896-0.238,0.896-0.813C199.742,34.967,199.111,34.309,198.229,34.309z"/>
	<path fill="#FFFFFF" d="M206.714,41.019v-0.365c1.205-0.125,1.12-0.279,1.12-1.387v-2.591c0-1.527-0.406-2.073-1.582-2.073
		c-1.163,0-1.724,0.63-1.919,1.499c-0.085,0.378-0.112,0.798-0.112,1.442c0,1.723,0,0,0,1.723c0,1.219,0.014,1.233,1.135,1.387
		v0.365h-3.517v-0.365c1.093-0.153,1.121-0.195,1.121-1.387v-3.795c0-0.561-0.168-0.687-0.799-0.687h-0.322v-0.35
		c0.938-0.042,1.793-0.252,2.382-0.588v1.219c0.784-0.84,1.681-1.219,2.802-1.219c1.05,0,1.681,0.448,1.946,1.19
		c0.112,0.336,0.126,0.645,0.126,1.275v2.955c0,1.191-0.056,1.275,1.121,1.387v0.365H206.714z"/>
	<path fill="#FFFFFF" d="M217.018,35.345l-0.448,0.266c-0.028,0.014-0.084,0.028-0.126,0.028s-0.084-0.028-0.126-0.084l-0.616-0.729
		c-0.294-0.336-0.658-0.504-1.106-0.504c-1.275,0-2.102,1.135-2.102,2.76c0,1.862,0.994,3.292,2.634,3.292
		c0.518,0,0.91-0.127,1.597-0.49l0.238,0.42l-1.863,0.883h-0.336c-1.106,0-1.989-0.365-2.605-0.98
		c-0.687-0.688-1.051-1.668-1.051-2.76c0-2.059,1.569-3.6,3.754-3.6c0.673,0,1.219,0.126,1.709,0.364l0.504,0.938
		c0.015,0.028,0.015,0.056,0.015,0.084C217.088,35.275,217.073,35.303,217.018,35.345z"/>
	<path fill="#FFFFFF" d="M221.889,41.187h-0.364c-1.345,0-2.114-0.322-2.731-1.064c-0.616-0.757-0.952-1.766-0.952-2.732
		c0-0.952,0.351-1.905,0.938-2.563c0.561-0.63,1.387-0.98,2.312-0.98c1.246,0,2.115,0.645,2.465,1.793
		c0.126,0.42,0.168,0.756,0.154,1.499h-4.511c0.015,1.023,0.267,1.836,0.743,2.396c0.462,0.546,1.092,0.841,1.933,0.841
		c0.519,0,0.925-0.127,1.625-0.477l0.21,0.42L221.889,41.187z M220.992,34.309c-0.798,0-1.387,0.49-1.639,1.358
		c-0.084,0.266-0.112,0.49-0.154,0.967h2.41c0.63,0,0.896-0.238,0.896-0.813C222.506,34.967,221.875,34.309,220.992,34.309z"/>
	<path fill="#FFFFFF" d="M233.678,33.454c-0.28-1.485-0.574-1.807-1.625-1.807h-1.723v4.329h1.303c0.91,0,1.246-0.309,1.316-1.247
		h0.364v2.997h-0.364c-0.098-0.966-0.393-1.316-1.316-1.316h-1.303v2.857c0,1.275,0,1.289,1.19,1.387v0.365h-3.74v-0.365
		c1.19-0.098,1.19-0.111,1.19-1.387v-6.303c0-1.289,0-1.303-1.19-1.401v-0.35h6.247v2.241H233.678z"/>
	<path fill="#FFFFFF" d="M238.228,41.187c-2.031,0-3.446-1.598-3.446-3.586c0-2.144,1.569-3.754,3.726-3.754
		c2.073,0,3.502,1.471,3.502,3.6C242.009,39.589,240.412,41.187,238.228,41.187z M238.325,34.309c-1.653,0-2.157,1.835-2.157,3.18
		c0,1.892,0.91,3.222,2.241,3.222c1.345,0,2.213-1.219,2.213-3.109C240.622,35.583,239.726,34.309,238.325,34.309z"/>
	<path fill="#FFFFFF" d="M247.58,35.149l-0.322,0.252c-0.042,0.028-0.084,0.07-0.14,0.07c-0.042,0-0.099-0.028-0.126-0.042
		l-0.463-0.238c-0.153-0.084-0.266-0.098-0.448-0.098c-0.322,0-0.504,0.182-0.644,0.532c-0.127,0.322-0.127,1.079-0.127,1.457v2.185
		c0,1.359,0.112,1.317,1.415,1.387v0.365h-3.824v-0.365c1.163-0.056,1.148-0.168,1.148-1.387v-3.782c0-0.56-0.168-0.686-0.798-0.686
		h-0.322v-0.35c0.938-0.042,1.779-0.267,2.381-0.603v1.289l0.645-0.756c0.406-0.476,0.519-0.532,0.827-0.532
		c0.224,0,0.363,0.112,0.532,0.42l0.35,0.63c0.028,0.056,0.042,0.084,0.042,0.112C247.706,35.065,247.664,35.093,247.58,35.149z"/>
	<path fill="#FFFFFF" d="M254.188,35.345l-0.448,0.266c-0.028,0.014-0.084,0.028-0.126,0.028s-0.084-0.028-0.126-0.084l-0.616-0.729
		c-0.294-0.336-0.658-0.504-1.106-0.504c-1.275,0-2.102,1.135-2.102,2.76c0,1.862,0.994,3.292,2.634,3.292
		c0.518,0,0.91-0.127,1.597-0.49l0.238,0.42l-1.863,0.883h-0.336c-1.106,0-1.989-0.365-2.605-0.98
		c-0.687-0.688-1.051-1.668-1.051-2.76c0-2.059,1.569-3.6,3.754-3.6c0.673,0,1.219,0.126,1.709,0.364l0.504,0.938
		c0.015,0.028,0.015,0.056,0.015,0.084C254.258,35.275,254.243,35.303,254.188,35.345z"/>
	<path fill="#FFFFFF" d="M259.059,41.187h-0.364c-1.345,0-2.114-0.322-2.731-1.064c-0.616-0.757-0.952-1.766-0.952-2.732
		c0-0.952,0.351-1.905,0.938-2.563c0.561-0.63,1.387-0.98,2.312-0.98c1.246,0,2.115,0.645,2.465,1.793
		c0.126,0.42,0.168,0.756,0.154,1.499h-4.511c0.015,1.023,0.267,1.836,0.743,2.396c0.462,0.546,1.092,0.841,1.933,0.841
		c0.519,0,0.925-0.127,1.625-0.477l0.21,0.42L259.059,41.187z M258.162,34.309c-0.798,0-1.387,0.49-1.639,1.358
		c-0.084,0.266-0.112,0.49-0.154,0.967h2.41c0.63,0,0.896-0.238,0.896-0.813C259.676,34.967,259.045,34.309,258.162,34.309z"/>
	<path fill="#FFFFFF" d="M181.656,57.261c-0.069,0.281-0.111,0.338-0.518,0.477c-0.841,0.295-1.989,0.449-2.942,0.449
		c-1.316,0-2.563-0.393-3.543-1.135c-1.107-0.84-1.836-2.158-1.836-3.895c0-1.414,0.631-2.982,1.989-4.006
		c0.896-0.672,2.102-1.107,3.656-1.107c0.967,0,2.031,0.211,2.661,0.477c0.406,0.168,0.532,0.295,0.532,0.631v1.723h-0.364
		c-0.042-0.49-0.126-0.854-0.266-1.121c-0.406-0.77-1.555-1.232-2.718-1.232c-2.396,0-3.894,1.668-3.894,4.512
		c0,1.525,0.434,2.857,1.33,3.711c0.645,0.604,1.527,0.967,2.662,0.967c1.106,0,2.101-0.379,2.717-1.148
		c0.225-0.281,0.351-0.518,0.589-1.051h0.364L181.656,57.261z"/>
	<path fill="#FFFFFF" d="M186.442,58.187c-2.031,0-3.446-1.598-3.446-3.586c0-2.143,1.569-3.754,3.726-3.754
		c2.073,0,3.502,1.471,3.502,3.6C190.224,56.589,188.627,58.187,186.442,58.187z M186.54,51.308c-1.653,0-2.157,1.836-2.157,3.18
		c0,1.893,0.91,3.223,2.241,3.223c1.345,0,2.213-1.219,2.213-3.109C188.837,52.583,187.94,51.308,186.54,51.308z"/>
	<path fill="#FFFFFF" d="M196.804,52.64l-2.521,5.379h-0.448l-2.367-5.547c-0.351-0.813-0.575-1.051-1.149-1.094v-0.363h3.628v0.363
		c-0.91,0.014-1.218,0.154-1.218,0.547c0,0.084,0.014,0.195,0.111,0.434l1.611,4.092l1.793-4.021c0.112-0.238,0.14-0.363,0.14-0.447
		c0-0.561-0.798-0.59-1.19-0.604v-0.363h2.815v0.363C197.405,51.448,197.279,51.63,196.804,52.64z"/>
	<path fill="#FFFFFF" d="M202.206,58.187h-0.364c-1.345,0-2.114-0.322-2.731-1.064c-0.616-0.758-0.952-1.766-0.952-2.732
		c0-0.951,0.351-1.904,0.938-2.563c0.561-0.631,1.387-0.98,2.312-0.98c1.246,0,2.115,0.645,2.465,1.793
		c0.126,0.42,0.168,0.756,0.154,1.498h-4.511c0.015,1.023,0.267,1.836,0.743,2.396c0.462,0.545,1.092,0.84,1.933,0.84
		c0.519,0,0.925-0.127,1.625-0.477l0.21,0.42L202.206,58.187z M201.31,51.308c-0.798,0-1.387,0.49-1.639,1.359
		c-0.084,0.266-0.112,0.49-0.154,0.967h2.41c0.63,0,0.896-0.238,0.896-0.813C202.823,51.968,202.192,51.308,201.31,51.308z"/>
	<path fill="#FFFFFF" d="M209.599,52.149l-0.322,0.252c-0.042,0.027-0.084,0.07-0.14,0.07c-0.042,0-0.099-0.029-0.126-0.043
		l-0.463-0.238c-0.153-0.084-0.266-0.098-0.448-0.098c-0.322,0-0.504,0.182-0.644,0.533c-0.127,0.322-0.127,1.078-0.127,1.455v2.186
		c0,1.359,0.112,1.316,1.415,1.387v0.365h-3.824v-0.365c1.163-0.055,1.149-0.168,1.149-1.387v-3.781
		c0-0.561-0.169-0.688-0.799-0.688h-0.322v-0.35c0.938-0.041,1.779-0.266,2.381-0.602v1.289l0.645-0.758
		c0.406-0.477,0.519-0.531,0.827-0.531c0.224,0,0.363,0.111,0.532,0.42l0.35,0.631c0.028,0.055,0.042,0.084,0.042,0.111
		C209.725,52.065,209.683,52.093,209.599,52.149z"/>
</g>
</svg>
