<?xml version="1.0" encoding="utf-8"?>
<!-- Generator: Adobe Illustrator 16.0.0, SVG Export Plug-In . SVG Version: 6.00 Build 0)  -->
<!DOCTYPE svg PUBLIC "-//W3C//DTD SVG 1.1//EN" "http://www.w3.org/Graphics/SVG/1.1/DTD/svg11.dtd">
<svg version="1.1" id="new_logo" xmlns="http://www.w3.org/2000/svg" xmlns:xlink="http://www.w3.org/1999/xlink" x="0px" y="0px"
	 width="301.961px" height="69.992px" viewBox="0 0 301.961 69.992" enable-background="new 0 0 301.961 69.992"
	 xml:space="preserve">
<rect fill="#007DC3" width="149.085" height="69.992"/>
<rect x="154" fill="#939598" width="147.961" height="69.992"/>
<rect x="50" y="25.25" fill="none" width="58.5" height="27.5"/>
<rect x="167.5" y="13" fill="none" width="105.75" height="52.5"/>
<g enable-background="new    ">
	<path fill="#FFFFFF" d="M176.327,21.866c-0.063,0.26-0.104,0.313-0.479,0.442c-0.779,0.272-1.847,0.416-2.73,0.416
		c-1.223,0-2.379-0.364-3.289-1.054c-1.027-0.779-1.703-2.002-1.703-3.613c0-1.313,0.586-2.77,1.848-3.719
		c0.832-0.624,1.949-1.026,3.394-1.026c0.896,0,1.885,0.194,2.47,0.441c0.377,0.156,0.493,0.273,0.493,0.585v1.6h-0.338
		c-0.039-0.455-0.117-0.793-0.246-1.04c-0.377-0.716-1.443-1.145-2.522-1.145c-2.224,0-3.613,1.547-3.613,4.187
		c0,1.417,0.402,2.651,1.234,3.445c0.598,0.559,1.418,0.896,2.471,0.896c1.026,0,1.949-0.351,2.521-1.065
		c0.208-0.261,0.325-0.481,0.546-0.976h0.339L176.327,21.866z"/>
	<path fill="#FFFFFF" d="M180.825,22.724c-1.886,0-3.197-1.482-3.197-3.328c0-1.989,1.455-3.484,3.457-3.484
		c1.924,0,3.25,1.365,3.25,3.341C184.334,21.242,182.854,22.724,180.825,22.724z M180.917,16.34c-1.535,0-2.002,1.703-2.002,2.951
		c0,1.755,0.844,2.99,2.08,2.99c1.248,0,2.053-1.131,2.053-2.886C183.047,17.524,182.215,16.34,180.917,16.34z"/>
	<path fill="#FFFFFF" d="M193.486,22.568V22.23c1.016-0.104,1.041-0.117,1.041-1.287v-2.379c0-1.431-0.338-1.938-1.273-1.938
		c-0.533,0-0.977,0.195-1.248,0.546c-0.352,0.442-0.441,0.949-0.441,2.249v1.521c0,1.17,0.014,1.183,1.053,1.287v0.338h-3.262V22.23
		c1.014-0.104,1.039-0.117,1.039-1.287v-2.379c0-1.431-0.299-1.938-1.262-1.938c-0.521,0-0.962,0.195-1.234,0.521
		c-0.352,0.429-0.469,0.987-0.469,2.274v1.521c0,1.17,0.014,1.183,1.055,1.287v0.338h-3.264V22.23
		c1.014-0.104,1.039-0.117,1.039-1.287v-3.51c0-0.508-0.156-0.638-0.74-0.638h-0.299V16.47c0.87-0.039,1.663-0.246,2.209-0.559
		v1.145c0.649-0.794,1.34-1.145,2.366-1.145c0.91,0,1.326,0.299,1.703,1.145c0.715-0.794,1.417-1.145,2.354-1.145
		c0.871,0,1.391,0.299,1.664,0.949c0.143,0.338,0.182,0.715,0.182,1.365v2.717c0,1.17,0,1.183,1.039,1.287v0.338L193.486,22.568
		L193.486,22.568z"/>
	<path fill="#FFFFFF" d="M205.786,22.568V22.23c1.014-0.104,1.039-0.117,1.039-1.287v-2.379c0-1.431-0.339-1.938-1.273-1.938
		c-0.532,0-0.975,0.195-1.247,0.546c-0.353,0.442-0.441,0.949-0.441,2.249v1.521c0,1.17,0.012,1.183,1.053,1.287v0.338h-3.264V22.23
		c1.014-0.104,1.041-0.117,1.041-1.287v-2.379c0-1.431-0.301-1.938-1.262-1.938c-0.521,0-0.963,0.195-1.234,0.521
		c-0.352,0.429-0.469,0.987-0.469,2.274v1.521c0,1.17,0.014,1.183,1.053,1.287v0.338h-3.264V22.23
		c1.016-0.104,1.041-0.117,1.041-1.287v-3.51c0-0.508-0.156-0.638-0.742-0.638h-0.299V16.47c0.871-0.039,1.664-0.246,2.211-0.559
		v1.145c0.649-0.794,1.338-1.145,2.365-1.145c0.909,0,1.325,0.299,1.703,1.145c0.715-0.794,1.417-1.145,2.354-1.145
		c0.871,0,1.392,0.299,1.664,0.949c0.144,0.338,0.182,0.715,0.182,1.365v2.717c0,1.17,0,1.183,1.041,1.287v0.338L205.786,22.568
		L205.786,22.568z"/>
	<path fill="#FFFFFF" d="M213.118,22.724c-1.886,0-3.199-1.482-3.199-3.328c0-1.989,1.457-3.484,3.459-3.484
		c1.924,0,3.25,1.365,3.25,3.341C216.627,21.242,215.145,22.724,213.118,22.724z M213.208,16.34c-1.533,0-2.002,1.703-2.002,2.951
		c0,1.755,0.846,2.99,2.08,2.99c1.248,0,2.055-1.131,2.055-2.886C215.34,17.524,214.508,16.34,213.208,16.34z"/>
	<path fill="#FFFFFF" d="M222.035,22.568V22.23c1.117-0.117,1.04-0.26,1.04-1.287v-2.405c0-1.417-0.377-1.924-1.47-1.924
		c-1.078,0-1.6,0.585-1.78,1.391c-0.078,0.352-0.104,0.741-0.104,1.339c0,1.6,0,0,0,1.6c0,1.131,0.014,1.144,1.053,1.287v0.338
		h-3.264V22.23c1.014-0.144,1.041-0.182,1.041-1.287V17.42c0-0.52-0.156-0.637-0.742-0.637h-0.299v-0.325
		c0.871-0.039,1.664-0.233,2.211-0.546v1.131c0.729-0.78,1.561-1.131,2.6-1.131c0.976,0,1.562,0.416,1.808,1.105
		c0.104,0.312,0.117,0.598,0.117,1.183v2.743c0,1.105-0.052,1.183,1.041,1.287v0.338H222.035z"/>
	<path fill="#FFFFFF" d="M234.542,17.576l-1.69,4.992h-0.521l-1.886-4.901l-1.987,4.901h-0.533l-1.457-5.031
		c-0.233-0.819-0.506-1.118-1.065-1.131v-0.338h3.303v0.338c-0.715,0-1.117,0.025-1.117,0.624c0,0.117,0.064,0.364,0.129,0.624
		l0.846,3.237l1.951-4.823h0.56l1.819,4.862l1-3.173c0.078-0.26,0.117-0.507,0.117-0.728c0-0.39-0.285-0.611-1.027-0.624v-0.338
		h2.627v0.338C234.904,16.458,234.736,17.003,234.542,17.576z"/>
	<path fill="#FFFFFF" d="M239.598,22.724h-0.338c-1.248,0-1.963-0.299-2.535-0.988c-0.572-0.702-0.885-1.638-0.885-2.535
		c0-0.884,0.325-1.768,0.871-2.379c0.521-0.585,1.287-0.91,2.146-0.91c1.156,0,1.963,0.598,2.287,1.664
		c0.117,0.39,0.156,0.702,0.144,1.391h-4.187c0.014,0.949,0.246,1.703,0.689,2.224c0.428,0.507,1.014,0.78,1.793,0.78
		c0.48,0,0.857-0.117,1.508-0.442l0.195,0.39L239.598,22.724z M238.766,16.34c-0.74,0-1.287,0.455-1.521,1.262
		c-0.078,0.247-0.104,0.455-0.144,0.896h2.236c0.584,0,0.832-0.221,0.832-0.754C240.17,16.952,239.584,16.34,238.766,16.34z"/>
	<path fill="#FFFFFF" d="M246.254,22.71c-0.195-0.324-0.299-0.676-0.313-1.026l-1.002,0.676c-0.429,0.299-0.638,0.364-0.948,0.364
		c-1.001,0-1.69-0.715-1.69-1.755c0-0.729,0.326-1.235,0.988-1.626c0.313-0.182,0.637-0.324,1.248-0.559l1.418-0.546
		c-0.014-1.378-0.377-1.898-1.119-1.898c-0.611,0-0.949,0.469-1.209,0.949c-0.039,0.078-0.156,0.313-0.271,0.313
		c-0.026,0-0.065,0-0.104-0.014l-0.401-0.104c-0.078-0.026-0.117-0.078-0.104-0.13l0.194-0.729c0.065-0.233,0.104-0.272,0.338-0.377
		c0.481-0.221,1.08-0.338,1.664-0.338c1.535,0,2.186,0.624,2.186,2.08v2.886c0,0.741,0.117,0.976,0.455,0.976
		c0.116,0,0.232-0.026,0.441-0.091l0.078,0.363L246.254,22.71z M245.956,18.733c-0.649,0.233-0.871,0.325-1.158,0.441
		c-0.896,0.378-1.325,0.897-1.325,1.639c0,0.649,0.43,1.104,1.065,1.104c0.924,0,1.418-0.74,1.418-2.171V18.733z"/>
	<path fill="#FFFFFF" d="M248.79,22.568V22.23c1.015-0.104,1.039-0.117,1.039-1.287v-6.461c0-0.338-0.024-0.533-0.156-0.638
		c-0.09-0.078-0.246-0.104-0.506-0.104h-0.365v-0.352c0.729-0.013,1.574-0.155,2.197-0.377v7.931c0,1.17,0,1.183,1.041,1.287v0.338
		L248.79,22.568L248.79,22.568z"/>
	<path fill="#FFFFFF" d="M255.471,22.724c-0.688-0.026-0.976-0.144-1.262-0.494c-0.26-0.325-0.377-0.768-0.377-1.561v-3.718h-1.039
		v-0.585h1.039v-1.365l0.818-0.715h0.352v2.08h1.989v0.351l-0.532,0.234h-1.457c0,3.445,0,0,0,3.445c0,0.78,0.092,1.56,1.041,1.56
		c0.285,0,0.545-0.064,0.844-0.169l0.104,0.338L255.471,22.724z"/>
	<path fill="#FFFFFF" d="M262.413,22.568V22.23c1.014-0.104,1.041-0.117,1.041-1.287v-2.405c0-1.404-0.404-1.924-1.47-1.924
		c-1.639,0-1.887,1.456-1.887,2.729v1.6c0,1.17,0.027,1.183,1.027,1.287v0.338H257.9V22.23c1.002-0.117,1.026-0.13,1.026-1.287
		v-6.461c0-0.261-0.024-0.442-0.09-0.56c-0.078-0.13-0.209-0.182-0.392-0.182H257.9v-0.352c0.701,0,1.547-0.143,2.195-0.377v4.03
		c0.729-0.78,1.601-1.131,2.641-1.131c1.677,0,1.886,0.936,1.886,2.288v2.743c0,1.118-0.039,1.183,1.053,1.287v0.338h-3.262V22.568z
		"/>
</g>
<g enable-background="new    ">
	<path fill="#FFFFFF" d="M170.295,38.725c-0.729,0-1.795-0.209-2.133-0.377c-0.129-0.066-0.143-0.104-0.143-0.273v-1.833h0.324
		c0.104,0.61,0.194,0.909,0.377,1.183c0.364,0.533,1.016,0.857,1.664,0.857c1.002,0,1.741-0.715,1.741-1.689
		c0-0.908-0.44-1.442-2.379-2.795c-1.209-0.845-1.61-1.352-1.61-2.223c0-1.561,1.481-2.262,2.848-2.262
		c0.609,0,1.338,0.077,1.664,0.207c0.154,0.065,0.193,0.104,0.193,0.247v1.664h-0.338c-0.184-1.144-0.677-1.664-1.65-1.664
		c-0.857,0-1.404,0.533-1.404,1.392c0,0.312,0.092,0.598,0.248,0.793c0.285,0.351,0.26,0.377,1.949,1.638
		c1.391,1.04,1.834,1.612,1.834,2.587C173.48,37.697,172.193,38.725,170.295,38.725z"/>
	<path fill="#FFFFFF" d="M179.747,38.725c-0.144-0.156-0.233-0.404-0.272-0.689c-0.015-0.117-0.025-0.195-0.025-0.313l-1.145,0.676
		c-0.416,0.248-0.65,0.326-1.093,0.326c-1.442,0-2.017-0.716-2.017-2.535v-2.756c0-0.521-0.155-0.638-0.739-0.638h-0.299V32.47
		c0.856-0.039,1.663-0.246,2.209-0.559v4.159c0,1.08,0.155,1.873,1.392,1.873c0.741,0,1.34-0.391,1.534-1.027
		c0.117-0.363,0.168-0.923,0.168-1.534v-1.949c0-0.521-0.144-0.638-0.728-0.638h-0.313V32.47c0.871-0.039,1.664-0.246,2.21-0.559
		c0,2.08,0,4.758,0,4.758c0,1.118,0.065,1.196,0.455,1.196c0.116,0,0.233-0.026,0.442-0.092l0.078,0.365L179.747,38.725z"/>
	<path fill="#FFFFFF" d="M185.909,38.725c-0.521,0-0.91-0.078-1.47-0.3v1.755c0,1.145,0.013,1.184,1.338,1.301v0.338h-3.549V41.48
		c1.015-0.144,1.041-0.183,1.041-1.301v-6.761c0-0.52-0.156-0.637-0.742-0.637h-0.299v-0.325c0.871-0.039,1.664-0.233,2.211-0.546
		v1.066c0.584-0.729,1.353-1.066,2.234-1.066c1.6,0,2.666,1.196,2.666,3.068C189.34,37.164,187.884,38.725,185.909,38.725z
		 M186.09,32.536c-0.807,0-1.354,0.468-1.547,1.339c-0.064,0.299-0.104,1.001-0.104,1.508v2.288c0.494,0.442,0.949,0.61,1.47,0.61
		c1.353,0,2.146-1.092,2.146-3.042C188.053,33.549,187.299,32.536,186.09,32.536z"/>
	<path fill="#FFFFFF" d="M194.084,38.725h-0.338c-1.248,0-1.963-0.3-2.535-0.988c-0.57-0.702-0.883-1.639-0.883-2.535
		c0-0.884,0.324-1.768,0.871-2.379c0.52-0.585,1.287-0.91,2.145-0.91c1.156,0,1.963,0.598,2.288,1.664
		c0.116,0.39,0.155,0.702,0.144,1.391h-4.188c0.014,0.949,0.248,1.703,0.689,2.225c0.43,0.506,1.014,0.779,1.795,0.779
		c0.479,0,0.857-0.117,1.508-0.441l0.195,0.39L194.084,38.725z M193.252,32.34c-0.74,0-1.287,0.455-1.521,1.262
		c-0.076,0.247-0.104,0.455-0.144,0.896h2.236c0.586,0,0.831-0.221,0.831-0.754C194.657,32.952,194.073,32.34,193.252,32.34z"/>
	<path fill="#FFFFFF" d="M201,33.121l-0.299,0.234c-0.039,0.025-0.078,0.064-0.131,0.064c-0.038,0-0.09-0.025-0.116-0.039
		l-0.429-0.221c-0.144-0.078-0.248-0.091-0.416-0.091c-0.299,0-0.469,0.169-0.599,0.494c-0.116,0.299-0.116,1.001-0.116,1.352v2.027
		c0,1.262,0.104,1.223,1.313,1.287v0.338h-3.549V38.23c1.078-0.053,1.066-0.156,1.066-1.287v-3.51c0-0.521-0.156-0.638-0.742-0.638
		h-0.299V32.47c0.871-0.039,1.65-0.246,2.211-0.559v1.196l0.598-0.702c0.377-0.442,0.48-0.494,0.768-0.494
		c0.207,0,0.338,0.104,0.494,0.39l0.324,0.585c0.025,0.053,0.039,0.078,0.039,0.104C201.118,33.042,201.079,33.069,201,33.121z"/>
	<path fill="#FFFFFF" d="M205.682,38.71c-0.195-0.323-0.3-0.676-0.313-1.026l-1.002,0.676c-0.43,0.3-0.637,0.365-0.949,0.365
		c-1,0-1.689-0.716-1.689-1.756c0-0.729,0.326-1.234,0.988-1.625c0.313-0.182,0.637-0.324,1.248-0.559l1.417-0.546
		c-0.013-1.378-0.378-1.898-1.118-1.898c-0.611,0-0.949,0.469-1.209,0.949c-0.039,0.078-0.156,0.313-0.272,0.313
		c-0.025,0-0.064,0-0.104-0.014l-0.402-0.104c-0.077-0.026-0.116-0.078-0.104-0.13l0.195-0.729c0.065-0.233,0.104-0.272,0.338-0.377
		c0.481-0.221,1.08-0.338,1.664-0.338c1.534,0,2.185,0.624,2.185,2.08v2.886c0,0.741,0.116,0.976,0.455,0.976
		c0.116,0,0.233-0.025,0.442-0.09l0.077,0.362L205.682,38.71z M205.382,34.733c-0.649,0.233-0.871,0.325-1.157,0.441
		c-0.896,0.379-1.326,0.896-1.326,1.639c0,0.649,0.431,1.104,1.066,1.104c0.924,0,1.417-0.739,1.417-2.171V34.733z"/>
	<path fill="#FFFFFF" d="M212.74,38.568V38.23c1.117-0.117,1.039-0.26,1.039-1.287v-2.405c0-1.417-0.377-1.924-1.469-1.924
		c-1.078,0-1.6,0.585-1.781,1.391c-0.077,0.352-0.104,0.741-0.104,1.339c0,1.599,0,0,0,1.599c0,1.132,0.014,1.145,1.053,1.287v0.338
		h-3.264V38.23c1.014-0.145,1.041-0.183,1.041-1.287V33.42c0-0.52-0.156-0.637-0.742-0.637h-0.299v-0.325
		c0.871-0.039,1.664-0.233,2.211-0.546v1.131c0.729-0.78,1.561-1.131,2.6-1.131c0.976,0,1.562,0.416,1.808,1.105
		c0.104,0.312,0.117,0.598,0.117,1.183v2.743c0,1.104-0.052,1.183,1.041,1.287v0.338H212.74z"/>
	<path fill="#FFFFFF" d="M221.293,38.568V38.23c1.118-0.117,1.04-0.26,1.04-1.287v-2.405c0-1.417-0.377-1.924-1.469-1.924
		c-1.079,0-1.599,0.585-1.781,1.391c-0.078,0.352-0.104,0.741-0.104,1.339c0,1.599,0,0,0,1.599c0,1.132,0.015,1.145,1.055,1.287
		v0.338h-3.264V38.23c1.015-0.145,1.039-0.183,1.039-1.287V33.42c0-0.52-0.156-0.637-0.74-0.637h-0.299v-0.325
		c0.871-0.039,1.664-0.233,2.209-0.546v1.131c0.729-0.78,1.562-1.131,2.602-1.131c0.977,0,1.561,0.416,1.809,1.105
		c0.104,0.312,0.116,0.598,0.116,1.183v2.743c0,1.104-0.053,1.183,1.039,1.287v0.338H221.293z"/>
	<path fill="#FFFFFF" d="M230.68,38.725c-0.144-0.156-0.234-0.404-0.272-0.689c-0.015-0.117-0.025-0.195-0.025-0.313l-1.146,0.676
		c-0.416,0.248-0.649,0.326-1.092,0.326c-1.442,0-2.016-0.716-2.016-2.535v-2.756c0-0.521-0.156-0.638-0.74-0.638h-0.299V32.47
		c0.857-0.039,1.664-0.246,2.209-0.559v4.159c0,1.08,0.156,1.873,1.393,1.873c0.74,0,1.338-0.391,1.533-1.027
		c0.117-0.363,0.168-0.923,0.168-1.534v-1.949c0-0.521-0.143-0.638-0.727-0.638h-0.313V32.47c0.871-0.039,1.664-0.246,2.209-0.559
		c0,2.08,0,4.758,0,4.758c0,1.118,0.065,1.196,0.455,1.196c0.116,0,0.233-0.026,0.442-0.092l0.078,0.365L230.68,38.725z"/>
	<path fill="#FFFFFF" d="M237.348,38.71c-0.193-0.323-0.299-0.676-0.312-1.026l-1.001,0.676c-0.43,0.3-0.637,0.365-0.949,0.365
		c-1.001,0-1.689-0.716-1.689-1.756c0-0.729,0.324-1.234,0.988-1.625c0.311-0.182,0.637-0.324,1.248-0.559l1.416-0.546
		c-0.013-1.378-0.377-1.898-1.117-1.898c-0.611,0-0.949,0.469-1.209,0.949c-0.039,0.078-0.156,0.313-0.272,0.313
		c-0.026,0-0.063,0-0.104-0.014l-0.404-0.104c-0.077-0.026-0.115-0.078-0.104-0.13l0.195-0.729c0.064-0.233,0.104-0.272,0.338-0.377
		c0.48-0.221,1.079-0.338,1.664-0.338c1.533,0,2.184,0.624,2.184,2.08v2.886c0,0.741,0.117,0.976,0.455,0.976
		c0.117,0,0.234-0.025,0.442-0.09l0.077,0.362L237.348,38.71z M237.049,34.733c-0.65,0.233-0.871,0.325-1.156,0.441
		c-0.896,0.379-1.326,0.896-1.326,1.639c0,0.649,0.43,1.104,1.066,1.104c0.922,0,1.416-0.739,1.416-2.171V34.733L237.049,34.733z"/>
	<path fill="#FFFFFF" d="M242.536,38.725c-0.688-0.027-0.976-0.145-1.263-0.494c-0.26-0.326-0.377-0.769-0.377-1.562v-3.718h-1.039
		v-0.585h1.039v-1.365l0.819-0.715h0.351v2.08h1.99v0.351l-0.533,0.234h-1.457c0,3.445,0,0,0,3.445c0,0.779,0.093,1.56,1.041,1.56
		c0.285,0,0.545-0.063,0.845-0.169l0.104,0.338L242.536,38.725z"/>
	<path fill="#FFFFFF" d="M244.693,38.568V38.23c1.015-0.104,1.039-0.117,1.039-1.287v-3.51c0-0.521-0.143-0.638-0.739-0.638h-0.3
		V32.47c0.871-0.039,1.664-0.246,2.209-0.559v5.03c0,1.093-0.024,1.184,1.041,1.287v0.338h-3.25V38.568z M246.163,31.053
		c-0.416,0-0.754-0.338-0.754-0.767c0-0.39,0.351-0.741,0.767-0.741c0.403,0,0.754,0.338,0.754,0.754
		C246.93,30.729,246.591,31.053,246.163,31.053z"/>
	<path fill="#FFFFFF" d="M252.025,38.725c-1.885,0-3.198-1.482-3.198-3.329c0-1.989,1.457-3.484,3.459-3.484
		c1.924,0,3.25,1.365,3.25,3.341C255.536,37.242,254.053,38.725,252.025,38.725z M252.116,32.34c-1.533,0-2.002,1.703-2.002,2.951
		c0,1.755,0.846,2.99,2.079,2.99c1.248,0,2.056-1.131,2.056-2.886C254.249,33.524,253.417,32.34,252.116,32.34z"/>
	<path fill="#FFFFFF" d="M260.943,38.568V38.23c1.117-0.117,1.039-0.26,1.039-1.287v-2.405c0-1.417-0.377-1.924-1.469-1.924
		c-1.078,0-1.6,0.585-1.781,1.391c-0.078,0.352-0.104,0.741-0.104,1.339c0,1.599,0,0,0,1.599c0,1.132,0.014,1.145,1.053,1.287v0.338
		h-3.264V38.23c1.014-0.145,1.041-0.183,1.041-1.287V33.42c0-0.52-0.156-0.637-0.742-0.637h-0.299v-0.325
		c0.871-0.039,1.664-0.233,2.211-0.546v1.131c0.729-0.78,1.561-1.131,2.6-1.131c0.976,0,1.562,0.416,1.808,1.105
		c0.104,0.312,0.116,0.598,0.116,1.183v2.743c0,1.104-0.051,1.183,1.041,1.287v0.338H260.943z"/>
</g>
<g enable-background="new    ">
	<path fill="#FFFFFF" d="M170.295,54.725c-0.729,0-1.795-0.209-2.133-0.377c-0.129-0.066-0.143-0.104-0.143-0.273v-1.833h0.324
		c0.104,0.61,0.194,0.909,0.377,1.183c0.364,0.533,1.016,0.857,1.664,0.857c1.002,0,1.741-0.715,1.741-1.689
		c0-0.908-0.44-1.441-2.379-2.795c-1.209-0.845-1.61-1.352-1.61-2.223c0-1.561,1.481-2.262,2.848-2.262
		c0.609,0,1.338,0.076,1.664,0.207c0.154,0.064,0.193,0.104,0.193,0.246v1.664h-0.338c-0.184-1.144-0.677-1.664-1.65-1.664
		c-0.857,0-1.404,0.533-1.404,1.393c0,0.313,0.092,0.598,0.248,0.793c0.285,0.352,0.26,0.377,1.949,1.638
		c1.391,1.04,1.834,1.612,1.834,2.587C173.48,53.697,172.193,54.725,170.295,54.725z"/>
	<path fill="#FFFFFF" d="M179.98,49.303l-0.416,0.246c-0.026,0.014-0.078,0.026-0.116,0.026c-0.039,0-0.078-0.026-0.117-0.078
		l-0.572-0.677c-0.272-0.313-0.61-0.467-1.026-0.467c-1.185,0-1.949,1.053-1.949,2.561c0,1.729,0.922,3.057,2.443,3.057
		c0.479,0,0.846-0.117,1.481-0.455l0.222,0.389l-1.729,0.82h-0.313c-1.027,0-1.846-0.338-2.418-0.91
		c-0.637-0.637-0.975-1.547-0.975-2.563c0-1.911,1.455-3.341,3.482-3.341c0.625,0,1.133,0.116,1.588,0.338l0.467,0.871
		c0.014,0.026,0.014,0.052,0.014,0.077C180.045,49.238,180.032,49.264,179.98,49.303z"/>
	<path fill="#FFFFFF" d="M185.389,54.568V54.23c1.014-0.104,1.039-0.117,1.039-1.287v-2.405c0-1.403-0.402-1.925-1.469-1.925
		c-1.639,0-1.886,1.457-1.886,2.73v1.6c0,1.17,0.026,1.183,1.026,1.287v0.338h-3.224V54.23c1-0.117,1.026-0.131,1.026-1.287v-6.461
		c0-0.262-0.026-0.442-0.092-0.561c-0.078-0.13-0.207-0.182-0.391-0.182h-0.545v-0.352c0.701,0,1.547-0.144,2.195-0.377v4.029
		c0.729-0.779,1.6-1.131,2.641-1.131c1.678,0,1.885,0.936,1.885,2.287v2.744c0,1.117-0.039,1.183,1.053,1.287v0.338h-3.26V54.568z"
		/>
	<path fill="#FFFFFF" d="M193.292,54.725h-0.338c-1.248,0-1.963-0.3-2.535-0.988c-0.571-0.702-0.884-1.639-0.884-2.535
		c0-0.885,0.324-1.768,0.871-2.379c0.521-0.586,1.285-0.91,2.146-0.91c1.156,0,1.964,0.598,2.287,1.664
		c0.117,0.39,0.156,0.701,0.144,1.391h-4.187c0.015,0.949,0.247,1.703,0.688,2.225c0.43,0.506,1.015,0.779,1.795,0.779
		c0.48,0,0.857-0.117,1.508-0.441l0.195,0.39L193.292,54.725z M192.459,48.34c-0.74,0-1.287,0.455-1.521,1.262
		c-0.078,0.248-0.104,0.455-0.143,0.896h2.236c0.585,0,0.832-0.221,0.832-0.754C193.863,48.952,193.279,48.34,192.459,48.34z"/>
	<path fill="#FFFFFF" d="M204.133,54.568V54.23c1.016-0.104,1.041-0.117,1.041-1.287v-2.379c0-1.432-0.338-1.938-1.273-1.938
		c-0.533,0-0.977,0.194-1.248,0.546c-0.352,0.441-0.442,0.949-0.442,2.249v1.521c0,1.17,0.015,1.184,1.054,1.287v0.338H200V54.23
		c1.014-0.104,1.039-0.117,1.039-1.287v-2.379c0-1.432-0.299-1.938-1.262-1.938c-0.521,0-0.961,0.194-1.234,0.521
		c-0.352,0.43-0.468,0.987-0.468,2.274v1.521c0,1.17,0.013,1.184,1.054,1.287v0.338h-3.264V54.23
		c1.014-0.104,1.039-0.117,1.039-1.287v-3.51c0-0.509-0.155-0.639-0.74-0.639h-0.299v-0.324c0.871-0.039,1.664-0.246,2.21-0.56
		v1.146c0.649-0.795,1.339-1.146,2.366-1.146c0.91,0,1.326,0.299,1.703,1.146c0.715-0.795,1.416-1.146,2.354-1.146
		c0.871,0,1.391,0.299,1.664,0.948c0.143,0.338,0.182,0.716,0.182,1.365v2.717c0,1.17,0,1.184,1.039,1.287v0.338h-3.25V54.568z"/>
	<path fill="#FFFFFF" d="M212.023,54.725h-0.338c-1.248,0-1.963-0.3-2.535-0.988c-0.57-0.702-0.883-1.639-0.883-2.535
		c0-0.885,0.324-1.768,0.871-2.379c0.521-0.586,1.287-0.91,2.146-0.91c1.155,0,1.963,0.598,2.288,1.664
		c0.115,0.39,0.154,0.701,0.144,1.391h-4.188c0.015,0.949,0.248,1.703,0.689,2.225c0.43,0.506,1.014,0.779,1.795,0.779
		c0.48,0,0.857-0.117,1.508-0.441l0.195,0.39L212.023,54.725z M211.191,48.34c-0.739,0-1.287,0.455-1.521,1.262
		c-0.077,0.248-0.104,0.455-0.144,0.896h2.236c0.586,0,0.832-0.221,0.832-0.754C212.596,48.952,212.012,48.34,211.191,48.34z"/>
</g>
<g>
	<path fill="#FFFFFF" d="M68.17,42.594c-0.104,0.469-0.208,0.598-0.832,0.832c-1.664,0.625-3.874,1.014-5.694,1.014
		c-2.444,0-4.862-0.676-6.604-2.053c-2.002-1.586-3.328-4.135-3.328-7.307c0-2.886,1.17-5.616,3.666-7.514
		c1.638-1.248,4.056-1.95,6.864-1.95c1.794,0,3.667,0.39,4.966,0.936c0.676,0.286,0.91,0.52,0.91,1.066v3.25H67.39
		c-0.156-0.806-0.364-1.404-0.65-1.898c-0.884-1.534-2.704-2.366-4.603-2.366c-3.952,0-6.422,3.146-6.422,8.346
		c0,2.651,0.676,4.966,2.002,6.526c1.014,1.195,2.574,1.949,4.42,1.949c1.872,0,3.64-0.727,4.784-2.131
		c0.468-0.572,0.78-1.066,1.274-2.055h0.702L68.17,42.594z"/>
	<path fill="#FFFFFF" d="M76.151,44.439c-1.768,0-4.056-0.441-4.888-0.857c-0.208-0.104-0.26-0.182-0.26-0.467v-3.9h0.728
		c0.208,1.039,0.442,1.742,0.806,2.365c0.676,1.092,1.794,1.846,3.225,1.846c1.95,0,3.38-1.404,3.38-3.25
		c0-1.533-0.858-2.703-4.394-5.2c-2.522-1.768-3.562-2.99-3.562-4.888c0-3.354,3.484-4.472,6.266-4.472
		c1.534,0,3.354,0.156,3.926,0.416c0.312,0.13,0.364,0.234,0.364,0.624v3.38h-0.728c-0.728-2.418-1.69-3.406-3.38-3.406
		c-1.508,0-2.548,1.04-2.548,2.574c0,0.521,0.13,0.988,0.364,1.353c0.468,0.78,0.729,1.04,3.12,2.808
		c3.406,2.523,4.55,3.9,4.55,5.98C83.12,42.438,80.416,44.439,76.151,44.439z"/>
	<path fill="#FFFFFF" d="M90.061,44.439c-1.768,0-4.056-0.441-4.888-0.857c-0.208-0.104-0.26-0.182-0.26-0.467v-3.9h0.728
		c0.208,1.039,0.442,1.742,0.806,2.365c0.676,1.092,1.794,1.846,3.224,1.846c1.95,0,3.38-1.404,3.38-3.25
		c0-1.533-0.858-2.703-4.394-5.2c-2.522-1.768-3.563-2.99-3.563-4.888c0-3.354,3.484-4.472,6.267-4.472
		c1.534,0,3.354,0.156,3.926,0.416c0.313,0.13,0.364,0.234,0.364,0.624v3.38h-0.728c-0.728-2.418-1.69-3.406-3.38-3.406
		c-1.508,0-2.548,1.04-2.548,2.574c0,0.521,0.13,0.988,0.364,1.353c0.468,0.78,0.728,1.04,3.12,2.808
		c3.406,2.523,4.55,3.9,4.55,5.98C97.029,42.438,94.325,44.439,90.061,44.439z"/>
</g>
</svg>
