<?xml version="1.0" encoding="utf-8"?>
<!-- Generator: Adobe Illustrator 16.0.0, SVG Export Plug-In . SVG Version: 6.00 Build 0)  -->
<!DOCTYPE svg PUBLIC "-//W3C//DTD SVG 1.1//EN" "http://www.w3.org/Graphics/SVG/1.1/DTD/svg11.dtd">
<svg version="1.1" id="new_logo" xmlns="http://www.w3.org/2000/svg" xmlns:xlink="http://www.w3.org/1999/xlink" x="0px" y="0px"
	 width="301.961px" height="69.992px" viewBox="0 0 301.961 69.992" enable-background="new 0 0 301.961 69.992"
	 xml:space="preserve">
<rect fill="#F58026" width="148.938" height="69.992"/>
<rect x="154" fill="#939598" width="147.961" height="69.992"/>
<rect x="51.25" y="24" fill="none" width="53" height="31"/>
<g enable-background="new    ">
	<path fill="#FFFFFF" d="M63.375,36.439c-1.044,0.203-2.118,0.203-3.191,0.203v-0.726c1.16-0.115,2.031-0.231,2.901-1.044
		c1.16-1.073,1.537-2.553,1.537-4.09c0-2.697-1.189-4.641-4.09-4.641h-1.566v15.779c0,2.379,0.058,2.379,2.523,2.495v0.928h-9.137
		v-0.928c2.466-0.116,2.524-0.146,2.524-2.495V28.462c0-2.466-0.058-2.263-2.524-2.523V25.04h9.747c3.539,0,6.904,1.276,6.904,5.337
		C69.002,33.829,66.565,35.801,63.375,36.439z"/>
	<path fill="#FFFFFF" d="M77.09,45.692c-1.973,0-4.525-0.493-5.454-0.957c-0.232-0.116-0.29-0.203-0.29-0.521v-4.352h0.813
		c0.232,1.16,0.493,1.943,0.899,2.64c0.754,1.219,2.001,2.06,3.597,2.06c2.175,0,3.771-1.566,3.771-3.626
		c0-1.711-0.957-3.017-4.902-5.802c-2.814-1.972-3.974-3.335-3.974-5.453c0-3.741,3.887-4.989,6.991-4.989
		c1.711,0,3.742,0.175,4.38,0.465c0.348,0.145,0.406,0.261,0.406,0.696v3.771h-0.812c-0.813-2.697-1.886-3.8-3.771-3.8
		c-1.683,0-2.843,1.16-2.843,2.871c0,0.58,0.145,1.103,0.406,1.509c0.522,0.87,0.812,1.16,3.48,3.133
		c3.8,2.813,5.077,4.351,5.077,6.672C84.864,43.458,81.847,45.692,77.09,45.692z"/>
	<path fill="#FFFFFF" d="M92.605,45.692c-1.973,0-4.525-0.493-5.454-0.957c-0.232-0.116-0.29-0.203-0.29-0.521v-4.352h0.813
		c0.232,1.16,0.493,1.943,0.899,2.64c0.754,1.219,2.001,2.06,3.597,2.06c2.175,0,3.771-1.566,3.771-3.626
		c0-1.711-0.957-3.017-4.902-5.802c-2.814-1.972-3.974-3.335-3.974-5.453c0-3.741,3.887-4.989,6.991-4.989
		c1.711,0,3.742,0.175,4.38,0.465c0.348,0.145,0.406,0.261,0.406,0.696v3.771h-0.812c-0.813-2.697-1.886-3.8-3.771-3.8
		c-1.683,0-2.843,1.16-2.843,2.871c0,0.58,0.145,1.103,0.406,1.509c0.522,0.87,0.812,1.16,3.48,3.133
		c3.8,2.813,5.077,4.351,5.077,6.672C100.379,43.458,97.362,45.692,92.605,45.692z"/>
</g>
<rect x="168" y="13.658" fill="none" width="107.332" height="55.333"/>
<g enable-background="new    ">
	<path fill="#FFFFFF" d="M173.331,19.079c-0.494,0.169-0.91,0.222-1.859,0.234v-0.26c0.715-0.039,1.014-0.117,1.352-0.3
		c0.676-0.351,1.041-1.104,1.041-2.132c0-1.417-0.689-2.08-2.172-2.08h-0.779v7.06c0,1.196,0,1.196,1.092,1.287v0.338h-3.471v-0.338
		c1.104-0.091,1.104-0.091,1.104-1.287V15.75c0-1.209,0-1.195-1.104-1.287v-0.338h3.393c2.132,0,3.225,0.807,3.225,2.379
		C175.151,17.701,174.474,18.676,173.331,19.079z"/>
	<path fill="#FFFFFF" d="M181.338,23.382c-0.144-0.156-0.234-0.403-0.273-0.689c-0.014-0.117-0.025-0.195-0.025-0.312l-1.145,0.676
		c-0.416,0.247-0.65,0.325-1.092,0.325c-1.443,0-2.016-0.715-2.016-2.535v-2.756c0-0.521-0.156-0.638-0.74-0.638h-0.299v-0.325
		c0.857-0.039,1.664-0.246,2.209-0.559v4.16c0,1.079,0.156,1.872,1.392,1.872c0.741,0,1.339-0.39,1.534-1.027
		c0.117-0.363,0.168-0.923,0.168-1.534v-1.949c0-0.521-0.143-0.638-0.727-0.638h-0.313v-0.325c0.871-0.039,1.664-0.246,2.21-0.559
		c0,2.08,0,4.758,0,4.758c0,1.118,0.065,1.196,0.455,1.196c0.116,0,0.233-0.026,0.442-0.091l0.078,0.364L181.338,23.382z"/>
	<path fill="#FFFFFF" d="M187.24,23.382c-0.272,0-0.624-0.039-0.987-0.091c-0.768-0.104-0.924-0.131-1.119-0.131
		c-0.117,0-0.272,0.014-0.533,0.065V15.14c0-0.585-0.064-0.741-0.662-0.741h-0.364v-0.352c0.663,0,1.56-0.155,2.196-0.377v3.966
		c0.689-0.754,1.365-1.066,2.275-1.066c1.639,0,2.64,1.118,2.64,2.978C190.685,21.718,189.19,23.382,187.24,23.382z M187.487,17.194
		c-0.857,0-1.417,0.481-1.6,1.353c-0.078,0.363-0.117,0.896-0.117,1.521v1.313c0,0.663,0.066,0.987,0.261,1.209
		c0.194,0.221,0.61,0.351,1.118,0.351c1.404,0,2.249-1.209,2.249-3.159C189.398,18.168,188.682,17.194,187.487,17.194z"/>
	<path fill="#FFFFFF" d="M191.556,23.226v-0.338c1.015-0.104,1.04-0.117,1.04-1.287V15.14c0-0.338-0.025-0.533-0.156-0.638
		c-0.091-0.078-0.247-0.104-0.507-0.104h-0.364v-0.352c0.729-0.013,1.573-0.155,2.197-0.377v7.931c0,1.17,0,1.183,1.04,1.287v0.338
		H191.556z"/>
	<path fill="#FFFFFF" d="M195.586,23.226v-0.338c1.014-0.104,1.039-0.117,1.039-1.287v-3.51c0-0.521-0.143-0.638-0.74-0.638h-0.299
		v-0.325c0.871-0.039,1.664-0.246,2.209-0.559v5.031c0,1.092-0.025,1.183,1.041,1.287v0.338H195.586z M197.055,15.711
		c-0.416,0-0.754-0.338-0.754-0.767c0-0.39,0.351-0.741,0.767-0.741c0.403,0,0.754,0.338,0.754,0.754
		C197.822,15.387,197.484,15.711,197.055,15.711z"/>
	<path fill="#FFFFFF" d="M205.206,17.96l-0.416,0.247c-0.025,0.014-0.078,0.026-0.117,0.026s-0.078-0.026-0.117-0.078l-0.571-0.676
		c-0.272-0.313-0.611-0.468-1.027-0.468c-1.183,0-1.95,1.053-1.95,2.561c0,1.729,0.924,3.056,2.444,3.056
		c0.481,0,0.845-0.117,1.481-0.455l0.222,0.39l-1.729,0.819h-0.312c-1.026,0-1.847-0.338-2.418-0.91
		c-0.638-0.637-0.976-1.547-0.976-2.562c0-1.911,1.457-3.341,3.484-3.341c0.624,0,1.131,0.117,1.586,0.338l0.469,0.871
		c0.013,0.026,0.013,0.052,0.013,0.078C205.271,17.896,205.258,17.921,205.206,17.96z"/>
	<path fill="#FFFFFF" d="M211.185,23.382c-0.728,0-1.794-0.208-2.132-0.377c-0.13-0.065-0.143-0.104-0.143-0.273v-1.833h0.324
		c0.104,0.611,0.195,0.91,0.377,1.183c0.364,0.533,1.014,0.858,1.664,0.858c1.002,0,1.742-0.715,1.742-1.69
		c0-0.909-0.441-1.442-2.379-2.795c-1.209-0.845-1.611-1.352-1.611-2.223c0-1.561,1.481-2.262,2.846-2.262
		c0.611,0,1.34,0.077,1.664,0.207c0.156,0.065,0.195,0.104,0.195,0.247v1.664h-0.338c-0.182-1.144-0.676-1.664-1.65-1.664
		c-0.858,0-1.404,0.533-1.404,1.392c0,0.312,0.091,0.598,0.247,0.793c0.286,0.351,0.26,0.377,1.95,1.638
		c1.391,1.04,1.832,1.612,1.832,2.587C214.37,22.355,213.083,23.382,211.185,23.382z"/>
	<path fill="#FFFFFF" d="M219.141,23.382h-0.338c-1.248,0-1.963-0.299-2.535-0.988c-0.572-0.702-0.884-1.638-0.884-2.535
		c0-0.884,0.325-1.768,0.871-2.379c0.521-0.585,1.286-0.91,2.146-0.91c1.156,0,1.963,0.598,2.287,1.664
		c0.117,0.39,0.156,0.702,0.144,1.391h-4.187c0.014,0.949,0.247,1.703,0.689,2.224c0.429,0.507,1.014,0.78,1.794,0.78
		c0.481,0,0.858-0.117,1.508-0.442l0.195,0.39L219.141,23.382z M218.309,16.999c-0.74,0-1.287,0.455-1.521,1.262
		c-0.078,0.247-0.104,0.455-0.143,0.896h2.236c0.585,0,0.832-0.221,0.832-0.754C219.713,17.61,219.128,16.999,218.309,16.999z"/>
	<path fill="#FFFFFF" d="M227.305,17.96l-0.416,0.247c-0.025,0.014-0.078,0.026-0.117,0.026s-0.078-0.026-0.117-0.078l-0.571-0.676
		c-0.272-0.313-0.611-0.468-1.027-0.468c-1.183,0-1.95,1.053-1.95,2.561c0,1.729,0.924,3.056,2.444,3.056
		c0.481,0,0.845-0.117,1.481-0.455l0.222,0.39l-1.729,0.819h-0.312c-1.026,0-1.847-0.338-2.418-0.91
		c-0.638-0.637-0.976-1.547-0.976-2.562c0-1.911,1.457-3.341,3.484-3.341c0.624,0,1.131,0.117,1.586,0.338l0.469,0.871
		c0.013,0.026,0.013,0.052,0.013,0.078C227.371,17.896,227.358,17.921,227.305,17.96z"/>
	<path fill="#FFFFFF" d="M230.672,23.382c-0.689-0.026-0.976-0.144-1.262-0.494c-0.26-0.325-0.377-0.768-0.377-1.561V17.61h-1.039
		v-0.585h1.039V15.66l0.819-0.715h0.351v2.08h1.989v0.351l-0.532,0.234h-1.457c0,3.445,0,0,0,3.445c0,0.78,0.092,1.56,1.041,1.56
		c0.285,0,0.545-0.064,0.844-0.169l0.104,0.338L230.672,23.382z"/>
	<path fill="#FFFFFF" d="M236.028,23.382c-1.885,0-3.197-1.482-3.197-3.328c0-1.989,1.455-3.484,3.457-3.484
		c1.924,0,3.25,1.365,3.25,3.341C239.538,21.9,238.056,23.382,236.028,23.382z M236.12,16.999c-1.535,0-2.002,1.703-2.002,2.951
		c0,1.755,0.844,2.99,2.08,2.99c1.248,0,2.053-1.131,2.053-2.886C238.25,18.182,237.418,16.999,236.12,16.999z"/>
	<path fill="#FFFFFF" d="M244.764,17.779l-0.299,0.234c-0.039,0.025-0.078,0.064-0.13,0.064c-0.039,0-0.091-0.025-0.117-0.039
		l-0.429-0.221c-0.143-0.078-0.247-0.091-0.416-0.091c-0.299,0-0.469,0.169-0.598,0.494c-0.117,0.299-0.117,1.001-0.117,1.352v2.028
		c0,1.261,0.104,1.222,1.313,1.287v0.338h-3.549v-0.338c1.079-0.052,1.066-0.156,1.066-1.287v-3.51c0-0.521-0.156-0.638-0.742-0.638
		h-0.299v-0.325c0.871-0.039,1.651-0.246,2.211-0.559v1.196l0.598-0.702c0.377-0.442,0.48-0.494,0.768-0.494
		c0.207,0,0.338,0.104,0.494,0.39l0.324,0.585c0.025,0.053,0.039,0.078,0.039,0.104C244.881,17.701,244.842,17.727,244.764,17.779z"
		/>
</g>
<g enable-background="new    ">
	<path fill="#FFFFFF" d="M170.795,38.982c-0.729,0-1.795-0.208-2.133-0.377c-0.129-0.065-0.143-0.104-0.143-0.273v-1.833h0.325
		c0.104,0.611,0.194,0.91,0.377,1.183c0.364,0.533,1.015,0.858,1.664,0.858c1.001,0,1.741-0.715,1.741-1.69
		c0-0.909-0.441-1.442-2.379-2.795c-1.209-0.845-1.611-1.352-1.611-2.223c0-1.561,1.482-2.262,2.848-2.262
		c0.61,0,1.338,0.077,1.664,0.207c0.155,0.065,0.194,0.104,0.194,0.247v1.664h-0.338c-0.183-1.144-0.677-1.664-1.651-1.664
		c-0.857,0-1.404,0.533-1.404,1.392c0,0.312,0.092,0.598,0.248,0.793c0.285,0.351,0.26,0.377,1.949,1.638
		c1.391,1.04,1.834,1.612,1.834,2.587C173.981,37.955,172.694,38.982,170.795,38.982z"/>
	<path fill="#FFFFFF" d="M180.247,38.982c-0.144-0.156-0.234-0.403-0.273-0.689c-0.014-0.117-0.025-0.195-0.025-0.312l-1.145,0.676
		c-0.416,0.247-0.65,0.325-1.092,0.325c-1.443,0-2.016-0.715-2.016-2.535v-2.756c0-0.521-0.156-0.638-0.74-0.638h-0.299v-0.325
		c0.857-0.039,1.664-0.246,2.209-0.559v4.16c0,1.079,0.156,1.872,1.392,1.872c0.741,0,1.339-0.39,1.534-1.027
		c0.117-0.363,0.168-0.923,0.168-1.534v-1.949c0-0.521-0.143-0.638-0.727-0.638h-0.313v-0.325c0.871-0.039,1.664-0.246,2.21-0.559
		c0,2.08,0,4.758,0,4.758c0,1.118,0.065,1.196,0.455,1.196c0.116,0,0.233-0.026,0.442-0.091l0.078,0.364L180.247,38.982z"/>
	<path fill="#FFFFFF" d="M186.409,38.982c-0.521,0-0.91-0.078-1.47-0.299v1.755c0,1.144,0.013,1.183,1.339,1.3v0.338h-3.549v-0.338
		c1.014-0.143,1.04-0.182,1.04-1.3v-6.761c0-0.52-0.156-0.637-0.741-0.637h-0.299v-0.325c0.871-0.039,1.664-0.233,2.21-0.546v1.066
		c0.585-0.729,1.353-1.066,2.235-1.066c1.6,0,2.666,1.196,2.666,3.068C189.84,37.421,188.384,38.982,186.409,38.982z M186.59,32.793
		c-0.807,0-1.353,0.468-1.547,1.339c-0.065,0.299-0.104,1.001-0.104,1.508v2.288c0.494,0.442,0.949,0.611,1.47,0.611
		c1.352,0,2.145-1.092,2.145-3.042C188.553,33.807,187.799,32.793,186.59,32.793z"/>
	<path fill="#FFFFFF" d="M194.584,38.982h-0.338c-1.248,0-1.963-0.299-2.535-0.988c-0.571-0.702-0.883-1.638-0.883-2.535
		c0-0.884,0.324-1.768,0.871-2.379c0.52-0.585,1.287-0.91,2.145-0.91c1.156,0,1.963,0.598,2.288,1.664
		c0.116,0.39,0.155,0.702,0.144,1.391h-4.188c0.014,0.949,0.248,1.703,0.689,2.224c0.43,0.507,1.014,0.78,1.795,0.78
		c0.48,0,0.857-0.117,1.508-0.442l0.195,0.39L194.584,38.982z M193.752,32.598c-0.74,0-1.287,0.455-1.521,1.262
		c-0.077,0.247-0.104,0.455-0.144,0.896h2.236c0.586,0,0.832-0.221,0.832-0.754C195.157,33.209,194.573,32.598,193.752,32.598z"/>
	<path fill="#FFFFFF" d="M201.5,33.378l-0.299,0.234c-0.039,0.025-0.078,0.064-0.13,0.064c-0.039,0-0.091-0.025-0.117-0.039
		l-0.429-0.221c-0.143-0.078-0.247-0.091-0.416-0.091c-0.299,0-0.469,0.169-0.598,0.494c-0.117,0.299-0.117,1.001-0.117,1.352v2.028
		c0,1.261,0.104,1.222,1.313,1.287v0.338h-3.549v-0.338c1.079-0.052,1.066-0.156,1.066-1.287v-3.51c0-0.521-0.156-0.638-0.742-0.638
		h-0.299v-0.325c0.871-0.039,1.651-0.246,2.211-0.559v1.196l0.598-0.702c0.377-0.442,0.48-0.494,0.768-0.494
		c0.207,0,0.338,0.104,0.494,0.39l0.324,0.585c0.025,0.053,0.039,0.078,0.039,0.104C201.618,33.3,201.579,33.327,201.5,33.378z"/>
	<path fill="#FFFFFF" d="M206.181,38.968c-0.194-0.324-0.299-0.676-0.312-1.026l-1.002,0.676c-0.429,0.299-0.637,0.364-0.949,0.364
		c-1,0-1.689-0.715-1.689-1.755c0-0.729,0.325-1.235,0.988-1.626c0.313-0.182,0.637-0.324,1.248-0.559l1.417-0.546
		c-0.013-1.378-0.378-1.898-1.118-1.898c-0.611,0-0.949,0.469-1.209,0.949c-0.039,0.078-0.156,0.313-0.273,0.313
		c-0.025,0-0.064,0-0.104-0.014l-0.403-0.104c-0.077-0.026-0.116-0.078-0.104-0.13l0.195-0.729c0.065-0.233,0.104-0.272,0.338-0.377
		c0.481-0.221,1.08-0.338,1.664-0.338c1.535,0,2.185,0.624,2.185,2.08v2.886c0,0.741,0.116,0.976,0.455,0.976
		c0.116,0,0.233-0.026,0.442-0.091l0.078,0.363L206.181,38.968z M205.882,34.991c-0.65,0.233-0.871,0.325-1.157,0.441
		c-0.896,0.378-1.326,0.897-1.326,1.639c0,0.649,0.43,1.104,1.066,1.104c0.923,0,1.417-0.74,1.417-2.171V34.991z"/>
	<path fill="#FFFFFF" d="M213.24,38.826v-0.338c1.118-0.117,1.04-0.26,1.04-1.287v-2.405c0-1.417-0.377-1.924-1.469-1.924
		c-1.079,0-1.6,0.585-1.781,1.391c-0.078,0.352-0.104,0.741-0.104,1.339c0,1.6,0,0,0,1.6c0,1.131,0.013,1.144,1.053,1.287v0.338
		h-3.264v-0.338c1.014-0.144,1.041-0.182,1.041-1.287v-3.523c0-0.52-0.156-0.637-0.742-0.637h-0.299v-0.325
		c0.871-0.039,1.664-0.233,2.211-0.546V33.3c0.728-0.78,1.56-1.131,2.6-1.131c0.975,0,1.561,0.416,1.807,1.105
		c0.104,0.312,0.117,0.598,0.117,1.183v2.743c0,1.105-0.052,1.183,1.041,1.287v0.338H213.24z"/>
	<path fill="#FFFFFF" d="M221.793,38.826v-0.338c1.118-0.117,1.04-0.26,1.04-1.287v-2.405c0-1.417-0.377-1.924-1.469-1.924
		c-1.079,0-1.599,0.585-1.781,1.391c-0.078,0.352-0.104,0.741-0.104,1.339c0,1.6,0,0,0,1.6c0,1.131,0.014,1.144,1.054,1.287v0.338
		h-3.263v-0.338c1.014-0.144,1.039-0.182,1.039-1.287v-3.523c0-0.52-0.156-0.637-0.74-0.637h-0.299v-0.325
		c0.871-0.039,1.664-0.233,2.209-0.546V33.3c0.729-0.78,1.561-1.131,2.601-1.131c0.976,0,1.56,0.416,1.808,1.105
		c0.104,0.312,0.117,0.598,0.117,1.183v2.743c0,1.105-0.053,1.183,1.039,1.287v0.338H221.793z"/>
	<path fill="#FFFFFF" d="M231.18,38.982c-0.144-0.156-0.234-0.403-0.273-0.689c-0.014-0.117-0.025-0.195-0.025-0.312l-1.145,0.676
		c-0.416,0.247-0.65,0.325-1.092,0.325c-1.443,0-2.016-0.715-2.016-2.535v-2.756c0-0.521-0.156-0.638-0.74-0.638h-0.299v-0.325
		c0.857-0.039,1.664-0.246,2.209-0.559v4.16c0,1.079,0.156,1.872,1.392,1.872c0.741,0,1.339-0.39,1.534-1.027
		c0.117-0.363,0.168-0.923,0.168-1.534v-1.949c0-0.521-0.143-0.638-0.727-0.638h-0.313v-0.325c0.871-0.039,1.664-0.246,2.21-0.559
		c0,2.08,0,4.758,0,4.758c0,1.118,0.065,1.196,0.455,1.196c0.116,0,0.233-0.026,0.442-0.091l0.078,0.364L231.18,38.982z"/>
	<path fill="#FFFFFF" d="M237.848,38.968c-0.194-0.324-0.299-0.676-0.312-1.026l-1.001,0.676c-0.43,0.299-0.637,0.364-0.949,0.364
		c-1.001,0-1.689-0.715-1.689-1.755c0-0.729,0.324-1.235,0.988-1.626c0.311-0.182,0.637-0.324,1.248-0.559l1.416-0.546
		c-0.013-1.378-0.377-1.898-1.117-1.898c-0.611,0-0.949,0.469-1.209,0.949c-0.039,0.078-0.156,0.313-0.273,0.313
		c-0.026,0-0.064,0-0.104-0.014l-0.404-0.104c-0.078-0.026-0.116-0.078-0.104-0.13l0.195-0.729c0.064-0.233,0.104-0.272,0.338-0.377
		c0.48-0.221,1.079-0.338,1.664-0.338c1.534,0,2.184,0.624,2.184,2.08v2.886c0,0.741,0.117,0.976,0.455,0.976
		c0.117,0,0.234-0.026,0.442-0.091l0.078,0.363L237.848,38.968z M237.549,34.991c-0.65,0.233-0.871,0.325-1.156,0.441
		c-0.897,0.378-1.326,0.897-1.326,1.639c0,0.649,0.429,1.104,1.066,1.104c0.922,0,1.416-0.74,1.416-2.171V34.991z"/>
	<path fill="#FFFFFF" d="M243.036,38.982c-0.689-0.026-0.976-0.144-1.262-0.494c-0.26-0.325-0.377-0.768-0.377-1.561v-3.718h-1.039
		v-0.585h1.039v-1.365l0.819-0.715h0.351v2.08h1.989v0.351l-0.532,0.234h-1.457c0,3.445,0,0,0,3.445c0,0.78,0.092,1.56,1.041,1.56
		c0.285,0,0.545-0.064,0.844-0.169l0.104,0.338L243.036,38.982z"/>
	<path fill="#FFFFFF" d="M245.194,38.826v-0.338c1.014-0.104,1.039-0.117,1.039-1.287v-3.51c0-0.521-0.143-0.638-0.74-0.638h-0.299
		v-0.325c0.871-0.039,1.664-0.246,2.209-0.559v5.031c0,1.092-0.025,1.183,1.041,1.287v0.338H245.194z M246.663,31.311
		c-0.416,0-0.754-0.338-0.754-0.767c0-0.39,0.351-0.741,0.767-0.741c0.403,0,0.754,0.338,0.754,0.754
		C247.429,30.987,247.091,31.311,246.663,31.311z"/>
	<path fill="#FFFFFF" d="M252.526,38.982c-1.886,0-3.199-1.482-3.199-3.328c0-1.989,1.457-3.484,3.459-3.484
		c1.924,0,3.25,1.365,3.25,3.341C256.036,37.5,254.553,38.982,252.526,38.982z M252.616,32.598c-1.533,0-2.002,1.703-2.002,2.951
		c0,1.755,0.846,2.99,2.08,2.99c1.248,0,2.055-1.131,2.055-2.886C254.749,33.782,253.917,32.598,252.616,32.598z"/>
	<path fill="#FFFFFF" d="M261.443,38.826v-0.338c1.118-0.117,1.04-0.26,1.04-1.287v-2.405c0-1.417-0.377-1.924-1.469-1.924
		c-1.079,0-1.6,0.585-1.781,1.391c-0.078,0.352-0.104,0.741-0.104,1.339c0,1.6,0,0,0,1.6c0,1.131,0.013,1.144,1.053,1.287v0.338
		h-3.264v-0.338c1.014-0.144,1.041-0.182,1.041-1.287v-3.523c0-0.52-0.156-0.637-0.742-0.637h-0.299v-0.325
		c0.871-0.039,1.664-0.233,2.211-0.546V33.3c0.728-0.78,1.56-1.131,2.6-1.131c0.975,0,1.561,0.416,1.807,1.105
		c0.104,0.312,0.117,0.598,0.117,1.183v2.743c0,1.105-0.052,1.183,1.041,1.287v0.338H261.443z"/>
</g>
<g enable-background="new    ">
	<path fill="#FFFFFF" d="M170.795,54.583c-0.729,0-1.795-0.208-2.133-0.377c-0.129-0.065-0.143-0.104-0.143-0.273v-1.833h0.325
		c0.104,0.611,0.194,0.91,0.377,1.183c0.364,0.533,1.015,0.858,1.664,0.858c1.001,0,1.741-0.715,1.741-1.69
		c0-0.909-0.441-1.442-2.379-2.795c-1.209-0.845-1.611-1.352-1.611-2.223c0-1.561,1.482-2.262,2.848-2.262
		c0.61,0,1.338,0.077,1.664,0.207c0.155,0.065,0.194,0.104,0.194,0.247v1.664h-0.338c-0.183-1.144-0.677-1.664-1.651-1.664
		c-0.857,0-1.404,0.533-1.404,1.392c0,0.312,0.092,0.598,0.248,0.793c0.285,0.351,0.26,0.377,1.949,1.638
		c1.391,1.04,1.834,1.612,1.834,2.587C173.981,53.555,172.694,54.583,170.795,54.583z"/>
	<path fill="#FFFFFF" d="M180.481,49.161l-0.416,0.247c-0.027,0.014-0.078,0.026-0.117,0.026s-0.078-0.026-0.117-0.078l-0.572-0.676
		c-0.273-0.313-0.611-0.468-1.027-0.468c-1.184,0-1.949,1.053-1.949,2.561c0,1.729,0.922,3.056,2.443,3.056
		c0.48,0,0.846-0.117,1.482-0.455l0.221,0.39l-1.729,0.819h-0.313c-1.027,0-1.846-0.338-2.418-0.91
		c-0.637-0.637-0.975-1.547-0.975-2.562c0-1.911,1.455-3.341,3.483-3.341c0.624,0,1.132,0.117,1.587,0.338l0.467,0.871
		c0.014,0.026,0.014,0.052,0.014,0.078C180.545,49.096,180.532,49.122,180.481,49.161z"/>
	<path fill="#FFFFFF" d="M185.888,54.426v-0.338c1.014-0.104,1.04-0.117,1.04-1.287v-2.405c0-1.404-0.403-1.924-1.469-1.924
		c-1.639,0-1.886,1.456-1.886,2.729v1.6c0,1.17,0.026,1.183,1.027,1.287v0.338h-3.224v-0.338c1-0.117,1.026-0.13,1.026-1.287V46.34
		c0-0.261-0.026-0.442-0.091-0.56c-0.078-0.13-0.208-0.182-0.391-0.182h-0.545v-0.352c0.701,0,1.547-0.143,2.196-0.377v4.03
		c0.728-0.78,1.599-1.131,2.64-1.131c1.677,0,1.885,0.936,1.885,2.288v2.743c0,1.118-0.039,1.183,1.053,1.287v0.338H185.888z"/>
	<path fill="#FFFFFF" d="M193.792,54.583h-0.338c-1.248,0-1.963-0.299-2.535-0.988c-0.572-0.702-0.884-1.638-0.884-2.535
		c0-0.884,0.325-1.768,0.871-2.379c0.521-0.585,1.286-0.91,2.146-0.91c1.156,0,1.963,0.598,2.287,1.664
		c0.117,0.39,0.156,0.702,0.144,1.391h-4.187c0.014,0.949,0.247,1.703,0.689,2.224c0.429,0.507,1.014,0.78,1.794,0.78
		c0.481,0,0.858-0.117,1.508-0.442l0.195,0.39L193.792,54.583z M192.959,48.199c-0.74,0-1.287,0.455-1.521,1.262
		c-0.078,0.247-0.104,0.455-0.143,0.896h2.236c0.585,0,0.832-0.221,0.832-0.754C194.364,48.81,193.779,48.199,192.959,48.199z"/>
	<path fill="#FFFFFF" d="M204.633,54.426v-0.338c1.015-0.104,1.041-0.117,1.041-1.287v-2.379c0-1.431-0.338-1.938-1.274-1.938
		c-0.533,0-0.976,0.195-1.248,0.546c-0.351,0.442-0.442,0.949-0.442,2.249v1.521c0,1.17,0.014,1.183,1.053,1.287v0.338H200.5v-0.338
		c1.014-0.104,1.039-0.117,1.039-1.287v-2.379c0-1.431-0.299-1.938-1.261-1.938c-0.521,0-0.962,0.195-1.235,0.521
		c-0.351,0.429-0.468,0.987-0.468,2.274v1.521c0,1.17,0.013,1.183,1.054,1.287v0.338h-3.264v-0.338
		c1.014-0.104,1.04-0.117,1.04-1.287v-3.51c0-0.508-0.156-0.638-0.741-0.638h-0.299v-0.325c0.871-0.039,1.664-0.246,2.21-0.559
		v1.145c0.649-0.794,1.339-1.145,2.366-1.145c0.91,0,1.326,0.299,1.703,1.145c0.715-0.794,1.417-1.145,2.354-1.145
		c0.871,0,1.391,0.299,1.664,0.949c0.143,0.338,0.182,0.715,0.182,1.365v2.717c0,1.17,0,1.183,1.039,1.287v0.338H204.633z"/>
	<path fill="#FFFFFF" d="M212.524,54.583h-0.338c-1.248,0-1.963-0.299-2.535-0.988c-0.571-0.702-0.883-1.638-0.883-2.535
		c0-0.884,0.324-1.768,0.871-2.379c0.52-0.585,1.287-0.91,2.145-0.91c1.156,0,1.963,0.598,2.288,1.664
		c0.116,0.39,0.155,0.702,0.144,1.391h-4.188c0.014,0.949,0.248,1.703,0.689,2.224c0.43,0.507,1.014,0.78,1.795,0.78
		c0.48,0,0.857-0.117,1.508-0.442l0.195,0.39L212.524,54.583z M211.692,48.199c-0.74,0-1.287,0.455-1.521,1.262
		c-0.077,0.247-0.104,0.455-0.144,0.896h2.236c0.586,0,0.832-0.221,0.832-0.754C213.096,48.81,212.512,48.199,211.692,48.199z"/>
</g>
</svg>
