<?xml version="1.0" encoding="utf-8"?>
<!-- Generator: Adobe Illustrator 16.0.0, SVG Export Plug-In . SVG Version: 6.00 Build 0)  -->
<!DOCTYPE svg PUBLIC "-//W3C//DTD SVG 1.1//EN" "http://www.w3.org/Graphics/SVG/1.1/DTD/svg11.dtd">
<svg version="1.1" id="new_logo" xmlns="http://www.w3.org/2000/svg" xmlns:xlink="http://www.w3.org/1999/xlink" x="0px" y="0px"
	 width="346px" height="79px" viewBox="-13.75 -3.073 346 79" enable-background="new -13.75 -3.073 346 79" xml:space="preserve">
<rect x="-13.75" y="-3.073" fill="#4F5FAA" width="169.474" height="79.041"/>
<rect x="162.776" y="-3.073" fill="#939598" width="169.474" height="79.043"/>
<g>
	<path fill="#FFFFFF" d="M39.137,34.085c-1.132,0.22-2.297,0.22-3.461,0.22V33.52c1.26-0.125,2.203-0.25,3.147-1.128
		c1.259-1.16,1.668-2.758,1.668-4.421c0-2.915-1.29-5.016-4.438-5.016h-1.699v17.053c0,2.572,0.063,2.572,2.738,2.697v1.002h-9.914
		v-1.002c2.676-0.126,2.739-0.156,2.739-2.697V25.464c0-2.665-0.063-2.444-2.739-2.728v-0.97h10.576c3.839,0,7.49,1.378,7.49,5.768
		C45.246,31.264,42.602,33.395,39.137,34.085z"/>
	<path fill="#FFFFFF" d="M53.804,44.086c-2.141,0-4.91-0.532-5.917-1.032c-0.251-0.128-0.314-0.223-0.314-0.565v-4.702h0.881
		c0.251,1.254,0.535,2.101,0.976,2.854c0.818,1.314,2.172,2.225,3.903,2.225c2.361,0,4.092-1.693,4.092-3.918
		c0-1.853-1.039-3.262-5.32-6.272c-3.052-2.131-4.312-3.604-4.312-5.894c0-4.043,4.217-5.391,7.585-5.391
		c1.856,0,4.061,0.189,4.753,0.502c0.378,0.156,0.44,0.282,0.44,0.751v4.075h-0.88c-0.881-2.915-2.046-4.107-4.091-4.107
		c-1.825,0-3.084,1.254-3.084,3.104c0,0.628,0.157,1.19,0.44,1.631c0.566,0.94,0.881,1.254,3.777,3.386
		c4.123,3.041,5.507,4.703,5.507,7.211C62.24,41.674,58.967,44.086,53.804,44.086z"/>
	<path fill="#FFFFFF" d="M70.423,44.086c-2.141,0-4.911-0.532-5.918-1.032c-0.251-0.128-0.314-0.223-0.314-0.565v-4.702h0.881
		c0.252,1.254,0.535,2.101,0.977,2.854c0.817,1.314,2.171,2.225,3.904,2.225c2.36,0,4.091-1.693,4.091-3.918
		c0-1.853-1.039-3.262-5.32-6.272c-3.052-2.131-4.312-3.604-4.312-5.894c0-4.043,4.218-5.391,7.584-5.391
		c1.857,0,4.061,0.189,4.753,0.502c0.378,0.156,0.439,0.282,0.439,0.751v4.075h-0.882c-0.881-2.915-2.045-4.107-4.091-4.107
		c-1.825,0-3.084,1.254-3.084,3.104c0,0.628,0.157,1.19,0.44,1.631c0.566,0.94,0.882,1.254,3.777,3.386
		c4.123,3.041,5.507,4.703,5.507,7.211C78.857,41.674,75.585,44.086,70.423,44.086z"/>
	<path fill="#FFFFFF" d="M91.227,44.055c-0.409-0.848-0.598-1.632-0.629-2.634l-2.581,1.754c-0.945,0.628-1.763,0.91-2.708,0.91
		c-2.486,0-4.186-1.757-4.186-4.295c0-1.848,0.851-3.074,2.329-3.981c0.817-0.5,1.731-0.876,3.085-1.317l4.06-1.347
		c-0.064-3.041-0.914-4.326-2.645-4.326c-1.763,0-2.454,1.566-3.115,2.947c-0.094,0.219-0.315,0.564-0.598,0.564
		c-0.094,0-0.189,0-0.283-0.032l-1.259-0.345c-0.315-0.094-0.41-0.25-0.347-0.532l0.408-1.568c0.158-0.628,0.316-0.972,0.945-1.254
		c1.386-0.596,3.021-0.94,4.816-0.94c4.248,0,6.294,1.787,6.294,5.486v5.954c0,1.538,0.157,2.414,0.976,2.667
		c0.284,0.096,0.629,0.126,1.133,0.029l0.157,1.068L91.227,44.055z M90.627,34.399c-1.259,0.439-1.856,0.688-2.55,1.003
		c-1.825,0.846-2.833,2.005-2.833,3.761c0,1.505,0.912,2.537,2.297,2.537c1.951,0,3.084-1.63,3.084-4.512L90.627,34.399
		L90.627,34.399z"/>
	<path fill="#FFFFFF" d="M108.126,44.086c-1.196,0-2.14-0.157-3.494-0.629v4.356c0,2.354,0.284,2.509,3.18,2.762v0.969h-9.82v-0.969
		c2.329-0.284,2.455-0.44,2.455-2.762V31.861c0-1.349-0.408-1.851-1.699-1.911c0,0-0.631-0.032-0.755-0.032v-0.941
		c2.676-0.063,5.036-0.533,6.64-1.317v2.696c1.574-1.819,3.525-2.696,5.699-2.696c3.714,0,6.263,2.946,6.263,7.493
		C116.595,40.356,112.974,44.086,108.126,44.086z M108.126,29.603c-1.605,0-2.707,0.971-3.179,2.602
		c-0.189,0.66-0.315,1.976-0.315,2.979v6.301c0.913,1.004,1.888,1.505,2.991,1.505c2.676,0,4.375-2.728,4.375-7.24
		C111.999,31.892,110.456,29.603,108.126,29.603z"/>
</g>
<g>
	<path fill="#FFFFFF" d="M184.153,19.537c-0.599,0.203-1.102,0.266-2.249,0.282v-0.314c0.867-0.046,1.229-0.14,1.638-0.36
		c0.819-0.423,1.258-1.332,1.258-2.57c0-1.709-0.834-2.508-2.626-2.508h-0.945v8.513c0,1.442,0,1.442,1.321,1.551v0.407h-4.202
		v-0.407c1.336-0.109,1.336-0.109,1.336-1.551v-7.054c0-1.458,0-1.441-1.336-1.552v-0.409h4.108c2.584,0,3.904,0.971,3.904,2.868
		C186.356,17.876,185.539,19.051,184.153,19.537z"/>
	<path fill="#FFFFFF" d="M192.888,24.727c-0.172-0.189-0.281-0.487-0.328-0.832c-0.018-0.141-0.032-0.235-0.032-0.376l-1.386,0.814
		c-0.503,0.297-0.786,0.392-1.322,0.392c-1.745,0-2.438-0.863-2.438-3.057v-3.323c0-0.626-0.189-0.768-0.897-0.768h-0.362v-0.392
		c1.039-0.047,2.015-0.298,2.677-0.673v5.014c0,1.302,0.188,2.258,1.684,2.258c0.896,0,1.622-0.471,1.856-1.238
		c0.143-0.439,0.204-1.113,0.204-1.849v-2.351c0-0.626-0.173-0.768-0.88-0.768h-0.381v-0.392c1.056-0.046,2.017-0.298,2.677-0.673
		c0,2.506,0,5.734,0,5.734c0,1.349,0.078,1.443,0.551,1.443c0.143,0,0.284-0.031,0.535-0.11l0.094,0.44L192.888,24.727z"/>
	<path fill="#FFFFFF" d="M199.073,24.727c-0.33,0-0.755-0.047-1.195-0.111c-0.929-0.125-1.118-0.156-1.353-0.156
		c-0.142,0-0.332,0.016-0.645,0.078v-9.749c0-0.706-0.078-0.895-0.802-0.895h-0.442v-0.422c0.802,0,1.89-0.188,2.659-0.454v4.78
		c0.834-0.909,1.652-1.284,2.754-1.284c1.984,0,3.195,1.347,3.195,3.589C203.243,22.72,201.435,24.727,199.073,24.727z
		 M199.371,17.264c-1.038,0-1.714,0.582-1.935,1.63c-0.094,0.44-0.142,1.082-0.142,1.834v1.583c0,0.8,0.077,1.19,0.314,1.458
		c0.236,0.267,0.739,0.423,1.353,0.423c1.7,0,2.724-1.458,2.724-3.808C201.686,18.44,200.82,17.264,199.371,17.264z"/>
	<path fill="#FFFFFF" d="M203.336,24.537v-0.408c1.23-0.124,1.259-0.141,1.259-1.551v-7.789c0-0.409-0.028-0.644-0.186-0.769
		c-0.112-0.093-0.3-0.125-0.616-0.125h-0.438v-0.423c0.88-0.016,1.901-0.188,2.658-0.456v9.562c0,1.411,0,1.427,1.258,1.551v0.408
		H203.336z"/>
	<path fill="#FFFFFF" d="M207.254,24.537v-0.408c1.23-0.124,1.262-0.141,1.262-1.551v-4.231c0-0.626-0.174-0.768-0.897-0.768h-0.364
		v-0.392c1.057-0.046,2.015-0.298,2.677-0.674v6.067c0,1.315-0.028,1.426,1.261,1.551v0.407L207.254,24.537L207.254,24.537z
		 M209.034,15.477c-0.502,0-0.911-0.407-0.911-0.925c0-0.47,0.424-0.894,0.928-0.894c0.486,0,0.911,0.408,0.911,0.91
		C209.962,15.085,209.554,15.477,209.034,15.477z"/>
	<path fill="#FFFFFF" d="M217.942,18.189l-0.503,0.298c-0.032,0.015-0.095,0.031-0.143,0.031c-0.047,0-0.094-0.031-0.142-0.094
		l-0.693-0.815c-0.328-0.376-0.737-0.563-1.241-0.563c-1.434,0-2.361,1.27-2.361,3.087c0,2.085,1.116,3.683,2.959,3.683
		c0.58,0,1.021-0.14,1.792-0.548l0.269,0.47l-2.095,0.989h-0.38c-1.24,0-2.234-0.409-2.927-1.098
		c-0.771-0.768-1.181-1.865-1.181-3.088c0-2.304,1.764-4.028,4.219-4.028c0.756,0,1.371,0.141,1.92,0.408l0.566,1.05
		c0.015,0.031,0.015,0.063,0.015,0.094C218.02,18.11,218.006,18.142,217.942,18.189z"/>
	<path fill="#FFFFFF" d="M227.366,24.727c-0.881,0-2.173-0.251-2.581-0.455c-0.157-0.078-0.173-0.125-0.173-0.33v-2.209h0.393
		c0.124,0.737,0.236,1.097,0.455,1.426c0.441,0.643,1.229,1.033,2.016,1.033c1.212,0,2.109-0.861,2.109-2.037
		c0-1.097-0.535-1.739-2.882-3.371c-1.463-1.018-1.951-1.63-1.951-2.679c0-1.881,1.794-2.728,3.447-2.728
		c0.74,0,1.623,0.094,2.015,0.251c0.188,0.078,0.236,0.125,0.236,0.297v2.006h-0.41c-0.221-1.379-0.818-2.006-1.997-2.006
		c-1.038,0-1.699,0.643-1.699,1.677c0,0.376,0.11,0.721,0.297,0.956c0.348,0.424,0.316,0.455,2.362,1.976
		c1.682,1.254,2.218,1.942,2.218,3.118C231.223,23.487,229.665,24.727,227.366,24.727z"/>
	<path fill="#FFFFFF" d="M237.091,24.727h-0.408c-1.512,0-2.377-0.36-3.069-1.191c-0.694-0.847-1.069-1.976-1.069-3.057
		c0-1.066,0.392-2.132,1.054-2.869c0.63-0.704,1.559-1.096,2.598-1.096c1.4,0,2.377,0.719,2.77,2.005
		c0.142,0.47,0.189,0.846,0.174,1.676h-5.068c0.016,1.145,0.3,2.052,0.834,2.681c0.52,0.611,1.229,0.94,2.172,0.94
		c0.581,0,1.037-0.141,1.827-0.532l0.235,0.47L237.091,24.727z M236.084,17.029c-0.895,0-1.557,0.549-1.841,1.521
		c-0.095,0.298-0.125,0.548-0.173,1.081h2.705c0.709,0,1.009-0.267,1.009-0.91C237.784,17.765,237.076,17.029,236.084,17.029z"/>
	<path fill="#FFFFFF" d="M247.068,18.189l-0.504,0.298c-0.03,0.015-0.095,0.031-0.142,0.031c-0.049,0-0.095-0.031-0.143-0.094
		l-0.691-0.815c-0.331-0.376-0.74-0.563-1.243-0.563c-1.433,0-2.359,1.27-2.359,3.087c0,2.085,1.116,3.683,2.958,3.683
		c0.582,0,1.024-0.14,1.792-0.548l0.271,0.47l-2.095,0.989h-0.381c-1.241,0-2.233-0.409-2.926-1.098
		c-0.771-0.768-1.18-1.865-1.18-3.088c0-2.304,1.762-4.028,4.218-4.028c0.754,0,1.369,0.141,1.919,0.408l0.567,1.05
		c0.015,0.031,0.015,0.063,0.015,0.094C247.146,18.11,247.133,18.142,247.068,18.189z"/>
	<path fill="#FFFFFF" d="M251.238,24.727c-0.834-0.032-1.181-0.173-1.526-0.596c-0.314-0.392-0.456-0.924-0.456-1.882v-4.481h-1.261
		v-0.706h1.261v-1.646l0.989-0.862h0.426v2.507h2.408v0.424l-0.646,0.282h-1.763c0,4.153,0,0,0,4.153
		c0,0.94,0.112,1.882,1.259,1.882c0.348,0,0.662-0.08,1.023-0.205l0.125,0.408L251.238,24.727z"/>
	<path fill="#FFFFFF" d="M257.816,24.727c-2.282,0-3.87-1.788-3.87-4.013c0-2.398,1.761-4.199,4.185-4.199
		c2.327,0,3.936,1.644,3.936,4.026C262.066,22.938,260.272,24.727,257.816,24.727z M257.928,17.029
		c-1.857,0-2.422,2.053-2.422,3.559c0,2.116,1.021,3.604,2.518,3.604c1.512,0,2.485-1.364,2.485-3.479
		C260.509,18.457,259.5,17.029,257.928,17.029z"/>
	<path fill="#FFFFFF" d="M268.487,17.969l-0.362,0.282c-0.047,0.031-0.094,0.078-0.158,0.078c-0.049,0-0.112-0.03-0.14-0.046
		l-0.521-0.268c-0.174-0.093-0.298-0.108-0.505-0.108c-0.36,0-0.564,0.202-0.724,0.595c-0.142,0.36-0.142,1.207-0.142,1.63v2.445
		c0,1.52,0.127,1.474,1.59,1.551v0.408h-4.298v-0.408c1.306-0.063,1.289-0.189,1.289-1.551v-4.231c0-0.626-0.187-0.768-0.896-0.768
		h-0.361v-0.392c1.054-0.047,1.999-0.298,2.674-0.674v1.442l0.726-0.847c0.456-0.533,0.582-0.596,0.929-0.596
		c0.251,0,0.408,0.126,0.599,0.471l0.392,0.705c0.031,0.063,0.049,0.094,0.049,0.125C268.629,17.876,268.582,17.907,268.487,17.969z
		"/>
	<path fill="#FFFFFF" d="M181.084,43.534c-0.88,0-2.171-0.252-2.579-0.454c-0.158-0.079-0.176-0.126-0.176-0.329v-2.213h0.394
		c0.125,0.736,0.237,1.1,0.457,1.428c0.439,0.644,1.229,1.033,2.014,1.033c1.212,0,2.108-0.861,2.108-2.036
		c0-1.099-0.534-1.74-2.879-3.371c-1.463-1.018-1.952-1.629-1.952-2.679c0-1.883,1.795-2.729,3.448-2.729
		c0.739,0,1.619,0.096,2.014,0.251c0.188,0.08,0.235,0.126,0.235,0.298v2.006h-0.41c-0.22-1.379-0.817-2.006-1.997-2.006
		c-1.038,0-1.699,0.643-1.699,1.678c0,0.376,0.11,0.721,0.299,0.956c0.345,0.425,0.313,0.454,2.36,1.976
		c1.684,1.255,2.22,1.944,2.22,3.12C184.941,42.295,183.384,43.534,181.084,43.534z"/>
	<path fill="#FFFFFF" d="M191.739,43.534c-0.172-0.187-0.282-0.487-0.329-0.83c-0.018-0.143-0.031-0.237-0.031-0.38l-1.387,0.817
		c-0.504,0.298-0.786,0.392-1.321,0.392c-1.746,0-2.439-0.863-2.439-3.056v-3.324c0-0.628-0.188-0.769-0.897-0.769h-0.361v-0.391
		c1.039-0.046,2.014-0.296,2.675-0.674v5.016c0,1.301,0.189,2.256,1.686,2.256c0.895,0,1.622-0.469,1.855-1.238
		c0.142-0.436,0.205-1.111,0.205-1.848v-2.352c0-0.628-0.174-0.769-0.88-0.769h-0.38v-0.391c1.055-0.046,2.015-0.296,2.677-0.674
		c0,2.507,0,5.737,0,5.737c0,1.346,0.077,1.44,0.551,1.44c0.142,0,0.283-0.03,0.535-0.11l0.093,0.439L191.739,43.534z"/>
	<path fill="#FFFFFF" d="M198.411,43.534c-0.631,0-1.103-0.094-1.779-0.361v2.116c0,1.381,0.017,1.428,1.621,1.568v0.408h-4.296
		v-0.408c1.228-0.174,1.26-0.22,1.26-1.568v-8.15c0-0.628-0.19-0.768-0.897-0.768h-0.362v-0.393
		c1.057-0.048,2.015-0.282,2.675-0.658v1.284c0.71-0.878,1.638-1.284,2.708-1.284c1.936,0,3.227,1.44,3.227,3.699
		C202.566,41.654,200.804,43.534,198.411,43.534z M198.633,36.072c-0.976,0-1.64,0.567-1.873,1.616
		c-0.077,0.36-0.127,1.206-0.127,1.819v2.757c0.6,0.533,1.149,0.737,1.778,0.737c1.64,0,2.598-1.316,2.598-3.667
		C201.009,37.295,200.098,36.072,198.633,36.072z"/>
	<path fill="#FFFFFF" d="M207.523,43.534h-0.409c-1.51,0-2.375-0.361-3.069-1.191c-0.691-0.847-1.068-1.976-1.068-3.058
		c0-1.064,0.394-2.133,1.055-2.866c0.629-0.707,1.559-1.099,2.597-1.099c1.398,0,2.376,0.721,2.769,2.009
		c0.142,0.469,0.19,0.844,0.176,1.676h-5.07c0.017,1.145,0.299,2.053,0.835,2.68c0.519,0.611,1.227,0.942,2.17,0.942
		c0.581,0,1.038-0.143,1.827-0.535l0.236,0.472L207.523,43.534z M206.516,35.838c-0.895,0-1.557,0.547-1.84,1.52
		c-0.096,0.297-0.125,0.55-0.176,1.081h2.708c0.707,0,1.008-0.267,1.008-0.91C208.217,36.572,207.507,35.838,206.516,35.838z"/>
	<path fill="#FFFFFF" d="M215.107,36.779l-0.361,0.282c-0.049,0.03-0.096,0.078-0.158,0.078c-0.047,0-0.11-0.033-0.14-0.048
		l-0.521-0.266c-0.173-0.094-0.297-0.112-0.503-0.112c-0.362,0-0.565,0.205-0.724,0.596c-0.142,0.362-0.142,1.208-0.142,1.631v2.447
		c0,1.519,0.125,1.472,1.591,1.552v0.409h-4.3v-0.409c1.306-0.065,1.291-0.188,1.291-1.552v-4.234c0-0.629-0.188-0.769-0.898-0.769
		h-0.36v-0.391c1.055-0.046,1.998-0.297,2.675-0.674v1.44l0.727-0.845c0.455-0.534,0.58-0.595,0.928-0.595
		c0.25,0,0.409,0.125,0.598,0.471l0.395,0.705c0.029,0.064,0.046,0.095,0.046,0.126C215.251,36.684,215.205,36.715,215.107,36.779z"
		/>
	<path fill="#FFFFFF" d="M219.986,43.519c-0.235-0.391-0.362-0.816-0.378-1.238l-1.211,0.816c-0.519,0.358-0.772,0.438-1.15,0.438
		c-1.211,0-2.044-0.862-2.044-2.116c0-0.881,0.391-1.488,1.194-1.96c0.379-0.22,0.775-0.392,1.511-0.675l1.716-0.658
		c-0.015-1.66-0.457-2.288-1.354-2.288c-0.736,0-1.146,0.564-1.464,1.143c-0.047,0.093-0.187,0.377-0.328,0.377
		c-0.032,0-0.079,0-0.127-0.016l-0.484-0.123c-0.097-0.03-0.143-0.097-0.127-0.157l0.236-0.879c0.076-0.282,0.125-0.33,0.41-0.454
		c0.58-0.267,1.307-0.408,2.013-0.408c1.857,0,2.643,0.751,2.643,2.507v3.481c0,0.893,0.143,1.177,0.551,1.177
		c0.144,0,0.285-0.031,0.536-0.11l0.095,0.438L219.986,43.519z M219.624,38.723c-0.786,0.28-1.055,0.39-1.398,0.532
		c-1.087,0.456-1.604,1.08-1.604,1.975c0,0.782,0.52,1.331,1.287,1.331c1.117,0,1.716-0.891,1.716-2.619V38.723z"/>
	<path fill="#FFFFFF" d="M227.744,43.348V42.94c1.354-0.141,1.259-0.313,1.259-1.552v-2.9c0-1.707-0.457-2.32-1.777-2.32
		c-1.306,0-1.938,0.708-2.156,1.677c-0.095,0.426-0.126,0.896-0.126,1.615c0,1.929,0,0,0,1.929c0,1.364,0.017,1.379,1.275,1.552
		v0.408h-3.952v-0.408c1.231-0.174,1.26-0.22,1.26-1.552v-4.247c0-0.626-0.188-0.768-0.895-0.768h-0.365v-0.393
		c1.056-0.047,2.015-0.281,2.677-0.657v1.364c0.882-0.941,1.891-1.364,3.147-1.364c1.183,0,1.891,0.501,2.19,1.331
		c0.124,0.376,0.141,0.721,0.141,1.425v3.309c0,1.332-0.063,1.426,1.258,1.552v0.408H227.744L227.744,43.348z"/>
	<path fill="#FFFFFF" d="M237.313,43.348V42.94c1.352-0.141,1.259-0.313,1.259-1.552v-2.9c0-1.707-0.458-2.32-1.779-2.32
		c-1.306,0-1.938,0.708-2.156,1.677c-0.095,0.426-0.125,0.896-0.125,1.615c0,1.929,0,0,0,1.929c0,1.364,0.018,1.379,1.274,1.552
		v0.408h-3.95v-0.408c1.229-0.174,1.259-0.22,1.259-1.552v-4.247c0-0.626-0.188-0.768-0.896-0.768h-0.362v-0.393
		c1.056-0.047,2.014-0.281,2.676-0.657v1.364c0.882-0.941,1.89-1.364,3.147-1.364c1.182,0,1.891,0.501,2.188,1.331
		c0.125,0.376,0.142,0.721,0.142,1.425v3.309c0,1.332-0.063,1.426,1.259,1.552v0.408H237.313L237.313,43.348z"/>
	<path fill="#FFFFFF" d="M247.89,43.534c-0.174-0.187-0.286-0.487-0.33-0.83c-0.02-0.143-0.032-0.237-0.032-0.38l-1.386,0.817
		c-0.503,0.298-0.787,0.392-1.321,0.392c-1.747,0-2.44-0.863-2.44-3.056v-3.324c0-0.628-0.19-0.769-0.896-0.769h-0.362v-0.391
		c1.037-0.046,2.014-0.296,2.675-0.674v5.016c0,1.301,0.189,2.256,1.683,2.256c0.899,0,1.623-0.469,1.859-1.238
		c0.142-0.436,0.203-1.111,0.203-1.848v-2.352c0-0.628-0.171-0.769-0.88-0.769h-0.381v-0.391c1.054-0.046,2.016-0.296,2.677-0.674
		c0,2.507,0,5.737,0,5.737c0,1.346,0.077,1.44,0.552,1.44c0.142,0,0.282-0.03,0.533-0.11l0.095,0.439L247.89,43.534z"/>
	<path fill="#FFFFFF" d="M255.176,43.519c-0.236-0.391-0.364-0.816-0.379-1.238l-1.212,0.816c-0.519,0.358-0.771,0.438-1.149,0.438
		c-1.21,0-2.044-0.862-2.044-2.116c0-0.881,0.392-1.488,1.195-1.96c0.378-0.22,0.772-0.392,1.51-0.675l1.715-0.658
		c-0.015-1.66-0.456-2.288-1.352-2.288c-0.739,0-1.149,0.564-1.464,1.143c-0.047,0.093-0.188,0.377-0.33,0.377
		c-0.032,0-0.077,0-0.125-0.016l-0.486-0.123c-0.095-0.03-0.142-0.097-0.127-0.157l0.236-0.879c0.077-0.282,0.126-0.33,0.408-0.454
		c0.582-0.267,1.308-0.408,2.015-0.408c1.858,0,2.645,0.751,2.645,2.507v3.481c0,0.893,0.141,1.177,0.551,1.177
		c0.141,0,0.283-0.031,0.536-0.11l0.092,0.438L255.176,43.519z M254.812,38.723c-0.785,0.28-1.054,0.39-1.396,0.532
		c-1.088,0.456-1.607,1.08-1.607,1.975c0,0.782,0.52,1.331,1.289,1.331c1.118,0,1.715-0.891,1.715-2.619V38.723z"/>
	<path fill="#FFFFFF" d="M260.667,43.534c-0.835-0.032-1.182-0.176-1.525-0.595c-0.314-0.393-0.456-0.928-0.456-1.883v-4.485h-1.261
		v-0.704h1.261v-1.645l0.989-0.862h0.426v2.509h2.407v0.424l-0.645,0.28h-1.763c0,4.155,0,0,0,4.155c0,0.94,0.111,1.883,1.258,1.883
		c0.348,0,0.662-0.077,1.024-0.206l0.123,0.409L260.667,43.534z"/>
	<path fill="#FFFFFF" d="M262.491,43.348V42.94c1.229-0.127,1.259-0.141,1.259-1.552v-4.234c0-0.628-0.174-0.769-0.895-0.769h-0.364
		v-0.391c1.055-0.046,2.015-0.296,2.674-0.674v6.066c0,1.316-0.027,1.426,1.262,1.552v0.408h-3.936V43.348z M264.27,34.286
		c-0.503,0-0.913-0.408-0.913-0.924c0-0.471,0.426-0.894,0.928-0.894c0.487,0,0.913,0.407,0.913,0.908
		C265.199,33.895,264.789,34.286,264.27,34.286z"/>
	<path fill="#FFFFFF" d="M270.581,43.534c-2.281,0-3.87-1.786-3.87-4.012c0-2.401,1.763-4.202,4.186-4.202
		c2.328,0,3.935,1.647,3.935,4.028C274.831,41.744,273.037,43.534,270.581,43.534z M270.69,35.838c-1.856,0-2.424,2.052-2.424,3.557
		c0,2.116,1.024,3.604,2.518,3.604c1.511,0,2.487-1.362,2.487-3.479C273.271,37.266,272.266,35.838,270.69,35.838z"/>
	<path fill="#FFFFFF" d="M280.591,43.348V42.94c1.352-0.141,1.259-0.313,1.259-1.552v-2.9c0-1.707-0.458-2.32-1.78-2.32
		c-1.305,0-1.937,0.708-2.155,1.677c-0.094,0.426-0.125,0.896-0.125,1.615c0,1.929,0,0,0,1.929c0,1.364,0.016,1.379,1.274,1.552
		v0.408h-3.949v-0.408c1.228-0.174,1.259-0.22,1.259-1.552v-4.247c0-0.626-0.187-0.768-0.896-0.768h-0.362v-0.393
		c1.055-0.047,2.013-0.281,2.678-0.657v1.364c0.88-0.941,1.886-1.364,3.146-1.364c1.18,0,1.89,0.501,2.188,1.331
		c0.125,0.376,0.14,0.721,0.14,1.425v3.309c0,1.332-0.063,1.426,1.261,1.552v0.408H280.591L280.591,43.348z"/>
	<path fill="#FFFFFF" d="M183.115,62.325c-0.235-0.39-0.362-0.815-0.377-1.234l-1.214,0.813c-0.519,0.361-0.771,0.438-1.148,0.438
		c-1.212,0-2.044-0.861-2.044-2.114c0-0.878,0.391-1.491,1.195-1.959c0.378-0.222,0.771-0.393,1.51-0.676l1.716-0.657
		c-0.015-1.662-0.457-2.288-1.354-2.288c-0.736,0-1.146,0.565-1.462,1.144c-0.05,0.095-0.188,0.38-0.33,0.38
		c-0.033,0-0.079,0-0.127-0.018l-0.486-0.126c-0.094-0.032-0.143-0.094-0.125-0.159l0.236-0.877c0.076-0.28,0.125-0.327,0.409-0.453
		c0.58-0.267,1.306-0.409,2.014-0.409c1.857,0,2.643,0.753,2.643,2.507v3.482c0,0.893,0.143,1.175,0.552,1.175
		c0.142,0,0.284-0.029,0.534-0.108l0.096,0.437L183.115,62.325z M182.753,57.531c-0.784,0.279-1.054,0.391-1.398,0.53
		c-1.085,0.455-1.604,1.082-1.604,1.978c0,0.782,0.52,1.33,1.287,1.33c1.117,0,1.716-0.892,1.716-2.615V57.531L182.753,57.531z"/>
	<path fill="#FFFFFF" d="M192.165,55.806l-0.504,0.3c-0.03,0.016-0.094,0.028-0.142,0.028s-0.095-0.028-0.143-0.096l-0.692-0.813
		c-0.33-0.378-0.739-0.563-1.242-0.563c-1.433,0-2.36,1.271-2.36,3.087c0,2.087,1.117,3.686,2.958,3.686
		c0.581,0,1.022-0.142,1.792-0.55l0.27,0.472l-2.094,0.986h-0.38c-1.241,0-2.235-0.407-2.927-1.097
		c-0.771-0.769-1.18-1.865-1.18-3.088c0-2.306,1.763-4.029,4.22-4.029c0.752,0,1.369,0.142,1.918,0.409l0.565,1.048
		c0.017,0.034,0.017,0.067,0.017,0.096C192.243,55.728,192.227,55.76,192.165,55.806z"/>
	<path fill="#FFFFFF" d="M199.012,55.806l-0.506,0.3c-0.029,0.016-0.093,0.028-0.14,0.028c-0.048,0-0.095-0.028-0.142-0.096
		l-0.694-0.813c-0.328-0.378-0.736-0.563-1.241-0.563c-1.435,0-2.363,1.271-2.363,3.087c0,2.087,1.118,3.686,2.96,3.686
		c0.579,0,1.021-0.142,1.792-0.55l0.269,0.472l-2.094,0.986h-0.382c-1.24,0-2.232-0.407-2.925-1.097
		c-0.771-0.769-1.182-1.865-1.182-3.088c0-2.306,1.763-4.029,4.219-4.029c0.755,0,1.369,0.142,1.919,0.409l0.567,1.048
		c0.015,0.034,0.015,0.067,0.015,0.096C199.088,55.728,199.073,55.76,199.012,55.806z"/>
	<path fill="#FFFFFF" d="M205.572,62.341c-0.174-0.188-0.283-0.483-0.33-0.831c-0.019-0.141-0.029-0.23-0.029-0.375l-1.386,0.816
		c-0.504,0.294-0.788,0.389-1.322,0.389c-1.748,0-2.441-0.861-2.441-3.055v-3.324c0-0.627-0.189-0.769-0.896-0.769h-0.361V54.8
		c1.037-0.044,2.013-0.296,2.674-0.673v5.016c0,1.302,0.189,2.258,1.686,2.258c0.896,0,1.62-0.472,1.857-1.238
		c0.141-0.438,0.202-1.113,0.202-1.851v-2.351c0-0.627-0.172-0.769-0.88-0.769h-0.379V54.8c1.054-0.044,2.014-0.296,2.676-0.673
		c0,2.507,0,5.736,0,5.736c0,1.349,0.076,1.443,0.551,1.443c0.142,0,0.283-0.03,0.534-0.112l0.095,0.44L205.572,62.341z"/>
	<path fill="#FFFFFF" d="M217.927,62.154v-0.407c1.229-0.126,1.26-0.142,1.26-1.552v-2.868c0-1.726-0.409-2.337-1.542-2.337
		c-0.646,0-1.183,0.235-1.511,0.657c-0.427,0.532-0.533,1.146-0.533,2.712v1.835c0,1.41,0.013,1.426,1.273,1.552v0.405h-3.95v-0.405
		c1.228-0.127,1.258-0.143,1.258-1.552v-2.868c0-1.725-0.361-2.337-1.526-2.337c-0.63,0-1.163,0.235-1.493,0.627
		c-0.428,0.516-0.567,1.189-0.567,2.741v1.834c0,1.41,0.017,1.427,1.274,1.552v0.406h-3.95v-0.406
		c1.231-0.127,1.26-0.143,1.26-1.552v-4.231c0-0.611-0.188-0.77-0.896-0.77h-0.363v-0.392c1.056-0.044,2.014-0.296,2.676-0.674
		v1.381c0.786-0.957,1.623-1.381,2.864-1.381c1.103,0,1.606,0.359,2.062,1.381c0.867-0.957,1.716-1.381,2.85-1.381
		c1.055,0,1.683,0.359,2.014,1.145c0.173,0.408,0.22,0.861,0.22,1.645v3.275c0,1.411,0,1.427,1.261,1.552v0.408h-3.937
		L217.927,62.154L217.927,62.154z"/>
	<path fill="#FFFFFF" d="M228.502,62.341c-0.174-0.188-0.284-0.483-0.331-0.831c-0.019-0.141-0.029-0.23-0.029-0.375l-1.386,0.816
		c-0.503,0.294-0.788,0.389-1.324,0.389c-1.745,0-2.439-0.861-2.439-3.055v-3.324c0-0.627-0.189-0.769-0.896-0.769h-0.359V54.8
		c1.036-0.044,2.013-0.296,2.674-0.673v5.016c0,1.302,0.189,2.258,1.684,2.258c0.897,0,1.622-0.472,1.856-1.238
		c0.142-0.438,0.204-1.113,0.204-1.851v-2.351c0-0.627-0.172-0.769-0.881-0.769h-0.38V54.8c1.055-0.044,2.015-0.296,2.678-0.673
		c0,2.507,0,5.736,0,5.736c0,1.349,0.077,1.443,0.549,1.443c0.142,0,0.283-0.03,0.535-0.112l0.094,0.44L228.502,62.341z"/>
	<path fill="#FFFFFF" d="M230.845,62.154v-0.407c1.229-0.126,1.258-0.142,1.258-1.552v-7.792c0-0.407-0.029-0.643-0.187-0.768
		c-0.112-0.094-0.298-0.126-0.615-0.126h-0.438v-0.422c0.881-0.018,1.903-0.189,2.657-0.455v9.561c0,1.41,0,1.426,1.259,1.552v0.405
		h-3.934V62.154z"/>
	<path fill="#FFFFFF" d="M239.88,62.325c-0.236-0.39-0.362-0.815-0.379-1.234l-1.213,0.813c-0.518,0.361-0.77,0.438-1.148,0.438
		c-1.212,0-2.046-0.861-2.046-2.114c0-0.878,0.394-1.491,1.196-1.959c0.379-0.222,0.772-0.393,1.512-0.676l1.716-0.657
		c-0.017-1.662-0.457-2.288-1.354-2.288c-0.74,0-1.148,0.565-1.466,1.144c-0.047,0.095-0.187,0.38-0.329,0.38
		c-0.03,0-0.077,0-0.123-0.018l-0.488-0.126c-0.095-0.032-0.143-0.094-0.124-0.159l0.234-0.877c0.076-0.28,0.127-0.327,0.408-0.453
		c0.584-0.267,1.308-0.409,2.015-0.409c1.857,0,2.646,0.753,2.646,2.507v3.482c0,0.893,0.142,1.175,0.55,1.175
		c0.142,0,0.282-0.029,0.534-0.108l0.095,0.437L239.88,62.325z M239.518,57.531c-0.785,0.279-1.056,0.391-1.4,0.53
		c-1.083,0.455-1.604,1.082-1.604,1.978c0,0.782,0.521,1.33,1.29,1.33c1.114,0,1.714-0.892,1.714-2.615V57.531L239.518,57.531z"/>
	<path fill="#FFFFFF" d="M245.372,62.341c-0.836-0.027-1.182-0.172-1.528-0.595c-0.314-0.392-0.457-0.925-0.457-1.882v-4.481h-1.259
		v-0.706h1.259v-1.645l0.991-0.863h0.427v2.508h2.407v0.424l-0.645,0.283h-1.763c0,4.155,0,0,0,4.155
		c0,0.938,0.111,1.879,1.259,1.879c0.346,0,0.66-0.077,1.021-0.203l0.126,0.407L245.372,62.341z"/>
	<path fill="#FFFFFF" d="M247.195,62.154v-0.407c1.229-0.126,1.259-0.142,1.259-1.552v-4.233c0-0.627-0.174-0.769-0.895-0.769
		h-0.364V54.8c1.056-0.044,2.014-0.296,2.676-0.673v6.066c0,1.315-0.03,1.426,1.262,1.552v0.405h-3.938V62.154z M248.976,53.097
		c-0.504,0-0.913-0.407-0.913-0.927c0-0.469,0.425-0.892,0.927-0.892c0.489,0,0.914,0.407,0.914,0.909
		C249.903,52.703,249.495,53.097,248.976,53.097z"/>
	<path fill="#FFFFFF" d="M255.285,62.341c-2.281,0-3.871-1.785-3.871-4.013c0-2.396,1.765-4.2,4.188-4.2
		c2.328,0,3.935,1.646,3.935,4.028C259.536,60.556,257.739,62.341,255.285,62.341z M255.396,54.648
		c-1.855,0-2.423,2.052-2.423,3.557c0,2.116,1.023,3.607,2.518,3.607c1.512,0,2.488-1.365,2.488-3.483
		C257.979,56.073,256.971,54.648,255.396,54.648z"/>
	<path fill="#FFFFFF" d="M265.295,62.154v-0.407c1.354-0.142,1.259-0.314,1.259-1.552v-2.899c0-1.71-0.457-2.317-1.78-2.317
		c-1.307,0-1.937,0.703-2.154,1.678c-0.095,0.424-0.128,0.891-0.128,1.614c0,1.928,0,0,0,1.928c0,1.363,0.02,1.379,1.278,1.551
		v0.407h-3.952v-0.407c1.231-0.172,1.26-0.22,1.26-1.551v-4.249c0-0.628-0.188-0.769-0.896-0.769h-0.363v-0.391
		c1.056-0.046,2.016-0.283,2.676-0.659v1.364c0.884-0.94,1.892-1.364,3.148-1.364c1.181,0,1.888,0.502,2.189,1.333
		c0.125,0.377,0.141,0.721,0.141,1.427v3.306c0,1.332-0.063,1.426,1.258,1.552v0.407L265.295,62.154L265.295,62.154L265.295,62.154z
		"/>
	<path fill="#FFFFFF" d="M276.389,62.341c-0.63,0-1.102-0.095-1.779-0.36v2.117c0,1.378,0.016,1.426,1.621,1.565v0.408h-4.297
		v-0.408c1.228-0.172,1.259-0.218,1.259-1.565v-8.152c0-0.627-0.188-0.768-0.897-0.768h-0.361v-0.391
		c1.056-0.049,2.014-0.283,2.676-0.659v1.285c0.707-0.878,1.638-1.285,2.707-1.285c1.935,0,3.228,1.443,3.228,3.699
		C280.544,60.463,278.779,62.341,276.389,62.341z M276.607,54.882c-0.976,0-1.638,0.563-1.873,1.613
		c-0.077,0.361-0.125,1.209-0.125,1.82v2.76c0.598,0.53,1.149,0.737,1.779,0.737c1.638,0,2.598-1.318,2.598-3.67
		C278.984,56.108,278.07,54.882,276.607,54.882z"/>
	<path fill="#FFFFFF" d="M280.825,62.154v-0.407c1.229-0.126,1.259-0.142,1.259-1.552v-7.792c0-0.407-0.029-0.643-0.188-0.768
		c-0.11-0.094-0.297-0.126-0.613-0.126h-0.438v-0.422c0.881-0.018,1.901-0.189,2.659-0.455v9.561c0,1.41,0,1.426,1.259,1.552v0.405
		h-3.937V62.154L280.825,62.154z"/>
	<path fill="#FFFFFF" d="M289.857,62.325c-0.235-0.39-0.362-0.815-0.379-1.234l-1.21,0.813c-0.52,0.361-0.772,0.438-1.151,0.438
		c-1.211,0-2.046-0.861-2.046-2.114c0-0.878,0.396-1.491,1.196-1.959c0.38-0.222,0.773-0.393,1.512-0.676l1.716-0.657
		c-0.017-1.662-0.455-2.288-1.354-2.288c-0.739,0-1.148,0.565-1.465,1.144c-0.047,0.095-0.187,0.38-0.328,0.38
		c-0.031,0-0.079,0-0.125-0.018l-0.485-0.126c-0.096-0.032-0.145-0.094-0.127-0.159l0.235-0.877c0.077-0.28,0.126-0.327,0.409-0.453
		c0.583-0.267,1.307-0.409,2.015-0.409c1.855,0,2.644,0.753,2.644,2.507v3.482c0,0.893,0.143,1.175,0.551,1.175
		c0.142,0,0.283-0.029,0.534-0.108l0.094,0.437L289.857,62.325z M289.495,57.531c-0.785,0.279-1.054,0.391-1.4,0.53
		c-1.083,0.455-1.603,1.082-1.603,1.978c0,0.782,0.52,1.33,1.289,1.33c1.115,0,1.714-0.892,1.714-2.615V57.531z"/>
	<path fill="#FFFFFF" d="M297.617,62.154v-0.407c1.352-0.142,1.257-0.314,1.257-1.552v-2.899c0-1.71-0.455-2.317-1.777-2.317
		c-1.307,0-1.937,0.703-2.156,1.678c-0.095,0.424-0.127,0.891-0.127,1.614c0,1.928,0,0,0,1.928c0,1.363,0.019,1.379,1.278,1.551
		v0.407h-3.952v-0.407c1.229-0.172,1.26-0.22,1.26-1.551v-4.249c0-0.628-0.188-0.769-0.896-0.769h-0.364v-0.391
		c1.054-0.046,2.017-0.283,2.677-0.659v1.364c0.882-0.94,1.889-1.364,3.149-1.364c1.179,0,1.886,0.502,2.188,1.333
		c0.125,0.377,0.143,0.721,0.143,1.427v3.306c0,1.332-0.063,1.426,1.256,1.552v0.407h-3.933v-0.001H297.617z"/>
</g>
</svg>
