<?xml version="1.0" encoding="utf-8"?>
<!-- Generator: Adobe Illustrator 16.0.0, SVG Export Plug-In . SVG Version: 6.00 Build 0)  -->
<!DOCTYPE svg PUBLIC "-//W3C//DTD SVG 1.1//EN" "http://www.w3.org/Graphics/SVG/1.1/DTD/svg11.dtd">
<svg version="1.1" id="new_logo" xmlns="http://www.w3.org/2000/svg" xmlns:xlink="http://www.w3.org/1999/xlink" x="0px" y="0px"
	 width="323px" height="73.666px" viewBox="0 0 323 73.666" enable-background="new 0 0 323 73.666" xml:space="preserve">
<rect fill="#B1171E" width="159.043" height="73.666"/>
<rect x="164.261" fill="#939598" width="158.736" height="73.666"/>
<g>
	<path fill="#FFFFFF" d="M188.862,24.576c-0.067,0.271-0.108,0.326-0.502,0.462c-0.815,0.286-1.931,0.436-2.854,0.436
		c-1.277,0-2.487-0.381-3.44-1.102c-1.071-0.815-1.778-2.093-1.778-3.778c0-1.373,0.61-2.896,1.928-3.888
		c0.871-0.653,2.041-1.074,3.551-1.074c0.938,0,1.971,0.204,2.582,0.462c0.395,0.162,0.517,0.285,0.517,0.611v1.672h-0.353
		c-0.043-0.476-0.124-0.829-0.26-1.087c-0.396-0.748-1.51-1.196-2.637-1.196c-2.324,0-3.777,1.618-3.777,4.376
		c0,1.481,0.42,2.772,1.289,3.602c0.625,0.584,1.481,0.938,2.584,0.938c1.074,0,2.039-0.368,2.637-1.114
		c0.218-0.272,0.339-0.503,0.57-1.02h0.354L188.862,24.576z"/>
	<path fill="#FFFFFF" d="M192.808,25.473c-0.762,0-1.875-0.218-2.229-0.395c-0.136-0.067-0.149-0.108-0.149-0.285v-1.917h0.341
		c0.107,0.639,0.205,0.951,0.395,1.237c0.379,0.558,1.061,0.897,1.739,0.897c1.048,0,1.821-0.748,1.821-1.768
		c0-0.951-0.461-1.508-2.486-2.922c-1.264-0.884-1.686-1.414-1.686-2.325c0-1.631,1.549-2.365,2.976-2.365
		c0.64,0,1.4,0.082,1.74,0.217c0.164,0.068,0.204,0.109,0.204,0.258v1.74h-0.354c-0.19-1.196-0.707-1.74-1.727-1.74
		c-0.896,0-1.469,0.557-1.469,1.455c0,0.327,0.095,0.625,0.259,0.829c0.299,0.368,0.271,0.395,2.039,1.713
		c1.452,1.087,1.915,1.685,1.915,2.705C196.138,24.398,194.792,25.473,192.808,25.473z"/>
	<path fill="#FFFFFF" d="M206.091,24.576c-0.067,0.271-0.108,0.326-0.504,0.462c-0.814,0.286-1.93,0.436-2.854,0.436
		c-1.277,0-2.486-0.381-3.439-1.102c-1.071-0.815-1.778-2.093-1.778-3.778c0-1.373,0.61-2.896,1.929-3.888
		c0.871-0.653,2.04-1.074,3.549-1.074c0.938,0,1.973,0.204,2.582,0.462c0.396,0.162,0.518,0.285,0.518,0.611v1.672h-0.354
		c-0.039-0.476-0.121-0.829-0.258-1.087c-0.395-0.748-1.509-1.196-2.637-1.196c-2.324,0-3.778,1.618-3.778,4.376
		c0,1.481,0.421,2.772,1.29,3.602c0.626,0.584,1.482,0.938,2.583,0.938c1.073,0,2.038-0.368,2.636-1.114
		c0.221-0.272,0.342-0.503,0.572-1.02h0.354L206.091,24.576z"/>
	<path fill="#FFFFFF" d="M184.58,37.747l-0.313,0.245c-0.04,0.026-0.081,0.065-0.137,0.065c-0.041,0-0.094-0.024-0.121-0.039
		l-0.449-0.229c-0.148-0.082-0.258-0.097-0.436-0.097c-0.313,0-0.488,0.177-0.625,0.517c-0.123,0.313-0.123,1.047-0.123,1.415v2.12
		c0,1.317,0.109,1.276,1.373,1.345v0.354h-3.711v-0.354c1.129-0.054,1.115-0.164,1.115-1.345v-3.671
		c0-0.543-0.162-0.666-0.775-0.666h-0.312v-0.34c0.91-0.04,1.726-0.258,2.31-0.584v1.25L183.003,37
		c0.395-0.462,0.502-0.517,0.801-0.517c0.219,0,0.354,0.108,0.517,0.407l0.341,0.612c0.027,0.054,0.041,0.082,0.041,0.108
		C184.703,37.666,184.662,37.692,184.58,37.747z"/>
	<path fill="#FFFFFF" d="M189.423,43.604h-0.354c-1.305,0-2.053-0.313-2.649-1.033c-0.6-0.732-0.926-1.711-0.926-2.648
		c0-0.925,0.34-1.85,0.911-2.486c0.544-0.613,1.345-0.953,2.242-0.953c1.21,0,2.054,0.625,2.392,1.74
		c0.123,0.407,0.164,0.733,0.15,1.455h-4.378c0.015,0.992,0.259,1.779,0.722,2.323c0.448,0.53,1.061,0.815,1.877,0.815
		c0.502,0,0.896-0.121,1.575-0.461l0.204,0.406L189.423,43.604z M188.552,36.933c-0.774,0-1.346,0.475-1.592,1.316
		c-0.08,0.259-0.105,0.477-0.148,0.938h2.338c0.612,0,0.871-0.229,0.871-0.787C190.021,37.569,189.41,36.933,188.552,36.933z"/>
	<path fill="#FFFFFF" d="M194.958,43.604c-0.722-0.025-1.021-0.149-1.317-0.517c-0.272-0.339-0.396-0.802-0.396-1.631v-3.888h-1.088
		v-0.61h1.088v-1.428l0.854-0.747h0.368v2.175h2.08v0.368l-0.56,0.242h-1.521c0,3.604,0,0,0,3.604c0,0.814,0.095,1.631,1.087,1.631
		c0.3,0,0.569-0.068,0.883-0.178l0.11,0.354L194.958,43.604z"/>
	<path fill="#FFFFFF" d="M197.392,43.442v-0.354c1.061-0.108,1.088-0.122,1.088-1.345v-3.672c0-0.543-0.148-0.666-0.775-0.666
		h-0.313v-0.339c0.91-0.04,1.738-0.258,2.313-0.584v5.261c0,1.141-0.027,1.234,1.088,1.345v0.354H197.392z M198.927,35.587
		c-0.434,0-0.786-0.354-0.786-0.803c0-0.407,0.366-0.774,0.802-0.774c0.422,0,0.788,0.353,0.788,0.788
		C199.731,35.246,199.376,35.587,198.927,35.587z"/>
	<path fill="#FFFFFF" d="M206.326,37.747l-0.313,0.245c-0.041,0.026-0.081,0.065-0.137,0.065c-0.041,0-0.094-0.024-0.123-0.039
		l-0.448-0.229c-0.147-0.082-0.257-0.097-0.435-0.097c-0.313,0-0.488,0.177-0.625,0.517c-0.123,0.313-0.123,1.047-0.123,1.415v2.12
		c0,1.317,0.109,1.276,1.373,1.345v0.354h-3.711v-0.354c1.129-0.054,1.114-0.164,1.114-1.345v-3.671
		c0-0.543-0.164-0.666-0.774-0.666h-0.313v-0.34c0.911-0.04,1.727-0.258,2.311-0.584v1.25L204.75,37
		c0.395-0.462,0.502-0.517,0.801-0.517c0.219,0,0.354,0.108,0.518,0.407l0.34,0.612c0.028,0.054,0.043,0.082,0.043,0.108
		C206.449,37.666,206.408,37.692,206.326,37.747z"/>
	<path fill="#FFFFFF" d="M211.167,43.604h-0.354c-1.305,0-2.055-0.313-2.65-1.033c-0.599-0.732-0.924-1.711-0.924-2.648
		c0-0.925,0.34-1.85,0.911-2.486c0.543-0.613,1.345-0.953,2.242-0.953c1.209,0,2.052,0.625,2.392,1.74
		c0.123,0.407,0.164,0.733,0.15,1.455h-4.378c0.014,0.992,0.259,1.779,0.722,2.323c0.448,0.53,1.059,0.815,1.876,0.815
		c0.503,0,0.896-0.121,1.575-0.461l0.205,0.406L211.167,43.604z M210.298,36.933c-0.775,0-1.346,0.475-1.592,1.316
		c-0.08,0.259-0.106,0.477-0.148,0.938h2.338c0.611,0,0.87-0.229,0.87-0.787C211.766,37.569,211.156,36.933,210.298,36.933z"/>
	<path fill="#FFFFFF" d="M222.684,43.442v-0.354c1.06-0.108,1.087-0.122,1.087-1.345v-2.488c0-1.496-0.354-2.024-1.333-2.024
		c-0.556,0-1.019,0.204-1.304,0.571c-0.366,0.463-0.463,0.992-0.463,2.352v1.591c0,1.223,0.015,1.235,1.101,1.345v0.354h-3.41
		v-0.354c1.06-0.109,1.087-0.122,1.087-1.345v-2.488c0-1.495-0.314-2.024-1.318-2.024c-0.543,0-1.006,0.205-1.291,0.542
		c-0.366,0.449-0.49,1.033-0.49,2.379v1.592c0,1.223,0.016,1.234,1.102,1.345v0.354h-3.41V43.09
		c1.061-0.108,1.088-0.122,1.088-1.345v-3.672c0-0.529-0.164-0.665-0.775-0.665h-0.313v-0.34c0.91-0.04,1.738-0.258,2.31-0.584
		v1.197c0.681-0.829,1.401-1.197,2.474-1.197c0.953,0,1.389,0.312,1.782,1.197c0.748-0.829,1.481-1.197,2.46-1.197
		c0.911,0,1.453,0.312,1.74,0.992c0.148,0.354,0.189,0.748,0.189,1.428v2.842c0,1.223,0,1.234,1.088,1.345v0.354h-3.399V43.442z"/>
	<path fill="#FFFFFF" d="M231.119,43.604h-0.354c-1.305,0-2.055-0.313-2.65-1.033c-0.6-0.732-0.926-1.711-0.926-2.648
		c0-0.925,0.341-1.85,0.911-2.486c0.545-0.613,1.346-0.953,2.241-0.953c1.211,0,2.054,0.625,2.393,1.74
		c0.124,0.407,0.164,0.733,0.15,1.455h-4.377c0.014,0.992,0.258,1.779,0.721,2.323c0.447,0.53,1.061,0.815,1.876,0.815
		c0.502,0,0.897-0.121,1.576-0.461l0.204,0.406L231.119,43.604z M230.248,36.933c-0.773,0-1.346,0.475-1.588,1.316
		c-0.084,0.259-0.109,0.477-0.15,0.938h2.336c0.611,0,0.871-0.229,0.871-0.787C231.714,37.569,231.104,36.933,230.248,36.933z"/>
	<path fill="#FFFFFF" d="M238.718,43.442v-0.354c1.171-0.122,1.088-0.271,1.088-1.345v-2.516c0-1.481-0.393-2.013-1.534-2.013
		c-1.129,0-1.674,0.613-1.862,1.455c-0.082,0.366-0.109,0.774-0.109,1.399c0,1.673,0,0,0,1.673c0,1.181,0.015,1.194,1.102,1.345
		v0.354h-3.412v-0.354c1.061-0.148,1.088-0.189,1.088-1.345v-3.687c0-0.541-0.162-0.664-0.773-0.664h-0.313v-0.339
		c0.91-0.041,1.739-0.245,2.311-0.571v1.183c0.762-0.814,1.631-1.183,2.72-1.183c1.021,0,1.631,0.435,1.89,1.157
		c0.108,0.324,0.121,0.625,0.121,1.235v2.868c0,1.154-0.054,1.234,1.088,1.345v0.354h-3.402V43.442z"/>
	<path fill="#FFFFFF" d="M245.888,43.604c-0.723-0.025-1.021-0.149-1.319-0.517c-0.271-0.339-0.396-0.802-0.396-1.631v-3.888h-1.086
		v-0.61h1.086v-1.428l0.856-0.747h0.368v2.175h2.079v0.368l-0.558,0.242h-1.521c0,3.604,0,0,0,3.604
		c0,0.814,0.096,1.631,1.087,1.631c0.298,0,0.57-0.068,0.884-0.178l0.108,0.354L245.888,43.604z"/>
	<path fill="#FFFFFF" d="M180.039,61.576v-0.353c1.062-0.111,1.09-0.125,1.09-1.348v-3.671c0-0.542-0.149-0.666-0.775-0.666h-0.313
		V55.2c0.91-0.041,1.739-0.26,2.313-0.584v5.26c0,1.143-0.027,1.236,1.087,1.348v0.353H180.039z M181.576,53.72
		c-0.435,0-0.787-0.354-0.787-0.803c0-0.406,0.366-0.773,0.801-0.773c0.422,0,0.789,0.354,0.789,0.789
		C182.376,53.379,182.025,53.72,181.576,53.72z"/>
	<path fill="#FFFFFF" d="M189.164,61.576v-0.353c1.17-0.125,1.088-0.273,1.088-1.348v-2.514c0-1.482-0.395-2.014-1.537-2.014
		c-1.127,0-1.672,0.612-1.86,1.453c-0.082,0.368-0.11,0.775-0.11,1.401c0,1.672,0,0,0,1.672c0,1.183,0.016,1.196,1.104,1.347v0.354
		h-3.413v-0.354c1.062-0.148,1.089-0.191,1.089-1.347v-3.683c0-0.545-0.163-0.668-0.775-0.668h-0.313v-0.34
		c0.911-0.039,1.74-0.244,2.311-0.57v1.183c0.764-0.813,1.631-1.183,2.721-1.183c1.02,0,1.63,0.436,1.89,1.156
		c0.108,0.326,0.121,0.625,0.121,1.236v2.867c0,1.154-0.054,1.236,1.089,1.348v0.352h-3.402V61.576z"/>
	<path fill="#FFFFFF" d="M199.402,56.069l-0.438,0.26c-0.024,0.016-0.078,0.025-0.119,0.025s-0.083-0.025-0.123-0.08l-0.598-0.707
		c-0.287-0.326-0.641-0.489-1.074-0.489c-1.238,0-2.039,1.103-2.039,2.679c0,1.809,0.965,3.193,2.555,3.193
		c0.504,0,0.885-0.121,1.549-0.477l0.232,0.408l-1.809,0.855h-0.326c-1.073,0-1.93-0.354-2.526-0.951
		c-0.667-0.666-1.021-1.617-1.021-2.678c0-1.998,1.521-3.492,3.644-3.492c0.651,0,1.183,0.121,1.655,0.354l0.492,0.91
		c0.012,0.025,0.012,0.055,0.012,0.082C199.468,56.003,199.457,56.03,199.402,56.069z"/>
	<path fill="#FFFFFF" d="M203.783,61.737c-1.971,0-3.343-1.549-3.343-3.479c0-2.078,1.521-3.642,3.615-3.642
		c2.011,0,3.397,1.428,3.397,3.491C207.455,60.188,205.903,61.737,203.783,61.737z M203.876,55.065
		c-1.603,0-2.092,1.779-2.092,3.084c0,1.836,0.883,3.127,2.174,3.127c1.307,0,2.147-1.182,2.147-3.019
		C206.107,56.302,205.237,55.065,203.876,55.065z"/>
	<path fill="#FFFFFF" d="M217.203,61.576v-0.353c1.062-0.111,1.088-0.125,1.088-1.348V57.39c0-1.496-0.353-2.025-1.332-2.025
		c-0.557,0-1.02,0.205-1.306,0.572c-0.366,0.463-0.461,0.992-0.461,2.351v1.591c0,1.223,0.013,1.236,1.101,1.348v0.353h-3.412
		v-0.353c1.061-0.111,1.088-0.125,1.088-1.348V57.39c0-1.496-0.313-2.025-1.317-2.025c-0.544,0-1.007,0.205-1.292,0.544
		c-0.365,0.448-0.488,1.034-0.488,2.379v1.591c0,1.223,0.014,1.236,1.102,1.348v0.353h-3.413v-0.353
		c1.062-0.111,1.089-0.125,1.089-1.348v-3.671c0-0.528-0.163-0.666-0.775-0.666h-0.313v-0.339c0.911-0.041,1.74-0.26,2.313-0.584
		v1.195c0.678-0.828,1.399-1.195,2.473-1.195c0.951,0,1.388,0.311,1.781,1.195c0.748-0.828,1.481-1.195,2.461-1.195
		c0.91,0,1.453,0.311,1.738,0.992c0.149,0.354,0.191,0.746,0.191,1.427v2.841c0,1.223,0,1.236,1.088,1.348v0.353h-3.402V61.576z"/>
	<path fill="#FFFFFF" d="M225.637,61.737h-0.353c-1.307,0-2.055-0.311-2.652-1.031c-0.598-0.734-0.924-1.713-0.924-2.65
		c0-0.925,0.34-1.85,0.91-2.486c0.545-0.612,1.346-0.951,2.242-0.951c1.21,0,2.053,0.624,2.393,1.738
		c0.123,0.408,0.164,0.734,0.15,1.455h-4.377c0.014,0.992,0.258,1.78,0.721,2.324c0.447,0.53,1.061,0.814,1.875,0.814
		c0.502,0,0.896-0.121,1.576-0.463l0.205,0.408L225.637,61.737z M224.767,55.065c-0.773,0-1.348,0.475-1.59,1.317
		c-0.082,0.259-0.109,0.476-0.149,0.938h2.337c0.612,0,0.87-0.23,0.87-0.788C226.235,55.703,225.625,55.065,224.767,55.065z"/>
</g>
<g>
	<path fill="#FFFFFF" d="M56.41,43.708c-0.124,0.559-0.248,0.713-0.992,0.992c-1.984,0.744-4.62,1.209-6.791,1.209
		c-2.915,0-5.798-0.806-7.875-2.449c-2.388-1.891-3.969-4.93-3.969-8.712c0-3.442,1.396-6.697,4.372-8.96
		c1.953-1.488,4.837-2.326,8.186-2.326c2.139,0,4.372,0.465,5.922,1.116c0.806,0.341,1.085,0.62,1.085,1.271v3.876h-0.868
		c-0.186-0.961-0.434-1.674-0.775-2.264c-1.054-1.829-3.225-2.821-5.488-2.821c-4.713,0-7.659,3.752-7.659,9.953
		c0,3.162,0.806,5.922,2.387,7.782c1.209,1.427,3.07,2.325,5.271,2.325c2.232,0,4.341-0.868,5.705-2.542
		c0.558-0.683,0.93-1.271,1.519-2.45h0.837L56.41,43.708z"/>
	<path fill="#FFFFFF" d="M65.118,45.909c-2.108,0-4.837-0.526-5.829-1.022c-0.248-0.124-0.311-0.218-0.311-0.559v-4.65h0.868
		c0.248,1.24,0.527,2.077,0.961,2.821c0.806,1.303,2.139,2.201,3.845,2.201c2.326,0,4.031-1.674,4.031-3.875
		c0-1.83-1.023-3.225-5.24-6.202c-3.007-2.108-4.248-3.566-4.248-5.829c0-4,4.155-5.333,7.472-5.333c1.83,0,4,0.186,4.682,0.496
		c0.372,0.155,0.434,0.279,0.434,0.744v4.031h-0.868c-0.868-2.884-2.016-4.062-4.031-4.062c-1.798,0-3.039,1.24-3.039,3.069
		c0,0.62,0.155,1.178,0.434,1.612c0.558,0.93,0.868,1.24,3.721,3.349c4.062,3.008,5.426,4.651,5.426,7.132
		C73.428,43.522,70.203,45.909,65.118,45.909z"/>
	<path fill="#FFFFFF" d="M95.097,43.708c-0.124,0.559-0.248,0.713-0.992,0.992c-1.984,0.744-4.62,1.209-6.79,1.209
		c-2.915,0-5.798-0.806-7.875-2.449c-2.387-1.891-3.969-4.93-3.969-8.712c0-3.442,1.395-6.697,4.372-8.96
		c1.954-1.488,4.837-2.326,8.186-2.326c2.14,0,4.372,0.465,5.922,1.116c0.806,0.341,1.085,0.62,1.085,1.271v3.876h-0.868
		c-0.187-0.961-0.435-1.674-0.775-2.264c-1.054-1.829-3.225-2.821-5.488-2.821c-4.713,0-7.658,3.752-7.658,9.953
		c0,3.162,0.806,5.922,2.388,7.782c1.209,1.427,3.069,2.325,5.271,2.325c2.232,0,4.341-0.868,5.705-2.542
		c0.559-0.683,0.931-1.271,1.52-2.45h0.837L95.097,43.708z"/>
	<path fill="#FFFFFF" d="M109.014,33.135l-0.651,0.806c-0.093,0.124-0.248,0.279-0.435,0.279c-0.186,0-0.372-0.093-0.527-0.155
		l-1.426-0.589c-0.403-0.155-0.682-0.311-1.085-0.311c-0.651,0-1.023,0.403-1.303,1.271c-0.217,0.713-0.248,2.077-0.248,3.101v4.341
		c0,2.573,0.372,2.48,2.822,2.697v0.962h-9.364v-0.962c2.294-0.186,2.449-0.278,2.449-2.697v-8.062c0-1.333-0.403-1.798-1.674-1.86
		c0,0-0.62-0.031-0.744-0.031v-0.93c2.635-0.063,4.898-0.559,6.511-1.333v3.255l1.427-1.798c0.899-1.116,1.271-1.458,2.046-1.458
		c0.589,0,0.961,0.403,1.333,0.992l0.992,1.55c0.124,0.186,0.155,0.279,0.155,0.403C109.293,32.763,109.231,32.887,109.014,33.135z"
		/>
	<path fill="#FFFFFF" d="M110.096,45.538v-0.962c2.294-0.217,2.387-0.31,2.387-2.697v-8.062c0-1.333-0.403-1.892-1.705-1.892
		c0,0-0.558,0-0.682,0v-0.93c2.635-0.063,4.93-0.559,6.511-1.333v12.216c0,2.356,0.155,2.449,2.388,2.697v0.962H110.096z
		 M114.282,28.02c-1.271,0-2.264-1.023-2.264-2.295c0-1.178,1.023-2.201,2.264-2.201s2.263,0.992,2.263,2.264
		C116.545,27.058,115.553,28.02,114.282,28.02z"/>
</g>
</svg>
