<?xml version="1.0" encoding="utf-8"?>
<!-- Generator: Adobe Illustrator 16.0.0, SVG Export Plug-In . SVG Version: 6.00 Build 0)  -->
<!DOCTYPE svg PUBLIC "-//W3C//DTD SVG 1.1//EN" "http://www.w3.org/Graphics/SVG/1.1/DTD/svg11.dtd">
<svg version="1.1" id="new_logo" xmlns="http://www.w3.org/2000/svg" xmlns:xlink="http://www.w3.org/1999/xlink" x="0px" y="0px"
	 width="346px" height="79px" viewBox="-15.063 -3.143 346 79" enable-background="new -15.063 -3.143 346 79" xml:space="preserve"
	>
<rect x="-15.063" y="-2.018" fill="none" stroke="#240743" stroke-width="2" stroke-miterlimit="10" width="168.289" height="76.855"/>
<rect x="159.781" y="-3.143" fill="#939598" width="171.156" height="79"/>
<g>
	<path fill="#2C114A" d="M8.067,46.511v-0.916c1.216-0.059,1.662-0.385,1.662-1.181c0-0.296-0.089-0.592-0.238-1.005l-1.216-3.487
		H1.127l-1.216,3.487c-0.119,0.325-0.148,0.562-0.148,0.827c0,0.828,0.446,1.301,1.513,1.358v0.916h-5.844v-0.916
		c1.602-0.089,2.403-0.975,3.589-4.079l6.141-16.039H7.15l5.607,15.42c1.395,3.87,1.989,4.52,3.59,4.697v0.916H8.067z M4.923,29.85
		l-3.322,8.745h6.2L4.923,29.85z"/>
	<path fill="#2C114A" d="M33.171,45.212c-1.692,0.798-3.887,1.3-6.378,1.3h-9.346v-0.916c1.484-0.147,1.958-0.147,2.285-0.561
		c0.237-0.296,0.297-0.563,0.297-2.01V29.317c0-2.333-0.06-2.422-2.582-2.599v-0.887h10.68c2.047,0,3.828,0.295,5.311,0.917
		c3.53,1.448,5.667,4.549,5.667,8.861C39.105,40.072,36.881,43.497,33.171,45.212z M29.729,27.338
		c-0.919-0.295-2.077-0.472-3.352-0.472h-2.165v15.422c0,2.776,0.356,3.16,2.462,3.16c1.75,0,3.233-0.384,4.331-1.122
		c2.404-1.597,3.59-4.787,3.59-8.391C34.596,31.593,32.905,28.374,29.729,27.338z"/>
	<path fill="#2C114A" d="M54.982,30.559c-0.683-2.866-1.423-3.604-3.53-3.604h-3.472v8.804h2.759c1.838,0,2.581-0.739,2.729-2.806
		H54.3v6.883h-0.831c-0.178-2.068-0.891-2.925-2.729-2.925h-2.759v6.115c0,2.304,0.06,2.393,2.581,2.57v0.916h-9.375v-0.916
		c2.521-0.178,2.581-0.266,2.581-2.57V29.317c0-2.333-0.059-2.422-2.581-2.599v-0.887h14.596v4.728H54.982z"/>
	<path fill="#2C114A" d="M82.311,44.769c-0.119,0.531-0.238,0.68-0.95,0.945c-1.899,0.708-4.42,1.153-6.497,1.153
		c-2.789,0-5.548-0.769-7.535-2.335c-2.284-1.803-3.797-4.697-3.797-8.302c0-3.278,1.335-6.381,4.183-8.538
		c1.87-1.418,4.628-2.215,7.832-2.215c2.048,0,4.184,0.443,5.667,1.063c0.771,0.325,1.039,0.591,1.039,1.211v3.693h-0.831
		c-0.178-0.917-0.415-1.596-0.742-2.157c-1.009-1.744-3.084-2.689-5.251-2.689c-4.509,0-7.327,3.574-7.327,9.483
		c0,3.014,0.771,5.642,2.284,7.413c1.157,1.359,2.937,2.216,5.043,2.216c2.136,0,4.154-0.826,5.459-2.422
		c0.535-0.65,0.891-1.211,1.455-2.334h0.801L82.311,44.769z"/>
	<path fill="#2C114A" d="M92.374,46.868c-4.391,0-7.743-3.162-7.743-7.593c0-4.669,3.737-7.889,8.306-7.889
		c4.599,0,7.772,3.131,7.772,7.533C100.709,43.44,97.18,46.868,92.374,46.868z M92.611,32.361c-3.174,0-3.768,4.401-3.768,6.766
		c0,4.194,1.483,6.734,3.887,6.734c2.402,0,3.767-2.451,3.767-6.527C96.497,35.05,95.164,32.361,92.611,32.361z"/>
	<path fill="#2C114A" d="M115.103,35.167l-5.251,11.344h-1.632l-5.103-11.698c-0.712-1.625-1.187-2.069-2.403-2.157v-0.917h8.248
		v0.917c-1.513,0.03-2.018,0.266-2.018,0.946c0,0.177,0.03,0.295,0.238,0.857l3.144,7.888l3.382-7.65
		c0.178-0.414,0.237-0.68,0.237-0.857c0-1.182-1.692-1.152-2.492-1.182V31.74h6.229v0.917
		C116.409,32.775,116.022,33.159,115.103,35.167z"/>
	<path fill="#2C114A" d="M121.931,38.33c0.03,2.273,0.445,3.722,1.306,4.786c0.861,1.063,2.136,1.682,3.708,1.682
		c1.158,0,2.136-0.353,3.56-1.209l0.624,1.032l-4.005,2.247h-0.712c-2.699,0-4.658-0.414-6.259-2.011
		c-1.483-1.476-2.313-3.75-2.313-5.995c0-2.215,0.891-4.195,2.254-5.555c1.276-1.271,3.145-1.919,5.222-1.919
		c2.758,0,4.687,1.241,5.428,3.456c0.326,0.975,0.415,1.744,0.415,3.487L121.931,38.33L121.931,38.33z M125.076,32.42
		c-1.336,0-2.375,0.916-2.818,2.51c-0.178,0.65-0.267,1.181-0.327,2.334h4.243c1.039,0,1.455-0.502,1.455-1.712
		C127.628,33.719,126.589,32.42,125.076,32.42z"/>
	<path fill="#2C114A" d="M144.333,34.695l-0.624,0.767c-0.088,0.118-0.237,0.266-0.415,0.266c-0.178,0-0.356-0.089-0.505-0.148
		l-1.365-0.562c-0.386-0.148-0.652-0.296-1.038-0.296c-0.623,0-0.979,0.384-1.247,1.21c-0.207,0.68-0.237,1.979-0.237,2.954v4.136
		c0,2.452,0.356,2.365,2.7,2.571v0.916h-8.959v-0.916c2.196-0.178,2.343-0.266,2.343-2.571v-7.681c0-1.27-0.386-1.714-1.603-1.772
		c0,0-0.594-0.03-0.712-0.03v-0.887c2.521-0.059,4.688-0.532,6.23-1.271v3.102l1.365-1.713c0.86-1.064,1.216-1.389,1.958-1.389
		c0.564,0,0.919,0.384,1.277,0.946l0.949,1.477c0.119,0.177,0.148,0.267,0.148,0.384C144.6,34.34,144.541,34.458,144.333,34.695z"/>
</g>
<g>
	<path fill="#FFFFFF" d="M179.713,22.562v-0.399c0.692-0.031,0.923-0.184,0.923-0.598c0-0.168-0.046-0.367-0.124-0.582l-0.661-1.978
		h-3.864l-0.709,2.039c-0.046,0.123-0.063,0.246-0.063,0.353c0,0.459,0.262,0.735,0.816,0.766v0.399h-2.849v-0.399
		c0.63-0.015,1.063-0.444,1.433-1.426l3.402-9.092h0.894l3.109,9.168c0.354,1.026,0.631,1.318,1.262,1.348v0.399L179.713,22.562
		L179.713,22.562z M178.097,13.349l-1.895,5.074h3.464L178.097,13.349z"/>
	<path fill="#FFFFFF" d="M189.961,22.746c-0.17-0.184-0.277-0.475-0.324-0.813c-0.016-0.138-0.03-0.23-0.03-0.368l-1.354,0.798
		c-0.491,0.291-0.769,0.383-1.293,0.383c-1.71,0-2.386-0.844-2.386-2.989v-3.251c0-0.612-0.187-0.751-0.879-0.751h-0.354v-0.382
		c1.017-0.046,1.97-0.292,2.617-0.661v4.905c0,1.273,0.186,2.208,1.647,2.208c0.877,0,1.584-0.459,1.816-1.211
		c0.138-0.429,0.2-1.088,0.2-1.809v-2.301c0-0.613-0.168-0.751-0.861-0.751h-0.371v-0.383c1.032-0.045,1.973-0.292,2.619-0.659
		c0,2.452,0,5.611,0,5.611c0,1.319,0.076,1.411,0.537,1.411c0.138,0,0.278-0.031,0.525-0.107l0.092,0.429L189.961,22.746z"/>
	<path fill="#FFFFFF" d="M195.312,22.746c-0.768,0-1.354-0.123-2.016-0.414v-1.718h0.399c0.031,0.383,0.094,0.705,0.247,0.936
		c0.276,0.413,0.847,0.673,1.446,0.673c0.832,0,1.417-0.567,1.417-1.349c0-0.72-0.262-1.042-1.724-2.023
		c-1.416-0.951-1.771-1.396-1.771-2.162c0-1.182,1.049-1.978,2.588-1.978c0.601,0,1.093,0.046,1.708,0.245v1.518h-0.399
		c-0.046-0.292-0.077-0.414-0.154-0.567c-0.229-0.414-0.616-0.689-1.231-0.689c-0.691,0-1.201,0.429-1.201,1.011
		c0,0.229,0.094,0.505,0.247,0.674c0.263,0.291,0.263,0.291,1.677,1.288c1.232,0.873,1.632,1.395,1.632,2.208
		C198.176,21.811,197.053,22.746,195.312,22.746z"/>
	<path fill="#FFFFFF" d="M202.097,22.746c-0.814-0.031-1.152-0.169-1.491-0.583c-0.308-0.382-0.446-0.903-0.446-1.839v-4.385h-1.229
		V15.25h1.229v-1.61l0.97-0.843h0.417v2.452h2.355v0.414l-0.632,0.276h-1.724c0,4.063,0,0,0,4.063c0,0.919,0.108,1.839,1.232,1.839
		c0.339,0,0.646-0.077,1-0.199l0.123,0.399L202.097,22.746z"/>
	<path fill="#FFFFFF" d="M209.733,16.138l-0.354,0.276c-0.047,0.031-0.093,0.077-0.155,0.077c-0.046,0-0.107-0.031-0.137-0.046
		l-0.51-0.261c-0.169-0.091-0.294-0.107-0.493-0.107c-0.354,0-0.554,0.199-0.707,0.583c-0.139,0.352-0.139,1.181-0.139,1.595v2.391
		c0,1.487,0.122,1.441,1.555,1.518v0.399h-4.203v-0.399c1.278-0.061,1.262-0.184,1.262-1.518v-4.14c0-0.613-0.184-0.751-0.878-0.751
		h-0.354v-0.383c1.031-0.045,1.956-0.292,2.618-0.659v1.411l0.708-0.828c0.447-0.521,0.57-0.582,0.909-0.582
		c0.247,0,0.398,0.123,0.585,0.459l0.385,0.689c0.031,0.062,0.045,0.092,0.045,0.123C209.87,16.046,209.825,16.077,209.733,16.138z"
		/>
	<path fill="#FFFFFF" d="M215.208,22.73c-0.23-0.384-0.354-0.798-0.37-1.211l-1.184,0.797c-0.509,0.353-0.755,0.429-1.125,0.429
		c-1.184,0-1.999-0.844-1.999-2.07c0-0.857,0.383-1.457,1.168-1.916c0.369-0.214,0.754-0.384,1.478-0.66l1.678-0.644
		c-0.016-1.625-0.445-2.238-1.322-2.238c-0.725,0-1.124,0.552-1.432,1.118c-0.048,0.092-0.185,0.368-0.324,0.368
		c-0.03,0-0.077,0-0.123-0.015l-0.478-0.123c-0.093-0.03-0.139-0.092-0.123-0.153l0.231-0.858c0.075-0.276,0.122-0.322,0.4-0.445
		c0.569-0.26,1.277-0.398,1.971-0.398c1.814,0,2.585,0.736,2.585,2.452v3.404c0,0.873,0.14,1.149,0.539,1.149
		c0.139,0,0.278-0.031,0.523-0.108l0.092,0.431L215.208,22.73z M214.854,18.04c-0.77,0.276-1.031,0.383-1.369,0.521
		c-1.063,0.445-1.569,1.058-1.569,1.932c0,0.768,0.507,1.303,1.261,1.303c1.093,0,1.677-0.875,1.677-2.56L214.854,18.04
		L214.854,18.04z"/>
	<path fill="#FFFFFF" d="M218.145,22.562v-0.399c1.201-0.122,1.232-0.138,1.232-1.518v-7.619c0-0.399-0.031-0.629-0.185-0.751
		c-0.108-0.092-0.293-0.123-0.603-0.123h-0.429v-0.414c0.86-0.016,1.861-0.184,2.601-0.444v9.351c0,1.379,0,1.396,1.23,1.518v0.399
		H218.145z"/>
	<path fill="#FFFFFF" d="M222.854,22.562v-0.399c1.2-0.122,1.232-0.138,1.232-1.518v-4.14c0-0.613-0.17-0.751-0.879-0.751h-0.354
		v-0.383c1.029-0.045,1.97-0.292,2.617-0.659v5.933c0,1.288-0.031,1.396,1.23,1.518v0.399H222.854z M224.593,13.701
		c-0.493,0-0.894-0.398-0.894-0.904c0-0.46,0.416-0.874,0.908-0.874c0.479,0,0.893,0.399,0.893,0.89
		C225.5,13.316,225.102,13.701,224.593,13.701z"/>
	<path fill="#FFFFFF" d="M232.395,22.73c-0.23-0.384-0.354-0.798-0.369-1.211l-1.185,0.797c-0.509,0.353-0.755,0.429-1.126,0.429
		c-1.183,0-1.998-0.844-1.998-2.07c0-0.857,0.385-1.457,1.169-1.916c0.368-0.214,0.755-0.384,1.478-0.66l1.678-0.644
		c-0.016-1.625-0.446-2.238-1.322-2.238c-0.723,0-1.125,0.552-1.433,1.118c-0.047,0.092-0.185,0.368-0.324,0.368
		c-0.029,0-0.076,0-0.121-0.015l-0.479-0.123c-0.094-0.03-0.14-0.092-0.123-0.153l0.231-0.858c0.074-0.276,0.122-0.322,0.399-0.445
		c0.568-0.26,1.277-0.398,1.971-0.398c1.816,0,2.587,0.736,2.587,2.452v3.404c0,0.873,0.137,1.149,0.538,1.149
		c0.138,0,0.277-0.031,0.524-0.108l0.092,0.431L232.395,22.73z M232.041,18.04c-0.769,0.276-1.031,0.383-1.369,0.521
		c-1.063,0.445-1.57,1.058-1.57,1.932c0,0.768,0.507,1.303,1.261,1.303c1.092,0,1.679-0.875,1.679-2.56V18.04L232.041,18.04z"/>
	<path fill="#FFFFFF" d="M240.689,22.562v-0.399c1.322-0.138,1.231-0.306,1.231-1.518V17.81c0-1.672-0.446-2.269-1.738-2.269
		c-1.279,0-1.896,0.689-2.11,1.641c-0.093,0.414-0.122,0.873-0.122,1.579c0,1.886,0,0,0,1.886c0,1.334,0.016,1.349,1.247,1.518
		v0.398h-3.866v-0.398c1.203-0.169,1.232-0.215,1.232-1.518v-4.154c0-0.614-0.185-0.752-0.878-0.752h-0.354v-0.383
		c1.032-0.046,1.971-0.275,2.619-0.644v1.334c0.861-0.919,1.847-1.334,3.078-1.334c1.154,0,1.848,0.49,2.14,1.302
		c0.123,0.368,0.139,0.707,0.139,1.396v3.235c0,1.302-0.062,1.396,1.231,1.518v0.398L240.689,22.562L240.689,22.562z"/>
	<path fill="#FFFFFF" d="M180.528,40.815c-0.693,0.229-1.571,0.352-2.495,0.352h-4.45v-0.399c0.877-0.075,1.063-0.12,1.202-0.337
		c0.108-0.168,0.108-0.229,0.108-1.18v-6.899c0-1.411,0-1.426-1.309-1.533v-0.383h5.08c1.093,0,2,0.122,2.739,0.414
		c1.878,0.721,2.91,2.346,2.91,4.553C184.315,37.994,182.884,40.048,180.528,40.815z M179.851,31.141
		c-0.492-0.138-1.123-0.23-1.816-0.23h-1.647v8.078c0,1.411,0.276,1.672,1.663,1.672c0.938,0,1.785-0.154,2.402-0.49
		c1.34-0.721,2.109-2.313,2.109-4.461C182.561,33.287,181.544,31.631,179.851,31.141z"/>
	<path fill="#FFFFFF" d="M190.036,41.352h-0.399c-1.479,0-2.324-0.354-3.002-1.165c-0.678-0.827-1.048-1.932-1.048-2.989
		c0-1.042,0.388-2.085,1.031-2.805c0.617-0.69,1.524-1.073,2.542-1.073c1.369,0,2.325,0.706,2.708,1.962
		c0.14,0.459,0.186,0.827,0.17,1.641h-4.957c0.016,1.12,0.293,2.009,0.816,2.623c0.507,0.596,1.2,0.919,2.124,0.919
		c0.57,0,1.017-0.14,1.786-0.521l0.23,0.459L190.036,41.352z M189.051,33.825c-0.878,0-1.523,0.536-1.802,1.486
		c-0.092,0.291-0.124,0.536-0.168,1.058h2.647c0.691,0,0.984-0.26,0.984-0.89C190.714,34.544,190.021,33.825,189.051,33.825z"/>
	<path fill="#FFFFFF" d="M198.238,30.835l-0.217,0.321c-0.045,0.062-0.094,0.108-0.169,0.108c-0.047,0-0.108-0.016-0.17-0.046
		l-0.554-0.245c-0.524-0.23-0.722-0.276-0.907-0.276c-0.445,0-0.585,0.26-0.585,1.18v1.994h2.125v0.398l-0.632,0.275h-1.491v4.707
		c0,0.476,0.016,0.889,0.045,1.012c0.093,0.353,0.493,0.46,1.524,0.505v0.4h-4.188v-0.4c0.092,0,0.185-0.014,0.261-0.014
		c0.938-0.063,0.987-0.169,0.987-1.503v-4.707h-1.063v-0.674h1.063v-1.243c0-0.919,0.413-1.518,1.538-2.223
		c0.616-0.383,0.985-0.536,1.385-0.536c0.124,0,0.248,0.045,0.325,0.107l0.677,0.552c0.061,0.046,0.107,0.092,0.107,0.138
		C198.3,30.712,198.298,30.743,198.238,30.835z"/>
	<path fill="#FFFFFF" d="M202.621,41.352h-0.4c-1.477,0-2.323-0.354-3.002-1.165c-0.676-0.827-1.045-1.932-1.045-2.989
		c0-1.042,0.386-2.085,1.03-2.805c0.618-0.69,1.524-1.073,2.541-1.073c1.37,0,2.325,0.706,2.71,1.962
		c0.138,0.459,0.185,0.827,0.169,1.641h-4.959c0.018,1.12,0.294,2.009,0.817,2.623c0.508,0.596,1.202,0.919,2.125,0.919
		c0.57,0,1.017-0.14,1.785-0.521l0.231,0.459L202.621,41.352z M201.636,33.825c-0.876,0-1.524,0.536-1.801,1.486
		c-0.093,0.291-0.123,0.536-0.17,1.058h2.649c0.693,0,0.986-0.26,0.986-0.89C203.301,34.544,202.607,33.825,201.636,33.825z"/>
	<path fill="#FFFFFF" d="M210.962,41.168v-0.4c1.323-0.136,1.231-0.305,1.231-1.517v-2.836c0-1.672-0.446-2.269-1.739-2.269
		c-1.278,0-1.896,0.689-2.109,1.64c-0.093,0.414-0.122,0.874-0.122,1.579c0,1.886,0,0,0,1.886c0,1.334,0.014,1.348,1.246,1.517v0.4
		h-3.865v-0.4c1.202-0.167,1.232-0.214,1.232-1.517v-4.154c0-0.614-0.184-0.752-0.878-0.752h-0.354v-0.383
		c1.032-0.046,1.972-0.275,2.619-0.643v1.334c0.862-0.92,1.848-1.334,3.079-1.334c1.154,0,1.848,0.49,2.139,1.302
		c0.123,0.368,0.14,0.706,0.14,1.396v3.235c0,1.303-0.063,1.396,1.23,1.517v0.4H210.962z"/>
	<path fill="#FFFFFF" d="M222.286,34.958l-0.492,0.291c-0.03,0.015-0.091,0.031-0.138,0.031c-0.046,0-0.094-0.031-0.139-0.092
		l-0.677-0.798c-0.323-0.368-0.724-0.552-1.216-0.552c-1.401,0-2.31,1.243-2.31,3.021c0,2.038,1.093,3.604,2.896,3.604
		c0.569,0,0.999-0.14,1.753-0.537l0.263,0.46l-2.049,0.966h-0.369c-1.213,0-2.186-0.399-2.862-1.073
		c-0.754-0.752-1.155-1.825-1.155-3.021c0-2.253,1.725-3.939,4.126-3.939c0.74,0,1.341,0.138,1.877,0.398l0.557,1.026
		c0.015,0.031,0.015,0.062,0.015,0.092C222.363,34.881,222.349,34.913,222.286,34.958z"/>
	<path fill="#FFFFFF" d="M227.641,41.352h-0.399c-1.479,0-2.324-0.354-3.002-1.165c-0.678-0.827-1.047-1.932-1.047-2.989
		c0-1.042,0.386-2.085,1.031-2.805c0.616-0.69,1.524-1.073,2.54-1.073c1.371,0,2.325,0.706,2.71,1.962
		c0.139,0.459,0.185,0.827,0.169,1.641h-4.957c0.016,1.12,0.293,2.009,0.816,2.623c0.508,0.596,1.199,0.919,2.125,0.919
		c0.569,0,1.016-0.14,1.785-0.521l0.23,0.459L227.641,41.352z M226.654,33.825c-0.877,0-1.523,0.536-1.8,1.486
		c-0.093,0.291-0.124,0.536-0.17,1.058h2.648c0.692,0,0.985-0.26,0.985-0.89C228.318,34.544,227.625,33.825,226.654,33.825z"/>
	<path fill="#FFFFFF" d="M240.598,32.889c-0.308-1.625-0.632-1.978-1.786-1.978h-1.894v4.738h1.432c1,0,1.37-0.338,1.446-1.365
		h0.399v3.281h-0.399c-0.106-1.058-0.431-1.44-1.446-1.44h-1.432v3.127c0,1.396,0,1.41,1.307,1.517v0.4h-4.111v-0.4
		c1.31-0.106,1.31-0.121,1.31-1.517v-6.899c0-1.411,0-1.426-1.31-1.533v-0.383h6.868v2.453H240.598z"/>
	<path fill="#FFFFFF" d="M245.599,41.352c-2.232,0-3.787-1.748-3.787-3.925c0-2.346,1.725-4.108,4.094-4.108
		c2.279,0,3.85,1.609,3.85,3.939C249.754,39.604,247.998,41.352,245.599,41.352z M245.704,33.825c-1.815,0-2.37,2.008-2.37,3.48
		c0,2.07,1.001,3.525,2.464,3.525c1.477,0,2.432-1.334,2.432-3.401C248.229,35.219,247.245,33.825,245.704,33.825z"/>
	<path fill="#FFFFFF" d="M255.877,34.744l-0.354,0.276c-0.045,0.031-0.093,0.077-0.153,0.077c-0.047,0-0.108-0.031-0.139-0.046
		l-0.509-0.261c-0.168-0.092-0.292-0.107-0.493-0.107c-0.354,0-0.553,0.199-0.707,0.582c-0.139,0.353-0.139,1.181-0.139,1.594v2.393
		c0,1.487,0.122,1.44,1.554,1.517v0.4h-4.203v-0.4c1.279-0.061,1.263-0.183,1.263-1.517v-4.14c0-0.613-0.185-0.75-0.877-0.75h-0.354
		v-0.383c1.031-0.046,1.956-0.292,2.618-0.659v1.411l0.709-0.828c0.446-0.521,0.57-0.582,0.908-0.582
		c0.246,0,0.397,0.122,0.585,0.459l0.384,0.689c0.031,0.062,0.046,0.092,0.046,0.123C256.015,34.652,255.969,34.683,255.877,34.744z
		"/>
	<path fill="#FFFFFF" d="M263.139,34.958l-0.492,0.291c-0.031,0.015-0.092,0.031-0.138,0.031s-0.093-0.031-0.139-0.092l-0.678-0.798
		c-0.322-0.368-0.723-0.552-1.216-0.552c-1.399,0-2.31,1.243-2.31,3.021c0,2.038,1.093,3.604,2.895,3.604
		c0.569,0,1.001-0.14,1.755-0.537l0.263,0.46l-2.048,0.966h-0.37c-1.215,0-2.185-0.399-2.861-1.073
		c-0.755-0.752-1.156-1.825-1.156-3.021c0-2.253,1.726-3.939,4.126-3.939c0.741,0,1.34,0.138,1.879,0.398l0.554,1.026
		c0.016,0.031,0.016,0.062,0.016,0.092C263.216,34.881,263.2,34.913,263.139,34.958z"/>
	<path fill="#FFFFFF" d="M268.493,41.352h-0.399c-1.479,0-2.324-0.354-3.002-1.165c-0.679-0.827-1.046-1.932-1.046-2.989
		c0-1.042,0.385-2.085,1.03-2.805c0.616-0.69,1.524-1.073,2.54-1.073c1.37,0,2.325,0.706,2.709,1.962
		c0.14,0.459,0.185,0.827,0.169,1.641h-4.956c0.016,1.12,0.293,2.009,0.817,2.623c0.507,0.596,1.199,0.919,2.123,0.919
		c0.569,0,1.017-0.14,1.785-0.521l0.23,0.459L268.493,41.352z M267.507,33.825c-0.877,0-1.523,0.536-1.801,1.486
		c-0.093,0.291-0.123,0.536-0.169,1.058h2.647c0.692,0,0.985-0.26,0.985-0.89C269.171,34.544,268.478,33.825,267.507,33.825z"/>
	<path fill="#FFFFFF" d="M183.422,58.944c-0.076,0.309-0.123,0.37-0.569,0.521c-0.925,0.323-2.188,0.492-3.235,0.492
		c-1.445,0-2.815-0.43-3.893-1.242c-1.217-0.919-2.019-2.362-2.019-4.264c0-1.546,0.694-3.262,2.188-4.384
		c0.985-0.735,2.31-1.211,4.018-1.211c1.063,0,2.232,0.231,2.925,0.521c0.446,0.185,0.584,0.322,0.584,0.69v1.885h-0.399
		c-0.046-0.534-0.139-0.933-0.292-1.226c-0.446-0.843-1.709-1.349-2.988-1.349c-2.632,0-4.278,1.826-4.278,4.939
		c0,1.669,0.478,3.126,1.462,4.061c0.709,0.661,1.677,1.059,2.923,1.059c1.219,0,2.311-0.415,2.988-1.257
		c0.248-0.308,0.385-0.566,0.647-1.149h0.4L183.422,58.944z"/>
	<path fill="#FFFFFF" d="M188.682,59.958c-2.232,0-3.787-1.749-3.787-3.925c0-2.344,1.724-4.108,4.096-4.108
		c2.277,0,3.848,1.609,3.848,3.94C192.838,58.208,191.084,59.958,188.682,59.958z M188.789,52.429c-1.817,0-2.37,2.01-2.37,3.479
		c0,2.071,1,3.527,2.463,3.527c1.479,0,2.433-1.334,2.433-3.402C191.314,53.825,190.328,52.429,188.789,52.429z"/>
	<path fill="#FFFFFF" d="M200.072,53.887l-2.772,5.887h-0.492l-2.603-6.071c-0.385-0.889-0.632-1.149-1.263-1.196v-0.397h3.988
		v0.397c-1,0.015-1.34,0.168-1.34,0.599c0,0.092,0.016,0.214,0.123,0.474l1.771,4.479l1.971-4.4c0.123-0.26,0.153-0.397,0.153-0.488
		c0-0.615-0.876-0.646-1.309-0.662V52.11h3.095v0.396C200.73,52.583,200.593,52.782,200.072,53.887z"/>
	<path fill="#FFFFFF" d="M206.008,59.958h-0.399c-1.479,0-2.323-0.353-3.001-1.165c-0.679-0.83-1.047-1.932-1.047-2.989
		c0-1.041,0.385-2.084,1.031-2.806c0.615-0.69,1.524-1.072,2.539-1.072c1.368,0,2.324,0.707,2.71,1.963
		c0.139,0.459,0.185,0.827,0.168,1.64h-4.956c0.017,1.118,0.293,2.009,0.816,2.621c0.508,0.597,1.199,0.919,2.124,0.919
		c0.57,0,1.018-0.138,1.786-0.521l0.229,0.46L206.008,59.958z M205.023,52.429c-0.878,0-1.525,0.536-1.802,1.487
		c-0.093,0.291-0.123,0.535-0.169,1.059h2.647c0.692,0,0.985-0.261,0.985-0.89C206.686,53.152,205.991,52.429,205.023,52.429z"/>
	<path fill="#FFFFFF" d="M214.134,53.349l-0.354,0.276c-0.048,0.029-0.094,0.076-0.156,0.076c-0.046,0-0.107-0.031-0.138-0.047
		l-0.509-0.261c-0.168-0.092-0.291-0.108-0.492-0.108c-0.354,0-0.554,0.2-0.708,0.584c-0.139,0.353-0.139,1.181-0.139,1.593v2.393
		c0,1.487,0.122,1.439,1.555,1.518v0.4h-4.203v-0.4c1.278-0.06,1.263-0.184,1.263-1.518v-4.138c0-0.615-0.185-0.754-0.879-0.754
		h-0.353v-0.383c1.03-0.045,1.955-0.29,2.617-0.658v1.411l0.709-0.829c0.445-0.522,0.57-0.582,0.908-0.582
		c0.248,0,0.399,0.122,0.585,0.46l0.386,0.69c0.03,0.06,0.044,0.091,0.044,0.122C214.271,53.257,214.227,53.288,214.134,53.349z"/>
</g>
</svg>
